<?xml version="1.0" standalone="no"?>
 <!DOCTYPE svg PUBLIC "-//W3C//DTD SVG 1.1//EN" 
 "http://www.w3.org/Graphics/SVG/1.1/DTD/svg11.dtd"> 
<svg xmlns="http://www.w3.org/2000/svg" version="1.1" 
    width="29.7002cm" height="21.0007cm" viewBox="0 0 116930 82680 ">
<title>SVG Picture created as Mother 32 Interal PSU-Eco1.User.svg date 2017/01/08 12:26:22 </title>
  <desc>Picture generated by PCBNEW </desc>
<g style="fill:#000000; fill-opacity:1;stroke:#000000; stroke-opacity:1;
stroke-linecap:round; stroke-linejoin:round; "
 transform="translate(0 0) scale(1 1)">
</g>
<g style="fill:#000000; fill-opacity:0.0; 
stroke:#000000; stroke-width:-0.000393701; stroke-opacity:1; 
stroke-linecap:round; stroke-linejoin:round;">
</g>
<g style="fill:#000000; fill-opacity:0.0; 
stroke:#000000; stroke-width:78.7402; stroke-opacity:1; 
stroke-linecap:round; stroke-linejoin:round;">
<path d="M90125 44095
L92875 44095
" />
<path d="M91500 42695
L91500 45495
" />
<circle cx="91500" cy="44095" r="1393.96" /> 
<path d="M90125 31875
L92875 31875
" />
<path d="M91500 30475
L91500 33275
" />
<circle cx="91500" cy="31875" r="1393.96" /> 
<path d="M15625 44135
L18375 44135
" />
<path d="M17000 42735
L17000 45535
" />
<circle cx="17000" cy="44135" r="1393.96" /> 
<path d="M15625 31875
L18375 31875
" />
<path d="M17000 30475
L17000 33275
" />
<circle cx="17000" cy="31875" r="1393.96" /> 
<path d="M93500 30000
L15000 30000
" />
<path d="M93500 46000
L93500 30000
" />
<path d="M15000 46000
L93500 46000
" />
<path d="M15000 30000
L15000 46000
" />
<path d="M28800 41450
L28800 42650
" />
<path d="M28200 42050
L29400 42050
" />
<path d="M20800 38450
L20800 39650
" />
<path d="M20200 39050
L21400 39050
" />
<path d="M28800 37450
L28800 38650
" />
<path d="M28200 38050
L29400 38050
" />
<path d="M28800 33450
L28800 34650
" />
<path d="M28200 34050
L29400 34050
" />
<path d="M20200 37050
L21400 37050
" />
<path d="M20800 36450
L20800 37650
" />
<path d="M20200 34050
L21400 34050
" />
<path d="M20800 33450
L20800 34650
" />
</g> 
</svg>
