G04 #@! TF.FileFunction,Copper,L1,Top,Signal*
%FSLAX46Y46*%
G04 Gerber Fmt 4.6, Leading zero omitted, Abs format (unit mm)*
G04 Created by KiCad (PCBNEW 4.0.2-stable) date 2017-01-08 12:52:35 PM*
%MOMM*%
G01*
G04 APERTURE LIST*
%ADD10C,0.200000*%
%ADD11C,3.302000*%
%ADD12R,1.600000X3.000000*%
%ADD13R,1.600000X1.000000*%
%ADD14C,2.540000*%
%ADD15C,1.400000*%
%ADD16O,2.000000X1.500000*%
%ADD17R,2.000000X1.500000*%
%ADD18O,3.500000X2.500000*%
%ADD19R,3.500000X2.500000*%
%ADD20C,1.000000*%
%ADD21C,0.203200*%
G04 APERTURE END LIST*
D10*
D11*
X107950000Y-112077500D03*
X179070000Y-112077500D03*
X179070000Y-80962500D03*
X107950000Y-80962500D03*
X43180000Y-112077500D03*
X232410000Y-112077500D03*
X232410000Y-80962500D03*
D12*
X44196000Y-94529000D03*
X44196000Y-90129000D03*
D13*
X77597000Y-106656000D03*
X77597000Y-103656000D03*
X78232000Y-89257000D03*
X78232000Y-86257000D03*
X91567000Y-100354000D03*
X91567000Y-103354000D03*
D14*
X52832000Y-99187000D03*
X52832000Y-94107000D03*
X52832000Y-86487000D03*
X73152000Y-86487000D03*
X73152000Y-96647000D03*
X73152000Y-106807000D03*
D15*
X86614000Y-102870000D03*
X86614000Y-105410000D03*
X86614000Y-100330000D03*
D16*
X136140000Y-105410000D03*
X133100000Y-105410000D03*
X133100000Y-102870000D03*
X136140000Y-102870000D03*
X136140000Y-100330000D03*
X133100000Y-100330000D03*
X133100000Y-97790000D03*
X136140000Y-97790000D03*
X136140000Y-95250000D03*
X133100000Y-95250000D03*
D17*
X133100000Y-87630000D03*
D16*
X136140000Y-87630000D03*
X133100000Y-90170000D03*
X136140000Y-90170000D03*
X133100000Y-92710000D03*
X136140000Y-92710000D03*
X118360000Y-105410000D03*
X115320000Y-105410000D03*
X115320000Y-102870000D03*
X118360000Y-102870000D03*
X118360000Y-100330000D03*
X115320000Y-100330000D03*
X115320000Y-97790000D03*
X118360000Y-97790000D03*
X118360000Y-95250000D03*
X115320000Y-95250000D03*
D17*
X115320000Y-87630000D03*
D16*
X118360000Y-87630000D03*
X115320000Y-90170000D03*
X118360000Y-90170000D03*
X115320000Y-92710000D03*
X118360000Y-92710000D03*
X153920000Y-105410000D03*
X150880000Y-105410000D03*
X150880000Y-102870000D03*
X153920000Y-102870000D03*
X153920000Y-100330000D03*
X150880000Y-100330000D03*
X150880000Y-97790000D03*
X153920000Y-97790000D03*
X153920000Y-95250000D03*
X150880000Y-95250000D03*
D17*
X150880000Y-87630000D03*
D16*
X153920000Y-87630000D03*
X150880000Y-90170000D03*
X153920000Y-90170000D03*
X150880000Y-92710000D03*
X153920000Y-92710000D03*
X171700000Y-105410000D03*
X168660000Y-105410000D03*
X168660000Y-102870000D03*
X171700000Y-102870000D03*
X171700000Y-100330000D03*
X168660000Y-100330000D03*
X168660000Y-97790000D03*
X171700000Y-97790000D03*
X171700000Y-95250000D03*
X168660000Y-95250000D03*
D17*
X168660000Y-87630000D03*
D16*
X171700000Y-87630000D03*
X168660000Y-90170000D03*
X171700000Y-90170000D03*
X168660000Y-92710000D03*
X171700000Y-92710000D03*
X189480000Y-105410000D03*
X186440000Y-105410000D03*
X186440000Y-102870000D03*
X189480000Y-102870000D03*
X189480000Y-100330000D03*
X186440000Y-100330000D03*
X186440000Y-97790000D03*
X189480000Y-97790000D03*
X189480000Y-95250000D03*
X186440000Y-95250000D03*
D17*
X186440000Y-87630000D03*
D16*
X189480000Y-87630000D03*
X186440000Y-90170000D03*
X189480000Y-90170000D03*
X186440000Y-92710000D03*
X189480000Y-92710000D03*
X225040000Y-105410000D03*
X222000000Y-105410000D03*
X222000000Y-102870000D03*
X225040000Y-102870000D03*
X225040000Y-100330000D03*
X222000000Y-100330000D03*
X222000000Y-97790000D03*
X225040000Y-97790000D03*
X225040000Y-95250000D03*
X222000000Y-95250000D03*
D17*
X222000000Y-87630000D03*
D16*
X225040000Y-87630000D03*
X222000000Y-90170000D03*
X225040000Y-90170000D03*
X222000000Y-92710000D03*
X225040000Y-92710000D03*
X207260000Y-105410000D03*
X204220000Y-105410000D03*
X204220000Y-102870000D03*
X207260000Y-102870000D03*
X207260000Y-100330000D03*
X204220000Y-100330000D03*
X204220000Y-97790000D03*
X207260000Y-97790000D03*
X207260000Y-95250000D03*
X204220000Y-95250000D03*
D17*
X204220000Y-87630000D03*
D16*
X207260000Y-87630000D03*
X204220000Y-90170000D03*
X207260000Y-90170000D03*
X204220000Y-92710000D03*
X207260000Y-92710000D03*
X100580000Y-105410000D03*
X97540000Y-105410000D03*
X97540000Y-102870000D03*
X100580000Y-102870000D03*
X100580000Y-100330000D03*
X97540000Y-100330000D03*
X97540000Y-97790000D03*
X100580000Y-97790000D03*
X100580000Y-95250000D03*
X97540000Y-95250000D03*
D17*
X97540000Y-87630000D03*
D16*
X100580000Y-87630000D03*
X97540000Y-90170000D03*
X100580000Y-90170000D03*
X97540000Y-92710000D03*
X100580000Y-92710000D03*
D11*
X43180000Y-80962500D03*
D18*
X44069000Y-99239000D03*
D19*
X44069000Y-103199000D03*
D20*
X44069000Y-99239000D02*
X44069000Y-94656000D01*
X44069000Y-94656000D02*
X44196000Y-94529000D01*
X52832000Y-99187000D02*
X44121000Y-99187000D01*
X44121000Y-99187000D02*
X44069000Y-99239000D01*
X77597000Y-106656000D02*
X79732000Y-106656000D01*
X79732000Y-106656000D02*
X79756000Y-106680000D01*
X73152000Y-106807000D02*
X73279000Y-106680000D01*
X73279000Y-106680000D02*
X77573000Y-106680000D01*
X77573000Y-106680000D02*
X77597000Y-106656000D01*
X79819500Y-106656000D02*
X81026000Y-106656000D01*
X81026000Y-106656000D02*
X81026000Y-100266500D01*
X83502500Y-97790000D02*
X97790000Y-97790000D01*
X81026000Y-100266500D02*
X83502500Y-97790000D01*
X222250000Y-97790000D02*
X224790000Y-97790000D01*
X207010000Y-97790000D02*
X222250000Y-97790000D01*
X204470000Y-97790000D02*
X207010000Y-97790000D01*
X189230000Y-97790000D02*
X204470000Y-97790000D01*
X186690000Y-97790000D02*
X189230000Y-97790000D01*
X171450000Y-97790000D02*
X186690000Y-97790000D01*
X168910000Y-97790000D02*
X171450000Y-97790000D01*
X153670000Y-97790000D02*
X168910000Y-97790000D01*
X151130000Y-97790000D02*
X153670000Y-97790000D01*
X135890000Y-97790000D02*
X151130000Y-97790000D01*
X133350000Y-97790000D02*
X135890000Y-97790000D01*
X118110000Y-97790000D02*
X133350000Y-97790000D01*
X115570000Y-97790000D02*
X118110000Y-97790000D01*
X100330000Y-97790000D02*
X115570000Y-97790000D01*
X97790000Y-97790000D02*
X100330000Y-97790000D01*
X79819500Y-106656000D02*
X82701000Y-106656000D01*
X82701000Y-106656000D02*
X83947000Y-105410000D01*
X83947000Y-105410000D02*
X86614000Y-105410000D01*
X78232000Y-86257000D02*
X78208000Y-86233000D01*
X78208000Y-86233000D02*
X73406000Y-86233000D01*
X73406000Y-86233000D02*
X73152000Y-86487000D01*
X78232000Y-86257000D02*
X78256000Y-86233000D01*
X78256000Y-86233000D02*
X89789000Y-86233000D01*
X89789000Y-86233000D02*
X91186000Y-87630000D01*
X91186000Y-87630000D02*
X97790000Y-87630000D01*
X222250000Y-87630000D02*
X224790000Y-87630000D01*
X207010000Y-87630000D02*
X222250000Y-87630000D01*
X204470000Y-87630000D02*
X207010000Y-87630000D01*
X189230000Y-87630000D02*
X204470000Y-87630000D01*
X186690000Y-87630000D02*
X189230000Y-87630000D01*
X171450000Y-87630000D02*
X186690000Y-87630000D01*
X168910000Y-87630000D02*
X171450000Y-87630000D01*
X153670000Y-87630000D02*
X168910000Y-87630000D01*
X151130000Y-87630000D02*
X153670000Y-87630000D01*
X135890000Y-87630000D02*
X151130000Y-87630000D01*
X133350000Y-87630000D02*
X135890000Y-87630000D01*
X118110000Y-87630000D02*
X133350000Y-87630000D01*
X115570000Y-87630000D02*
X118110000Y-87630000D01*
X100330000Y-87630000D02*
X115570000Y-87630000D01*
X97790000Y-87630000D02*
X100330000Y-87630000D01*
X222250000Y-100330000D02*
X224790000Y-100330000D01*
X207010000Y-100330000D02*
X222250000Y-100330000D01*
X204470000Y-100330000D02*
X207010000Y-100330000D01*
X189230000Y-100330000D02*
X204470000Y-100330000D01*
X186690000Y-100330000D02*
X189230000Y-100330000D01*
X171450000Y-100330000D02*
X186690000Y-100330000D01*
X168910000Y-100330000D02*
X171450000Y-100330000D01*
X153670000Y-100330000D02*
X168910000Y-100330000D01*
X151130000Y-100330000D02*
X153670000Y-100330000D01*
X135890000Y-100330000D02*
X151130000Y-100330000D01*
X133350000Y-100330000D02*
X135890000Y-100330000D01*
X118110000Y-100330000D02*
X133350000Y-100330000D01*
X115570000Y-100330000D02*
X118110000Y-100330000D01*
X100330000Y-100330000D02*
X115570000Y-100330000D01*
X97790000Y-100330000D02*
X100330000Y-100330000D01*
X91567000Y-100354000D02*
X97766000Y-100354000D01*
X97766000Y-100354000D02*
X97790000Y-100330000D01*
X86614000Y-100330000D02*
X91543000Y-100330000D01*
X91543000Y-100330000D02*
X91567000Y-100354000D01*
D21*
G36*
X237059400Y-116409400D02*
X38530600Y-116409400D01*
X38530600Y-112801850D01*
X39521766Y-112801850D01*
X40077429Y-114146657D01*
X41105431Y-115176455D01*
X42449266Y-115734464D01*
X43904350Y-115735734D01*
X45249157Y-115180071D01*
X46278955Y-114152069D01*
X46836964Y-112808234D01*
X46836969Y-112801850D01*
X104291766Y-112801850D01*
X104847429Y-114146657D01*
X105875431Y-115176455D01*
X107219266Y-115734464D01*
X108674350Y-115735734D01*
X110019157Y-115180071D01*
X111048955Y-114152069D01*
X111606964Y-112808234D01*
X111606969Y-112801850D01*
X175411766Y-112801850D01*
X175967429Y-114146657D01*
X176995431Y-115176455D01*
X178339266Y-115734464D01*
X179794350Y-115735734D01*
X181139157Y-115180071D01*
X182168955Y-114152069D01*
X182726964Y-112808234D01*
X182726969Y-112801850D01*
X228751766Y-112801850D01*
X229307429Y-114146657D01*
X230335431Y-115176455D01*
X231679266Y-115734464D01*
X233134350Y-115735734D01*
X234479157Y-115180071D01*
X235508955Y-114152069D01*
X236066964Y-112808234D01*
X236068234Y-111353150D01*
X235512571Y-110008343D01*
X234484569Y-108978545D01*
X233140734Y-108420536D01*
X231685650Y-108419266D01*
X230340843Y-108974929D01*
X229311045Y-110002931D01*
X228753036Y-111346766D01*
X228751766Y-112801850D01*
X182726969Y-112801850D01*
X182728234Y-111353150D01*
X182172571Y-110008343D01*
X181144569Y-108978545D01*
X179800734Y-108420536D01*
X178345650Y-108419266D01*
X177000843Y-108974929D01*
X175971045Y-110002931D01*
X175413036Y-111346766D01*
X175411766Y-112801850D01*
X111606969Y-112801850D01*
X111608234Y-111353150D01*
X111052571Y-110008343D01*
X110024569Y-108978545D01*
X108680734Y-108420536D01*
X107225650Y-108419266D01*
X105880843Y-108974929D01*
X104851045Y-110002931D01*
X104293036Y-111346766D01*
X104291766Y-112801850D01*
X46836969Y-112801850D01*
X46838234Y-111353150D01*
X46282571Y-110008343D01*
X45254569Y-108978545D01*
X43910734Y-108420536D01*
X42455650Y-108419266D01*
X41110843Y-108974929D01*
X40081045Y-110002931D01*
X39523036Y-111346766D01*
X39521766Y-112801850D01*
X38530600Y-112801850D01*
X38530600Y-107128933D01*
X71526119Y-107128933D01*
X71773080Y-107726625D01*
X72229970Y-108184313D01*
X72827230Y-108432317D01*
X73473933Y-108432881D01*
X74071625Y-108185920D01*
X74529313Y-107729030D01*
X74609632Y-107535600D01*
X77572995Y-107535600D01*
X77573000Y-107535601D01*
X77658639Y-107518566D01*
X78397000Y-107518566D01*
X78434020Y-107511600D01*
X79635341Y-107511600D01*
X79756000Y-107535601D01*
X79876659Y-107511600D01*
X82700995Y-107511600D01*
X82701000Y-107511601D01*
X83028424Y-107446471D01*
X83306001Y-107261001D01*
X84301401Y-106265600D01*
X85976566Y-106265600D01*
X86015270Y-106304372D01*
X86403107Y-106465416D01*
X86823051Y-106465782D01*
X87211168Y-106305416D01*
X87508372Y-106008730D01*
X87669416Y-105620893D01*
X87669599Y-105410000D01*
X96157842Y-105410000D01*
X96242001Y-105833095D01*
X96481665Y-106191777D01*
X96840347Y-106431441D01*
X97263442Y-106515600D01*
X97816558Y-106515600D01*
X98239653Y-106431441D01*
X98598335Y-106191777D01*
X98837999Y-105833095D01*
X98922158Y-105410000D01*
X99197842Y-105410000D01*
X99282001Y-105833095D01*
X99521665Y-106191777D01*
X99880347Y-106431441D01*
X100303442Y-106515600D01*
X100856558Y-106515600D01*
X101279653Y-106431441D01*
X101638335Y-106191777D01*
X101877999Y-105833095D01*
X101962158Y-105410000D01*
X113937842Y-105410000D01*
X114022001Y-105833095D01*
X114261665Y-106191777D01*
X114620347Y-106431441D01*
X115043442Y-106515600D01*
X115596558Y-106515600D01*
X116019653Y-106431441D01*
X116378335Y-106191777D01*
X116617999Y-105833095D01*
X116702158Y-105410000D01*
X116977842Y-105410000D01*
X117062001Y-105833095D01*
X117301665Y-106191777D01*
X117660347Y-106431441D01*
X118083442Y-106515600D01*
X118636558Y-106515600D01*
X119059653Y-106431441D01*
X119418335Y-106191777D01*
X119657999Y-105833095D01*
X119742158Y-105410000D01*
X131717842Y-105410000D01*
X131802001Y-105833095D01*
X132041665Y-106191777D01*
X132400347Y-106431441D01*
X132823442Y-106515600D01*
X133376558Y-106515600D01*
X133799653Y-106431441D01*
X134158335Y-106191777D01*
X134397999Y-105833095D01*
X134482158Y-105410000D01*
X134757842Y-105410000D01*
X134842001Y-105833095D01*
X135081665Y-106191777D01*
X135440347Y-106431441D01*
X135863442Y-106515600D01*
X136416558Y-106515600D01*
X136839653Y-106431441D01*
X137198335Y-106191777D01*
X137437999Y-105833095D01*
X137522158Y-105410000D01*
X149497842Y-105410000D01*
X149582001Y-105833095D01*
X149821665Y-106191777D01*
X150180347Y-106431441D01*
X150603442Y-106515600D01*
X151156558Y-106515600D01*
X151579653Y-106431441D01*
X151938335Y-106191777D01*
X152177999Y-105833095D01*
X152262158Y-105410000D01*
X152537842Y-105410000D01*
X152622001Y-105833095D01*
X152861665Y-106191777D01*
X153220347Y-106431441D01*
X153643442Y-106515600D01*
X154196558Y-106515600D01*
X154619653Y-106431441D01*
X154978335Y-106191777D01*
X155217999Y-105833095D01*
X155302158Y-105410000D01*
X167277842Y-105410000D01*
X167362001Y-105833095D01*
X167601665Y-106191777D01*
X167960347Y-106431441D01*
X168383442Y-106515600D01*
X168936558Y-106515600D01*
X169359653Y-106431441D01*
X169718335Y-106191777D01*
X169957999Y-105833095D01*
X170042158Y-105410000D01*
X170317842Y-105410000D01*
X170402001Y-105833095D01*
X170641665Y-106191777D01*
X171000347Y-106431441D01*
X171423442Y-106515600D01*
X171976558Y-106515600D01*
X172399653Y-106431441D01*
X172758335Y-106191777D01*
X172997999Y-105833095D01*
X173082158Y-105410000D01*
X185057842Y-105410000D01*
X185142001Y-105833095D01*
X185381665Y-106191777D01*
X185740347Y-106431441D01*
X186163442Y-106515600D01*
X186716558Y-106515600D01*
X187139653Y-106431441D01*
X187498335Y-106191777D01*
X187737999Y-105833095D01*
X187822158Y-105410000D01*
X188097842Y-105410000D01*
X188182001Y-105833095D01*
X188421665Y-106191777D01*
X188780347Y-106431441D01*
X189203442Y-106515600D01*
X189756558Y-106515600D01*
X190179653Y-106431441D01*
X190538335Y-106191777D01*
X190777999Y-105833095D01*
X190862158Y-105410000D01*
X202837842Y-105410000D01*
X202922001Y-105833095D01*
X203161665Y-106191777D01*
X203520347Y-106431441D01*
X203943442Y-106515600D01*
X204496558Y-106515600D01*
X204919653Y-106431441D01*
X205278335Y-106191777D01*
X205517999Y-105833095D01*
X205602158Y-105410000D01*
X205877842Y-105410000D01*
X205962001Y-105833095D01*
X206201665Y-106191777D01*
X206560347Y-106431441D01*
X206983442Y-106515600D01*
X207536558Y-106515600D01*
X207959653Y-106431441D01*
X208318335Y-106191777D01*
X208557999Y-105833095D01*
X208642158Y-105410000D01*
X220617842Y-105410000D01*
X220702001Y-105833095D01*
X220941665Y-106191777D01*
X221300347Y-106431441D01*
X221723442Y-106515600D01*
X222276558Y-106515600D01*
X222699653Y-106431441D01*
X223058335Y-106191777D01*
X223297999Y-105833095D01*
X223382158Y-105410000D01*
X223657842Y-105410000D01*
X223742001Y-105833095D01*
X223981665Y-106191777D01*
X224340347Y-106431441D01*
X224763442Y-106515600D01*
X225316558Y-106515600D01*
X225739653Y-106431441D01*
X226098335Y-106191777D01*
X226337999Y-105833095D01*
X226422158Y-105410000D01*
X226337999Y-104986905D01*
X226098335Y-104628223D01*
X225739653Y-104388559D01*
X225316558Y-104304400D01*
X224763442Y-104304400D01*
X224340347Y-104388559D01*
X223981665Y-104628223D01*
X223742001Y-104986905D01*
X223657842Y-105410000D01*
X223382158Y-105410000D01*
X223297999Y-104986905D01*
X223058335Y-104628223D01*
X222699653Y-104388559D01*
X222276558Y-104304400D01*
X221723442Y-104304400D01*
X221300347Y-104388559D01*
X220941665Y-104628223D01*
X220702001Y-104986905D01*
X220617842Y-105410000D01*
X208642158Y-105410000D01*
X208557999Y-104986905D01*
X208318335Y-104628223D01*
X207959653Y-104388559D01*
X207536558Y-104304400D01*
X206983442Y-104304400D01*
X206560347Y-104388559D01*
X206201665Y-104628223D01*
X205962001Y-104986905D01*
X205877842Y-105410000D01*
X205602158Y-105410000D01*
X205517999Y-104986905D01*
X205278335Y-104628223D01*
X204919653Y-104388559D01*
X204496558Y-104304400D01*
X203943442Y-104304400D01*
X203520347Y-104388559D01*
X203161665Y-104628223D01*
X202922001Y-104986905D01*
X202837842Y-105410000D01*
X190862158Y-105410000D01*
X190777999Y-104986905D01*
X190538335Y-104628223D01*
X190179653Y-104388559D01*
X189756558Y-104304400D01*
X189203442Y-104304400D01*
X188780347Y-104388559D01*
X188421665Y-104628223D01*
X188182001Y-104986905D01*
X188097842Y-105410000D01*
X187822158Y-105410000D01*
X187737999Y-104986905D01*
X187498335Y-104628223D01*
X187139653Y-104388559D01*
X186716558Y-104304400D01*
X186163442Y-104304400D01*
X185740347Y-104388559D01*
X185381665Y-104628223D01*
X185142001Y-104986905D01*
X185057842Y-105410000D01*
X173082158Y-105410000D01*
X172997999Y-104986905D01*
X172758335Y-104628223D01*
X172399653Y-104388559D01*
X171976558Y-104304400D01*
X171423442Y-104304400D01*
X171000347Y-104388559D01*
X170641665Y-104628223D01*
X170402001Y-104986905D01*
X170317842Y-105410000D01*
X170042158Y-105410000D01*
X169957999Y-104986905D01*
X169718335Y-104628223D01*
X169359653Y-104388559D01*
X168936558Y-104304400D01*
X168383442Y-104304400D01*
X167960347Y-104388559D01*
X167601665Y-104628223D01*
X167362001Y-104986905D01*
X167277842Y-105410000D01*
X155302158Y-105410000D01*
X155217999Y-104986905D01*
X154978335Y-104628223D01*
X154619653Y-104388559D01*
X154196558Y-104304400D01*
X153643442Y-104304400D01*
X153220347Y-104388559D01*
X152861665Y-104628223D01*
X152622001Y-104986905D01*
X152537842Y-105410000D01*
X152262158Y-105410000D01*
X152177999Y-104986905D01*
X151938335Y-104628223D01*
X151579653Y-104388559D01*
X151156558Y-104304400D01*
X150603442Y-104304400D01*
X150180347Y-104388559D01*
X149821665Y-104628223D01*
X149582001Y-104986905D01*
X149497842Y-105410000D01*
X137522158Y-105410000D01*
X137437999Y-104986905D01*
X137198335Y-104628223D01*
X136839653Y-104388559D01*
X136416558Y-104304400D01*
X135863442Y-104304400D01*
X135440347Y-104388559D01*
X135081665Y-104628223D01*
X134842001Y-104986905D01*
X134757842Y-105410000D01*
X134482158Y-105410000D01*
X134397999Y-104986905D01*
X134158335Y-104628223D01*
X133799653Y-104388559D01*
X133376558Y-104304400D01*
X132823442Y-104304400D01*
X132400347Y-104388559D01*
X132041665Y-104628223D01*
X131802001Y-104986905D01*
X131717842Y-105410000D01*
X119742158Y-105410000D01*
X119657999Y-104986905D01*
X119418335Y-104628223D01*
X119059653Y-104388559D01*
X118636558Y-104304400D01*
X118083442Y-104304400D01*
X117660347Y-104388559D01*
X117301665Y-104628223D01*
X117062001Y-104986905D01*
X116977842Y-105410000D01*
X116702158Y-105410000D01*
X116617999Y-104986905D01*
X116378335Y-104628223D01*
X116019653Y-104388559D01*
X115596558Y-104304400D01*
X115043442Y-104304400D01*
X114620347Y-104388559D01*
X114261665Y-104628223D01*
X114022001Y-104986905D01*
X113937842Y-105410000D01*
X101962158Y-105410000D01*
X101877999Y-104986905D01*
X101638335Y-104628223D01*
X101279653Y-104388559D01*
X100856558Y-104304400D01*
X100303442Y-104304400D01*
X99880347Y-104388559D01*
X99521665Y-104628223D01*
X99282001Y-104986905D01*
X99197842Y-105410000D01*
X98922158Y-105410000D01*
X98837999Y-104986905D01*
X98598335Y-104628223D01*
X98239653Y-104388559D01*
X97816558Y-104304400D01*
X97263442Y-104304400D01*
X96840347Y-104388559D01*
X96481665Y-104628223D01*
X96242001Y-104986905D01*
X96157842Y-105410000D01*
X87669599Y-105410000D01*
X87669782Y-105200949D01*
X87509416Y-104812832D01*
X87212730Y-104515628D01*
X86824893Y-104354584D01*
X86404949Y-104354218D01*
X86016832Y-104514584D01*
X85976946Y-104554400D01*
X83947005Y-104554400D01*
X83947000Y-104554399D01*
X83619576Y-104619529D01*
X83341999Y-104804999D01*
X83341997Y-104805002D01*
X82346598Y-105800400D01*
X81881600Y-105800400D01*
X81881600Y-103666624D01*
X86030640Y-103666624D01*
X86109619Y-103820778D01*
X86511859Y-103941423D01*
X86929650Y-103898954D01*
X87118381Y-103820778D01*
X87197360Y-103666624D01*
X87124437Y-103593700D01*
X90411400Y-103593700D01*
X90411400Y-103924733D01*
X90465537Y-104055431D01*
X90565569Y-104155463D01*
X90696267Y-104209600D01*
X91327300Y-104209600D01*
X91416200Y-104120700D01*
X91416200Y-103504800D01*
X91717800Y-103504800D01*
X91717800Y-104120700D01*
X91806700Y-104209600D01*
X92437733Y-104209600D01*
X92568431Y-104155463D01*
X92668463Y-104055431D01*
X92722600Y-103924733D01*
X92722600Y-103593700D01*
X92633700Y-103504800D01*
X91717800Y-103504800D01*
X91416200Y-103504800D01*
X90500300Y-103504800D01*
X90411400Y-103593700D01*
X87124437Y-103593700D01*
X86614000Y-103083263D01*
X86030640Y-103666624D01*
X81881600Y-103666624D01*
X81881600Y-102767859D01*
X85542577Y-102767859D01*
X85585046Y-103185650D01*
X85663222Y-103374381D01*
X85817376Y-103453360D01*
X86400737Y-102870000D01*
X86827263Y-102870000D01*
X87410624Y-103453360D01*
X87564778Y-103374381D01*
X87685423Y-102972141D01*
X87666224Y-102783267D01*
X90411400Y-102783267D01*
X90411400Y-103114300D01*
X90500300Y-103203200D01*
X91416200Y-103203200D01*
X91416200Y-102587300D01*
X91717800Y-102587300D01*
X91717800Y-103203200D01*
X92633700Y-103203200D01*
X92722600Y-103114300D01*
X92722600Y-102870000D01*
X96157842Y-102870000D01*
X96242001Y-103293095D01*
X96481665Y-103651777D01*
X96840347Y-103891441D01*
X97263442Y-103975600D01*
X97816558Y-103975600D01*
X98239653Y-103891441D01*
X98598335Y-103651777D01*
X98837999Y-103293095D01*
X98922158Y-102870000D01*
X99197842Y-102870000D01*
X99282001Y-103293095D01*
X99521665Y-103651777D01*
X99880347Y-103891441D01*
X100303442Y-103975600D01*
X100856558Y-103975600D01*
X101279653Y-103891441D01*
X101638335Y-103651777D01*
X101877999Y-103293095D01*
X101962158Y-102870000D01*
X113937842Y-102870000D01*
X114022001Y-103293095D01*
X114261665Y-103651777D01*
X114620347Y-103891441D01*
X115043442Y-103975600D01*
X115596558Y-103975600D01*
X116019653Y-103891441D01*
X116378335Y-103651777D01*
X116617999Y-103293095D01*
X116702158Y-102870000D01*
X116977842Y-102870000D01*
X117062001Y-103293095D01*
X117301665Y-103651777D01*
X117660347Y-103891441D01*
X118083442Y-103975600D01*
X118636558Y-103975600D01*
X119059653Y-103891441D01*
X119418335Y-103651777D01*
X119657999Y-103293095D01*
X119742158Y-102870000D01*
X131717842Y-102870000D01*
X131802001Y-103293095D01*
X132041665Y-103651777D01*
X132400347Y-103891441D01*
X132823442Y-103975600D01*
X133376558Y-103975600D01*
X133799653Y-103891441D01*
X134158335Y-103651777D01*
X134397999Y-103293095D01*
X134482158Y-102870000D01*
X134757842Y-102870000D01*
X134842001Y-103293095D01*
X135081665Y-103651777D01*
X135440347Y-103891441D01*
X135863442Y-103975600D01*
X136416558Y-103975600D01*
X136839653Y-103891441D01*
X137198335Y-103651777D01*
X137437999Y-103293095D01*
X137522158Y-102870000D01*
X149497842Y-102870000D01*
X149582001Y-103293095D01*
X149821665Y-103651777D01*
X150180347Y-103891441D01*
X150603442Y-103975600D01*
X151156558Y-103975600D01*
X151579653Y-103891441D01*
X151938335Y-103651777D01*
X152177999Y-103293095D01*
X152262158Y-102870000D01*
X152537842Y-102870000D01*
X152622001Y-103293095D01*
X152861665Y-103651777D01*
X153220347Y-103891441D01*
X153643442Y-103975600D01*
X154196558Y-103975600D01*
X154619653Y-103891441D01*
X154978335Y-103651777D01*
X155217999Y-103293095D01*
X155302158Y-102870000D01*
X167277842Y-102870000D01*
X167362001Y-103293095D01*
X167601665Y-103651777D01*
X167960347Y-103891441D01*
X168383442Y-103975600D01*
X168936558Y-103975600D01*
X169359653Y-103891441D01*
X169718335Y-103651777D01*
X169957999Y-103293095D01*
X170042158Y-102870000D01*
X170317842Y-102870000D01*
X170402001Y-103293095D01*
X170641665Y-103651777D01*
X171000347Y-103891441D01*
X171423442Y-103975600D01*
X171976558Y-103975600D01*
X172399653Y-103891441D01*
X172758335Y-103651777D01*
X172997999Y-103293095D01*
X173082158Y-102870000D01*
X185057842Y-102870000D01*
X185142001Y-103293095D01*
X185381665Y-103651777D01*
X185740347Y-103891441D01*
X186163442Y-103975600D01*
X186716558Y-103975600D01*
X187139653Y-103891441D01*
X187498335Y-103651777D01*
X187737999Y-103293095D01*
X187822158Y-102870000D01*
X188097842Y-102870000D01*
X188182001Y-103293095D01*
X188421665Y-103651777D01*
X188780347Y-103891441D01*
X189203442Y-103975600D01*
X189756558Y-103975600D01*
X190179653Y-103891441D01*
X190538335Y-103651777D01*
X190777999Y-103293095D01*
X190862158Y-102870000D01*
X202837842Y-102870000D01*
X202922001Y-103293095D01*
X203161665Y-103651777D01*
X203520347Y-103891441D01*
X203943442Y-103975600D01*
X204496558Y-103975600D01*
X204919653Y-103891441D01*
X205278335Y-103651777D01*
X205517999Y-103293095D01*
X205602158Y-102870000D01*
X205877842Y-102870000D01*
X205962001Y-103293095D01*
X206201665Y-103651777D01*
X206560347Y-103891441D01*
X206983442Y-103975600D01*
X207536558Y-103975600D01*
X207959653Y-103891441D01*
X208318335Y-103651777D01*
X208557999Y-103293095D01*
X208642158Y-102870000D01*
X220617842Y-102870000D01*
X220702001Y-103293095D01*
X220941665Y-103651777D01*
X221300347Y-103891441D01*
X221723442Y-103975600D01*
X222276558Y-103975600D01*
X222699653Y-103891441D01*
X223058335Y-103651777D01*
X223297999Y-103293095D01*
X223382158Y-102870000D01*
X223657842Y-102870000D01*
X223742001Y-103293095D01*
X223981665Y-103651777D01*
X224340347Y-103891441D01*
X224763442Y-103975600D01*
X225316558Y-103975600D01*
X225739653Y-103891441D01*
X226098335Y-103651777D01*
X226337999Y-103293095D01*
X226422158Y-102870000D01*
X226337999Y-102446905D01*
X226098335Y-102088223D01*
X225739653Y-101848559D01*
X225316558Y-101764400D01*
X224763442Y-101764400D01*
X224340347Y-101848559D01*
X223981665Y-102088223D01*
X223742001Y-102446905D01*
X223657842Y-102870000D01*
X223382158Y-102870000D01*
X223297999Y-102446905D01*
X223058335Y-102088223D01*
X222699653Y-101848559D01*
X222276558Y-101764400D01*
X221723442Y-101764400D01*
X221300347Y-101848559D01*
X220941665Y-102088223D01*
X220702001Y-102446905D01*
X220617842Y-102870000D01*
X208642158Y-102870000D01*
X208557999Y-102446905D01*
X208318335Y-102088223D01*
X207959653Y-101848559D01*
X207536558Y-101764400D01*
X206983442Y-101764400D01*
X206560347Y-101848559D01*
X206201665Y-102088223D01*
X205962001Y-102446905D01*
X205877842Y-102870000D01*
X205602158Y-102870000D01*
X205517999Y-102446905D01*
X205278335Y-102088223D01*
X204919653Y-101848559D01*
X204496558Y-101764400D01*
X203943442Y-101764400D01*
X203520347Y-101848559D01*
X203161665Y-102088223D01*
X202922001Y-102446905D01*
X202837842Y-102870000D01*
X190862158Y-102870000D01*
X190777999Y-102446905D01*
X190538335Y-102088223D01*
X190179653Y-101848559D01*
X189756558Y-101764400D01*
X189203442Y-101764400D01*
X188780347Y-101848559D01*
X188421665Y-102088223D01*
X188182001Y-102446905D01*
X188097842Y-102870000D01*
X187822158Y-102870000D01*
X187737999Y-102446905D01*
X187498335Y-102088223D01*
X187139653Y-101848559D01*
X186716558Y-101764400D01*
X186163442Y-101764400D01*
X185740347Y-101848559D01*
X185381665Y-102088223D01*
X185142001Y-102446905D01*
X185057842Y-102870000D01*
X173082158Y-102870000D01*
X172997999Y-102446905D01*
X172758335Y-102088223D01*
X172399653Y-101848559D01*
X171976558Y-101764400D01*
X171423442Y-101764400D01*
X171000347Y-101848559D01*
X170641665Y-102088223D01*
X170402001Y-102446905D01*
X170317842Y-102870000D01*
X170042158Y-102870000D01*
X169957999Y-102446905D01*
X169718335Y-102088223D01*
X169359653Y-101848559D01*
X168936558Y-101764400D01*
X168383442Y-101764400D01*
X167960347Y-101848559D01*
X167601665Y-102088223D01*
X167362001Y-102446905D01*
X167277842Y-102870000D01*
X155302158Y-102870000D01*
X155217999Y-102446905D01*
X154978335Y-102088223D01*
X154619653Y-101848559D01*
X154196558Y-101764400D01*
X153643442Y-101764400D01*
X153220347Y-101848559D01*
X152861665Y-102088223D01*
X152622001Y-102446905D01*
X152537842Y-102870000D01*
X152262158Y-102870000D01*
X152177999Y-102446905D01*
X151938335Y-102088223D01*
X151579653Y-101848559D01*
X151156558Y-101764400D01*
X150603442Y-101764400D01*
X150180347Y-101848559D01*
X149821665Y-102088223D01*
X149582001Y-102446905D01*
X149497842Y-102870000D01*
X137522158Y-102870000D01*
X137437999Y-102446905D01*
X137198335Y-102088223D01*
X136839653Y-101848559D01*
X136416558Y-101764400D01*
X135863442Y-101764400D01*
X135440347Y-101848559D01*
X135081665Y-102088223D01*
X134842001Y-102446905D01*
X134757842Y-102870000D01*
X134482158Y-102870000D01*
X134397999Y-102446905D01*
X134158335Y-102088223D01*
X133799653Y-101848559D01*
X133376558Y-101764400D01*
X132823442Y-101764400D01*
X132400347Y-101848559D01*
X132041665Y-102088223D01*
X131802001Y-102446905D01*
X131717842Y-102870000D01*
X119742158Y-102870000D01*
X119657999Y-102446905D01*
X119418335Y-102088223D01*
X119059653Y-101848559D01*
X118636558Y-101764400D01*
X118083442Y-101764400D01*
X117660347Y-101848559D01*
X117301665Y-102088223D01*
X117062001Y-102446905D01*
X116977842Y-102870000D01*
X116702158Y-102870000D01*
X116617999Y-102446905D01*
X116378335Y-102088223D01*
X116019653Y-101848559D01*
X115596558Y-101764400D01*
X115043442Y-101764400D01*
X114620347Y-101848559D01*
X114261665Y-102088223D01*
X114022001Y-102446905D01*
X113937842Y-102870000D01*
X101962158Y-102870000D01*
X101877999Y-102446905D01*
X101638335Y-102088223D01*
X101279653Y-101848559D01*
X100856558Y-101764400D01*
X100303442Y-101764400D01*
X99880347Y-101848559D01*
X99521665Y-102088223D01*
X99282001Y-102446905D01*
X99197842Y-102870000D01*
X98922158Y-102870000D01*
X98837999Y-102446905D01*
X98598335Y-102088223D01*
X98239653Y-101848559D01*
X97816558Y-101764400D01*
X97263442Y-101764400D01*
X96840347Y-101848559D01*
X96481665Y-102088223D01*
X96242001Y-102446905D01*
X96157842Y-102870000D01*
X92722600Y-102870000D01*
X92722600Y-102783267D01*
X92668463Y-102652569D01*
X92568431Y-102552537D01*
X92437733Y-102498400D01*
X91806700Y-102498400D01*
X91717800Y-102587300D01*
X91416200Y-102587300D01*
X91327300Y-102498400D01*
X90696267Y-102498400D01*
X90565569Y-102552537D01*
X90465537Y-102652569D01*
X90411400Y-102783267D01*
X87666224Y-102783267D01*
X87642954Y-102554350D01*
X87564778Y-102365619D01*
X87410624Y-102286640D01*
X86827263Y-102870000D01*
X86400737Y-102870000D01*
X85817376Y-102286640D01*
X85663222Y-102365619D01*
X85542577Y-102767859D01*
X81881600Y-102767859D01*
X81881600Y-102073376D01*
X86030640Y-102073376D01*
X86614000Y-102656737D01*
X87197360Y-102073376D01*
X87118381Y-101919222D01*
X86716141Y-101798577D01*
X86298350Y-101841046D01*
X86109619Y-101919222D01*
X86030640Y-102073376D01*
X81881600Y-102073376D01*
X81881600Y-100620902D01*
X81963450Y-100539051D01*
X85558218Y-100539051D01*
X85718584Y-100927168D01*
X86015270Y-101224372D01*
X86403107Y-101385416D01*
X86823051Y-101385782D01*
X87211168Y-101225416D01*
X87251054Y-101185600D01*
X90622428Y-101185600D01*
X90625942Y-101188001D01*
X90767000Y-101216566D01*
X92367000Y-101216566D01*
X92404020Y-101209600D01*
X96628067Y-101209600D01*
X96840347Y-101351441D01*
X97263442Y-101435600D01*
X97816558Y-101435600D01*
X98239653Y-101351441D01*
X98487851Y-101185600D01*
X99632149Y-101185600D01*
X99880347Y-101351441D01*
X100303442Y-101435600D01*
X100856558Y-101435600D01*
X101279653Y-101351441D01*
X101527851Y-101185600D01*
X114372149Y-101185600D01*
X114620347Y-101351441D01*
X115043442Y-101435600D01*
X115596558Y-101435600D01*
X116019653Y-101351441D01*
X116267851Y-101185600D01*
X117412149Y-101185600D01*
X117660347Y-101351441D01*
X118083442Y-101435600D01*
X118636558Y-101435600D01*
X119059653Y-101351441D01*
X119307851Y-101185600D01*
X132152149Y-101185600D01*
X132400347Y-101351441D01*
X132823442Y-101435600D01*
X133376558Y-101435600D01*
X133799653Y-101351441D01*
X134047851Y-101185600D01*
X135192149Y-101185600D01*
X135440347Y-101351441D01*
X135863442Y-101435600D01*
X136416558Y-101435600D01*
X136839653Y-101351441D01*
X137087851Y-101185600D01*
X149932149Y-101185600D01*
X150180347Y-101351441D01*
X150603442Y-101435600D01*
X151156558Y-101435600D01*
X151579653Y-101351441D01*
X151827851Y-101185600D01*
X152972149Y-101185600D01*
X153220347Y-101351441D01*
X153643442Y-101435600D01*
X154196558Y-101435600D01*
X154619653Y-101351441D01*
X154867851Y-101185600D01*
X167712149Y-101185600D01*
X167960347Y-101351441D01*
X168383442Y-101435600D01*
X168936558Y-101435600D01*
X169359653Y-101351441D01*
X169607851Y-101185600D01*
X170752149Y-101185600D01*
X171000347Y-101351441D01*
X171423442Y-101435600D01*
X171976558Y-101435600D01*
X172399653Y-101351441D01*
X172647851Y-101185600D01*
X185492149Y-101185600D01*
X185740347Y-101351441D01*
X186163442Y-101435600D01*
X186716558Y-101435600D01*
X187139653Y-101351441D01*
X187387851Y-101185600D01*
X188532149Y-101185600D01*
X188780347Y-101351441D01*
X189203442Y-101435600D01*
X189756558Y-101435600D01*
X190179653Y-101351441D01*
X190427851Y-101185600D01*
X203272149Y-101185600D01*
X203520347Y-101351441D01*
X203943442Y-101435600D01*
X204496558Y-101435600D01*
X204919653Y-101351441D01*
X205167851Y-101185600D01*
X206312149Y-101185600D01*
X206560347Y-101351441D01*
X206983442Y-101435600D01*
X207536558Y-101435600D01*
X207959653Y-101351441D01*
X208207851Y-101185600D01*
X221052149Y-101185600D01*
X221300347Y-101351441D01*
X221723442Y-101435600D01*
X222276558Y-101435600D01*
X222699653Y-101351441D01*
X222947851Y-101185600D01*
X224092149Y-101185600D01*
X224340347Y-101351441D01*
X224763442Y-101435600D01*
X225316558Y-101435600D01*
X225739653Y-101351441D01*
X226098335Y-101111777D01*
X226337999Y-100753095D01*
X226422158Y-100330000D01*
X226337999Y-99906905D01*
X226098335Y-99548223D01*
X225739653Y-99308559D01*
X225316558Y-99224400D01*
X224763442Y-99224400D01*
X224340347Y-99308559D01*
X224092149Y-99474400D01*
X222947851Y-99474400D01*
X222699653Y-99308559D01*
X222276558Y-99224400D01*
X221723442Y-99224400D01*
X221300347Y-99308559D01*
X221052149Y-99474400D01*
X208207851Y-99474400D01*
X207959653Y-99308559D01*
X207536558Y-99224400D01*
X206983442Y-99224400D01*
X206560347Y-99308559D01*
X206312149Y-99474400D01*
X205167851Y-99474400D01*
X204919653Y-99308559D01*
X204496558Y-99224400D01*
X203943442Y-99224400D01*
X203520347Y-99308559D01*
X203272149Y-99474400D01*
X190427851Y-99474400D01*
X190179653Y-99308559D01*
X189756558Y-99224400D01*
X189203442Y-99224400D01*
X188780347Y-99308559D01*
X188532149Y-99474400D01*
X187387851Y-99474400D01*
X187139653Y-99308559D01*
X186716558Y-99224400D01*
X186163442Y-99224400D01*
X185740347Y-99308559D01*
X185492149Y-99474400D01*
X172647851Y-99474400D01*
X172399653Y-99308559D01*
X171976558Y-99224400D01*
X171423442Y-99224400D01*
X171000347Y-99308559D01*
X170752149Y-99474400D01*
X169607851Y-99474400D01*
X169359653Y-99308559D01*
X168936558Y-99224400D01*
X168383442Y-99224400D01*
X167960347Y-99308559D01*
X167712149Y-99474400D01*
X154867851Y-99474400D01*
X154619653Y-99308559D01*
X154196558Y-99224400D01*
X153643442Y-99224400D01*
X153220347Y-99308559D01*
X152972149Y-99474400D01*
X151827851Y-99474400D01*
X151579653Y-99308559D01*
X151156558Y-99224400D01*
X150603442Y-99224400D01*
X150180347Y-99308559D01*
X149932149Y-99474400D01*
X137087851Y-99474400D01*
X136839653Y-99308559D01*
X136416558Y-99224400D01*
X135863442Y-99224400D01*
X135440347Y-99308559D01*
X135192149Y-99474400D01*
X134047851Y-99474400D01*
X133799653Y-99308559D01*
X133376558Y-99224400D01*
X132823442Y-99224400D01*
X132400347Y-99308559D01*
X132152149Y-99474400D01*
X119307851Y-99474400D01*
X119059653Y-99308559D01*
X118636558Y-99224400D01*
X118083442Y-99224400D01*
X117660347Y-99308559D01*
X117412149Y-99474400D01*
X116267851Y-99474400D01*
X116019653Y-99308559D01*
X115596558Y-99224400D01*
X115043442Y-99224400D01*
X114620347Y-99308559D01*
X114372149Y-99474400D01*
X101527851Y-99474400D01*
X101279653Y-99308559D01*
X100856558Y-99224400D01*
X100303442Y-99224400D01*
X99880347Y-99308559D01*
X99632149Y-99474400D01*
X98487851Y-99474400D01*
X98239653Y-99308559D01*
X97816558Y-99224400D01*
X97263442Y-99224400D01*
X96840347Y-99308559D01*
X96556230Y-99498400D01*
X92401399Y-99498400D01*
X92367000Y-99491434D01*
X91628639Y-99491434D01*
X91543000Y-99474399D01*
X91542995Y-99474400D01*
X87251434Y-99474400D01*
X87212730Y-99435628D01*
X86824893Y-99274584D01*
X86404949Y-99274218D01*
X86016832Y-99434584D01*
X85719628Y-99731270D01*
X85558584Y-100119107D01*
X85558218Y-100539051D01*
X81963450Y-100539051D01*
X83856901Y-98645600D01*
X96592149Y-98645600D01*
X96840347Y-98811441D01*
X97263442Y-98895600D01*
X97816558Y-98895600D01*
X98239653Y-98811441D01*
X98487851Y-98645600D01*
X99632149Y-98645600D01*
X99880347Y-98811441D01*
X100303442Y-98895600D01*
X100856558Y-98895600D01*
X101279653Y-98811441D01*
X101527851Y-98645600D01*
X114372149Y-98645600D01*
X114620347Y-98811441D01*
X115043442Y-98895600D01*
X115596558Y-98895600D01*
X116019653Y-98811441D01*
X116267851Y-98645600D01*
X117412149Y-98645600D01*
X117660347Y-98811441D01*
X118083442Y-98895600D01*
X118636558Y-98895600D01*
X119059653Y-98811441D01*
X119307851Y-98645600D01*
X132152149Y-98645600D01*
X132400347Y-98811441D01*
X132823442Y-98895600D01*
X133376558Y-98895600D01*
X133799653Y-98811441D01*
X134047851Y-98645600D01*
X135192149Y-98645600D01*
X135440347Y-98811441D01*
X135863442Y-98895600D01*
X136416558Y-98895600D01*
X136839653Y-98811441D01*
X137087851Y-98645600D01*
X149932149Y-98645600D01*
X150180347Y-98811441D01*
X150603442Y-98895600D01*
X151156558Y-98895600D01*
X151579653Y-98811441D01*
X151827851Y-98645600D01*
X152972149Y-98645600D01*
X153220347Y-98811441D01*
X153643442Y-98895600D01*
X154196558Y-98895600D01*
X154619653Y-98811441D01*
X154867851Y-98645600D01*
X167712149Y-98645600D01*
X167960347Y-98811441D01*
X168383442Y-98895600D01*
X168936558Y-98895600D01*
X169359653Y-98811441D01*
X169607851Y-98645600D01*
X170752149Y-98645600D01*
X171000347Y-98811441D01*
X171423442Y-98895600D01*
X171976558Y-98895600D01*
X172399653Y-98811441D01*
X172647851Y-98645600D01*
X185492149Y-98645600D01*
X185740347Y-98811441D01*
X186163442Y-98895600D01*
X186716558Y-98895600D01*
X187139653Y-98811441D01*
X187387851Y-98645600D01*
X188532149Y-98645600D01*
X188780347Y-98811441D01*
X189203442Y-98895600D01*
X189756558Y-98895600D01*
X190179653Y-98811441D01*
X190427851Y-98645600D01*
X203272149Y-98645600D01*
X203520347Y-98811441D01*
X203943442Y-98895600D01*
X204496558Y-98895600D01*
X204919653Y-98811441D01*
X205167851Y-98645600D01*
X206312149Y-98645600D01*
X206560347Y-98811441D01*
X206983442Y-98895600D01*
X207536558Y-98895600D01*
X207959653Y-98811441D01*
X208207851Y-98645600D01*
X221052149Y-98645600D01*
X221300347Y-98811441D01*
X221723442Y-98895600D01*
X222276558Y-98895600D01*
X222699653Y-98811441D01*
X222947851Y-98645600D01*
X224092149Y-98645600D01*
X224340347Y-98811441D01*
X224763442Y-98895600D01*
X225316558Y-98895600D01*
X225739653Y-98811441D01*
X226098335Y-98571777D01*
X226337999Y-98213095D01*
X226422158Y-97790000D01*
X226337999Y-97366905D01*
X226098335Y-97008223D01*
X225739653Y-96768559D01*
X225316558Y-96684400D01*
X224763442Y-96684400D01*
X224340347Y-96768559D01*
X224092149Y-96934400D01*
X222947851Y-96934400D01*
X222699653Y-96768559D01*
X222276558Y-96684400D01*
X221723442Y-96684400D01*
X221300347Y-96768559D01*
X221052149Y-96934400D01*
X208207851Y-96934400D01*
X207959653Y-96768559D01*
X207536558Y-96684400D01*
X206983442Y-96684400D01*
X206560347Y-96768559D01*
X206312149Y-96934400D01*
X205167851Y-96934400D01*
X204919653Y-96768559D01*
X204496558Y-96684400D01*
X203943442Y-96684400D01*
X203520347Y-96768559D01*
X203272149Y-96934400D01*
X190427851Y-96934400D01*
X190179653Y-96768559D01*
X189756558Y-96684400D01*
X189203442Y-96684400D01*
X188780347Y-96768559D01*
X188532149Y-96934400D01*
X187387851Y-96934400D01*
X187139653Y-96768559D01*
X186716558Y-96684400D01*
X186163442Y-96684400D01*
X185740347Y-96768559D01*
X185492149Y-96934400D01*
X172647851Y-96934400D01*
X172399653Y-96768559D01*
X171976558Y-96684400D01*
X171423442Y-96684400D01*
X171000347Y-96768559D01*
X170752149Y-96934400D01*
X169607851Y-96934400D01*
X169359653Y-96768559D01*
X168936558Y-96684400D01*
X168383442Y-96684400D01*
X167960347Y-96768559D01*
X167712149Y-96934400D01*
X154867851Y-96934400D01*
X154619653Y-96768559D01*
X154196558Y-96684400D01*
X153643442Y-96684400D01*
X153220347Y-96768559D01*
X152972149Y-96934400D01*
X151827851Y-96934400D01*
X151579653Y-96768559D01*
X151156558Y-96684400D01*
X150603442Y-96684400D01*
X150180347Y-96768559D01*
X149932149Y-96934400D01*
X137087851Y-96934400D01*
X136839653Y-96768559D01*
X136416558Y-96684400D01*
X135863442Y-96684400D01*
X135440347Y-96768559D01*
X135192149Y-96934400D01*
X134047851Y-96934400D01*
X133799653Y-96768559D01*
X133376558Y-96684400D01*
X132823442Y-96684400D01*
X132400347Y-96768559D01*
X132152149Y-96934400D01*
X119307851Y-96934400D01*
X119059653Y-96768559D01*
X118636558Y-96684400D01*
X118083442Y-96684400D01*
X117660347Y-96768559D01*
X117412149Y-96934400D01*
X116267851Y-96934400D01*
X116019653Y-96768559D01*
X115596558Y-96684400D01*
X115043442Y-96684400D01*
X114620347Y-96768559D01*
X114372149Y-96934400D01*
X101527851Y-96934400D01*
X101279653Y-96768559D01*
X100856558Y-96684400D01*
X100303442Y-96684400D01*
X99880347Y-96768559D01*
X99632149Y-96934400D01*
X98487851Y-96934400D01*
X98239653Y-96768559D01*
X97816558Y-96684400D01*
X97263442Y-96684400D01*
X96840347Y-96768559D01*
X96592149Y-96934400D01*
X83502505Y-96934400D01*
X83502500Y-96934399D01*
X83175076Y-96999529D01*
X82897499Y-97184999D01*
X82897497Y-97185002D01*
X80420999Y-99661499D01*
X80235529Y-99939076D01*
X80170399Y-100266500D01*
X80170400Y-100266505D01*
X80170400Y-105800400D01*
X79819500Y-105800400D01*
X79775752Y-105809102D01*
X79732000Y-105800399D01*
X79731995Y-105800400D01*
X78431399Y-105800400D01*
X78397000Y-105793434D01*
X76797000Y-105793434D01*
X76665223Y-105818230D01*
X76655634Y-105824400D01*
X74468055Y-105824400D01*
X74074030Y-105429687D01*
X73476770Y-105181683D01*
X72830067Y-105181119D01*
X72232375Y-105428080D01*
X71774687Y-105884970D01*
X71526683Y-106482230D01*
X71526119Y-107128933D01*
X38530600Y-107128933D01*
X38530600Y-103438700D01*
X41963400Y-103438700D01*
X41963400Y-104519733D01*
X42017537Y-104650431D01*
X42117569Y-104750463D01*
X42248267Y-104804600D01*
X43829300Y-104804600D01*
X43918200Y-104715700D01*
X43918200Y-103349800D01*
X44219800Y-103349800D01*
X44219800Y-104715700D01*
X44308700Y-104804600D01*
X45889733Y-104804600D01*
X46020431Y-104750463D01*
X46120463Y-104650431D01*
X46174600Y-104519733D01*
X46174600Y-103895700D01*
X76441400Y-103895700D01*
X76441400Y-104226733D01*
X76495537Y-104357431D01*
X76595569Y-104457463D01*
X76726267Y-104511600D01*
X77357300Y-104511600D01*
X77446200Y-104422700D01*
X77446200Y-103806800D01*
X77747800Y-103806800D01*
X77747800Y-104422700D01*
X77836700Y-104511600D01*
X78467733Y-104511600D01*
X78598431Y-104457463D01*
X78698463Y-104357431D01*
X78752600Y-104226733D01*
X78752600Y-103895700D01*
X78663700Y-103806800D01*
X77747800Y-103806800D01*
X77446200Y-103806800D01*
X76530300Y-103806800D01*
X76441400Y-103895700D01*
X46174600Y-103895700D01*
X46174600Y-103438700D01*
X46085700Y-103349800D01*
X44219800Y-103349800D01*
X43918200Y-103349800D01*
X42052300Y-103349800D01*
X41963400Y-103438700D01*
X38530600Y-103438700D01*
X38530600Y-103085267D01*
X76441400Y-103085267D01*
X76441400Y-103416300D01*
X76530300Y-103505200D01*
X77446200Y-103505200D01*
X77446200Y-102889300D01*
X77747800Y-102889300D01*
X77747800Y-103505200D01*
X78663700Y-103505200D01*
X78752600Y-103416300D01*
X78752600Y-103085267D01*
X78698463Y-102954569D01*
X78598431Y-102854537D01*
X78467733Y-102800400D01*
X77836700Y-102800400D01*
X77747800Y-102889300D01*
X77446200Y-102889300D01*
X77357300Y-102800400D01*
X76726267Y-102800400D01*
X76595569Y-102854537D01*
X76495537Y-102954569D01*
X76441400Y-103085267D01*
X38530600Y-103085267D01*
X38530600Y-101878267D01*
X41963400Y-101878267D01*
X41963400Y-102959300D01*
X42052300Y-103048200D01*
X43918200Y-103048200D01*
X43918200Y-101682300D01*
X44219800Y-101682300D01*
X44219800Y-103048200D01*
X46085700Y-103048200D01*
X46174600Y-102959300D01*
X46174600Y-101878267D01*
X46120463Y-101747569D01*
X46020431Y-101647537D01*
X45889733Y-101593400D01*
X44308700Y-101593400D01*
X44219800Y-101682300D01*
X43918200Y-101682300D01*
X43829300Y-101593400D01*
X42248267Y-101593400D01*
X42117569Y-101647537D01*
X42017537Y-101747569D01*
X41963400Y-101878267D01*
X38530600Y-101878267D01*
X38530600Y-99239000D01*
X41922149Y-99239000D01*
X42044368Y-99853437D01*
X42392418Y-100374331D01*
X42913312Y-100722381D01*
X43527749Y-100844600D01*
X44610251Y-100844600D01*
X45224688Y-100722381D01*
X45745582Y-100374331D01*
X45967237Y-100042600D01*
X51426625Y-100042600D01*
X51453080Y-100106625D01*
X51909970Y-100564313D01*
X52507230Y-100812317D01*
X53153933Y-100812881D01*
X53751625Y-100565920D01*
X54209313Y-100109030D01*
X54457317Y-99511770D01*
X54457881Y-98865067D01*
X54210920Y-98267375D01*
X53801884Y-97857624D01*
X72154639Y-97857624D01*
X72303818Y-98070979D01*
X72913315Y-98287171D01*
X73559149Y-98253661D01*
X74000182Y-98070979D01*
X74149361Y-97857624D01*
X73152000Y-96860263D01*
X72154639Y-97857624D01*
X53801884Y-97857624D01*
X53754030Y-97809687D01*
X53156770Y-97561683D01*
X52510067Y-97561119D01*
X51912375Y-97808080D01*
X51454687Y-98264970D01*
X51427103Y-98331400D01*
X45897747Y-98331400D01*
X45745582Y-98103669D01*
X45224688Y-97755619D01*
X44924600Y-97695928D01*
X44924600Y-96408315D01*
X71511829Y-96408315D01*
X71545339Y-97054149D01*
X71728021Y-97495182D01*
X71941376Y-97644361D01*
X72938737Y-96647000D01*
X73365263Y-96647000D01*
X74362624Y-97644361D01*
X74575979Y-97495182D01*
X74792171Y-96885685D01*
X74758661Y-96239851D01*
X74575979Y-95798818D01*
X74362624Y-95649639D01*
X73365263Y-96647000D01*
X72938737Y-96647000D01*
X71941376Y-95649639D01*
X71728021Y-95798818D01*
X71511829Y-96408315D01*
X44924600Y-96408315D01*
X44924600Y-96391566D01*
X44996000Y-96391566D01*
X45127777Y-96366770D01*
X45248807Y-96288890D01*
X45330001Y-96170058D01*
X45358566Y-96029000D01*
X45358566Y-95317624D01*
X51834639Y-95317624D01*
X51983818Y-95530979D01*
X52593315Y-95747171D01*
X53239149Y-95713661D01*
X53680182Y-95530979D01*
X53746328Y-95436376D01*
X72154639Y-95436376D01*
X73152000Y-96433737D01*
X74015456Y-95570281D01*
X96231808Y-95570281D01*
X96448410Y-95984069D01*
X96793388Y-96250254D01*
X97213971Y-96364159D01*
X97389200Y-96273435D01*
X97389200Y-95400800D01*
X97690800Y-95400800D01*
X97690800Y-96273435D01*
X97866029Y-96364159D01*
X98286612Y-96250254D01*
X98631590Y-95984069D01*
X98848192Y-95570281D01*
X99271808Y-95570281D01*
X99488410Y-95984069D01*
X99833388Y-96250254D01*
X100253971Y-96364159D01*
X100429200Y-96273435D01*
X100429200Y-95400800D01*
X100730800Y-95400800D01*
X100730800Y-96273435D01*
X100906029Y-96364159D01*
X101326612Y-96250254D01*
X101671590Y-95984069D01*
X101888192Y-95570281D01*
X114011808Y-95570281D01*
X114228410Y-95984069D01*
X114573388Y-96250254D01*
X114993971Y-96364159D01*
X115169200Y-96273435D01*
X115169200Y-95400800D01*
X115470800Y-95400800D01*
X115470800Y-96273435D01*
X115646029Y-96364159D01*
X116066612Y-96250254D01*
X116411590Y-95984069D01*
X116628192Y-95570281D01*
X117051808Y-95570281D01*
X117268410Y-95984069D01*
X117613388Y-96250254D01*
X118033971Y-96364159D01*
X118209200Y-96273435D01*
X118209200Y-95400800D01*
X118510800Y-95400800D01*
X118510800Y-96273435D01*
X118686029Y-96364159D01*
X119106612Y-96250254D01*
X119451590Y-95984069D01*
X119668192Y-95570281D01*
X131791808Y-95570281D01*
X132008410Y-95984069D01*
X132353388Y-96250254D01*
X132773971Y-96364159D01*
X132949200Y-96273435D01*
X132949200Y-95400800D01*
X133250800Y-95400800D01*
X133250800Y-96273435D01*
X133426029Y-96364159D01*
X133846612Y-96250254D01*
X134191590Y-95984069D01*
X134408192Y-95570281D01*
X134831808Y-95570281D01*
X135048410Y-95984069D01*
X135393388Y-96250254D01*
X135813971Y-96364159D01*
X135989200Y-96273435D01*
X135989200Y-95400800D01*
X136290800Y-95400800D01*
X136290800Y-96273435D01*
X136466029Y-96364159D01*
X136886612Y-96250254D01*
X137231590Y-95984069D01*
X137448192Y-95570281D01*
X149571808Y-95570281D01*
X149788410Y-95984069D01*
X150133388Y-96250254D01*
X150553971Y-96364159D01*
X150729200Y-96273435D01*
X150729200Y-95400800D01*
X151030800Y-95400800D01*
X151030800Y-96273435D01*
X151206029Y-96364159D01*
X151626612Y-96250254D01*
X151971590Y-95984069D01*
X152188192Y-95570281D01*
X152611808Y-95570281D01*
X152828410Y-95984069D01*
X153173388Y-96250254D01*
X153593971Y-96364159D01*
X153769200Y-96273435D01*
X153769200Y-95400800D01*
X154070800Y-95400800D01*
X154070800Y-96273435D01*
X154246029Y-96364159D01*
X154666612Y-96250254D01*
X155011590Y-95984069D01*
X155228192Y-95570281D01*
X167351808Y-95570281D01*
X167568410Y-95984069D01*
X167913388Y-96250254D01*
X168333971Y-96364159D01*
X168509200Y-96273435D01*
X168509200Y-95400800D01*
X168810800Y-95400800D01*
X168810800Y-96273435D01*
X168986029Y-96364159D01*
X169406612Y-96250254D01*
X169751590Y-95984069D01*
X169968192Y-95570281D01*
X170391808Y-95570281D01*
X170608410Y-95984069D01*
X170953388Y-96250254D01*
X171373971Y-96364159D01*
X171549200Y-96273435D01*
X171549200Y-95400800D01*
X171850800Y-95400800D01*
X171850800Y-96273435D01*
X172026029Y-96364159D01*
X172446612Y-96250254D01*
X172791590Y-95984069D01*
X173008192Y-95570281D01*
X185131808Y-95570281D01*
X185348410Y-95984069D01*
X185693388Y-96250254D01*
X186113971Y-96364159D01*
X186289200Y-96273435D01*
X186289200Y-95400800D01*
X186590800Y-95400800D01*
X186590800Y-96273435D01*
X186766029Y-96364159D01*
X187186612Y-96250254D01*
X187531590Y-95984069D01*
X187748192Y-95570281D01*
X188171808Y-95570281D01*
X188388410Y-95984069D01*
X188733388Y-96250254D01*
X189153971Y-96364159D01*
X189329200Y-96273435D01*
X189329200Y-95400800D01*
X189630800Y-95400800D01*
X189630800Y-96273435D01*
X189806029Y-96364159D01*
X190226612Y-96250254D01*
X190571590Y-95984069D01*
X190788192Y-95570281D01*
X202911808Y-95570281D01*
X203128410Y-95984069D01*
X203473388Y-96250254D01*
X203893971Y-96364159D01*
X204069200Y-96273435D01*
X204069200Y-95400800D01*
X204370800Y-95400800D01*
X204370800Y-96273435D01*
X204546029Y-96364159D01*
X204966612Y-96250254D01*
X205311590Y-95984069D01*
X205528192Y-95570281D01*
X205951808Y-95570281D01*
X206168410Y-95984069D01*
X206513388Y-96250254D01*
X206933971Y-96364159D01*
X207109200Y-96273435D01*
X207109200Y-95400800D01*
X207410800Y-95400800D01*
X207410800Y-96273435D01*
X207586029Y-96364159D01*
X208006612Y-96250254D01*
X208351590Y-95984069D01*
X208568192Y-95570281D01*
X220691808Y-95570281D01*
X220908410Y-95984069D01*
X221253388Y-96250254D01*
X221673971Y-96364159D01*
X221849200Y-96273435D01*
X221849200Y-95400800D01*
X222150800Y-95400800D01*
X222150800Y-96273435D01*
X222326029Y-96364159D01*
X222746612Y-96250254D01*
X223091590Y-95984069D01*
X223308192Y-95570281D01*
X223731808Y-95570281D01*
X223948410Y-95984069D01*
X224293388Y-96250254D01*
X224713971Y-96364159D01*
X224889200Y-96273435D01*
X224889200Y-95400800D01*
X225190800Y-95400800D01*
X225190800Y-96273435D01*
X225366029Y-96364159D01*
X225786612Y-96250254D01*
X226131590Y-95984069D01*
X226348192Y-95570281D01*
X226295454Y-95400800D01*
X225190800Y-95400800D01*
X224889200Y-95400800D01*
X223784546Y-95400800D01*
X223731808Y-95570281D01*
X223308192Y-95570281D01*
X223255454Y-95400800D01*
X222150800Y-95400800D01*
X221849200Y-95400800D01*
X220744546Y-95400800D01*
X220691808Y-95570281D01*
X208568192Y-95570281D01*
X208515454Y-95400800D01*
X207410800Y-95400800D01*
X207109200Y-95400800D01*
X206004546Y-95400800D01*
X205951808Y-95570281D01*
X205528192Y-95570281D01*
X205475454Y-95400800D01*
X204370800Y-95400800D01*
X204069200Y-95400800D01*
X202964546Y-95400800D01*
X202911808Y-95570281D01*
X190788192Y-95570281D01*
X190735454Y-95400800D01*
X189630800Y-95400800D01*
X189329200Y-95400800D01*
X188224546Y-95400800D01*
X188171808Y-95570281D01*
X187748192Y-95570281D01*
X187695454Y-95400800D01*
X186590800Y-95400800D01*
X186289200Y-95400800D01*
X185184546Y-95400800D01*
X185131808Y-95570281D01*
X173008192Y-95570281D01*
X172955454Y-95400800D01*
X171850800Y-95400800D01*
X171549200Y-95400800D01*
X170444546Y-95400800D01*
X170391808Y-95570281D01*
X169968192Y-95570281D01*
X169915454Y-95400800D01*
X168810800Y-95400800D01*
X168509200Y-95400800D01*
X167404546Y-95400800D01*
X167351808Y-95570281D01*
X155228192Y-95570281D01*
X155175454Y-95400800D01*
X154070800Y-95400800D01*
X153769200Y-95400800D01*
X152664546Y-95400800D01*
X152611808Y-95570281D01*
X152188192Y-95570281D01*
X152135454Y-95400800D01*
X151030800Y-95400800D01*
X150729200Y-95400800D01*
X149624546Y-95400800D01*
X149571808Y-95570281D01*
X137448192Y-95570281D01*
X137395454Y-95400800D01*
X136290800Y-95400800D01*
X135989200Y-95400800D01*
X134884546Y-95400800D01*
X134831808Y-95570281D01*
X134408192Y-95570281D01*
X134355454Y-95400800D01*
X133250800Y-95400800D01*
X132949200Y-95400800D01*
X131844546Y-95400800D01*
X131791808Y-95570281D01*
X119668192Y-95570281D01*
X119615454Y-95400800D01*
X118510800Y-95400800D01*
X118209200Y-95400800D01*
X117104546Y-95400800D01*
X117051808Y-95570281D01*
X116628192Y-95570281D01*
X116575454Y-95400800D01*
X115470800Y-95400800D01*
X115169200Y-95400800D01*
X114064546Y-95400800D01*
X114011808Y-95570281D01*
X101888192Y-95570281D01*
X101835454Y-95400800D01*
X100730800Y-95400800D01*
X100429200Y-95400800D01*
X99324546Y-95400800D01*
X99271808Y-95570281D01*
X98848192Y-95570281D01*
X98795454Y-95400800D01*
X97690800Y-95400800D01*
X97389200Y-95400800D01*
X96284546Y-95400800D01*
X96231808Y-95570281D01*
X74015456Y-95570281D01*
X74149361Y-95436376D01*
X74000182Y-95223021D01*
X73390685Y-95006829D01*
X72744851Y-95040339D01*
X72303818Y-95223021D01*
X72154639Y-95436376D01*
X53746328Y-95436376D01*
X53829361Y-95317624D01*
X52832000Y-94320263D01*
X51834639Y-95317624D01*
X45358566Y-95317624D01*
X45358566Y-93868315D01*
X51191829Y-93868315D01*
X51225339Y-94514149D01*
X51408021Y-94955182D01*
X51621376Y-95104361D01*
X52618737Y-94107000D01*
X53045263Y-94107000D01*
X54042624Y-95104361D01*
X54255979Y-94955182D01*
X54265010Y-94929719D01*
X96231808Y-94929719D01*
X96284546Y-95099200D01*
X97389200Y-95099200D01*
X97389200Y-94226565D01*
X97690800Y-94226565D01*
X97690800Y-95099200D01*
X98795454Y-95099200D01*
X98848192Y-94929719D01*
X99271808Y-94929719D01*
X99324546Y-95099200D01*
X100429200Y-95099200D01*
X100429200Y-94226565D01*
X100730800Y-94226565D01*
X100730800Y-95099200D01*
X101835454Y-95099200D01*
X101888192Y-94929719D01*
X114011808Y-94929719D01*
X114064546Y-95099200D01*
X115169200Y-95099200D01*
X115169200Y-94226565D01*
X115470800Y-94226565D01*
X115470800Y-95099200D01*
X116575454Y-95099200D01*
X116628192Y-94929719D01*
X117051808Y-94929719D01*
X117104546Y-95099200D01*
X118209200Y-95099200D01*
X118209200Y-94226565D01*
X118510800Y-94226565D01*
X118510800Y-95099200D01*
X119615454Y-95099200D01*
X119668192Y-94929719D01*
X131791808Y-94929719D01*
X131844546Y-95099200D01*
X132949200Y-95099200D01*
X132949200Y-94226565D01*
X133250800Y-94226565D01*
X133250800Y-95099200D01*
X134355454Y-95099200D01*
X134408192Y-94929719D01*
X134831808Y-94929719D01*
X134884546Y-95099200D01*
X135989200Y-95099200D01*
X135989200Y-94226565D01*
X136290800Y-94226565D01*
X136290800Y-95099200D01*
X137395454Y-95099200D01*
X137448192Y-94929719D01*
X149571808Y-94929719D01*
X149624546Y-95099200D01*
X150729200Y-95099200D01*
X150729200Y-94226565D01*
X151030800Y-94226565D01*
X151030800Y-95099200D01*
X152135454Y-95099200D01*
X152188192Y-94929719D01*
X152611808Y-94929719D01*
X152664546Y-95099200D01*
X153769200Y-95099200D01*
X153769200Y-94226565D01*
X154070800Y-94226565D01*
X154070800Y-95099200D01*
X155175454Y-95099200D01*
X155228192Y-94929719D01*
X167351808Y-94929719D01*
X167404546Y-95099200D01*
X168509200Y-95099200D01*
X168509200Y-94226565D01*
X168810800Y-94226565D01*
X168810800Y-95099200D01*
X169915454Y-95099200D01*
X169968192Y-94929719D01*
X170391808Y-94929719D01*
X170444546Y-95099200D01*
X171549200Y-95099200D01*
X171549200Y-94226565D01*
X171850800Y-94226565D01*
X171850800Y-95099200D01*
X172955454Y-95099200D01*
X173008192Y-94929719D01*
X185131808Y-94929719D01*
X185184546Y-95099200D01*
X186289200Y-95099200D01*
X186289200Y-94226565D01*
X186590800Y-94226565D01*
X186590800Y-95099200D01*
X187695454Y-95099200D01*
X187748192Y-94929719D01*
X188171808Y-94929719D01*
X188224546Y-95099200D01*
X189329200Y-95099200D01*
X189329200Y-94226565D01*
X189630800Y-94226565D01*
X189630800Y-95099200D01*
X190735454Y-95099200D01*
X190788192Y-94929719D01*
X202911808Y-94929719D01*
X202964546Y-95099200D01*
X204069200Y-95099200D01*
X204069200Y-94226565D01*
X204370800Y-94226565D01*
X204370800Y-95099200D01*
X205475454Y-95099200D01*
X205528192Y-94929719D01*
X205951808Y-94929719D01*
X206004546Y-95099200D01*
X207109200Y-95099200D01*
X207109200Y-94226565D01*
X207410800Y-94226565D01*
X207410800Y-95099200D01*
X208515454Y-95099200D01*
X208568192Y-94929719D01*
X220691808Y-94929719D01*
X220744546Y-95099200D01*
X221849200Y-95099200D01*
X221849200Y-94226565D01*
X222150800Y-94226565D01*
X222150800Y-95099200D01*
X223255454Y-95099200D01*
X223308192Y-94929719D01*
X223731808Y-94929719D01*
X223784546Y-95099200D01*
X224889200Y-95099200D01*
X224889200Y-94226565D01*
X225190800Y-94226565D01*
X225190800Y-95099200D01*
X226295454Y-95099200D01*
X226348192Y-94929719D01*
X226131590Y-94515931D01*
X225786612Y-94249746D01*
X225366029Y-94135841D01*
X225190800Y-94226565D01*
X224889200Y-94226565D01*
X224713971Y-94135841D01*
X224293388Y-94249746D01*
X223948410Y-94515931D01*
X223731808Y-94929719D01*
X223308192Y-94929719D01*
X223091590Y-94515931D01*
X222746612Y-94249746D01*
X222326029Y-94135841D01*
X222150800Y-94226565D01*
X221849200Y-94226565D01*
X221673971Y-94135841D01*
X221253388Y-94249746D01*
X220908410Y-94515931D01*
X220691808Y-94929719D01*
X208568192Y-94929719D01*
X208351590Y-94515931D01*
X208006612Y-94249746D01*
X207586029Y-94135841D01*
X207410800Y-94226565D01*
X207109200Y-94226565D01*
X206933971Y-94135841D01*
X206513388Y-94249746D01*
X206168410Y-94515931D01*
X205951808Y-94929719D01*
X205528192Y-94929719D01*
X205311590Y-94515931D01*
X204966612Y-94249746D01*
X204546029Y-94135841D01*
X204370800Y-94226565D01*
X204069200Y-94226565D01*
X203893971Y-94135841D01*
X203473388Y-94249746D01*
X203128410Y-94515931D01*
X202911808Y-94929719D01*
X190788192Y-94929719D01*
X190571590Y-94515931D01*
X190226612Y-94249746D01*
X189806029Y-94135841D01*
X189630800Y-94226565D01*
X189329200Y-94226565D01*
X189153971Y-94135841D01*
X188733388Y-94249746D01*
X188388410Y-94515931D01*
X188171808Y-94929719D01*
X187748192Y-94929719D01*
X187531590Y-94515931D01*
X187186612Y-94249746D01*
X186766029Y-94135841D01*
X186590800Y-94226565D01*
X186289200Y-94226565D01*
X186113971Y-94135841D01*
X185693388Y-94249746D01*
X185348410Y-94515931D01*
X185131808Y-94929719D01*
X173008192Y-94929719D01*
X172791590Y-94515931D01*
X172446612Y-94249746D01*
X172026029Y-94135841D01*
X171850800Y-94226565D01*
X171549200Y-94226565D01*
X171373971Y-94135841D01*
X170953388Y-94249746D01*
X170608410Y-94515931D01*
X170391808Y-94929719D01*
X169968192Y-94929719D01*
X169751590Y-94515931D01*
X169406612Y-94249746D01*
X168986029Y-94135841D01*
X168810800Y-94226565D01*
X168509200Y-94226565D01*
X168333971Y-94135841D01*
X167913388Y-94249746D01*
X167568410Y-94515931D01*
X167351808Y-94929719D01*
X155228192Y-94929719D01*
X155011590Y-94515931D01*
X154666612Y-94249746D01*
X154246029Y-94135841D01*
X154070800Y-94226565D01*
X153769200Y-94226565D01*
X153593971Y-94135841D01*
X153173388Y-94249746D01*
X152828410Y-94515931D01*
X152611808Y-94929719D01*
X152188192Y-94929719D01*
X151971590Y-94515931D01*
X151626612Y-94249746D01*
X151206029Y-94135841D01*
X151030800Y-94226565D01*
X150729200Y-94226565D01*
X150553971Y-94135841D01*
X150133388Y-94249746D01*
X149788410Y-94515931D01*
X149571808Y-94929719D01*
X137448192Y-94929719D01*
X137231590Y-94515931D01*
X136886612Y-94249746D01*
X136466029Y-94135841D01*
X136290800Y-94226565D01*
X135989200Y-94226565D01*
X135813971Y-94135841D01*
X135393388Y-94249746D01*
X135048410Y-94515931D01*
X134831808Y-94929719D01*
X134408192Y-94929719D01*
X134191590Y-94515931D01*
X133846612Y-94249746D01*
X133426029Y-94135841D01*
X133250800Y-94226565D01*
X132949200Y-94226565D01*
X132773971Y-94135841D01*
X132353388Y-94249746D01*
X132008410Y-94515931D01*
X131791808Y-94929719D01*
X119668192Y-94929719D01*
X119451590Y-94515931D01*
X119106612Y-94249746D01*
X118686029Y-94135841D01*
X118510800Y-94226565D01*
X118209200Y-94226565D01*
X118033971Y-94135841D01*
X117613388Y-94249746D01*
X117268410Y-94515931D01*
X117051808Y-94929719D01*
X116628192Y-94929719D01*
X116411590Y-94515931D01*
X116066612Y-94249746D01*
X115646029Y-94135841D01*
X115470800Y-94226565D01*
X115169200Y-94226565D01*
X114993971Y-94135841D01*
X114573388Y-94249746D01*
X114228410Y-94515931D01*
X114011808Y-94929719D01*
X101888192Y-94929719D01*
X101671590Y-94515931D01*
X101326612Y-94249746D01*
X100906029Y-94135841D01*
X100730800Y-94226565D01*
X100429200Y-94226565D01*
X100253971Y-94135841D01*
X99833388Y-94249746D01*
X99488410Y-94515931D01*
X99271808Y-94929719D01*
X98848192Y-94929719D01*
X98631590Y-94515931D01*
X98286612Y-94249746D01*
X97866029Y-94135841D01*
X97690800Y-94226565D01*
X97389200Y-94226565D01*
X97213971Y-94135841D01*
X96793388Y-94249746D01*
X96448410Y-94515931D01*
X96231808Y-94929719D01*
X54265010Y-94929719D01*
X54472171Y-94345685D01*
X54438661Y-93699851D01*
X54255979Y-93258818D01*
X54042624Y-93109639D01*
X53045263Y-94107000D01*
X52618737Y-94107000D01*
X51621376Y-93109639D01*
X51408021Y-93258818D01*
X51191829Y-93868315D01*
X45358566Y-93868315D01*
X45358566Y-93029000D01*
X45333770Y-92897223D01*
X45333225Y-92896376D01*
X51834639Y-92896376D01*
X52832000Y-93893737D01*
X53695456Y-93030281D01*
X96231808Y-93030281D01*
X96448410Y-93444069D01*
X96793388Y-93710254D01*
X97213971Y-93824159D01*
X97389200Y-93733435D01*
X97389200Y-92860800D01*
X97690800Y-92860800D01*
X97690800Y-93733435D01*
X97866029Y-93824159D01*
X98286612Y-93710254D01*
X98631590Y-93444069D01*
X98848192Y-93030281D01*
X99271808Y-93030281D01*
X99488410Y-93444069D01*
X99833388Y-93710254D01*
X100253971Y-93824159D01*
X100429200Y-93733435D01*
X100429200Y-92860800D01*
X100730800Y-92860800D01*
X100730800Y-93733435D01*
X100906029Y-93824159D01*
X101326612Y-93710254D01*
X101671590Y-93444069D01*
X101888192Y-93030281D01*
X114011808Y-93030281D01*
X114228410Y-93444069D01*
X114573388Y-93710254D01*
X114993971Y-93824159D01*
X115169200Y-93733435D01*
X115169200Y-92860800D01*
X115470800Y-92860800D01*
X115470800Y-93733435D01*
X115646029Y-93824159D01*
X116066612Y-93710254D01*
X116411590Y-93444069D01*
X116628192Y-93030281D01*
X117051808Y-93030281D01*
X117268410Y-93444069D01*
X117613388Y-93710254D01*
X118033971Y-93824159D01*
X118209200Y-93733435D01*
X118209200Y-92860800D01*
X118510800Y-92860800D01*
X118510800Y-93733435D01*
X118686029Y-93824159D01*
X119106612Y-93710254D01*
X119451590Y-93444069D01*
X119668192Y-93030281D01*
X131791808Y-93030281D01*
X132008410Y-93444069D01*
X132353388Y-93710254D01*
X132773971Y-93824159D01*
X132949200Y-93733435D01*
X132949200Y-92860800D01*
X133250800Y-92860800D01*
X133250800Y-93733435D01*
X133426029Y-93824159D01*
X133846612Y-93710254D01*
X134191590Y-93444069D01*
X134408192Y-93030281D01*
X134831808Y-93030281D01*
X135048410Y-93444069D01*
X135393388Y-93710254D01*
X135813971Y-93824159D01*
X135989200Y-93733435D01*
X135989200Y-92860800D01*
X136290800Y-92860800D01*
X136290800Y-93733435D01*
X136466029Y-93824159D01*
X136886612Y-93710254D01*
X137231590Y-93444069D01*
X137448192Y-93030281D01*
X149571808Y-93030281D01*
X149788410Y-93444069D01*
X150133388Y-93710254D01*
X150553971Y-93824159D01*
X150729200Y-93733435D01*
X150729200Y-92860800D01*
X151030800Y-92860800D01*
X151030800Y-93733435D01*
X151206029Y-93824159D01*
X151626612Y-93710254D01*
X151971590Y-93444069D01*
X152188192Y-93030281D01*
X152611808Y-93030281D01*
X152828410Y-93444069D01*
X153173388Y-93710254D01*
X153593971Y-93824159D01*
X153769200Y-93733435D01*
X153769200Y-92860800D01*
X154070800Y-92860800D01*
X154070800Y-93733435D01*
X154246029Y-93824159D01*
X154666612Y-93710254D01*
X155011590Y-93444069D01*
X155228192Y-93030281D01*
X167351808Y-93030281D01*
X167568410Y-93444069D01*
X167913388Y-93710254D01*
X168333971Y-93824159D01*
X168509200Y-93733435D01*
X168509200Y-92860800D01*
X168810800Y-92860800D01*
X168810800Y-93733435D01*
X168986029Y-93824159D01*
X169406612Y-93710254D01*
X169751590Y-93444069D01*
X169968192Y-93030281D01*
X170391808Y-93030281D01*
X170608410Y-93444069D01*
X170953388Y-93710254D01*
X171373971Y-93824159D01*
X171549200Y-93733435D01*
X171549200Y-92860800D01*
X171850800Y-92860800D01*
X171850800Y-93733435D01*
X172026029Y-93824159D01*
X172446612Y-93710254D01*
X172791590Y-93444069D01*
X173008192Y-93030281D01*
X185131808Y-93030281D01*
X185348410Y-93444069D01*
X185693388Y-93710254D01*
X186113971Y-93824159D01*
X186289200Y-93733435D01*
X186289200Y-92860800D01*
X186590800Y-92860800D01*
X186590800Y-93733435D01*
X186766029Y-93824159D01*
X187186612Y-93710254D01*
X187531590Y-93444069D01*
X187748192Y-93030281D01*
X188171808Y-93030281D01*
X188388410Y-93444069D01*
X188733388Y-93710254D01*
X189153971Y-93824159D01*
X189329200Y-93733435D01*
X189329200Y-92860800D01*
X189630800Y-92860800D01*
X189630800Y-93733435D01*
X189806029Y-93824159D01*
X190226612Y-93710254D01*
X190571590Y-93444069D01*
X190788192Y-93030281D01*
X202911808Y-93030281D01*
X203128410Y-93444069D01*
X203473388Y-93710254D01*
X203893971Y-93824159D01*
X204069200Y-93733435D01*
X204069200Y-92860800D01*
X204370800Y-92860800D01*
X204370800Y-93733435D01*
X204546029Y-93824159D01*
X204966612Y-93710254D01*
X205311590Y-93444069D01*
X205528192Y-93030281D01*
X205951808Y-93030281D01*
X206168410Y-93444069D01*
X206513388Y-93710254D01*
X206933971Y-93824159D01*
X207109200Y-93733435D01*
X207109200Y-92860800D01*
X207410800Y-92860800D01*
X207410800Y-93733435D01*
X207586029Y-93824159D01*
X208006612Y-93710254D01*
X208351590Y-93444069D01*
X208568192Y-93030281D01*
X220691808Y-93030281D01*
X220908410Y-93444069D01*
X221253388Y-93710254D01*
X221673971Y-93824159D01*
X221849200Y-93733435D01*
X221849200Y-92860800D01*
X222150800Y-92860800D01*
X222150800Y-93733435D01*
X222326029Y-93824159D01*
X222746612Y-93710254D01*
X223091590Y-93444069D01*
X223308192Y-93030281D01*
X223731808Y-93030281D01*
X223948410Y-93444069D01*
X224293388Y-93710254D01*
X224713971Y-93824159D01*
X224889200Y-93733435D01*
X224889200Y-92860800D01*
X225190800Y-92860800D01*
X225190800Y-93733435D01*
X225366029Y-93824159D01*
X225786612Y-93710254D01*
X226131590Y-93444069D01*
X226348192Y-93030281D01*
X226295454Y-92860800D01*
X225190800Y-92860800D01*
X224889200Y-92860800D01*
X223784546Y-92860800D01*
X223731808Y-93030281D01*
X223308192Y-93030281D01*
X223255454Y-92860800D01*
X222150800Y-92860800D01*
X221849200Y-92860800D01*
X220744546Y-92860800D01*
X220691808Y-93030281D01*
X208568192Y-93030281D01*
X208515454Y-92860800D01*
X207410800Y-92860800D01*
X207109200Y-92860800D01*
X206004546Y-92860800D01*
X205951808Y-93030281D01*
X205528192Y-93030281D01*
X205475454Y-92860800D01*
X204370800Y-92860800D01*
X204069200Y-92860800D01*
X202964546Y-92860800D01*
X202911808Y-93030281D01*
X190788192Y-93030281D01*
X190735454Y-92860800D01*
X189630800Y-92860800D01*
X189329200Y-92860800D01*
X188224546Y-92860800D01*
X188171808Y-93030281D01*
X187748192Y-93030281D01*
X187695454Y-92860800D01*
X186590800Y-92860800D01*
X186289200Y-92860800D01*
X185184546Y-92860800D01*
X185131808Y-93030281D01*
X173008192Y-93030281D01*
X172955454Y-92860800D01*
X171850800Y-92860800D01*
X171549200Y-92860800D01*
X170444546Y-92860800D01*
X170391808Y-93030281D01*
X169968192Y-93030281D01*
X169915454Y-92860800D01*
X168810800Y-92860800D01*
X168509200Y-92860800D01*
X167404546Y-92860800D01*
X167351808Y-93030281D01*
X155228192Y-93030281D01*
X155175454Y-92860800D01*
X154070800Y-92860800D01*
X153769200Y-92860800D01*
X152664546Y-92860800D01*
X152611808Y-93030281D01*
X152188192Y-93030281D01*
X152135454Y-92860800D01*
X151030800Y-92860800D01*
X150729200Y-92860800D01*
X149624546Y-92860800D01*
X149571808Y-93030281D01*
X137448192Y-93030281D01*
X137395454Y-92860800D01*
X136290800Y-92860800D01*
X135989200Y-92860800D01*
X134884546Y-92860800D01*
X134831808Y-93030281D01*
X134408192Y-93030281D01*
X134355454Y-92860800D01*
X133250800Y-92860800D01*
X132949200Y-92860800D01*
X131844546Y-92860800D01*
X131791808Y-93030281D01*
X119668192Y-93030281D01*
X119615454Y-92860800D01*
X118510800Y-92860800D01*
X118209200Y-92860800D01*
X117104546Y-92860800D01*
X117051808Y-93030281D01*
X116628192Y-93030281D01*
X116575454Y-92860800D01*
X115470800Y-92860800D01*
X115169200Y-92860800D01*
X114064546Y-92860800D01*
X114011808Y-93030281D01*
X101888192Y-93030281D01*
X101835454Y-92860800D01*
X100730800Y-92860800D01*
X100429200Y-92860800D01*
X99324546Y-92860800D01*
X99271808Y-93030281D01*
X98848192Y-93030281D01*
X98795454Y-92860800D01*
X97690800Y-92860800D01*
X97389200Y-92860800D01*
X96284546Y-92860800D01*
X96231808Y-93030281D01*
X53695456Y-93030281D01*
X53829361Y-92896376D01*
X53680182Y-92683021D01*
X53070685Y-92466829D01*
X52424851Y-92500339D01*
X51983818Y-92683021D01*
X51834639Y-92896376D01*
X45333225Y-92896376D01*
X45255890Y-92776193D01*
X45137058Y-92694999D01*
X44996000Y-92666434D01*
X43396000Y-92666434D01*
X43264223Y-92691230D01*
X43143193Y-92769110D01*
X43061999Y-92887942D01*
X43033434Y-93029000D01*
X43033434Y-96029000D01*
X43058230Y-96160777D01*
X43136110Y-96281807D01*
X43213400Y-96334617D01*
X43213400Y-97695928D01*
X42913312Y-97755619D01*
X42392418Y-98103669D01*
X42044368Y-98624563D01*
X41922149Y-99239000D01*
X38530600Y-99239000D01*
X38530600Y-92389719D01*
X96231808Y-92389719D01*
X96284546Y-92559200D01*
X97389200Y-92559200D01*
X97389200Y-91686565D01*
X97690800Y-91686565D01*
X97690800Y-92559200D01*
X98795454Y-92559200D01*
X98848192Y-92389719D01*
X99271808Y-92389719D01*
X99324546Y-92559200D01*
X100429200Y-92559200D01*
X100429200Y-91686565D01*
X100730800Y-91686565D01*
X100730800Y-92559200D01*
X101835454Y-92559200D01*
X101888192Y-92389719D01*
X114011808Y-92389719D01*
X114064546Y-92559200D01*
X115169200Y-92559200D01*
X115169200Y-91686565D01*
X115470800Y-91686565D01*
X115470800Y-92559200D01*
X116575454Y-92559200D01*
X116628192Y-92389719D01*
X117051808Y-92389719D01*
X117104546Y-92559200D01*
X118209200Y-92559200D01*
X118209200Y-91686565D01*
X118510800Y-91686565D01*
X118510800Y-92559200D01*
X119615454Y-92559200D01*
X119668192Y-92389719D01*
X131791808Y-92389719D01*
X131844546Y-92559200D01*
X132949200Y-92559200D01*
X132949200Y-91686565D01*
X133250800Y-91686565D01*
X133250800Y-92559200D01*
X134355454Y-92559200D01*
X134408192Y-92389719D01*
X134831808Y-92389719D01*
X134884546Y-92559200D01*
X135989200Y-92559200D01*
X135989200Y-91686565D01*
X136290800Y-91686565D01*
X136290800Y-92559200D01*
X137395454Y-92559200D01*
X137448192Y-92389719D01*
X149571808Y-92389719D01*
X149624546Y-92559200D01*
X150729200Y-92559200D01*
X150729200Y-91686565D01*
X151030800Y-91686565D01*
X151030800Y-92559200D01*
X152135454Y-92559200D01*
X152188192Y-92389719D01*
X152611808Y-92389719D01*
X152664546Y-92559200D01*
X153769200Y-92559200D01*
X153769200Y-91686565D01*
X154070800Y-91686565D01*
X154070800Y-92559200D01*
X155175454Y-92559200D01*
X155228192Y-92389719D01*
X167351808Y-92389719D01*
X167404546Y-92559200D01*
X168509200Y-92559200D01*
X168509200Y-91686565D01*
X168810800Y-91686565D01*
X168810800Y-92559200D01*
X169915454Y-92559200D01*
X169968192Y-92389719D01*
X170391808Y-92389719D01*
X170444546Y-92559200D01*
X171549200Y-92559200D01*
X171549200Y-91686565D01*
X171850800Y-91686565D01*
X171850800Y-92559200D01*
X172955454Y-92559200D01*
X173008192Y-92389719D01*
X185131808Y-92389719D01*
X185184546Y-92559200D01*
X186289200Y-92559200D01*
X186289200Y-91686565D01*
X186590800Y-91686565D01*
X186590800Y-92559200D01*
X187695454Y-92559200D01*
X187748192Y-92389719D01*
X188171808Y-92389719D01*
X188224546Y-92559200D01*
X189329200Y-92559200D01*
X189329200Y-91686565D01*
X189630800Y-91686565D01*
X189630800Y-92559200D01*
X190735454Y-92559200D01*
X190788192Y-92389719D01*
X202911808Y-92389719D01*
X202964546Y-92559200D01*
X204069200Y-92559200D01*
X204069200Y-91686565D01*
X204370800Y-91686565D01*
X204370800Y-92559200D01*
X205475454Y-92559200D01*
X205528192Y-92389719D01*
X205951808Y-92389719D01*
X206004546Y-92559200D01*
X207109200Y-92559200D01*
X207109200Y-91686565D01*
X207410800Y-91686565D01*
X207410800Y-92559200D01*
X208515454Y-92559200D01*
X208568192Y-92389719D01*
X220691808Y-92389719D01*
X220744546Y-92559200D01*
X221849200Y-92559200D01*
X221849200Y-91686565D01*
X222150800Y-91686565D01*
X222150800Y-92559200D01*
X223255454Y-92559200D01*
X223308192Y-92389719D01*
X223731808Y-92389719D01*
X223784546Y-92559200D01*
X224889200Y-92559200D01*
X224889200Y-91686565D01*
X225190800Y-91686565D01*
X225190800Y-92559200D01*
X226295454Y-92559200D01*
X226348192Y-92389719D01*
X226131590Y-91975931D01*
X225786612Y-91709746D01*
X225366029Y-91595841D01*
X225190800Y-91686565D01*
X224889200Y-91686565D01*
X224713971Y-91595841D01*
X224293388Y-91709746D01*
X223948410Y-91975931D01*
X223731808Y-92389719D01*
X223308192Y-92389719D01*
X223091590Y-91975931D01*
X222746612Y-91709746D01*
X222326029Y-91595841D01*
X222150800Y-91686565D01*
X221849200Y-91686565D01*
X221673971Y-91595841D01*
X221253388Y-91709746D01*
X220908410Y-91975931D01*
X220691808Y-92389719D01*
X208568192Y-92389719D01*
X208351590Y-91975931D01*
X208006612Y-91709746D01*
X207586029Y-91595841D01*
X207410800Y-91686565D01*
X207109200Y-91686565D01*
X206933971Y-91595841D01*
X206513388Y-91709746D01*
X206168410Y-91975931D01*
X205951808Y-92389719D01*
X205528192Y-92389719D01*
X205311590Y-91975931D01*
X204966612Y-91709746D01*
X204546029Y-91595841D01*
X204370800Y-91686565D01*
X204069200Y-91686565D01*
X203893971Y-91595841D01*
X203473388Y-91709746D01*
X203128410Y-91975931D01*
X202911808Y-92389719D01*
X190788192Y-92389719D01*
X190571590Y-91975931D01*
X190226612Y-91709746D01*
X189806029Y-91595841D01*
X189630800Y-91686565D01*
X189329200Y-91686565D01*
X189153971Y-91595841D01*
X188733388Y-91709746D01*
X188388410Y-91975931D01*
X188171808Y-92389719D01*
X187748192Y-92389719D01*
X187531590Y-91975931D01*
X187186612Y-91709746D01*
X186766029Y-91595841D01*
X186590800Y-91686565D01*
X186289200Y-91686565D01*
X186113971Y-91595841D01*
X185693388Y-91709746D01*
X185348410Y-91975931D01*
X185131808Y-92389719D01*
X173008192Y-92389719D01*
X172791590Y-91975931D01*
X172446612Y-91709746D01*
X172026029Y-91595841D01*
X171850800Y-91686565D01*
X171549200Y-91686565D01*
X171373971Y-91595841D01*
X170953388Y-91709746D01*
X170608410Y-91975931D01*
X170391808Y-92389719D01*
X169968192Y-92389719D01*
X169751590Y-91975931D01*
X169406612Y-91709746D01*
X168986029Y-91595841D01*
X168810800Y-91686565D01*
X168509200Y-91686565D01*
X168333971Y-91595841D01*
X167913388Y-91709746D01*
X167568410Y-91975931D01*
X167351808Y-92389719D01*
X155228192Y-92389719D01*
X155011590Y-91975931D01*
X154666612Y-91709746D01*
X154246029Y-91595841D01*
X154070800Y-91686565D01*
X153769200Y-91686565D01*
X153593971Y-91595841D01*
X153173388Y-91709746D01*
X152828410Y-91975931D01*
X152611808Y-92389719D01*
X152188192Y-92389719D01*
X151971590Y-91975931D01*
X151626612Y-91709746D01*
X151206029Y-91595841D01*
X151030800Y-91686565D01*
X150729200Y-91686565D01*
X150553971Y-91595841D01*
X150133388Y-91709746D01*
X149788410Y-91975931D01*
X149571808Y-92389719D01*
X137448192Y-92389719D01*
X137231590Y-91975931D01*
X136886612Y-91709746D01*
X136466029Y-91595841D01*
X136290800Y-91686565D01*
X135989200Y-91686565D01*
X135813971Y-91595841D01*
X135393388Y-91709746D01*
X135048410Y-91975931D01*
X134831808Y-92389719D01*
X134408192Y-92389719D01*
X134191590Y-91975931D01*
X133846612Y-91709746D01*
X133426029Y-91595841D01*
X133250800Y-91686565D01*
X132949200Y-91686565D01*
X132773971Y-91595841D01*
X132353388Y-91709746D01*
X132008410Y-91975931D01*
X131791808Y-92389719D01*
X119668192Y-92389719D01*
X119451590Y-91975931D01*
X119106612Y-91709746D01*
X118686029Y-91595841D01*
X118510800Y-91686565D01*
X118209200Y-91686565D01*
X118033971Y-91595841D01*
X117613388Y-91709746D01*
X117268410Y-91975931D01*
X117051808Y-92389719D01*
X116628192Y-92389719D01*
X116411590Y-91975931D01*
X116066612Y-91709746D01*
X115646029Y-91595841D01*
X115470800Y-91686565D01*
X115169200Y-91686565D01*
X114993971Y-91595841D01*
X114573388Y-91709746D01*
X114228410Y-91975931D01*
X114011808Y-92389719D01*
X101888192Y-92389719D01*
X101671590Y-91975931D01*
X101326612Y-91709746D01*
X100906029Y-91595841D01*
X100730800Y-91686565D01*
X100429200Y-91686565D01*
X100253971Y-91595841D01*
X99833388Y-91709746D01*
X99488410Y-91975931D01*
X99271808Y-92389719D01*
X98848192Y-92389719D01*
X98631590Y-91975931D01*
X98286612Y-91709746D01*
X97866029Y-91595841D01*
X97690800Y-91686565D01*
X97389200Y-91686565D01*
X97213971Y-91595841D01*
X96793388Y-91709746D01*
X96448410Y-91975931D01*
X96231808Y-92389719D01*
X38530600Y-92389719D01*
X38530600Y-90368700D01*
X43040400Y-90368700D01*
X43040400Y-91699733D01*
X43094537Y-91830431D01*
X43194569Y-91930463D01*
X43325267Y-91984600D01*
X43956300Y-91984600D01*
X44045200Y-91895700D01*
X44045200Y-90279800D01*
X44346800Y-90279800D01*
X44346800Y-91895700D01*
X44435700Y-91984600D01*
X45066733Y-91984600D01*
X45197431Y-91930463D01*
X45297463Y-91830431D01*
X45351600Y-91699733D01*
X45351600Y-90490281D01*
X96231808Y-90490281D01*
X96448410Y-90904069D01*
X96793388Y-91170254D01*
X97213971Y-91284159D01*
X97389200Y-91193435D01*
X97389200Y-90320800D01*
X97690800Y-90320800D01*
X97690800Y-91193435D01*
X97866029Y-91284159D01*
X98286612Y-91170254D01*
X98631590Y-90904069D01*
X98848192Y-90490281D01*
X99271808Y-90490281D01*
X99488410Y-90904069D01*
X99833388Y-91170254D01*
X100253971Y-91284159D01*
X100429200Y-91193435D01*
X100429200Y-90320800D01*
X100730800Y-90320800D01*
X100730800Y-91193435D01*
X100906029Y-91284159D01*
X101326612Y-91170254D01*
X101671590Y-90904069D01*
X101888192Y-90490281D01*
X114011808Y-90490281D01*
X114228410Y-90904069D01*
X114573388Y-91170254D01*
X114993971Y-91284159D01*
X115169200Y-91193435D01*
X115169200Y-90320800D01*
X115470800Y-90320800D01*
X115470800Y-91193435D01*
X115646029Y-91284159D01*
X116066612Y-91170254D01*
X116411590Y-90904069D01*
X116628192Y-90490281D01*
X117051808Y-90490281D01*
X117268410Y-90904069D01*
X117613388Y-91170254D01*
X118033971Y-91284159D01*
X118209200Y-91193435D01*
X118209200Y-90320800D01*
X118510800Y-90320800D01*
X118510800Y-91193435D01*
X118686029Y-91284159D01*
X119106612Y-91170254D01*
X119451590Y-90904069D01*
X119668192Y-90490281D01*
X131791808Y-90490281D01*
X132008410Y-90904069D01*
X132353388Y-91170254D01*
X132773971Y-91284159D01*
X132949200Y-91193435D01*
X132949200Y-90320800D01*
X133250800Y-90320800D01*
X133250800Y-91193435D01*
X133426029Y-91284159D01*
X133846612Y-91170254D01*
X134191590Y-90904069D01*
X134408192Y-90490281D01*
X134831808Y-90490281D01*
X135048410Y-90904069D01*
X135393388Y-91170254D01*
X135813971Y-91284159D01*
X135989200Y-91193435D01*
X135989200Y-90320800D01*
X136290800Y-90320800D01*
X136290800Y-91193435D01*
X136466029Y-91284159D01*
X136886612Y-91170254D01*
X137231590Y-90904069D01*
X137448192Y-90490281D01*
X149571808Y-90490281D01*
X149788410Y-90904069D01*
X150133388Y-91170254D01*
X150553971Y-91284159D01*
X150729200Y-91193435D01*
X150729200Y-90320800D01*
X151030800Y-90320800D01*
X151030800Y-91193435D01*
X151206029Y-91284159D01*
X151626612Y-91170254D01*
X151971590Y-90904069D01*
X152188192Y-90490281D01*
X152611808Y-90490281D01*
X152828410Y-90904069D01*
X153173388Y-91170254D01*
X153593971Y-91284159D01*
X153769200Y-91193435D01*
X153769200Y-90320800D01*
X154070800Y-90320800D01*
X154070800Y-91193435D01*
X154246029Y-91284159D01*
X154666612Y-91170254D01*
X155011590Y-90904069D01*
X155228192Y-90490281D01*
X167351808Y-90490281D01*
X167568410Y-90904069D01*
X167913388Y-91170254D01*
X168333971Y-91284159D01*
X168509200Y-91193435D01*
X168509200Y-90320800D01*
X168810800Y-90320800D01*
X168810800Y-91193435D01*
X168986029Y-91284159D01*
X169406612Y-91170254D01*
X169751590Y-90904069D01*
X169968192Y-90490281D01*
X170391808Y-90490281D01*
X170608410Y-90904069D01*
X170953388Y-91170254D01*
X171373971Y-91284159D01*
X171549200Y-91193435D01*
X171549200Y-90320800D01*
X171850800Y-90320800D01*
X171850800Y-91193435D01*
X172026029Y-91284159D01*
X172446612Y-91170254D01*
X172791590Y-90904069D01*
X173008192Y-90490281D01*
X185131808Y-90490281D01*
X185348410Y-90904069D01*
X185693388Y-91170254D01*
X186113971Y-91284159D01*
X186289200Y-91193435D01*
X186289200Y-90320800D01*
X186590800Y-90320800D01*
X186590800Y-91193435D01*
X186766029Y-91284159D01*
X187186612Y-91170254D01*
X187531590Y-90904069D01*
X187748192Y-90490281D01*
X188171808Y-90490281D01*
X188388410Y-90904069D01*
X188733388Y-91170254D01*
X189153971Y-91284159D01*
X189329200Y-91193435D01*
X189329200Y-90320800D01*
X189630800Y-90320800D01*
X189630800Y-91193435D01*
X189806029Y-91284159D01*
X190226612Y-91170254D01*
X190571590Y-90904069D01*
X190788192Y-90490281D01*
X202911808Y-90490281D01*
X203128410Y-90904069D01*
X203473388Y-91170254D01*
X203893971Y-91284159D01*
X204069200Y-91193435D01*
X204069200Y-90320800D01*
X204370800Y-90320800D01*
X204370800Y-91193435D01*
X204546029Y-91284159D01*
X204966612Y-91170254D01*
X205311590Y-90904069D01*
X205528192Y-90490281D01*
X205951808Y-90490281D01*
X206168410Y-90904069D01*
X206513388Y-91170254D01*
X206933971Y-91284159D01*
X207109200Y-91193435D01*
X207109200Y-90320800D01*
X207410800Y-90320800D01*
X207410800Y-91193435D01*
X207586029Y-91284159D01*
X208006612Y-91170254D01*
X208351590Y-90904069D01*
X208568192Y-90490281D01*
X220691808Y-90490281D01*
X220908410Y-90904069D01*
X221253388Y-91170254D01*
X221673971Y-91284159D01*
X221849200Y-91193435D01*
X221849200Y-90320800D01*
X222150800Y-90320800D01*
X222150800Y-91193435D01*
X222326029Y-91284159D01*
X222746612Y-91170254D01*
X223091590Y-90904069D01*
X223308192Y-90490281D01*
X223731808Y-90490281D01*
X223948410Y-90904069D01*
X224293388Y-91170254D01*
X224713971Y-91284159D01*
X224889200Y-91193435D01*
X224889200Y-90320800D01*
X225190800Y-90320800D01*
X225190800Y-91193435D01*
X225366029Y-91284159D01*
X225786612Y-91170254D01*
X226131590Y-90904069D01*
X226348192Y-90490281D01*
X226295454Y-90320800D01*
X225190800Y-90320800D01*
X224889200Y-90320800D01*
X223784546Y-90320800D01*
X223731808Y-90490281D01*
X223308192Y-90490281D01*
X223255454Y-90320800D01*
X222150800Y-90320800D01*
X221849200Y-90320800D01*
X220744546Y-90320800D01*
X220691808Y-90490281D01*
X208568192Y-90490281D01*
X208515454Y-90320800D01*
X207410800Y-90320800D01*
X207109200Y-90320800D01*
X206004546Y-90320800D01*
X205951808Y-90490281D01*
X205528192Y-90490281D01*
X205475454Y-90320800D01*
X204370800Y-90320800D01*
X204069200Y-90320800D01*
X202964546Y-90320800D01*
X202911808Y-90490281D01*
X190788192Y-90490281D01*
X190735454Y-90320800D01*
X189630800Y-90320800D01*
X189329200Y-90320800D01*
X188224546Y-90320800D01*
X188171808Y-90490281D01*
X187748192Y-90490281D01*
X187695454Y-90320800D01*
X186590800Y-90320800D01*
X186289200Y-90320800D01*
X185184546Y-90320800D01*
X185131808Y-90490281D01*
X173008192Y-90490281D01*
X172955454Y-90320800D01*
X171850800Y-90320800D01*
X171549200Y-90320800D01*
X170444546Y-90320800D01*
X170391808Y-90490281D01*
X169968192Y-90490281D01*
X169915454Y-90320800D01*
X168810800Y-90320800D01*
X168509200Y-90320800D01*
X167404546Y-90320800D01*
X167351808Y-90490281D01*
X155228192Y-90490281D01*
X155175454Y-90320800D01*
X154070800Y-90320800D01*
X153769200Y-90320800D01*
X152664546Y-90320800D01*
X152611808Y-90490281D01*
X152188192Y-90490281D01*
X152135454Y-90320800D01*
X151030800Y-90320800D01*
X150729200Y-90320800D01*
X149624546Y-90320800D01*
X149571808Y-90490281D01*
X137448192Y-90490281D01*
X137395454Y-90320800D01*
X136290800Y-90320800D01*
X135989200Y-90320800D01*
X134884546Y-90320800D01*
X134831808Y-90490281D01*
X134408192Y-90490281D01*
X134355454Y-90320800D01*
X133250800Y-90320800D01*
X132949200Y-90320800D01*
X131844546Y-90320800D01*
X131791808Y-90490281D01*
X119668192Y-90490281D01*
X119615454Y-90320800D01*
X118510800Y-90320800D01*
X118209200Y-90320800D01*
X117104546Y-90320800D01*
X117051808Y-90490281D01*
X116628192Y-90490281D01*
X116575454Y-90320800D01*
X115470800Y-90320800D01*
X115169200Y-90320800D01*
X114064546Y-90320800D01*
X114011808Y-90490281D01*
X101888192Y-90490281D01*
X101835454Y-90320800D01*
X100730800Y-90320800D01*
X100429200Y-90320800D01*
X99324546Y-90320800D01*
X99271808Y-90490281D01*
X98848192Y-90490281D01*
X98795454Y-90320800D01*
X97690800Y-90320800D01*
X97389200Y-90320800D01*
X96284546Y-90320800D01*
X96231808Y-90490281D01*
X45351600Y-90490281D01*
X45351600Y-90368700D01*
X45262700Y-90279800D01*
X44346800Y-90279800D01*
X44045200Y-90279800D01*
X43129300Y-90279800D01*
X43040400Y-90368700D01*
X38530600Y-90368700D01*
X38530600Y-88558267D01*
X43040400Y-88558267D01*
X43040400Y-89889300D01*
X43129300Y-89978200D01*
X44045200Y-89978200D01*
X44045200Y-88362300D01*
X44346800Y-88362300D01*
X44346800Y-89978200D01*
X45262700Y-89978200D01*
X45351600Y-89889300D01*
X45351600Y-89496700D01*
X77076400Y-89496700D01*
X77076400Y-89827733D01*
X77130537Y-89958431D01*
X77230569Y-90058463D01*
X77361267Y-90112600D01*
X77992300Y-90112600D01*
X78081200Y-90023700D01*
X78081200Y-89407800D01*
X78382800Y-89407800D01*
X78382800Y-90023700D01*
X78471700Y-90112600D01*
X79102733Y-90112600D01*
X79233431Y-90058463D01*
X79333463Y-89958431D01*
X79378493Y-89849719D01*
X96231808Y-89849719D01*
X96284546Y-90019200D01*
X97389200Y-90019200D01*
X97389200Y-89146565D01*
X97690800Y-89146565D01*
X97690800Y-90019200D01*
X98795454Y-90019200D01*
X98848192Y-89849719D01*
X99271808Y-89849719D01*
X99324546Y-90019200D01*
X100429200Y-90019200D01*
X100429200Y-89146565D01*
X100730800Y-89146565D01*
X100730800Y-90019200D01*
X101835454Y-90019200D01*
X101888192Y-89849719D01*
X114011808Y-89849719D01*
X114064546Y-90019200D01*
X115169200Y-90019200D01*
X115169200Y-89146565D01*
X115470800Y-89146565D01*
X115470800Y-90019200D01*
X116575454Y-90019200D01*
X116628192Y-89849719D01*
X117051808Y-89849719D01*
X117104546Y-90019200D01*
X118209200Y-90019200D01*
X118209200Y-89146565D01*
X118510800Y-89146565D01*
X118510800Y-90019200D01*
X119615454Y-90019200D01*
X119668192Y-89849719D01*
X131791808Y-89849719D01*
X131844546Y-90019200D01*
X132949200Y-90019200D01*
X132949200Y-89146565D01*
X133250800Y-89146565D01*
X133250800Y-90019200D01*
X134355454Y-90019200D01*
X134408192Y-89849719D01*
X134831808Y-89849719D01*
X134884546Y-90019200D01*
X135989200Y-90019200D01*
X135989200Y-89146565D01*
X136290800Y-89146565D01*
X136290800Y-90019200D01*
X137395454Y-90019200D01*
X137448192Y-89849719D01*
X149571808Y-89849719D01*
X149624546Y-90019200D01*
X150729200Y-90019200D01*
X150729200Y-89146565D01*
X151030800Y-89146565D01*
X151030800Y-90019200D01*
X152135454Y-90019200D01*
X152188192Y-89849719D01*
X152611808Y-89849719D01*
X152664546Y-90019200D01*
X153769200Y-90019200D01*
X153769200Y-89146565D01*
X154070800Y-89146565D01*
X154070800Y-90019200D01*
X155175454Y-90019200D01*
X155228192Y-89849719D01*
X167351808Y-89849719D01*
X167404546Y-90019200D01*
X168509200Y-90019200D01*
X168509200Y-89146565D01*
X168810800Y-89146565D01*
X168810800Y-90019200D01*
X169915454Y-90019200D01*
X169968192Y-89849719D01*
X170391808Y-89849719D01*
X170444546Y-90019200D01*
X171549200Y-90019200D01*
X171549200Y-89146565D01*
X171850800Y-89146565D01*
X171850800Y-90019200D01*
X172955454Y-90019200D01*
X173008192Y-89849719D01*
X185131808Y-89849719D01*
X185184546Y-90019200D01*
X186289200Y-90019200D01*
X186289200Y-89146565D01*
X186590800Y-89146565D01*
X186590800Y-90019200D01*
X187695454Y-90019200D01*
X187748192Y-89849719D01*
X188171808Y-89849719D01*
X188224546Y-90019200D01*
X189329200Y-90019200D01*
X189329200Y-89146565D01*
X189630800Y-89146565D01*
X189630800Y-90019200D01*
X190735454Y-90019200D01*
X190788192Y-89849719D01*
X202911808Y-89849719D01*
X202964546Y-90019200D01*
X204069200Y-90019200D01*
X204069200Y-89146565D01*
X204370800Y-89146565D01*
X204370800Y-90019200D01*
X205475454Y-90019200D01*
X205528192Y-89849719D01*
X205951808Y-89849719D01*
X206004546Y-90019200D01*
X207109200Y-90019200D01*
X207109200Y-89146565D01*
X207410800Y-89146565D01*
X207410800Y-90019200D01*
X208515454Y-90019200D01*
X208568192Y-89849719D01*
X220691808Y-89849719D01*
X220744546Y-90019200D01*
X221849200Y-90019200D01*
X221849200Y-89146565D01*
X222150800Y-89146565D01*
X222150800Y-90019200D01*
X223255454Y-90019200D01*
X223308192Y-89849719D01*
X223731808Y-89849719D01*
X223784546Y-90019200D01*
X224889200Y-90019200D01*
X224889200Y-89146565D01*
X225190800Y-89146565D01*
X225190800Y-90019200D01*
X226295454Y-90019200D01*
X226348192Y-89849719D01*
X226131590Y-89435931D01*
X225786612Y-89169746D01*
X225366029Y-89055841D01*
X225190800Y-89146565D01*
X224889200Y-89146565D01*
X224713971Y-89055841D01*
X224293388Y-89169746D01*
X223948410Y-89435931D01*
X223731808Y-89849719D01*
X223308192Y-89849719D01*
X223091590Y-89435931D01*
X222746612Y-89169746D01*
X222326029Y-89055841D01*
X222150800Y-89146565D01*
X221849200Y-89146565D01*
X221673971Y-89055841D01*
X221253388Y-89169746D01*
X220908410Y-89435931D01*
X220691808Y-89849719D01*
X208568192Y-89849719D01*
X208351590Y-89435931D01*
X208006612Y-89169746D01*
X207586029Y-89055841D01*
X207410800Y-89146565D01*
X207109200Y-89146565D01*
X206933971Y-89055841D01*
X206513388Y-89169746D01*
X206168410Y-89435931D01*
X205951808Y-89849719D01*
X205528192Y-89849719D01*
X205311590Y-89435931D01*
X204966612Y-89169746D01*
X204546029Y-89055841D01*
X204370800Y-89146565D01*
X204069200Y-89146565D01*
X203893971Y-89055841D01*
X203473388Y-89169746D01*
X203128410Y-89435931D01*
X202911808Y-89849719D01*
X190788192Y-89849719D01*
X190571590Y-89435931D01*
X190226612Y-89169746D01*
X189806029Y-89055841D01*
X189630800Y-89146565D01*
X189329200Y-89146565D01*
X189153971Y-89055841D01*
X188733388Y-89169746D01*
X188388410Y-89435931D01*
X188171808Y-89849719D01*
X187748192Y-89849719D01*
X187531590Y-89435931D01*
X187186612Y-89169746D01*
X186766029Y-89055841D01*
X186590800Y-89146565D01*
X186289200Y-89146565D01*
X186113971Y-89055841D01*
X185693388Y-89169746D01*
X185348410Y-89435931D01*
X185131808Y-89849719D01*
X173008192Y-89849719D01*
X172791590Y-89435931D01*
X172446612Y-89169746D01*
X172026029Y-89055841D01*
X171850800Y-89146565D01*
X171549200Y-89146565D01*
X171373971Y-89055841D01*
X170953388Y-89169746D01*
X170608410Y-89435931D01*
X170391808Y-89849719D01*
X169968192Y-89849719D01*
X169751590Y-89435931D01*
X169406612Y-89169746D01*
X168986029Y-89055841D01*
X168810800Y-89146565D01*
X168509200Y-89146565D01*
X168333971Y-89055841D01*
X167913388Y-89169746D01*
X167568410Y-89435931D01*
X167351808Y-89849719D01*
X155228192Y-89849719D01*
X155011590Y-89435931D01*
X154666612Y-89169746D01*
X154246029Y-89055841D01*
X154070800Y-89146565D01*
X153769200Y-89146565D01*
X153593971Y-89055841D01*
X153173388Y-89169746D01*
X152828410Y-89435931D01*
X152611808Y-89849719D01*
X152188192Y-89849719D01*
X151971590Y-89435931D01*
X151626612Y-89169746D01*
X151206029Y-89055841D01*
X151030800Y-89146565D01*
X150729200Y-89146565D01*
X150553971Y-89055841D01*
X150133388Y-89169746D01*
X149788410Y-89435931D01*
X149571808Y-89849719D01*
X137448192Y-89849719D01*
X137231590Y-89435931D01*
X136886612Y-89169746D01*
X136466029Y-89055841D01*
X136290800Y-89146565D01*
X135989200Y-89146565D01*
X135813971Y-89055841D01*
X135393388Y-89169746D01*
X135048410Y-89435931D01*
X134831808Y-89849719D01*
X134408192Y-89849719D01*
X134191590Y-89435931D01*
X133846612Y-89169746D01*
X133426029Y-89055841D01*
X133250800Y-89146565D01*
X132949200Y-89146565D01*
X132773971Y-89055841D01*
X132353388Y-89169746D01*
X132008410Y-89435931D01*
X131791808Y-89849719D01*
X119668192Y-89849719D01*
X119451590Y-89435931D01*
X119106612Y-89169746D01*
X118686029Y-89055841D01*
X118510800Y-89146565D01*
X118209200Y-89146565D01*
X118033971Y-89055841D01*
X117613388Y-89169746D01*
X117268410Y-89435931D01*
X117051808Y-89849719D01*
X116628192Y-89849719D01*
X116411590Y-89435931D01*
X116066612Y-89169746D01*
X115646029Y-89055841D01*
X115470800Y-89146565D01*
X115169200Y-89146565D01*
X114993971Y-89055841D01*
X114573388Y-89169746D01*
X114228410Y-89435931D01*
X114011808Y-89849719D01*
X101888192Y-89849719D01*
X101671590Y-89435931D01*
X101326612Y-89169746D01*
X100906029Y-89055841D01*
X100730800Y-89146565D01*
X100429200Y-89146565D01*
X100253971Y-89055841D01*
X99833388Y-89169746D01*
X99488410Y-89435931D01*
X99271808Y-89849719D01*
X98848192Y-89849719D01*
X98631590Y-89435931D01*
X98286612Y-89169746D01*
X97866029Y-89055841D01*
X97690800Y-89146565D01*
X97389200Y-89146565D01*
X97213971Y-89055841D01*
X96793388Y-89169746D01*
X96448410Y-89435931D01*
X96231808Y-89849719D01*
X79378493Y-89849719D01*
X79387600Y-89827733D01*
X79387600Y-89496700D01*
X79298700Y-89407800D01*
X78382800Y-89407800D01*
X78081200Y-89407800D01*
X77165300Y-89407800D01*
X77076400Y-89496700D01*
X45351600Y-89496700D01*
X45351600Y-88686267D01*
X77076400Y-88686267D01*
X77076400Y-89017300D01*
X77165300Y-89106200D01*
X78081200Y-89106200D01*
X78081200Y-88490300D01*
X78382800Y-88490300D01*
X78382800Y-89106200D01*
X79298700Y-89106200D01*
X79387600Y-89017300D01*
X79387600Y-88686267D01*
X79333463Y-88555569D01*
X79233431Y-88455537D01*
X79102733Y-88401400D01*
X78471700Y-88401400D01*
X78382800Y-88490300D01*
X78081200Y-88490300D01*
X77992300Y-88401400D01*
X77361267Y-88401400D01*
X77230569Y-88455537D01*
X77130537Y-88555569D01*
X77076400Y-88686267D01*
X45351600Y-88686267D01*
X45351600Y-88558267D01*
X45297463Y-88427569D01*
X45197431Y-88327537D01*
X45066733Y-88273400D01*
X44435700Y-88273400D01*
X44346800Y-88362300D01*
X44045200Y-88362300D01*
X43956300Y-88273400D01*
X43325267Y-88273400D01*
X43194569Y-88327537D01*
X43094537Y-88427569D01*
X43040400Y-88558267D01*
X38530600Y-88558267D01*
X38530600Y-86808933D01*
X51206119Y-86808933D01*
X51453080Y-87406625D01*
X51909970Y-87864313D01*
X52507230Y-88112317D01*
X53153933Y-88112881D01*
X53751625Y-87865920D01*
X54209313Y-87409030D01*
X54457317Y-86811770D01*
X54457319Y-86808933D01*
X71526119Y-86808933D01*
X71773080Y-87406625D01*
X72229970Y-87864313D01*
X72827230Y-88112317D01*
X73473933Y-88112881D01*
X74071625Y-87865920D01*
X74529313Y-87409030D01*
X74662367Y-87088600D01*
X77287428Y-87088600D01*
X77290942Y-87091001D01*
X77432000Y-87119566D01*
X79032000Y-87119566D01*
X79163777Y-87094770D01*
X79173366Y-87088600D01*
X89434598Y-87088600D01*
X90580997Y-88234998D01*
X90580999Y-88235001D01*
X90858576Y-88420471D01*
X91186000Y-88485600D01*
X96197304Y-88485600D01*
X96202230Y-88511777D01*
X96280110Y-88632807D01*
X96398942Y-88714001D01*
X96540000Y-88742566D01*
X98540000Y-88742566D01*
X98671777Y-88717770D01*
X98792807Y-88639890D01*
X98874001Y-88521058D01*
X98881181Y-88485600D01*
X99632149Y-88485600D01*
X99880347Y-88651441D01*
X100303442Y-88735600D01*
X100856558Y-88735600D01*
X101279653Y-88651441D01*
X101527851Y-88485600D01*
X113977304Y-88485600D01*
X113982230Y-88511777D01*
X114060110Y-88632807D01*
X114178942Y-88714001D01*
X114320000Y-88742566D01*
X116320000Y-88742566D01*
X116451777Y-88717770D01*
X116572807Y-88639890D01*
X116654001Y-88521058D01*
X116661181Y-88485600D01*
X117412149Y-88485600D01*
X117660347Y-88651441D01*
X118083442Y-88735600D01*
X118636558Y-88735600D01*
X119059653Y-88651441D01*
X119307851Y-88485600D01*
X131757304Y-88485600D01*
X131762230Y-88511777D01*
X131840110Y-88632807D01*
X131958942Y-88714001D01*
X132100000Y-88742566D01*
X134100000Y-88742566D01*
X134231777Y-88717770D01*
X134352807Y-88639890D01*
X134434001Y-88521058D01*
X134441181Y-88485600D01*
X135192149Y-88485600D01*
X135440347Y-88651441D01*
X135863442Y-88735600D01*
X136416558Y-88735600D01*
X136839653Y-88651441D01*
X137087851Y-88485600D01*
X149537304Y-88485600D01*
X149542230Y-88511777D01*
X149620110Y-88632807D01*
X149738942Y-88714001D01*
X149880000Y-88742566D01*
X151880000Y-88742566D01*
X152011777Y-88717770D01*
X152132807Y-88639890D01*
X152214001Y-88521058D01*
X152221181Y-88485600D01*
X152972149Y-88485600D01*
X153220347Y-88651441D01*
X153643442Y-88735600D01*
X154196558Y-88735600D01*
X154619653Y-88651441D01*
X154867851Y-88485600D01*
X167317304Y-88485600D01*
X167322230Y-88511777D01*
X167400110Y-88632807D01*
X167518942Y-88714001D01*
X167660000Y-88742566D01*
X169660000Y-88742566D01*
X169791777Y-88717770D01*
X169912807Y-88639890D01*
X169994001Y-88521058D01*
X170001181Y-88485600D01*
X170752149Y-88485600D01*
X171000347Y-88651441D01*
X171423442Y-88735600D01*
X171976558Y-88735600D01*
X172399653Y-88651441D01*
X172647851Y-88485600D01*
X185097304Y-88485600D01*
X185102230Y-88511777D01*
X185180110Y-88632807D01*
X185298942Y-88714001D01*
X185440000Y-88742566D01*
X187440000Y-88742566D01*
X187571777Y-88717770D01*
X187692807Y-88639890D01*
X187774001Y-88521058D01*
X187781181Y-88485600D01*
X188532149Y-88485600D01*
X188780347Y-88651441D01*
X189203442Y-88735600D01*
X189756558Y-88735600D01*
X190179653Y-88651441D01*
X190427851Y-88485600D01*
X202877304Y-88485600D01*
X202882230Y-88511777D01*
X202960110Y-88632807D01*
X203078942Y-88714001D01*
X203220000Y-88742566D01*
X205220000Y-88742566D01*
X205351777Y-88717770D01*
X205472807Y-88639890D01*
X205554001Y-88521058D01*
X205561181Y-88485600D01*
X206312149Y-88485600D01*
X206560347Y-88651441D01*
X206983442Y-88735600D01*
X207536558Y-88735600D01*
X207959653Y-88651441D01*
X208207851Y-88485600D01*
X220657304Y-88485600D01*
X220662230Y-88511777D01*
X220740110Y-88632807D01*
X220858942Y-88714001D01*
X221000000Y-88742566D01*
X223000000Y-88742566D01*
X223131777Y-88717770D01*
X223252807Y-88639890D01*
X223334001Y-88521058D01*
X223341181Y-88485600D01*
X224092149Y-88485600D01*
X224340347Y-88651441D01*
X224763442Y-88735600D01*
X225316558Y-88735600D01*
X225739653Y-88651441D01*
X226098335Y-88411777D01*
X226337999Y-88053095D01*
X226422158Y-87630000D01*
X226337999Y-87206905D01*
X226098335Y-86848223D01*
X225739653Y-86608559D01*
X225316558Y-86524400D01*
X224763442Y-86524400D01*
X224340347Y-86608559D01*
X224092149Y-86774400D01*
X223342696Y-86774400D01*
X223337770Y-86748223D01*
X223259890Y-86627193D01*
X223141058Y-86545999D01*
X223000000Y-86517434D01*
X221000000Y-86517434D01*
X220868223Y-86542230D01*
X220747193Y-86620110D01*
X220665999Y-86738942D01*
X220658819Y-86774400D01*
X208207851Y-86774400D01*
X207959653Y-86608559D01*
X207536558Y-86524400D01*
X206983442Y-86524400D01*
X206560347Y-86608559D01*
X206312149Y-86774400D01*
X205562696Y-86774400D01*
X205557770Y-86748223D01*
X205479890Y-86627193D01*
X205361058Y-86545999D01*
X205220000Y-86517434D01*
X203220000Y-86517434D01*
X203088223Y-86542230D01*
X202967193Y-86620110D01*
X202885999Y-86738942D01*
X202878819Y-86774400D01*
X190427851Y-86774400D01*
X190179653Y-86608559D01*
X189756558Y-86524400D01*
X189203442Y-86524400D01*
X188780347Y-86608559D01*
X188532149Y-86774400D01*
X187782696Y-86774400D01*
X187777770Y-86748223D01*
X187699890Y-86627193D01*
X187581058Y-86545999D01*
X187440000Y-86517434D01*
X185440000Y-86517434D01*
X185308223Y-86542230D01*
X185187193Y-86620110D01*
X185105999Y-86738942D01*
X185098819Y-86774400D01*
X172647851Y-86774400D01*
X172399653Y-86608559D01*
X171976558Y-86524400D01*
X171423442Y-86524400D01*
X171000347Y-86608559D01*
X170752149Y-86774400D01*
X170002696Y-86774400D01*
X169997770Y-86748223D01*
X169919890Y-86627193D01*
X169801058Y-86545999D01*
X169660000Y-86517434D01*
X167660000Y-86517434D01*
X167528223Y-86542230D01*
X167407193Y-86620110D01*
X167325999Y-86738942D01*
X167318819Y-86774400D01*
X154867851Y-86774400D01*
X154619653Y-86608559D01*
X154196558Y-86524400D01*
X153643442Y-86524400D01*
X153220347Y-86608559D01*
X152972149Y-86774400D01*
X152222696Y-86774400D01*
X152217770Y-86748223D01*
X152139890Y-86627193D01*
X152021058Y-86545999D01*
X151880000Y-86517434D01*
X149880000Y-86517434D01*
X149748223Y-86542230D01*
X149627193Y-86620110D01*
X149545999Y-86738942D01*
X149538819Y-86774400D01*
X137087851Y-86774400D01*
X136839653Y-86608559D01*
X136416558Y-86524400D01*
X135863442Y-86524400D01*
X135440347Y-86608559D01*
X135192149Y-86774400D01*
X134442696Y-86774400D01*
X134437770Y-86748223D01*
X134359890Y-86627193D01*
X134241058Y-86545999D01*
X134100000Y-86517434D01*
X132100000Y-86517434D01*
X131968223Y-86542230D01*
X131847193Y-86620110D01*
X131765999Y-86738942D01*
X131758819Y-86774400D01*
X119307851Y-86774400D01*
X119059653Y-86608559D01*
X118636558Y-86524400D01*
X118083442Y-86524400D01*
X117660347Y-86608559D01*
X117412149Y-86774400D01*
X116662696Y-86774400D01*
X116657770Y-86748223D01*
X116579890Y-86627193D01*
X116461058Y-86545999D01*
X116320000Y-86517434D01*
X114320000Y-86517434D01*
X114188223Y-86542230D01*
X114067193Y-86620110D01*
X113985999Y-86738942D01*
X113978819Y-86774400D01*
X101527851Y-86774400D01*
X101279653Y-86608559D01*
X100856558Y-86524400D01*
X100303442Y-86524400D01*
X99880347Y-86608559D01*
X99632149Y-86774400D01*
X98882696Y-86774400D01*
X98877770Y-86748223D01*
X98799890Y-86627193D01*
X98681058Y-86545999D01*
X98540000Y-86517434D01*
X96540000Y-86517434D01*
X96408223Y-86542230D01*
X96287193Y-86620110D01*
X96205999Y-86738942D01*
X96198819Y-86774400D01*
X91540401Y-86774400D01*
X90394001Y-85627999D01*
X90116424Y-85442529D01*
X89789000Y-85377399D01*
X89788995Y-85377400D01*
X78256005Y-85377400D01*
X78256000Y-85377399D01*
X78232000Y-85382173D01*
X78208000Y-85377399D01*
X78207995Y-85377400D01*
X74341276Y-85377400D01*
X74074030Y-85109687D01*
X73476770Y-84861683D01*
X72830067Y-84861119D01*
X72232375Y-85108080D01*
X71774687Y-85564970D01*
X71526683Y-86162230D01*
X71526119Y-86808933D01*
X54457319Y-86808933D01*
X54457881Y-86165067D01*
X54210920Y-85567375D01*
X53754030Y-85109687D01*
X53156770Y-84861683D01*
X52510067Y-84861119D01*
X51912375Y-85108080D01*
X51454687Y-85564970D01*
X51206683Y-86162230D01*
X51206119Y-86808933D01*
X38530600Y-86808933D01*
X38530600Y-81686850D01*
X39521766Y-81686850D01*
X40077429Y-83031657D01*
X41105431Y-84061455D01*
X42449266Y-84619464D01*
X43904350Y-84620734D01*
X45249157Y-84065071D01*
X46278955Y-83037069D01*
X46836964Y-81693234D01*
X46836969Y-81686850D01*
X104291766Y-81686850D01*
X104847429Y-83031657D01*
X105875431Y-84061455D01*
X107219266Y-84619464D01*
X108674350Y-84620734D01*
X110019157Y-84065071D01*
X111048955Y-83037069D01*
X111606964Y-81693234D01*
X111606969Y-81686850D01*
X175411766Y-81686850D01*
X175967429Y-83031657D01*
X176995431Y-84061455D01*
X178339266Y-84619464D01*
X179794350Y-84620734D01*
X181139157Y-84065071D01*
X182168955Y-83037069D01*
X182726964Y-81693234D01*
X182726969Y-81686850D01*
X228751766Y-81686850D01*
X229307429Y-83031657D01*
X230335431Y-84061455D01*
X231679266Y-84619464D01*
X233134350Y-84620734D01*
X234479157Y-84065071D01*
X235508955Y-83037069D01*
X236066964Y-81693234D01*
X236068234Y-80238150D01*
X235512571Y-78893343D01*
X234484569Y-77863545D01*
X233140734Y-77305536D01*
X231685650Y-77304266D01*
X230340843Y-77859929D01*
X229311045Y-78887931D01*
X228753036Y-80231766D01*
X228751766Y-81686850D01*
X182726969Y-81686850D01*
X182728234Y-80238150D01*
X182172571Y-78893343D01*
X181144569Y-77863545D01*
X179800734Y-77305536D01*
X178345650Y-77304266D01*
X177000843Y-77859929D01*
X175971045Y-78887931D01*
X175413036Y-80231766D01*
X175411766Y-81686850D01*
X111606969Y-81686850D01*
X111608234Y-80238150D01*
X111052571Y-78893343D01*
X110024569Y-77863545D01*
X108680734Y-77305536D01*
X107225650Y-77304266D01*
X105880843Y-77859929D01*
X104851045Y-78887931D01*
X104293036Y-80231766D01*
X104291766Y-81686850D01*
X46836969Y-81686850D01*
X46838234Y-80238150D01*
X46282571Y-78893343D01*
X45254569Y-77863545D01*
X43910734Y-77305536D01*
X42455650Y-77304266D01*
X41110843Y-77859929D01*
X40081045Y-78887931D01*
X39523036Y-80231766D01*
X39521766Y-81686850D01*
X38530600Y-81686850D01*
X38530600Y-76630600D01*
X237059400Y-76630600D01*
X237059400Y-116409400D01*
X237059400Y-116409400D01*
G37*
X237059400Y-116409400D02*
X38530600Y-116409400D01*
X38530600Y-112801850D01*
X39521766Y-112801850D01*
X40077429Y-114146657D01*
X41105431Y-115176455D01*
X42449266Y-115734464D01*
X43904350Y-115735734D01*
X45249157Y-115180071D01*
X46278955Y-114152069D01*
X46836964Y-112808234D01*
X46836969Y-112801850D01*
X104291766Y-112801850D01*
X104847429Y-114146657D01*
X105875431Y-115176455D01*
X107219266Y-115734464D01*
X108674350Y-115735734D01*
X110019157Y-115180071D01*
X111048955Y-114152069D01*
X111606964Y-112808234D01*
X111606969Y-112801850D01*
X175411766Y-112801850D01*
X175967429Y-114146657D01*
X176995431Y-115176455D01*
X178339266Y-115734464D01*
X179794350Y-115735734D01*
X181139157Y-115180071D01*
X182168955Y-114152069D01*
X182726964Y-112808234D01*
X182726969Y-112801850D01*
X228751766Y-112801850D01*
X229307429Y-114146657D01*
X230335431Y-115176455D01*
X231679266Y-115734464D01*
X233134350Y-115735734D01*
X234479157Y-115180071D01*
X235508955Y-114152069D01*
X236066964Y-112808234D01*
X236068234Y-111353150D01*
X235512571Y-110008343D01*
X234484569Y-108978545D01*
X233140734Y-108420536D01*
X231685650Y-108419266D01*
X230340843Y-108974929D01*
X229311045Y-110002931D01*
X228753036Y-111346766D01*
X228751766Y-112801850D01*
X182726969Y-112801850D01*
X182728234Y-111353150D01*
X182172571Y-110008343D01*
X181144569Y-108978545D01*
X179800734Y-108420536D01*
X178345650Y-108419266D01*
X177000843Y-108974929D01*
X175971045Y-110002931D01*
X175413036Y-111346766D01*
X175411766Y-112801850D01*
X111606969Y-112801850D01*
X111608234Y-111353150D01*
X111052571Y-110008343D01*
X110024569Y-108978545D01*
X108680734Y-108420536D01*
X107225650Y-108419266D01*
X105880843Y-108974929D01*
X104851045Y-110002931D01*
X104293036Y-111346766D01*
X104291766Y-112801850D01*
X46836969Y-112801850D01*
X46838234Y-111353150D01*
X46282571Y-110008343D01*
X45254569Y-108978545D01*
X43910734Y-108420536D01*
X42455650Y-108419266D01*
X41110843Y-108974929D01*
X40081045Y-110002931D01*
X39523036Y-111346766D01*
X39521766Y-112801850D01*
X38530600Y-112801850D01*
X38530600Y-107128933D01*
X71526119Y-107128933D01*
X71773080Y-107726625D01*
X72229970Y-108184313D01*
X72827230Y-108432317D01*
X73473933Y-108432881D01*
X74071625Y-108185920D01*
X74529313Y-107729030D01*
X74609632Y-107535600D01*
X77572995Y-107535600D01*
X77573000Y-107535601D01*
X77658639Y-107518566D01*
X78397000Y-107518566D01*
X78434020Y-107511600D01*
X79635341Y-107511600D01*
X79756000Y-107535601D01*
X79876659Y-107511600D01*
X82700995Y-107511600D01*
X82701000Y-107511601D01*
X83028424Y-107446471D01*
X83306001Y-107261001D01*
X84301401Y-106265600D01*
X85976566Y-106265600D01*
X86015270Y-106304372D01*
X86403107Y-106465416D01*
X86823051Y-106465782D01*
X87211168Y-106305416D01*
X87508372Y-106008730D01*
X87669416Y-105620893D01*
X87669599Y-105410000D01*
X96157842Y-105410000D01*
X96242001Y-105833095D01*
X96481665Y-106191777D01*
X96840347Y-106431441D01*
X97263442Y-106515600D01*
X97816558Y-106515600D01*
X98239653Y-106431441D01*
X98598335Y-106191777D01*
X98837999Y-105833095D01*
X98922158Y-105410000D01*
X99197842Y-105410000D01*
X99282001Y-105833095D01*
X99521665Y-106191777D01*
X99880347Y-106431441D01*
X100303442Y-106515600D01*
X100856558Y-106515600D01*
X101279653Y-106431441D01*
X101638335Y-106191777D01*
X101877999Y-105833095D01*
X101962158Y-105410000D01*
X113937842Y-105410000D01*
X114022001Y-105833095D01*
X114261665Y-106191777D01*
X114620347Y-106431441D01*
X115043442Y-106515600D01*
X115596558Y-106515600D01*
X116019653Y-106431441D01*
X116378335Y-106191777D01*
X116617999Y-105833095D01*
X116702158Y-105410000D01*
X116977842Y-105410000D01*
X117062001Y-105833095D01*
X117301665Y-106191777D01*
X117660347Y-106431441D01*
X118083442Y-106515600D01*
X118636558Y-106515600D01*
X119059653Y-106431441D01*
X119418335Y-106191777D01*
X119657999Y-105833095D01*
X119742158Y-105410000D01*
X131717842Y-105410000D01*
X131802001Y-105833095D01*
X132041665Y-106191777D01*
X132400347Y-106431441D01*
X132823442Y-106515600D01*
X133376558Y-106515600D01*
X133799653Y-106431441D01*
X134158335Y-106191777D01*
X134397999Y-105833095D01*
X134482158Y-105410000D01*
X134757842Y-105410000D01*
X134842001Y-105833095D01*
X135081665Y-106191777D01*
X135440347Y-106431441D01*
X135863442Y-106515600D01*
X136416558Y-106515600D01*
X136839653Y-106431441D01*
X137198335Y-106191777D01*
X137437999Y-105833095D01*
X137522158Y-105410000D01*
X149497842Y-105410000D01*
X149582001Y-105833095D01*
X149821665Y-106191777D01*
X150180347Y-106431441D01*
X150603442Y-106515600D01*
X151156558Y-106515600D01*
X151579653Y-106431441D01*
X151938335Y-106191777D01*
X152177999Y-105833095D01*
X152262158Y-105410000D01*
X152537842Y-105410000D01*
X152622001Y-105833095D01*
X152861665Y-106191777D01*
X153220347Y-106431441D01*
X153643442Y-106515600D01*
X154196558Y-106515600D01*
X154619653Y-106431441D01*
X154978335Y-106191777D01*
X155217999Y-105833095D01*
X155302158Y-105410000D01*
X167277842Y-105410000D01*
X167362001Y-105833095D01*
X167601665Y-106191777D01*
X167960347Y-106431441D01*
X168383442Y-106515600D01*
X168936558Y-106515600D01*
X169359653Y-106431441D01*
X169718335Y-106191777D01*
X169957999Y-105833095D01*
X170042158Y-105410000D01*
X170317842Y-105410000D01*
X170402001Y-105833095D01*
X170641665Y-106191777D01*
X171000347Y-106431441D01*
X171423442Y-106515600D01*
X171976558Y-106515600D01*
X172399653Y-106431441D01*
X172758335Y-106191777D01*
X172997999Y-105833095D01*
X173082158Y-105410000D01*
X185057842Y-105410000D01*
X185142001Y-105833095D01*
X185381665Y-106191777D01*
X185740347Y-106431441D01*
X186163442Y-106515600D01*
X186716558Y-106515600D01*
X187139653Y-106431441D01*
X187498335Y-106191777D01*
X187737999Y-105833095D01*
X187822158Y-105410000D01*
X188097842Y-105410000D01*
X188182001Y-105833095D01*
X188421665Y-106191777D01*
X188780347Y-106431441D01*
X189203442Y-106515600D01*
X189756558Y-106515600D01*
X190179653Y-106431441D01*
X190538335Y-106191777D01*
X190777999Y-105833095D01*
X190862158Y-105410000D01*
X202837842Y-105410000D01*
X202922001Y-105833095D01*
X203161665Y-106191777D01*
X203520347Y-106431441D01*
X203943442Y-106515600D01*
X204496558Y-106515600D01*
X204919653Y-106431441D01*
X205278335Y-106191777D01*
X205517999Y-105833095D01*
X205602158Y-105410000D01*
X205877842Y-105410000D01*
X205962001Y-105833095D01*
X206201665Y-106191777D01*
X206560347Y-106431441D01*
X206983442Y-106515600D01*
X207536558Y-106515600D01*
X207959653Y-106431441D01*
X208318335Y-106191777D01*
X208557999Y-105833095D01*
X208642158Y-105410000D01*
X220617842Y-105410000D01*
X220702001Y-105833095D01*
X220941665Y-106191777D01*
X221300347Y-106431441D01*
X221723442Y-106515600D01*
X222276558Y-106515600D01*
X222699653Y-106431441D01*
X223058335Y-106191777D01*
X223297999Y-105833095D01*
X223382158Y-105410000D01*
X223657842Y-105410000D01*
X223742001Y-105833095D01*
X223981665Y-106191777D01*
X224340347Y-106431441D01*
X224763442Y-106515600D01*
X225316558Y-106515600D01*
X225739653Y-106431441D01*
X226098335Y-106191777D01*
X226337999Y-105833095D01*
X226422158Y-105410000D01*
X226337999Y-104986905D01*
X226098335Y-104628223D01*
X225739653Y-104388559D01*
X225316558Y-104304400D01*
X224763442Y-104304400D01*
X224340347Y-104388559D01*
X223981665Y-104628223D01*
X223742001Y-104986905D01*
X223657842Y-105410000D01*
X223382158Y-105410000D01*
X223297999Y-104986905D01*
X223058335Y-104628223D01*
X222699653Y-104388559D01*
X222276558Y-104304400D01*
X221723442Y-104304400D01*
X221300347Y-104388559D01*
X220941665Y-104628223D01*
X220702001Y-104986905D01*
X220617842Y-105410000D01*
X208642158Y-105410000D01*
X208557999Y-104986905D01*
X208318335Y-104628223D01*
X207959653Y-104388559D01*
X207536558Y-104304400D01*
X206983442Y-104304400D01*
X206560347Y-104388559D01*
X206201665Y-104628223D01*
X205962001Y-104986905D01*
X205877842Y-105410000D01*
X205602158Y-105410000D01*
X205517999Y-104986905D01*
X205278335Y-104628223D01*
X204919653Y-104388559D01*
X204496558Y-104304400D01*
X203943442Y-104304400D01*
X203520347Y-104388559D01*
X203161665Y-104628223D01*
X202922001Y-104986905D01*
X202837842Y-105410000D01*
X190862158Y-105410000D01*
X190777999Y-104986905D01*
X190538335Y-104628223D01*
X190179653Y-104388559D01*
X189756558Y-104304400D01*
X189203442Y-104304400D01*
X188780347Y-104388559D01*
X188421665Y-104628223D01*
X188182001Y-104986905D01*
X188097842Y-105410000D01*
X187822158Y-105410000D01*
X187737999Y-104986905D01*
X187498335Y-104628223D01*
X187139653Y-104388559D01*
X186716558Y-104304400D01*
X186163442Y-104304400D01*
X185740347Y-104388559D01*
X185381665Y-104628223D01*
X185142001Y-104986905D01*
X185057842Y-105410000D01*
X173082158Y-105410000D01*
X172997999Y-104986905D01*
X172758335Y-104628223D01*
X172399653Y-104388559D01*
X171976558Y-104304400D01*
X171423442Y-104304400D01*
X171000347Y-104388559D01*
X170641665Y-104628223D01*
X170402001Y-104986905D01*
X170317842Y-105410000D01*
X170042158Y-105410000D01*
X169957999Y-104986905D01*
X169718335Y-104628223D01*
X169359653Y-104388559D01*
X168936558Y-104304400D01*
X168383442Y-104304400D01*
X167960347Y-104388559D01*
X167601665Y-104628223D01*
X167362001Y-104986905D01*
X167277842Y-105410000D01*
X155302158Y-105410000D01*
X155217999Y-104986905D01*
X154978335Y-104628223D01*
X154619653Y-104388559D01*
X154196558Y-104304400D01*
X153643442Y-104304400D01*
X153220347Y-104388559D01*
X152861665Y-104628223D01*
X152622001Y-104986905D01*
X152537842Y-105410000D01*
X152262158Y-105410000D01*
X152177999Y-104986905D01*
X151938335Y-104628223D01*
X151579653Y-104388559D01*
X151156558Y-104304400D01*
X150603442Y-104304400D01*
X150180347Y-104388559D01*
X149821665Y-104628223D01*
X149582001Y-104986905D01*
X149497842Y-105410000D01*
X137522158Y-105410000D01*
X137437999Y-104986905D01*
X137198335Y-104628223D01*
X136839653Y-104388559D01*
X136416558Y-104304400D01*
X135863442Y-104304400D01*
X135440347Y-104388559D01*
X135081665Y-104628223D01*
X134842001Y-104986905D01*
X134757842Y-105410000D01*
X134482158Y-105410000D01*
X134397999Y-104986905D01*
X134158335Y-104628223D01*
X133799653Y-104388559D01*
X133376558Y-104304400D01*
X132823442Y-104304400D01*
X132400347Y-104388559D01*
X132041665Y-104628223D01*
X131802001Y-104986905D01*
X131717842Y-105410000D01*
X119742158Y-105410000D01*
X119657999Y-104986905D01*
X119418335Y-104628223D01*
X119059653Y-104388559D01*
X118636558Y-104304400D01*
X118083442Y-104304400D01*
X117660347Y-104388559D01*
X117301665Y-104628223D01*
X117062001Y-104986905D01*
X116977842Y-105410000D01*
X116702158Y-105410000D01*
X116617999Y-104986905D01*
X116378335Y-104628223D01*
X116019653Y-104388559D01*
X115596558Y-104304400D01*
X115043442Y-104304400D01*
X114620347Y-104388559D01*
X114261665Y-104628223D01*
X114022001Y-104986905D01*
X113937842Y-105410000D01*
X101962158Y-105410000D01*
X101877999Y-104986905D01*
X101638335Y-104628223D01*
X101279653Y-104388559D01*
X100856558Y-104304400D01*
X100303442Y-104304400D01*
X99880347Y-104388559D01*
X99521665Y-104628223D01*
X99282001Y-104986905D01*
X99197842Y-105410000D01*
X98922158Y-105410000D01*
X98837999Y-104986905D01*
X98598335Y-104628223D01*
X98239653Y-104388559D01*
X97816558Y-104304400D01*
X97263442Y-104304400D01*
X96840347Y-104388559D01*
X96481665Y-104628223D01*
X96242001Y-104986905D01*
X96157842Y-105410000D01*
X87669599Y-105410000D01*
X87669782Y-105200949D01*
X87509416Y-104812832D01*
X87212730Y-104515628D01*
X86824893Y-104354584D01*
X86404949Y-104354218D01*
X86016832Y-104514584D01*
X85976946Y-104554400D01*
X83947005Y-104554400D01*
X83947000Y-104554399D01*
X83619576Y-104619529D01*
X83341999Y-104804999D01*
X83341997Y-104805002D01*
X82346598Y-105800400D01*
X81881600Y-105800400D01*
X81881600Y-103666624D01*
X86030640Y-103666624D01*
X86109619Y-103820778D01*
X86511859Y-103941423D01*
X86929650Y-103898954D01*
X87118381Y-103820778D01*
X87197360Y-103666624D01*
X87124437Y-103593700D01*
X90411400Y-103593700D01*
X90411400Y-103924733D01*
X90465537Y-104055431D01*
X90565569Y-104155463D01*
X90696267Y-104209600D01*
X91327300Y-104209600D01*
X91416200Y-104120700D01*
X91416200Y-103504800D01*
X91717800Y-103504800D01*
X91717800Y-104120700D01*
X91806700Y-104209600D01*
X92437733Y-104209600D01*
X92568431Y-104155463D01*
X92668463Y-104055431D01*
X92722600Y-103924733D01*
X92722600Y-103593700D01*
X92633700Y-103504800D01*
X91717800Y-103504800D01*
X91416200Y-103504800D01*
X90500300Y-103504800D01*
X90411400Y-103593700D01*
X87124437Y-103593700D01*
X86614000Y-103083263D01*
X86030640Y-103666624D01*
X81881600Y-103666624D01*
X81881600Y-102767859D01*
X85542577Y-102767859D01*
X85585046Y-103185650D01*
X85663222Y-103374381D01*
X85817376Y-103453360D01*
X86400737Y-102870000D01*
X86827263Y-102870000D01*
X87410624Y-103453360D01*
X87564778Y-103374381D01*
X87685423Y-102972141D01*
X87666224Y-102783267D01*
X90411400Y-102783267D01*
X90411400Y-103114300D01*
X90500300Y-103203200D01*
X91416200Y-103203200D01*
X91416200Y-102587300D01*
X91717800Y-102587300D01*
X91717800Y-103203200D01*
X92633700Y-103203200D01*
X92722600Y-103114300D01*
X92722600Y-102870000D01*
X96157842Y-102870000D01*
X96242001Y-103293095D01*
X96481665Y-103651777D01*
X96840347Y-103891441D01*
X97263442Y-103975600D01*
X97816558Y-103975600D01*
X98239653Y-103891441D01*
X98598335Y-103651777D01*
X98837999Y-103293095D01*
X98922158Y-102870000D01*
X99197842Y-102870000D01*
X99282001Y-103293095D01*
X99521665Y-103651777D01*
X99880347Y-103891441D01*
X100303442Y-103975600D01*
X100856558Y-103975600D01*
X101279653Y-103891441D01*
X101638335Y-103651777D01*
X101877999Y-103293095D01*
X101962158Y-102870000D01*
X113937842Y-102870000D01*
X114022001Y-103293095D01*
X114261665Y-103651777D01*
X114620347Y-103891441D01*
X115043442Y-103975600D01*
X115596558Y-103975600D01*
X116019653Y-103891441D01*
X116378335Y-103651777D01*
X116617999Y-103293095D01*
X116702158Y-102870000D01*
X116977842Y-102870000D01*
X117062001Y-103293095D01*
X117301665Y-103651777D01*
X117660347Y-103891441D01*
X118083442Y-103975600D01*
X118636558Y-103975600D01*
X119059653Y-103891441D01*
X119418335Y-103651777D01*
X119657999Y-103293095D01*
X119742158Y-102870000D01*
X131717842Y-102870000D01*
X131802001Y-103293095D01*
X132041665Y-103651777D01*
X132400347Y-103891441D01*
X132823442Y-103975600D01*
X133376558Y-103975600D01*
X133799653Y-103891441D01*
X134158335Y-103651777D01*
X134397999Y-103293095D01*
X134482158Y-102870000D01*
X134757842Y-102870000D01*
X134842001Y-103293095D01*
X135081665Y-103651777D01*
X135440347Y-103891441D01*
X135863442Y-103975600D01*
X136416558Y-103975600D01*
X136839653Y-103891441D01*
X137198335Y-103651777D01*
X137437999Y-103293095D01*
X137522158Y-102870000D01*
X149497842Y-102870000D01*
X149582001Y-103293095D01*
X149821665Y-103651777D01*
X150180347Y-103891441D01*
X150603442Y-103975600D01*
X151156558Y-103975600D01*
X151579653Y-103891441D01*
X151938335Y-103651777D01*
X152177999Y-103293095D01*
X152262158Y-102870000D01*
X152537842Y-102870000D01*
X152622001Y-103293095D01*
X152861665Y-103651777D01*
X153220347Y-103891441D01*
X153643442Y-103975600D01*
X154196558Y-103975600D01*
X154619653Y-103891441D01*
X154978335Y-103651777D01*
X155217999Y-103293095D01*
X155302158Y-102870000D01*
X167277842Y-102870000D01*
X167362001Y-103293095D01*
X167601665Y-103651777D01*
X167960347Y-103891441D01*
X168383442Y-103975600D01*
X168936558Y-103975600D01*
X169359653Y-103891441D01*
X169718335Y-103651777D01*
X169957999Y-103293095D01*
X170042158Y-102870000D01*
X170317842Y-102870000D01*
X170402001Y-103293095D01*
X170641665Y-103651777D01*
X171000347Y-103891441D01*
X171423442Y-103975600D01*
X171976558Y-103975600D01*
X172399653Y-103891441D01*
X172758335Y-103651777D01*
X172997999Y-103293095D01*
X173082158Y-102870000D01*
X185057842Y-102870000D01*
X185142001Y-103293095D01*
X185381665Y-103651777D01*
X185740347Y-103891441D01*
X186163442Y-103975600D01*
X186716558Y-103975600D01*
X187139653Y-103891441D01*
X187498335Y-103651777D01*
X187737999Y-103293095D01*
X187822158Y-102870000D01*
X188097842Y-102870000D01*
X188182001Y-103293095D01*
X188421665Y-103651777D01*
X188780347Y-103891441D01*
X189203442Y-103975600D01*
X189756558Y-103975600D01*
X190179653Y-103891441D01*
X190538335Y-103651777D01*
X190777999Y-103293095D01*
X190862158Y-102870000D01*
X202837842Y-102870000D01*
X202922001Y-103293095D01*
X203161665Y-103651777D01*
X203520347Y-103891441D01*
X203943442Y-103975600D01*
X204496558Y-103975600D01*
X204919653Y-103891441D01*
X205278335Y-103651777D01*
X205517999Y-103293095D01*
X205602158Y-102870000D01*
X205877842Y-102870000D01*
X205962001Y-103293095D01*
X206201665Y-103651777D01*
X206560347Y-103891441D01*
X206983442Y-103975600D01*
X207536558Y-103975600D01*
X207959653Y-103891441D01*
X208318335Y-103651777D01*
X208557999Y-103293095D01*
X208642158Y-102870000D01*
X220617842Y-102870000D01*
X220702001Y-103293095D01*
X220941665Y-103651777D01*
X221300347Y-103891441D01*
X221723442Y-103975600D01*
X222276558Y-103975600D01*
X222699653Y-103891441D01*
X223058335Y-103651777D01*
X223297999Y-103293095D01*
X223382158Y-102870000D01*
X223657842Y-102870000D01*
X223742001Y-103293095D01*
X223981665Y-103651777D01*
X224340347Y-103891441D01*
X224763442Y-103975600D01*
X225316558Y-103975600D01*
X225739653Y-103891441D01*
X226098335Y-103651777D01*
X226337999Y-103293095D01*
X226422158Y-102870000D01*
X226337999Y-102446905D01*
X226098335Y-102088223D01*
X225739653Y-101848559D01*
X225316558Y-101764400D01*
X224763442Y-101764400D01*
X224340347Y-101848559D01*
X223981665Y-102088223D01*
X223742001Y-102446905D01*
X223657842Y-102870000D01*
X223382158Y-102870000D01*
X223297999Y-102446905D01*
X223058335Y-102088223D01*
X222699653Y-101848559D01*
X222276558Y-101764400D01*
X221723442Y-101764400D01*
X221300347Y-101848559D01*
X220941665Y-102088223D01*
X220702001Y-102446905D01*
X220617842Y-102870000D01*
X208642158Y-102870000D01*
X208557999Y-102446905D01*
X208318335Y-102088223D01*
X207959653Y-101848559D01*
X207536558Y-101764400D01*
X206983442Y-101764400D01*
X206560347Y-101848559D01*
X206201665Y-102088223D01*
X205962001Y-102446905D01*
X205877842Y-102870000D01*
X205602158Y-102870000D01*
X205517999Y-102446905D01*
X205278335Y-102088223D01*
X204919653Y-101848559D01*
X204496558Y-101764400D01*
X203943442Y-101764400D01*
X203520347Y-101848559D01*
X203161665Y-102088223D01*
X202922001Y-102446905D01*
X202837842Y-102870000D01*
X190862158Y-102870000D01*
X190777999Y-102446905D01*
X190538335Y-102088223D01*
X190179653Y-101848559D01*
X189756558Y-101764400D01*
X189203442Y-101764400D01*
X188780347Y-101848559D01*
X188421665Y-102088223D01*
X188182001Y-102446905D01*
X188097842Y-102870000D01*
X187822158Y-102870000D01*
X187737999Y-102446905D01*
X187498335Y-102088223D01*
X187139653Y-101848559D01*
X186716558Y-101764400D01*
X186163442Y-101764400D01*
X185740347Y-101848559D01*
X185381665Y-102088223D01*
X185142001Y-102446905D01*
X185057842Y-102870000D01*
X173082158Y-102870000D01*
X172997999Y-102446905D01*
X172758335Y-102088223D01*
X172399653Y-101848559D01*
X171976558Y-101764400D01*
X171423442Y-101764400D01*
X171000347Y-101848559D01*
X170641665Y-102088223D01*
X170402001Y-102446905D01*
X170317842Y-102870000D01*
X170042158Y-102870000D01*
X169957999Y-102446905D01*
X169718335Y-102088223D01*
X169359653Y-101848559D01*
X168936558Y-101764400D01*
X168383442Y-101764400D01*
X167960347Y-101848559D01*
X167601665Y-102088223D01*
X167362001Y-102446905D01*
X167277842Y-102870000D01*
X155302158Y-102870000D01*
X155217999Y-102446905D01*
X154978335Y-102088223D01*
X154619653Y-101848559D01*
X154196558Y-101764400D01*
X153643442Y-101764400D01*
X153220347Y-101848559D01*
X152861665Y-102088223D01*
X152622001Y-102446905D01*
X152537842Y-102870000D01*
X152262158Y-102870000D01*
X152177999Y-102446905D01*
X151938335Y-102088223D01*
X151579653Y-101848559D01*
X151156558Y-101764400D01*
X150603442Y-101764400D01*
X150180347Y-101848559D01*
X149821665Y-102088223D01*
X149582001Y-102446905D01*
X149497842Y-102870000D01*
X137522158Y-102870000D01*
X137437999Y-102446905D01*
X137198335Y-102088223D01*
X136839653Y-101848559D01*
X136416558Y-101764400D01*
X135863442Y-101764400D01*
X135440347Y-101848559D01*
X135081665Y-102088223D01*
X134842001Y-102446905D01*
X134757842Y-102870000D01*
X134482158Y-102870000D01*
X134397999Y-102446905D01*
X134158335Y-102088223D01*
X133799653Y-101848559D01*
X133376558Y-101764400D01*
X132823442Y-101764400D01*
X132400347Y-101848559D01*
X132041665Y-102088223D01*
X131802001Y-102446905D01*
X131717842Y-102870000D01*
X119742158Y-102870000D01*
X119657999Y-102446905D01*
X119418335Y-102088223D01*
X119059653Y-101848559D01*
X118636558Y-101764400D01*
X118083442Y-101764400D01*
X117660347Y-101848559D01*
X117301665Y-102088223D01*
X117062001Y-102446905D01*
X116977842Y-102870000D01*
X116702158Y-102870000D01*
X116617999Y-102446905D01*
X116378335Y-102088223D01*
X116019653Y-101848559D01*
X115596558Y-101764400D01*
X115043442Y-101764400D01*
X114620347Y-101848559D01*
X114261665Y-102088223D01*
X114022001Y-102446905D01*
X113937842Y-102870000D01*
X101962158Y-102870000D01*
X101877999Y-102446905D01*
X101638335Y-102088223D01*
X101279653Y-101848559D01*
X100856558Y-101764400D01*
X100303442Y-101764400D01*
X99880347Y-101848559D01*
X99521665Y-102088223D01*
X99282001Y-102446905D01*
X99197842Y-102870000D01*
X98922158Y-102870000D01*
X98837999Y-102446905D01*
X98598335Y-102088223D01*
X98239653Y-101848559D01*
X97816558Y-101764400D01*
X97263442Y-101764400D01*
X96840347Y-101848559D01*
X96481665Y-102088223D01*
X96242001Y-102446905D01*
X96157842Y-102870000D01*
X92722600Y-102870000D01*
X92722600Y-102783267D01*
X92668463Y-102652569D01*
X92568431Y-102552537D01*
X92437733Y-102498400D01*
X91806700Y-102498400D01*
X91717800Y-102587300D01*
X91416200Y-102587300D01*
X91327300Y-102498400D01*
X90696267Y-102498400D01*
X90565569Y-102552537D01*
X90465537Y-102652569D01*
X90411400Y-102783267D01*
X87666224Y-102783267D01*
X87642954Y-102554350D01*
X87564778Y-102365619D01*
X87410624Y-102286640D01*
X86827263Y-102870000D01*
X86400737Y-102870000D01*
X85817376Y-102286640D01*
X85663222Y-102365619D01*
X85542577Y-102767859D01*
X81881600Y-102767859D01*
X81881600Y-102073376D01*
X86030640Y-102073376D01*
X86614000Y-102656737D01*
X87197360Y-102073376D01*
X87118381Y-101919222D01*
X86716141Y-101798577D01*
X86298350Y-101841046D01*
X86109619Y-101919222D01*
X86030640Y-102073376D01*
X81881600Y-102073376D01*
X81881600Y-100620902D01*
X81963450Y-100539051D01*
X85558218Y-100539051D01*
X85718584Y-100927168D01*
X86015270Y-101224372D01*
X86403107Y-101385416D01*
X86823051Y-101385782D01*
X87211168Y-101225416D01*
X87251054Y-101185600D01*
X90622428Y-101185600D01*
X90625942Y-101188001D01*
X90767000Y-101216566D01*
X92367000Y-101216566D01*
X92404020Y-101209600D01*
X96628067Y-101209600D01*
X96840347Y-101351441D01*
X97263442Y-101435600D01*
X97816558Y-101435600D01*
X98239653Y-101351441D01*
X98487851Y-101185600D01*
X99632149Y-101185600D01*
X99880347Y-101351441D01*
X100303442Y-101435600D01*
X100856558Y-101435600D01*
X101279653Y-101351441D01*
X101527851Y-101185600D01*
X114372149Y-101185600D01*
X114620347Y-101351441D01*
X115043442Y-101435600D01*
X115596558Y-101435600D01*
X116019653Y-101351441D01*
X116267851Y-101185600D01*
X117412149Y-101185600D01*
X117660347Y-101351441D01*
X118083442Y-101435600D01*
X118636558Y-101435600D01*
X119059653Y-101351441D01*
X119307851Y-101185600D01*
X132152149Y-101185600D01*
X132400347Y-101351441D01*
X132823442Y-101435600D01*
X133376558Y-101435600D01*
X133799653Y-101351441D01*
X134047851Y-101185600D01*
X135192149Y-101185600D01*
X135440347Y-101351441D01*
X135863442Y-101435600D01*
X136416558Y-101435600D01*
X136839653Y-101351441D01*
X137087851Y-101185600D01*
X149932149Y-101185600D01*
X150180347Y-101351441D01*
X150603442Y-101435600D01*
X151156558Y-101435600D01*
X151579653Y-101351441D01*
X151827851Y-101185600D01*
X152972149Y-101185600D01*
X153220347Y-101351441D01*
X153643442Y-101435600D01*
X154196558Y-101435600D01*
X154619653Y-101351441D01*
X154867851Y-101185600D01*
X167712149Y-101185600D01*
X167960347Y-101351441D01*
X168383442Y-101435600D01*
X168936558Y-101435600D01*
X169359653Y-101351441D01*
X169607851Y-101185600D01*
X170752149Y-101185600D01*
X171000347Y-101351441D01*
X171423442Y-101435600D01*
X171976558Y-101435600D01*
X172399653Y-101351441D01*
X172647851Y-101185600D01*
X185492149Y-101185600D01*
X185740347Y-101351441D01*
X186163442Y-101435600D01*
X186716558Y-101435600D01*
X187139653Y-101351441D01*
X187387851Y-101185600D01*
X188532149Y-101185600D01*
X188780347Y-101351441D01*
X189203442Y-101435600D01*
X189756558Y-101435600D01*
X190179653Y-101351441D01*
X190427851Y-101185600D01*
X203272149Y-101185600D01*
X203520347Y-101351441D01*
X203943442Y-101435600D01*
X204496558Y-101435600D01*
X204919653Y-101351441D01*
X205167851Y-101185600D01*
X206312149Y-101185600D01*
X206560347Y-101351441D01*
X206983442Y-101435600D01*
X207536558Y-101435600D01*
X207959653Y-101351441D01*
X208207851Y-101185600D01*
X221052149Y-101185600D01*
X221300347Y-101351441D01*
X221723442Y-101435600D01*
X222276558Y-101435600D01*
X222699653Y-101351441D01*
X222947851Y-101185600D01*
X224092149Y-101185600D01*
X224340347Y-101351441D01*
X224763442Y-101435600D01*
X225316558Y-101435600D01*
X225739653Y-101351441D01*
X226098335Y-101111777D01*
X226337999Y-100753095D01*
X226422158Y-100330000D01*
X226337999Y-99906905D01*
X226098335Y-99548223D01*
X225739653Y-99308559D01*
X225316558Y-99224400D01*
X224763442Y-99224400D01*
X224340347Y-99308559D01*
X224092149Y-99474400D01*
X222947851Y-99474400D01*
X222699653Y-99308559D01*
X222276558Y-99224400D01*
X221723442Y-99224400D01*
X221300347Y-99308559D01*
X221052149Y-99474400D01*
X208207851Y-99474400D01*
X207959653Y-99308559D01*
X207536558Y-99224400D01*
X206983442Y-99224400D01*
X206560347Y-99308559D01*
X206312149Y-99474400D01*
X205167851Y-99474400D01*
X204919653Y-99308559D01*
X204496558Y-99224400D01*
X203943442Y-99224400D01*
X203520347Y-99308559D01*
X203272149Y-99474400D01*
X190427851Y-99474400D01*
X190179653Y-99308559D01*
X189756558Y-99224400D01*
X189203442Y-99224400D01*
X188780347Y-99308559D01*
X188532149Y-99474400D01*
X187387851Y-99474400D01*
X187139653Y-99308559D01*
X186716558Y-99224400D01*
X186163442Y-99224400D01*
X185740347Y-99308559D01*
X185492149Y-99474400D01*
X172647851Y-99474400D01*
X172399653Y-99308559D01*
X171976558Y-99224400D01*
X171423442Y-99224400D01*
X171000347Y-99308559D01*
X170752149Y-99474400D01*
X169607851Y-99474400D01*
X169359653Y-99308559D01*
X168936558Y-99224400D01*
X168383442Y-99224400D01*
X167960347Y-99308559D01*
X167712149Y-99474400D01*
X154867851Y-99474400D01*
X154619653Y-99308559D01*
X154196558Y-99224400D01*
X153643442Y-99224400D01*
X153220347Y-99308559D01*
X152972149Y-99474400D01*
X151827851Y-99474400D01*
X151579653Y-99308559D01*
X151156558Y-99224400D01*
X150603442Y-99224400D01*
X150180347Y-99308559D01*
X149932149Y-99474400D01*
X137087851Y-99474400D01*
X136839653Y-99308559D01*
X136416558Y-99224400D01*
X135863442Y-99224400D01*
X135440347Y-99308559D01*
X135192149Y-99474400D01*
X134047851Y-99474400D01*
X133799653Y-99308559D01*
X133376558Y-99224400D01*
X132823442Y-99224400D01*
X132400347Y-99308559D01*
X132152149Y-99474400D01*
X119307851Y-99474400D01*
X119059653Y-99308559D01*
X118636558Y-99224400D01*
X118083442Y-99224400D01*
X117660347Y-99308559D01*
X117412149Y-99474400D01*
X116267851Y-99474400D01*
X116019653Y-99308559D01*
X115596558Y-99224400D01*
X115043442Y-99224400D01*
X114620347Y-99308559D01*
X114372149Y-99474400D01*
X101527851Y-99474400D01*
X101279653Y-99308559D01*
X100856558Y-99224400D01*
X100303442Y-99224400D01*
X99880347Y-99308559D01*
X99632149Y-99474400D01*
X98487851Y-99474400D01*
X98239653Y-99308559D01*
X97816558Y-99224400D01*
X97263442Y-99224400D01*
X96840347Y-99308559D01*
X96556230Y-99498400D01*
X92401399Y-99498400D01*
X92367000Y-99491434D01*
X91628639Y-99491434D01*
X91543000Y-99474399D01*
X91542995Y-99474400D01*
X87251434Y-99474400D01*
X87212730Y-99435628D01*
X86824893Y-99274584D01*
X86404949Y-99274218D01*
X86016832Y-99434584D01*
X85719628Y-99731270D01*
X85558584Y-100119107D01*
X85558218Y-100539051D01*
X81963450Y-100539051D01*
X83856901Y-98645600D01*
X96592149Y-98645600D01*
X96840347Y-98811441D01*
X97263442Y-98895600D01*
X97816558Y-98895600D01*
X98239653Y-98811441D01*
X98487851Y-98645600D01*
X99632149Y-98645600D01*
X99880347Y-98811441D01*
X100303442Y-98895600D01*
X100856558Y-98895600D01*
X101279653Y-98811441D01*
X101527851Y-98645600D01*
X114372149Y-98645600D01*
X114620347Y-98811441D01*
X115043442Y-98895600D01*
X115596558Y-98895600D01*
X116019653Y-98811441D01*
X116267851Y-98645600D01*
X117412149Y-98645600D01*
X117660347Y-98811441D01*
X118083442Y-98895600D01*
X118636558Y-98895600D01*
X119059653Y-98811441D01*
X119307851Y-98645600D01*
X132152149Y-98645600D01*
X132400347Y-98811441D01*
X132823442Y-98895600D01*
X133376558Y-98895600D01*
X133799653Y-98811441D01*
X134047851Y-98645600D01*
X135192149Y-98645600D01*
X135440347Y-98811441D01*
X135863442Y-98895600D01*
X136416558Y-98895600D01*
X136839653Y-98811441D01*
X137087851Y-98645600D01*
X149932149Y-98645600D01*
X150180347Y-98811441D01*
X150603442Y-98895600D01*
X151156558Y-98895600D01*
X151579653Y-98811441D01*
X151827851Y-98645600D01*
X152972149Y-98645600D01*
X153220347Y-98811441D01*
X153643442Y-98895600D01*
X154196558Y-98895600D01*
X154619653Y-98811441D01*
X154867851Y-98645600D01*
X167712149Y-98645600D01*
X167960347Y-98811441D01*
X168383442Y-98895600D01*
X168936558Y-98895600D01*
X169359653Y-98811441D01*
X169607851Y-98645600D01*
X170752149Y-98645600D01*
X171000347Y-98811441D01*
X171423442Y-98895600D01*
X171976558Y-98895600D01*
X172399653Y-98811441D01*
X172647851Y-98645600D01*
X185492149Y-98645600D01*
X185740347Y-98811441D01*
X186163442Y-98895600D01*
X186716558Y-98895600D01*
X187139653Y-98811441D01*
X187387851Y-98645600D01*
X188532149Y-98645600D01*
X188780347Y-98811441D01*
X189203442Y-98895600D01*
X189756558Y-98895600D01*
X190179653Y-98811441D01*
X190427851Y-98645600D01*
X203272149Y-98645600D01*
X203520347Y-98811441D01*
X203943442Y-98895600D01*
X204496558Y-98895600D01*
X204919653Y-98811441D01*
X205167851Y-98645600D01*
X206312149Y-98645600D01*
X206560347Y-98811441D01*
X206983442Y-98895600D01*
X207536558Y-98895600D01*
X207959653Y-98811441D01*
X208207851Y-98645600D01*
X221052149Y-98645600D01*
X221300347Y-98811441D01*
X221723442Y-98895600D01*
X222276558Y-98895600D01*
X222699653Y-98811441D01*
X222947851Y-98645600D01*
X224092149Y-98645600D01*
X224340347Y-98811441D01*
X224763442Y-98895600D01*
X225316558Y-98895600D01*
X225739653Y-98811441D01*
X226098335Y-98571777D01*
X226337999Y-98213095D01*
X226422158Y-97790000D01*
X226337999Y-97366905D01*
X226098335Y-97008223D01*
X225739653Y-96768559D01*
X225316558Y-96684400D01*
X224763442Y-96684400D01*
X224340347Y-96768559D01*
X224092149Y-96934400D01*
X222947851Y-96934400D01*
X222699653Y-96768559D01*
X222276558Y-96684400D01*
X221723442Y-96684400D01*
X221300347Y-96768559D01*
X221052149Y-96934400D01*
X208207851Y-96934400D01*
X207959653Y-96768559D01*
X207536558Y-96684400D01*
X206983442Y-96684400D01*
X206560347Y-96768559D01*
X206312149Y-96934400D01*
X205167851Y-96934400D01*
X204919653Y-96768559D01*
X204496558Y-96684400D01*
X203943442Y-96684400D01*
X203520347Y-96768559D01*
X203272149Y-96934400D01*
X190427851Y-96934400D01*
X190179653Y-96768559D01*
X189756558Y-96684400D01*
X189203442Y-96684400D01*
X188780347Y-96768559D01*
X188532149Y-96934400D01*
X187387851Y-96934400D01*
X187139653Y-96768559D01*
X186716558Y-96684400D01*
X186163442Y-96684400D01*
X185740347Y-96768559D01*
X185492149Y-96934400D01*
X172647851Y-96934400D01*
X172399653Y-96768559D01*
X171976558Y-96684400D01*
X171423442Y-96684400D01*
X171000347Y-96768559D01*
X170752149Y-96934400D01*
X169607851Y-96934400D01*
X169359653Y-96768559D01*
X168936558Y-96684400D01*
X168383442Y-96684400D01*
X167960347Y-96768559D01*
X167712149Y-96934400D01*
X154867851Y-96934400D01*
X154619653Y-96768559D01*
X154196558Y-96684400D01*
X153643442Y-96684400D01*
X153220347Y-96768559D01*
X152972149Y-96934400D01*
X151827851Y-96934400D01*
X151579653Y-96768559D01*
X151156558Y-96684400D01*
X150603442Y-96684400D01*
X150180347Y-96768559D01*
X149932149Y-96934400D01*
X137087851Y-96934400D01*
X136839653Y-96768559D01*
X136416558Y-96684400D01*
X135863442Y-96684400D01*
X135440347Y-96768559D01*
X135192149Y-96934400D01*
X134047851Y-96934400D01*
X133799653Y-96768559D01*
X133376558Y-96684400D01*
X132823442Y-96684400D01*
X132400347Y-96768559D01*
X132152149Y-96934400D01*
X119307851Y-96934400D01*
X119059653Y-96768559D01*
X118636558Y-96684400D01*
X118083442Y-96684400D01*
X117660347Y-96768559D01*
X117412149Y-96934400D01*
X116267851Y-96934400D01*
X116019653Y-96768559D01*
X115596558Y-96684400D01*
X115043442Y-96684400D01*
X114620347Y-96768559D01*
X114372149Y-96934400D01*
X101527851Y-96934400D01*
X101279653Y-96768559D01*
X100856558Y-96684400D01*
X100303442Y-96684400D01*
X99880347Y-96768559D01*
X99632149Y-96934400D01*
X98487851Y-96934400D01*
X98239653Y-96768559D01*
X97816558Y-96684400D01*
X97263442Y-96684400D01*
X96840347Y-96768559D01*
X96592149Y-96934400D01*
X83502505Y-96934400D01*
X83502500Y-96934399D01*
X83175076Y-96999529D01*
X82897499Y-97184999D01*
X82897497Y-97185002D01*
X80420999Y-99661499D01*
X80235529Y-99939076D01*
X80170399Y-100266500D01*
X80170400Y-100266505D01*
X80170400Y-105800400D01*
X79819500Y-105800400D01*
X79775752Y-105809102D01*
X79732000Y-105800399D01*
X79731995Y-105800400D01*
X78431399Y-105800400D01*
X78397000Y-105793434D01*
X76797000Y-105793434D01*
X76665223Y-105818230D01*
X76655634Y-105824400D01*
X74468055Y-105824400D01*
X74074030Y-105429687D01*
X73476770Y-105181683D01*
X72830067Y-105181119D01*
X72232375Y-105428080D01*
X71774687Y-105884970D01*
X71526683Y-106482230D01*
X71526119Y-107128933D01*
X38530600Y-107128933D01*
X38530600Y-103438700D01*
X41963400Y-103438700D01*
X41963400Y-104519733D01*
X42017537Y-104650431D01*
X42117569Y-104750463D01*
X42248267Y-104804600D01*
X43829300Y-104804600D01*
X43918200Y-104715700D01*
X43918200Y-103349800D01*
X44219800Y-103349800D01*
X44219800Y-104715700D01*
X44308700Y-104804600D01*
X45889733Y-104804600D01*
X46020431Y-104750463D01*
X46120463Y-104650431D01*
X46174600Y-104519733D01*
X46174600Y-103895700D01*
X76441400Y-103895700D01*
X76441400Y-104226733D01*
X76495537Y-104357431D01*
X76595569Y-104457463D01*
X76726267Y-104511600D01*
X77357300Y-104511600D01*
X77446200Y-104422700D01*
X77446200Y-103806800D01*
X77747800Y-103806800D01*
X77747800Y-104422700D01*
X77836700Y-104511600D01*
X78467733Y-104511600D01*
X78598431Y-104457463D01*
X78698463Y-104357431D01*
X78752600Y-104226733D01*
X78752600Y-103895700D01*
X78663700Y-103806800D01*
X77747800Y-103806800D01*
X77446200Y-103806800D01*
X76530300Y-103806800D01*
X76441400Y-103895700D01*
X46174600Y-103895700D01*
X46174600Y-103438700D01*
X46085700Y-103349800D01*
X44219800Y-103349800D01*
X43918200Y-103349800D01*
X42052300Y-103349800D01*
X41963400Y-103438700D01*
X38530600Y-103438700D01*
X38530600Y-103085267D01*
X76441400Y-103085267D01*
X76441400Y-103416300D01*
X76530300Y-103505200D01*
X77446200Y-103505200D01*
X77446200Y-102889300D01*
X77747800Y-102889300D01*
X77747800Y-103505200D01*
X78663700Y-103505200D01*
X78752600Y-103416300D01*
X78752600Y-103085267D01*
X78698463Y-102954569D01*
X78598431Y-102854537D01*
X78467733Y-102800400D01*
X77836700Y-102800400D01*
X77747800Y-102889300D01*
X77446200Y-102889300D01*
X77357300Y-102800400D01*
X76726267Y-102800400D01*
X76595569Y-102854537D01*
X76495537Y-102954569D01*
X76441400Y-103085267D01*
X38530600Y-103085267D01*
X38530600Y-101878267D01*
X41963400Y-101878267D01*
X41963400Y-102959300D01*
X42052300Y-103048200D01*
X43918200Y-103048200D01*
X43918200Y-101682300D01*
X44219800Y-101682300D01*
X44219800Y-103048200D01*
X46085700Y-103048200D01*
X46174600Y-102959300D01*
X46174600Y-101878267D01*
X46120463Y-101747569D01*
X46020431Y-101647537D01*
X45889733Y-101593400D01*
X44308700Y-101593400D01*
X44219800Y-101682300D01*
X43918200Y-101682300D01*
X43829300Y-101593400D01*
X42248267Y-101593400D01*
X42117569Y-101647537D01*
X42017537Y-101747569D01*
X41963400Y-101878267D01*
X38530600Y-101878267D01*
X38530600Y-99239000D01*
X41922149Y-99239000D01*
X42044368Y-99853437D01*
X42392418Y-100374331D01*
X42913312Y-100722381D01*
X43527749Y-100844600D01*
X44610251Y-100844600D01*
X45224688Y-100722381D01*
X45745582Y-100374331D01*
X45967237Y-100042600D01*
X51426625Y-100042600D01*
X51453080Y-100106625D01*
X51909970Y-100564313D01*
X52507230Y-100812317D01*
X53153933Y-100812881D01*
X53751625Y-100565920D01*
X54209313Y-100109030D01*
X54457317Y-99511770D01*
X54457881Y-98865067D01*
X54210920Y-98267375D01*
X53801884Y-97857624D01*
X72154639Y-97857624D01*
X72303818Y-98070979D01*
X72913315Y-98287171D01*
X73559149Y-98253661D01*
X74000182Y-98070979D01*
X74149361Y-97857624D01*
X73152000Y-96860263D01*
X72154639Y-97857624D01*
X53801884Y-97857624D01*
X53754030Y-97809687D01*
X53156770Y-97561683D01*
X52510067Y-97561119D01*
X51912375Y-97808080D01*
X51454687Y-98264970D01*
X51427103Y-98331400D01*
X45897747Y-98331400D01*
X45745582Y-98103669D01*
X45224688Y-97755619D01*
X44924600Y-97695928D01*
X44924600Y-96408315D01*
X71511829Y-96408315D01*
X71545339Y-97054149D01*
X71728021Y-97495182D01*
X71941376Y-97644361D01*
X72938737Y-96647000D01*
X73365263Y-96647000D01*
X74362624Y-97644361D01*
X74575979Y-97495182D01*
X74792171Y-96885685D01*
X74758661Y-96239851D01*
X74575979Y-95798818D01*
X74362624Y-95649639D01*
X73365263Y-96647000D01*
X72938737Y-96647000D01*
X71941376Y-95649639D01*
X71728021Y-95798818D01*
X71511829Y-96408315D01*
X44924600Y-96408315D01*
X44924600Y-96391566D01*
X44996000Y-96391566D01*
X45127777Y-96366770D01*
X45248807Y-96288890D01*
X45330001Y-96170058D01*
X45358566Y-96029000D01*
X45358566Y-95317624D01*
X51834639Y-95317624D01*
X51983818Y-95530979D01*
X52593315Y-95747171D01*
X53239149Y-95713661D01*
X53680182Y-95530979D01*
X53746328Y-95436376D01*
X72154639Y-95436376D01*
X73152000Y-96433737D01*
X74015456Y-95570281D01*
X96231808Y-95570281D01*
X96448410Y-95984069D01*
X96793388Y-96250254D01*
X97213971Y-96364159D01*
X97389200Y-96273435D01*
X97389200Y-95400800D01*
X97690800Y-95400800D01*
X97690800Y-96273435D01*
X97866029Y-96364159D01*
X98286612Y-96250254D01*
X98631590Y-95984069D01*
X98848192Y-95570281D01*
X99271808Y-95570281D01*
X99488410Y-95984069D01*
X99833388Y-96250254D01*
X100253971Y-96364159D01*
X100429200Y-96273435D01*
X100429200Y-95400800D01*
X100730800Y-95400800D01*
X100730800Y-96273435D01*
X100906029Y-96364159D01*
X101326612Y-96250254D01*
X101671590Y-95984069D01*
X101888192Y-95570281D01*
X114011808Y-95570281D01*
X114228410Y-95984069D01*
X114573388Y-96250254D01*
X114993971Y-96364159D01*
X115169200Y-96273435D01*
X115169200Y-95400800D01*
X115470800Y-95400800D01*
X115470800Y-96273435D01*
X115646029Y-96364159D01*
X116066612Y-96250254D01*
X116411590Y-95984069D01*
X116628192Y-95570281D01*
X117051808Y-95570281D01*
X117268410Y-95984069D01*
X117613388Y-96250254D01*
X118033971Y-96364159D01*
X118209200Y-96273435D01*
X118209200Y-95400800D01*
X118510800Y-95400800D01*
X118510800Y-96273435D01*
X118686029Y-96364159D01*
X119106612Y-96250254D01*
X119451590Y-95984069D01*
X119668192Y-95570281D01*
X131791808Y-95570281D01*
X132008410Y-95984069D01*
X132353388Y-96250254D01*
X132773971Y-96364159D01*
X132949200Y-96273435D01*
X132949200Y-95400800D01*
X133250800Y-95400800D01*
X133250800Y-96273435D01*
X133426029Y-96364159D01*
X133846612Y-96250254D01*
X134191590Y-95984069D01*
X134408192Y-95570281D01*
X134831808Y-95570281D01*
X135048410Y-95984069D01*
X135393388Y-96250254D01*
X135813971Y-96364159D01*
X135989200Y-96273435D01*
X135989200Y-95400800D01*
X136290800Y-95400800D01*
X136290800Y-96273435D01*
X136466029Y-96364159D01*
X136886612Y-96250254D01*
X137231590Y-95984069D01*
X137448192Y-95570281D01*
X149571808Y-95570281D01*
X149788410Y-95984069D01*
X150133388Y-96250254D01*
X150553971Y-96364159D01*
X150729200Y-96273435D01*
X150729200Y-95400800D01*
X151030800Y-95400800D01*
X151030800Y-96273435D01*
X151206029Y-96364159D01*
X151626612Y-96250254D01*
X151971590Y-95984069D01*
X152188192Y-95570281D01*
X152611808Y-95570281D01*
X152828410Y-95984069D01*
X153173388Y-96250254D01*
X153593971Y-96364159D01*
X153769200Y-96273435D01*
X153769200Y-95400800D01*
X154070800Y-95400800D01*
X154070800Y-96273435D01*
X154246029Y-96364159D01*
X154666612Y-96250254D01*
X155011590Y-95984069D01*
X155228192Y-95570281D01*
X167351808Y-95570281D01*
X167568410Y-95984069D01*
X167913388Y-96250254D01*
X168333971Y-96364159D01*
X168509200Y-96273435D01*
X168509200Y-95400800D01*
X168810800Y-95400800D01*
X168810800Y-96273435D01*
X168986029Y-96364159D01*
X169406612Y-96250254D01*
X169751590Y-95984069D01*
X169968192Y-95570281D01*
X170391808Y-95570281D01*
X170608410Y-95984069D01*
X170953388Y-96250254D01*
X171373971Y-96364159D01*
X171549200Y-96273435D01*
X171549200Y-95400800D01*
X171850800Y-95400800D01*
X171850800Y-96273435D01*
X172026029Y-96364159D01*
X172446612Y-96250254D01*
X172791590Y-95984069D01*
X173008192Y-95570281D01*
X185131808Y-95570281D01*
X185348410Y-95984069D01*
X185693388Y-96250254D01*
X186113971Y-96364159D01*
X186289200Y-96273435D01*
X186289200Y-95400800D01*
X186590800Y-95400800D01*
X186590800Y-96273435D01*
X186766029Y-96364159D01*
X187186612Y-96250254D01*
X187531590Y-95984069D01*
X187748192Y-95570281D01*
X188171808Y-95570281D01*
X188388410Y-95984069D01*
X188733388Y-96250254D01*
X189153971Y-96364159D01*
X189329200Y-96273435D01*
X189329200Y-95400800D01*
X189630800Y-95400800D01*
X189630800Y-96273435D01*
X189806029Y-96364159D01*
X190226612Y-96250254D01*
X190571590Y-95984069D01*
X190788192Y-95570281D01*
X202911808Y-95570281D01*
X203128410Y-95984069D01*
X203473388Y-96250254D01*
X203893971Y-96364159D01*
X204069200Y-96273435D01*
X204069200Y-95400800D01*
X204370800Y-95400800D01*
X204370800Y-96273435D01*
X204546029Y-96364159D01*
X204966612Y-96250254D01*
X205311590Y-95984069D01*
X205528192Y-95570281D01*
X205951808Y-95570281D01*
X206168410Y-95984069D01*
X206513388Y-96250254D01*
X206933971Y-96364159D01*
X207109200Y-96273435D01*
X207109200Y-95400800D01*
X207410800Y-95400800D01*
X207410800Y-96273435D01*
X207586029Y-96364159D01*
X208006612Y-96250254D01*
X208351590Y-95984069D01*
X208568192Y-95570281D01*
X220691808Y-95570281D01*
X220908410Y-95984069D01*
X221253388Y-96250254D01*
X221673971Y-96364159D01*
X221849200Y-96273435D01*
X221849200Y-95400800D01*
X222150800Y-95400800D01*
X222150800Y-96273435D01*
X222326029Y-96364159D01*
X222746612Y-96250254D01*
X223091590Y-95984069D01*
X223308192Y-95570281D01*
X223731808Y-95570281D01*
X223948410Y-95984069D01*
X224293388Y-96250254D01*
X224713971Y-96364159D01*
X224889200Y-96273435D01*
X224889200Y-95400800D01*
X225190800Y-95400800D01*
X225190800Y-96273435D01*
X225366029Y-96364159D01*
X225786612Y-96250254D01*
X226131590Y-95984069D01*
X226348192Y-95570281D01*
X226295454Y-95400800D01*
X225190800Y-95400800D01*
X224889200Y-95400800D01*
X223784546Y-95400800D01*
X223731808Y-95570281D01*
X223308192Y-95570281D01*
X223255454Y-95400800D01*
X222150800Y-95400800D01*
X221849200Y-95400800D01*
X220744546Y-95400800D01*
X220691808Y-95570281D01*
X208568192Y-95570281D01*
X208515454Y-95400800D01*
X207410800Y-95400800D01*
X207109200Y-95400800D01*
X206004546Y-95400800D01*
X205951808Y-95570281D01*
X205528192Y-95570281D01*
X205475454Y-95400800D01*
X204370800Y-95400800D01*
X204069200Y-95400800D01*
X202964546Y-95400800D01*
X202911808Y-95570281D01*
X190788192Y-95570281D01*
X190735454Y-95400800D01*
X189630800Y-95400800D01*
X189329200Y-95400800D01*
X188224546Y-95400800D01*
X188171808Y-95570281D01*
X187748192Y-95570281D01*
X187695454Y-95400800D01*
X186590800Y-95400800D01*
X186289200Y-95400800D01*
X185184546Y-95400800D01*
X185131808Y-95570281D01*
X173008192Y-95570281D01*
X172955454Y-95400800D01*
X171850800Y-95400800D01*
X171549200Y-95400800D01*
X170444546Y-95400800D01*
X170391808Y-95570281D01*
X169968192Y-95570281D01*
X169915454Y-95400800D01*
X168810800Y-95400800D01*
X168509200Y-95400800D01*
X167404546Y-95400800D01*
X167351808Y-95570281D01*
X155228192Y-95570281D01*
X155175454Y-95400800D01*
X154070800Y-95400800D01*
X153769200Y-95400800D01*
X152664546Y-95400800D01*
X152611808Y-95570281D01*
X152188192Y-95570281D01*
X152135454Y-95400800D01*
X151030800Y-95400800D01*
X150729200Y-95400800D01*
X149624546Y-95400800D01*
X149571808Y-95570281D01*
X137448192Y-95570281D01*
X137395454Y-95400800D01*
X136290800Y-95400800D01*
X135989200Y-95400800D01*
X134884546Y-95400800D01*
X134831808Y-95570281D01*
X134408192Y-95570281D01*
X134355454Y-95400800D01*
X133250800Y-95400800D01*
X132949200Y-95400800D01*
X131844546Y-95400800D01*
X131791808Y-95570281D01*
X119668192Y-95570281D01*
X119615454Y-95400800D01*
X118510800Y-95400800D01*
X118209200Y-95400800D01*
X117104546Y-95400800D01*
X117051808Y-95570281D01*
X116628192Y-95570281D01*
X116575454Y-95400800D01*
X115470800Y-95400800D01*
X115169200Y-95400800D01*
X114064546Y-95400800D01*
X114011808Y-95570281D01*
X101888192Y-95570281D01*
X101835454Y-95400800D01*
X100730800Y-95400800D01*
X100429200Y-95400800D01*
X99324546Y-95400800D01*
X99271808Y-95570281D01*
X98848192Y-95570281D01*
X98795454Y-95400800D01*
X97690800Y-95400800D01*
X97389200Y-95400800D01*
X96284546Y-95400800D01*
X96231808Y-95570281D01*
X74015456Y-95570281D01*
X74149361Y-95436376D01*
X74000182Y-95223021D01*
X73390685Y-95006829D01*
X72744851Y-95040339D01*
X72303818Y-95223021D01*
X72154639Y-95436376D01*
X53746328Y-95436376D01*
X53829361Y-95317624D01*
X52832000Y-94320263D01*
X51834639Y-95317624D01*
X45358566Y-95317624D01*
X45358566Y-93868315D01*
X51191829Y-93868315D01*
X51225339Y-94514149D01*
X51408021Y-94955182D01*
X51621376Y-95104361D01*
X52618737Y-94107000D01*
X53045263Y-94107000D01*
X54042624Y-95104361D01*
X54255979Y-94955182D01*
X54265010Y-94929719D01*
X96231808Y-94929719D01*
X96284546Y-95099200D01*
X97389200Y-95099200D01*
X97389200Y-94226565D01*
X97690800Y-94226565D01*
X97690800Y-95099200D01*
X98795454Y-95099200D01*
X98848192Y-94929719D01*
X99271808Y-94929719D01*
X99324546Y-95099200D01*
X100429200Y-95099200D01*
X100429200Y-94226565D01*
X100730800Y-94226565D01*
X100730800Y-95099200D01*
X101835454Y-95099200D01*
X101888192Y-94929719D01*
X114011808Y-94929719D01*
X114064546Y-95099200D01*
X115169200Y-95099200D01*
X115169200Y-94226565D01*
X115470800Y-94226565D01*
X115470800Y-95099200D01*
X116575454Y-95099200D01*
X116628192Y-94929719D01*
X117051808Y-94929719D01*
X117104546Y-95099200D01*
X118209200Y-95099200D01*
X118209200Y-94226565D01*
X118510800Y-94226565D01*
X118510800Y-95099200D01*
X119615454Y-95099200D01*
X119668192Y-94929719D01*
X131791808Y-94929719D01*
X131844546Y-95099200D01*
X132949200Y-95099200D01*
X132949200Y-94226565D01*
X133250800Y-94226565D01*
X133250800Y-95099200D01*
X134355454Y-95099200D01*
X134408192Y-94929719D01*
X134831808Y-94929719D01*
X134884546Y-95099200D01*
X135989200Y-95099200D01*
X135989200Y-94226565D01*
X136290800Y-94226565D01*
X136290800Y-95099200D01*
X137395454Y-95099200D01*
X137448192Y-94929719D01*
X149571808Y-94929719D01*
X149624546Y-95099200D01*
X150729200Y-95099200D01*
X150729200Y-94226565D01*
X151030800Y-94226565D01*
X151030800Y-95099200D01*
X152135454Y-95099200D01*
X152188192Y-94929719D01*
X152611808Y-94929719D01*
X152664546Y-95099200D01*
X153769200Y-95099200D01*
X153769200Y-94226565D01*
X154070800Y-94226565D01*
X154070800Y-95099200D01*
X155175454Y-95099200D01*
X155228192Y-94929719D01*
X167351808Y-94929719D01*
X167404546Y-95099200D01*
X168509200Y-95099200D01*
X168509200Y-94226565D01*
X168810800Y-94226565D01*
X168810800Y-95099200D01*
X169915454Y-95099200D01*
X169968192Y-94929719D01*
X170391808Y-94929719D01*
X170444546Y-95099200D01*
X171549200Y-95099200D01*
X171549200Y-94226565D01*
X171850800Y-94226565D01*
X171850800Y-95099200D01*
X172955454Y-95099200D01*
X173008192Y-94929719D01*
X185131808Y-94929719D01*
X185184546Y-95099200D01*
X186289200Y-95099200D01*
X186289200Y-94226565D01*
X186590800Y-94226565D01*
X186590800Y-95099200D01*
X187695454Y-95099200D01*
X187748192Y-94929719D01*
X188171808Y-94929719D01*
X188224546Y-95099200D01*
X189329200Y-95099200D01*
X189329200Y-94226565D01*
X189630800Y-94226565D01*
X189630800Y-95099200D01*
X190735454Y-95099200D01*
X190788192Y-94929719D01*
X202911808Y-94929719D01*
X202964546Y-95099200D01*
X204069200Y-95099200D01*
X204069200Y-94226565D01*
X204370800Y-94226565D01*
X204370800Y-95099200D01*
X205475454Y-95099200D01*
X205528192Y-94929719D01*
X205951808Y-94929719D01*
X206004546Y-95099200D01*
X207109200Y-95099200D01*
X207109200Y-94226565D01*
X207410800Y-94226565D01*
X207410800Y-95099200D01*
X208515454Y-95099200D01*
X208568192Y-94929719D01*
X220691808Y-94929719D01*
X220744546Y-95099200D01*
X221849200Y-95099200D01*
X221849200Y-94226565D01*
X222150800Y-94226565D01*
X222150800Y-95099200D01*
X223255454Y-95099200D01*
X223308192Y-94929719D01*
X223731808Y-94929719D01*
X223784546Y-95099200D01*
X224889200Y-95099200D01*
X224889200Y-94226565D01*
X225190800Y-94226565D01*
X225190800Y-95099200D01*
X226295454Y-95099200D01*
X226348192Y-94929719D01*
X226131590Y-94515931D01*
X225786612Y-94249746D01*
X225366029Y-94135841D01*
X225190800Y-94226565D01*
X224889200Y-94226565D01*
X224713971Y-94135841D01*
X224293388Y-94249746D01*
X223948410Y-94515931D01*
X223731808Y-94929719D01*
X223308192Y-94929719D01*
X223091590Y-94515931D01*
X222746612Y-94249746D01*
X222326029Y-94135841D01*
X222150800Y-94226565D01*
X221849200Y-94226565D01*
X221673971Y-94135841D01*
X221253388Y-94249746D01*
X220908410Y-94515931D01*
X220691808Y-94929719D01*
X208568192Y-94929719D01*
X208351590Y-94515931D01*
X208006612Y-94249746D01*
X207586029Y-94135841D01*
X207410800Y-94226565D01*
X207109200Y-94226565D01*
X206933971Y-94135841D01*
X206513388Y-94249746D01*
X206168410Y-94515931D01*
X205951808Y-94929719D01*
X205528192Y-94929719D01*
X205311590Y-94515931D01*
X204966612Y-94249746D01*
X204546029Y-94135841D01*
X204370800Y-94226565D01*
X204069200Y-94226565D01*
X203893971Y-94135841D01*
X203473388Y-94249746D01*
X203128410Y-94515931D01*
X202911808Y-94929719D01*
X190788192Y-94929719D01*
X190571590Y-94515931D01*
X190226612Y-94249746D01*
X189806029Y-94135841D01*
X189630800Y-94226565D01*
X189329200Y-94226565D01*
X189153971Y-94135841D01*
X188733388Y-94249746D01*
X188388410Y-94515931D01*
X188171808Y-94929719D01*
X187748192Y-94929719D01*
X187531590Y-94515931D01*
X187186612Y-94249746D01*
X186766029Y-94135841D01*
X186590800Y-94226565D01*
X186289200Y-94226565D01*
X186113971Y-94135841D01*
X185693388Y-94249746D01*
X185348410Y-94515931D01*
X185131808Y-94929719D01*
X173008192Y-94929719D01*
X172791590Y-94515931D01*
X172446612Y-94249746D01*
X172026029Y-94135841D01*
X171850800Y-94226565D01*
X171549200Y-94226565D01*
X171373971Y-94135841D01*
X170953388Y-94249746D01*
X170608410Y-94515931D01*
X170391808Y-94929719D01*
X169968192Y-94929719D01*
X169751590Y-94515931D01*
X169406612Y-94249746D01*
X168986029Y-94135841D01*
X168810800Y-94226565D01*
X168509200Y-94226565D01*
X168333971Y-94135841D01*
X167913388Y-94249746D01*
X167568410Y-94515931D01*
X167351808Y-94929719D01*
X155228192Y-94929719D01*
X155011590Y-94515931D01*
X154666612Y-94249746D01*
X154246029Y-94135841D01*
X154070800Y-94226565D01*
X153769200Y-94226565D01*
X153593971Y-94135841D01*
X153173388Y-94249746D01*
X152828410Y-94515931D01*
X152611808Y-94929719D01*
X152188192Y-94929719D01*
X151971590Y-94515931D01*
X151626612Y-94249746D01*
X151206029Y-94135841D01*
X151030800Y-94226565D01*
X150729200Y-94226565D01*
X150553971Y-94135841D01*
X150133388Y-94249746D01*
X149788410Y-94515931D01*
X149571808Y-94929719D01*
X137448192Y-94929719D01*
X137231590Y-94515931D01*
X136886612Y-94249746D01*
X136466029Y-94135841D01*
X136290800Y-94226565D01*
X135989200Y-94226565D01*
X135813971Y-94135841D01*
X135393388Y-94249746D01*
X135048410Y-94515931D01*
X134831808Y-94929719D01*
X134408192Y-94929719D01*
X134191590Y-94515931D01*
X133846612Y-94249746D01*
X133426029Y-94135841D01*
X133250800Y-94226565D01*
X132949200Y-94226565D01*
X132773971Y-94135841D01*
X132353388Y-94249746D01*
X132008410Y-94515931D01*
X131791808Y-94929719D01*
X119668192Y-94929719D01*
X119451590Y-94515931D01*
X119106612Y-94249746D01*
X118686029Y-94135841D01*
X118510800Y-94226565D01*
X118209200Y-94226565D01*
X118033971Y-94135841D01*
X117613388Y-94249746D01*
X117268410Y-94515931D01*
X117051808Y-94929719D01*
X116628192Y-94929719D01*
X116411590Y-94515931D01*
X116066612Y-94249746D01*
X115646029Y-94135841D01*
X115470800Y-94226565D01*
X115169200Y-94226565D01*
X114993971Y-94135841D01*
X114573388Y-94249746D01*
X114228410Y-94515931D01*
X114011808Y-94929719D01*
X101888192Y-94929719D01*
X101671590Y-94515931D01*
X101326612Y-94249746D01*
X100906029Y-94135841D01*
X100730800Y-94226565D01*
X100429200Y-94226565D01*
X100253971Y-94135841D01*
X99833388Y-94249746D01*
X99488410Y-94515931D01*
X99271808Y-94929719D01*
X98848192Y-94929719D01*
X98631590Y-94515931D01*
X98286612Y-94249746D01*
X97866029Y-94135841D01*
X97690800Y-94226565D01*
X97389200Y-94226565D01*
X97213971Y-94135841D01*
X96793388Y-94249746D01*
X96448410Y-94515931D01*
X96231808Y-94929719D01*
X54265010Y-94929719D01*
X54472171Y-94345685D01*
X54438661Y-93699851D01*
X54255979Y-93258818D01*
X54042624Y-93109639D01*
X53045263Y-94107000D01*
X52618737Y-94107000D01*
X51621376Y-93109639D01*
X51408021Y-93258818D01*
X51191829Y-93868315D01*
X45358566Y-93868315D01*
X45358566Y-93029000D01*
X45333770Y-92897223D01*
X45333225Y-92896376D01*
X51834639Y-92896376D01*
X52832000Y-93893737D01*
X53695456Y-93030281D01*
X96231808Y-93030281D01*
X96448410Y-93444069D01*
X96793388Y-93710254D01*
X97213971Y-93824159D01*
X97389200Y-93733435D01*
X97389200Y-92860800D01*
X97690800Y-92860800D01*
X97690800Y-93733435D01*
X97866029Y-93824159D01*
X98286612Y-93710254D01*
X98631590Y-93444069D01*
X98848192Y-93030281D01*
X99271808Y-93030281D01*
X99488410Y-93444069D01*
X99833388Y-93710254D01*
X100253971Y-93824159D01*
X100429200Y-93733435D01*
X100429200Y-92860800D01*
X100730800Y-92860800D01*
X100730800Y-93733435D01*
X100906029Y-93824159D01*
X101326612Y-93710254D01*
X101671590Y-93444069D01*
X101888192Y-93030281D01*
X114011808Y-93030281D01*
X114228410Y-93444069D01*
X114573388Y-93710254D01*
X114993971Y-93824159D01*
X115169200Y-93733435D01*
X115169200Y-92860800D01*
X115470800Y-92860800D01*
X115470800Y-93733435D01*
X115646029Y-93824159D01*
X116066612Y-93710254D01*
X116411590Y-93444069D01*
X116628192Y-93030281D01*
X117051808Y-93030281D01*
X117268410Y-93444069D01*
X117613388Y-93710254D01*
X118033971Y-93824159D01*
X118209200Y-93733435D01*
X118209200Y-92860800D01*
X118510800Y-92860800D01*
X118510800Y-93733435D01*
X118686029Y-93824159D01*
X119106612Y-93710254D01*
X119451590Y-93444069D01*
X119668192Y-93030281D01*
X131791808Y-93030281D01*
X132008410Y-93444069D01*
X132353388Y-93710254D01*
X132773971Y-93824159D01*
X132949200Y-93733435D01*
X132949200Y-92860800D01*
X133250800Y-92860800D01*
X133250800Y-93733435D01*
X133426029Y-93824159D01*
X133846612Y-93710254D01*
X134191590Y-93444069D01*
X134408192Y-93030281D01*
X134831808Y-93030281D01*
X135048410Y-93444069D01*
X135393388Y-93710254D01*
X135813971Y-93824159D01*
X135989200Y-93733435D01*
X135989200Y-92860800D01*
X136290800Y-92860800D01*
X136290800Y-93733435D01*
X136466029Y-93824159D01*
X136886612Y-93710254D01*
X137231590Y-93444069D01*
X137448192Y-93030281D01*
X149571808Y-93030281D01*
X149788410Y-93444069D01*
X150133388Y-93710254D01*
X150553971Y-93824159D01*
X150729200Y-93733435D01*
X150729200Y-92860800D01*
X151030800Y-92860800D01*
X151030800Y-93733435D01*
X151206029Y-93824159D01*
X151626612Y-93710254D01*
X151971590Y-93444069D01*
X152188192Y-93030281D01*
X152611808Y-93030281D01*
X152828410Y-93444069D01*
X153173388Y-93710254D01*
X153593971Y-93824159D01*
X153769200Y-93733435D01*
X153769200Y-92860800D01*
X154070800Y-92860800D01*
X154070800Y-93733435D01*
X154246029Y-93824159D01*
X154666612Y-93710254D01*
X155011590Y-93444069D01*
X155228192Y-93030281D01*
X167351808Y-93030281D01*
X167568410Y-93444069D01*
X167913388Y-93710254D01*
X168333971Y-93824159D01*
X168509200Y-93733435D01*
X168509200Y-92860800D01*
X168810800Y-92860800D01*
X168810800Y-93733435D01*
X168986029Y-93824159D01*
X169406612Y-93710254D01*
X169751590Y-93444069D01*
X169968192Y-93030281D01*
X170391808Y-93030281D01*
X170608410Y-93444069D01*
X170953388Y-93710254D01*
X171373971Y-93824159D01*
X171549200Y-93733435D01*
X171549200Y-92860800D01*
X171850800Y-92860800D01*
X171850800Y-93733435D01*
X172026029Y-93824159D01*
X172446612Y-93710254D01*
X172791590Y-93444069D01*
X173008192Y-93030281D01*
X185131808Y-93030281D01*
X185348410Y-93444069D01*
X185693388Y-93710254D01*
X186113971Y-93824159D01*
X186289200Y-93733435D01*
X186289200Y-92860800D01*
X186590800Y-92860800D01*
X186590800Y-93733435D01*
X186766029Y-93824159D01*
X187186612Y-93710254D01*
X187531590Y-93444069D01*
X187748192Y-93030281D01*
X188171808Y-93030281D01*
X188388410Y-93444069D01*
X188733388Y-93710254D01*
X189153971Y-93824159D01*
X189329200Y-93733435D01*
X189329200Y-92860800D01*
X189630800Y-92860800D01*
X189630800Y-93733435D01*
X189806029Y-93824159D01*
X190226612Y-93710254D01*
X190571590Y-93444069D01*
X190788192Y-93030281D01*
X202911808Y-93030281D01*
X203128410Y-93444069D01*
X203473388Y-93710254D01*
X203893971Y-93824159D01*
X204069200Y-93733435D01*
X204069200Y-92860800D01*
X204370800Y-92860800D01*
X204370800Y-93733435D01*
X204546029Y-93824159D01*
X204966612Y-93710254D01*
X205311590Y-93444069D01*
X205528192Y-93030281D01*
X205951808Y-93030281D01*
X206168410Y-93444069D01*
X206513388Y-93710254D01*
X206933971Y-93824159D01*
X207109200Y-93733435D01*
X207109200Y-92860800D01*
X207410800Y-92860800D01*
X207410800Y-93733435D01*
X207586029Y-93824159D01*
X208006612Y-93710254D01*
X208351590Y-93444069D01*
X208568192Y-93030281D01*
X220691808Y-93030281D01*
X220908410Y-93444069D01*
X221253388Y-93710254D01*
X221673971Y-93824159D01*
X221849200Y-93733435D01*
X221849200Y-92860800D01*
X222150800Y-92860800D01*
X222150800Y-93733435D01*
X222326029Y-93824159D01*
X222746612Y-93710254D01*
X223091590Y-93444069D01*
X223308192Y-93030281D01*
X223731808Y-93030281D01*
X223948410Y-93444069D01*
X224293388Y-93710254D01*
X224713971Y-93824159D01*
X224889200Y-93733435D01*
X224889200Y-92860800D01*
X225190800Y-92860800D01*
X225190800Y-93733435D01*
X225366029Y-93824159D01*
X225786612Y-93710254D01*
X226131590Y-93444069D01*
X226348192Y-93030281D01*
X226295454Y-92860800D01*
X225190800Y-92860800D01*
X224889200Y-92860800D01*
X223784546Y-92860800D01*
X223731808Y-93030281D01*
X223308192Y-93030281D01*
X223255454Y-92860800D01*
X222150800Y-92860800D01*
X221849200Y-92860800D01*
X220744546Y-92860800D01*
X220691808Y-93030281D01*
X208568192Y-93030281D01*
X208515454Y-92860800D01*
X207410800Y-92860800D01*
X207109200Y-92860800D01*
X206004546Y-92860800D01*
X205951808Y-93030281D01*
X205528192Y-93030281D01*
X205475454Y-92860800D01*
X204370800Y-92860800D01*
X204069200Y-92860800D01*
X202964546Y-92860800D01*
X202911808Y-93030281D01*
X190788192Y-93030281D01*
X190735454Y-92860800D01*
X189630800Y-92860800D01*
X189329200Y-92860800D01*
X188224546Y-92860800D01*
X188171808Y-93030281D01*
X187748192Y-93030281D01*
X187695454Y-92860800D01*
X186590800Y-92860800D01*
X186289200Y-92860800D01*
X185184546Y-92860800D01*
X185131808Y-93030281D01*
X173008192Y-93030281D01*
X172955454Y-92860800D01*
X171850800Y-92860800D01*
X171549200Y-92860800D01*
X170444546Y-92860800D01*
X170391808Y-93030281D01*
X169968192Y-93030281D01*
X169915454Y-92860800D01*
X168810800Y-92860800D01*
X168509200Y-92860800D01*
X167404546Y-92860800D01*
X167351808Y-93030281D01*
X155228192Y-93030281D01*
X155175454Y-92860800D01*
X154070800Y-92860800D01*
X153769200Y-92860800D01*
X152664546Y-92860800D01*
X152611808Y-93030281D01*
X152188192Y-93030281D01*
X152135454Y-92860800D01*
X151030800Y-92860800D01*
X150729200Y-92860800D01*
X149624546Y-92860800D01*
X149571808Y-93030281D01*
X137448192Y-93030281D01*
X137395454Y-92860800D01*
X136290800Y-92860800D01*
X135989200Y-92860800D01*
X134884546Y-92860800D01*
X134831808Y-93030281D01*
X134408192Y-93030281D01*
X134355454Y-92860800D01*
X133250800Y-92860800D01*
X132949200Y-92860800D01*
X131844546Y-92860800D01*
X131791808Y-93030281D01*
X119668192Y-93030281D01*
X119615454Y-92860800D01*
X118510800Y-92860800D01*
X118209200Y-92860800D01*
X117104546Y-92860800D01*
X117051808Y-93030281D01*
X116628192Y-93030281D01*
X116575454Y-92860800D01*
X115470800Y-92860800D01*
X115169200Y-92860800D01*
X114064546Y-92860800D01*
X114011808Y-93030281D01*
X101888192Y-93030281D01*
X101835454Y-92860800D01*
X100730800Y-92860800D01*
X100429200Y-92860800D01*
X99324546Y-92860800D01*
X99271808Y-93030281D01*
X98848192Y-93030281D01*
X98795454Y-92860800D01*
X97690800Y-92860800D01*
X97389200Y-92860800D01*
X96284546Y-92860800D01*
X96231808Y-93030281D01*
X53695456Y-93030281D01*
X53829361Y-92896376D01*
X53680182Y-92683021D01*
X53070685Y-92466829D01*
X52424851Y-92500339D01*
X51983818Y-92683021D01*
X51834639Y-92896376D01*
X45333225Y-92896376D01*
X45255890Y-92776193D01*
X45137058Y-92694999D01*
X44996000Y-92666434D01*
X43396000Y-92666434D01*
X43264223Y-92691230D01*
X43143193Y-92769110D01*
X43061999Y-92887942D01*
X43033434Y-93029000D01*
X43033434Y-96029000D01*
X43058230Y-96160777D01*
X43136110Y-96281807D01*
X43213400Y-96334617D01*
X43213400Y-97695928D01*
X42913312Y-97755619D01*
X42392418Y-98103669D01*
X42044368Y-98624563D01*
X41922149Y-99239000D01*
X38530600Y-99239000D01*
X38530600Y-92389719D01*
X96231808Y-92389719D01*
X96284546Y-92559200D01*
X97389200Y-92559200D01*
X97389200Y-91686565D01*
X97690800Y-91686565D01*
X97690800Y-92559200D01*
X98795454Y-92559200D01*
X98848192Y-92389719D01*
X99271808Y-92389719D01*
X99324546Y-92559200D01*
X100429200Y-92559200D01*
X100429200Y-91686565D01*
X100730800Y-91686565D01*
X100730800Y-92559200D01*
X101835454Y-92559200D01*
X101888192Y-92389719D01*
X114011808Y-92389719D01*
X114064546Y-92559200D01*
X115169200Y-92559200D01*
X115169200Y-91686565D01*
X115470800Y-91686565D01*
X115470800Y-92559200D01*
X116575454Y-92559200D01*
X116628192Y-92389719D01*
X117051808Y-92389719D01*
X117104546Y-92559200D01*
X118209200Y-92559200D01*
X118209200Y-91686565D01*
X118510800Y-91686565D01*
X118510800Y-92559200D01*
X119615454Y-92559200D01*
X119668192Y-92389719D01*
X131791808Y-92389719D01*
X131844546Y-92559200D01*
X132949200Y-92559200D01*
X132949200Y-91686565D01*
X133250800Y-91686565D01*
X133250800Y-92559200D01*
X134355454Y-92559200D01*
X134408192Y-92389719D01*
X134831808Y-92389719D01*
X134884546Y-92559200D01*
X135989200Y-92559200D01*
X135989200Y-91686565D01*
X136290800Y-91686565D01*
X136290800Y-92559200D01*
X137395454Y-92559200D01*
X137448192Y-92389719D01*
X149571808Y-92389719D01*
X149624546Y-92559200D01*
X150729200Y-92559200D01*
X150729200Y-91686565D01*
X151030800Y-91686565D01*
X151030800Y-92559200D01*
X152135454Y-92559200D01*
X152188192Y-92389719D01*
X152611808Y-92389719D01*
X152664546Y-92559200D01*
X153769200Y-92559200D01*
X153769200Y-91686565D01*
X154070800Y-91686565D01*
X154070800Y-92559200D01*
X155175454Y-92559200D01*
X155228192Y-92389719D01*
X167351808Y-92389719D01*
X167404546Y-92559200D01*
X168509200Y-92559200D01*
X168509200Y-91686565D01*
X168810800Y-91686565D01*
X168810800Y-92559200D01*
X169915454Y-92559200D01*
X169968192Y-92389719D01*
X170391808Y-92389719D01*
X170444546Y-92559200D01*
X171549200Y-92559200D01*
X171549200Y-91686565D01*
X171850800Y-91686565D01*
X171850800Y-92559200D01*
X172955454Y-92559200D01*
X173008192Y-92389719D01*
X185131808Y-92389719D01*
X185184546Y-92559200D01*
X186289200Y-92559200D01*
X186289200Y-91686565D01*
X186590800Y-91686565D01*
X186590800Y-92559200D01*
X187695454Y-92559200D01*
X187748192Y-92389719D01*
X188171808Y-92389719D01*
X188224546Y-92559200D01*
X189329200Y-92559200D01*
X189329200Y-91686565D01*
X189630800Y-91686565D01*
X189630800Y-92559200D01*
X190735454Y-92559200D01*
X190788192Y-92389719D01*
X202911808Y-92389719D01*
X202964546Y-92559200D01*
X204069200Y-92559200D01*
X204069200Y-91686565D01*
X204370800Y-91686565D01*
X204370800Y-92559200D01*
X205475454Y-92559200D01*
X205528192Y-92389719D01*
X205951808Y-92389719D01*
X206004546Y-92559200D01*
X207109200Y-92559200D01*
X207109200Y-91686565D01*
X207410800Y-91686565D01*
X207410800Y-92559200D01*
X208515454Y-92559200D01*
X208568192Y-92389719D01*
X220691808Y-92389719D01*
X220744546Y-92559200D01*
X221849200Y-92559200D01*
X221849200Y-91686565D01*
X222150800Y-91686565D01*
X222150800Y-92559200D01*
X223255454Y-92559200D01*
X223308192Y-92389719D01*
X223731808Y-92389719D01*
X223784546Y-92559200D01*
X224889200Y-92559200D01*
X224889200Y-91686565D01*
X225190800Y-91686565D01*
X225190800Y-92559200D01*
X226295454Y-92559200D01*
X226348192Y-92389719D01*
X226131590Y-91975931D01*
X225786612Y-91709746D01*
X225366029Y-91595841D01*
X225190800Y-91686565D01*
X224889200Y-91686565D01*
X224713971Y-91595841D01*
X224293388Y-91709746D01*
X223948410Y-91975931D01*
X223731808Y-92389719D01*
X223308192Y-92389719D01*
X223091590Y-91975931D01*
X222746612Y-91709746D01*
X222326029Y-91595841D01*
X222150800Y-91686565D01*
X221849200Y-91686565D01*
X221673971Y-91595841D01*
X221253388Y-91709746D01*
X220908410Y-91975931D01*
X220691808Y-92389719D01*
X208568192Y-92389719D01*
X208351590Y-91975931D01*
X208006612Y-91709746D01*
X207586029Y-91595841D01*
X207410800Y-91686565D01*
X207109200Y-91686565D01*
X206933971Y-91595841D01*
X206513388Y-91709746D01*
X206168410Y-91975931D01*
X205951808Y-92389719D01*
X205528192Y-92389719D01*
X205311590Y-91975931D01*
X204966612Y-91709746D01*
X204546029Y-91595841D01*
X204370800Y-91686565D01*
X204069200Y-91686565D01*
X203893971Y-91595841D01*
X203473388Y-91709746D01*
X203128410Y-91975931D01*
X202911808Y-92389719D01*
X190788192Y-92389719D01*
X190571590Y-91975931D01*
X190226612Y-91709746D01*
X189806029Y-91595841D01*
X189630800Y-91686565D01*
X189329200Y-91686565D01*
X189153971Y-91595841D01*
X188733388Y-91709746D01*
X188388410Y-91975931D01*
X188171808Y-92389719D01*
X187748192Y-92389719D01*
X187531590Y-91975931D01*
X187186612Y-91709746D01*
X186766029Y-91595841D01*
X186590800Y-91686565D01*
X186289200Y-91686565D01*
X186113971Y-91595841D01*
X185693388Y-91709746D01*
X185348410Y-91975931D01*
X185131808Y-92389719D01*
X173008192Y-92389719D01*
X172791590Y-91975931D01*
X172446612Y-91709746D01*
X172026029Y-91595841D01*
X171850800Y-91686565D01*
X171549200Y-91686565D01*
X171373971Y-91595841D01*
X170953388Y-91709746D01*
X170608410Y-91975931D01*
X170391808Y-92389719D01*
X169968192Y-92389719D01*
X169751590Y-91975931D01*
X169406612Y-91709746D01*
X168986029Y-91595841D01*
X168810800Y-91686565D01*
X168509200Y-91686565D01*
X168333971Y-91595841D01*
X167913388Y-91709746D01*
X167568410Y-91975931D01*
X167351808Y-92389719D01*
X155228192Y-92389719D01*
X155011590Y-91975931D01*
X154666612Y-91709746D01*
X154246029Y-91595841D01*
X154070800Y-91686565D01*
X153769200Y-91686565D01*
X153593971Y-91595841D01*
X153173388Y-91709746D01*
X152828410Y-91975931D01*
X152611808Y-92389719D01*
X152188192Y-92389719D01*
X151971590Y-91975931D01*
X151626612Y-91709746D01*
X151206029Y-91595841D01*
X151030800Y-91686565D01*
X150729200Y-91686565D01*
X150553971Y-91595841D01*
X150133388Y-91709746D01*
X149788410Y-91975931D01*
X149571808Y-92389719D01*
X137448192Y-92389719D01*
X137231590Y-91975931D01*
X136886612Y-91709746D01*
X136466029Y-91595841D01*
X136290800Y-91686565D01*
X135989200Y-91686565D01*
X135813971Y-91595841D01*
X135393388Y-91709746D01*
X135048410Y-91975931D01*
X134831808Y-92389719D01*
X134408192Y-92389719D01*
X134191590Y-91975931D01*
X133846612Y-91709746D01*
X133426029Y-91595841D01*
X133250800Y-91686565D01*
X132949200Y-91686565D01*
X132773971Y-91595841D01*
X132353388Y-91709746D01*
X132008410Y-91975931D01*
X131791808Y-92389719D01*
X119668192Y-92389719D01*
X119451590Y-91975931D01*
X119106612Y-91709746D01*
X118686029Y-91595841D01*
X118510800Y-91686565D01*
X118209200Y-91686565D01*
X118033971Y-91595841D01*
X117613388Y-91709746D01*
X117268410Y-91975931D01*
X117051808Y-92389719D01*
X116628192Y-92389719D01*
X116411590Y-91975931D01*
X116066612Y-91709746D01*
X115646029Y-91595841D01*
X115470800Y-91686565D01*
X115169200Y-91686565D01*
X114993971Y-91595841D01*
X114573388Y-91709746D01*
X114228410Y-91975931D01*
X114011808Y-92389719D01*
X101888192Y-92389719D01*
X101671590Y-91975931D01*
X101326612Y-91709746D01*
X100906029Y-91595841D01*
X100730800Y-91686565D01*
X100429200Y-91686565D01*
X100253971Y-91595841D01*
X99833388Y-91709746D01*
X99488410Y-91975931D01*
X99271808Y-92389719D01*
X98848192Y-92389719D01*
X98631590Y-91975931D01*
X98286612Y-91709746D01*
X97866029Y-91595841D01*
X97690800Y-91686565D01*
X97389200Y-91686565D01*
X97213971Y-91595841D01*
X96793388Y-91709746D01*
X96448410Y-91975931D01*
X96231808Y-92389719D01*
X38530600Y-92389719D01*
X38530600Y-90368700D01*
X43040400Y-90368700D01*
X43040400Y-91699733D01*
X43094537Y-91830431D01*
X43194569Y-91930463D01*
X43325267Y-91984600D01*
X43956300Y-91984600D01*
X44045200Y-91895700D01*
X44045200Y-90279800D01*
X44346800Y-90279800D01*
X44346800Y-91895700D01*
X44435700Y-91984600D01*
X45066733Y-91984600D01*
X45197431Y-91930463D01*
X45297463Y-91830431D01*
X45351600Y-91699733D01*
X45351600Y-90490281D01*
X96231808Y-90490281D01*
X96448410Y-90904069D01*
X96793388Y-91170254D01*
X97213971Y-91284159D01*
X97389200Y-91193435D01*
X97389200Y-90320800D01*
X97690800Y-90320800D01*
X97690800Y-91193435D01*
X97866029Y-91284159D01*
X98286612Y-91170254D01*
X98631590Y-90904069D01*
X98848192Y-90490281D01*
X99271808Y-90490281D01*
X99488410Y-90904069D01*
X99833388Y-91170254D01*
X100253971Y-91284159D01*
X100429200Y-91193435D01*
X100429200Y-90320800D01*
X100730800Y-90320800D01*
X100730800Y-91193435D01*
X100906029Y-91284159D01*
X101326612Y-91170254D01*
X101671590Y-90904069D01*
X101888192Y-90490281D01*
X114011808Y-90490281D01*
X114228410Y-90904069D01*
X114573388Y-91170254D01*
X114993971Y-91284159D01*
X115169200Y-91193435D01*
X115169200Y-90320800D01*
X115470800Y-90320800D01*
X115470800Y-91193435D01*
X115646029Y-91284159D01*
X116066612Y-91170254D01*
X116411590Y-90904069D01*
X116628192Y-90490281D01*
X117051808Y-90490281D01*
X117268410Y-90904069D01*
X117613388Y-91170254D01*
X118033971Y-91284159D01*
X118209200Y-91193435D01*
X118209200Y-90320800D01*
X118510800Y-90320800D01*
X118510800Y-91193435D01*
X118686029Y-91284159D01*
X119106612Y-91170254D01*
X119451590Y-90904069D01*
X119668192Y-90490281D01*
X131791808Y-90490281D01*
X132008410Y-90904069D01*
X132353388Y-91170254D01*
X132773971Y-91284159D01*
X132949200Y-91193435D01*
X132949200Y-90320800D01*
X133250800Y-90320800D01*
X133250800Y-91193435D01*
X133426029Y-91284159D01*
X133846612Y-91170254D01*
X134191590Y-90904069D01*
X134408192Y-90490281D01*
X134831808Y-90490281D01*
X135048410Y-90904069D01*
X135393388Y-91170254D01*
X135813971Y-91284159D01*
X135989200Y-91193435D01*
X135989200Y-90320800D01*
X136290800Y-90320800D01*
X136290800Y-91193435D01*
X136466029Y-91284159D01*
X136886612Y-91170254D01*
X137231590Y-90904069D01*
X137448192Y-90490281D01*
X149571808Y-90490281D01*
X149788410Y-90904069D01*
X150133388Y-91170254D01*
X150553971Y-91284159D01*
X150729200Y-91193435D01*
X150729200Y-90320800D01*
X151030800Y-90320800D01*
X151030800Y-91193435D01*
X151206029Y-91284159D01*
X151626612Y-91170254D01*
X151971590Y-90904069D01*
X152188192Y-90490281D01*
X152611808Y-90490281D01*
X152828410Y-90904069D01*
X153173388Y-91170254D01*
X153593971Y-91284159D01*
X153769200Y-91193435D01*
X153769200Y-90320800D01*
X154070800Y-90320800D01*
X154070800Y-91193435D01*
X154246029Y-91284159D01*
X154666612Y-91170254D01*
X155011590Y-90904069D01*
X155228192Y-90490281D01*
X167351808Y-90490281D01*
X167568410Y-90904069D01*
X167913388Y-91170254D01*
X168333971Y-91284159D01*
X168509200Y-91193435D01*
X168509200Y-90320800D01*
X168810800Y-90320800D01*
X168810800Y-91193435D01*
X168986029Y-91284159D01*
X169406612Y-91170254D01*
X169751590Y-90904069D01*
X169968192Y-90490281D01*
X170391808Y-90490281D01*
X170608410Y-90904069D01*
X170953388Y-91170254D01*
X171373971Y-91284159D01*
X171549200Y-91193435D01*
X171549200Y-90320800D01*
X171850800Y-90320800D01*
X171850800Y-91193435D01*
X172026029Y-91284159D01*
X172446612Y-91170254D01*
X172791590Y-90904069D01*
X173008192Y-90490281D01*
X185131808Y-90490281D01*
X185348410Y-90904069D01*
X185693388Y-91170254D01*
X186113971Y-91284159D01*
X186289200Y-91193435D01*
X186289200Y-90320800D01*
X186590800Y-90320800D01*
X186590800Y-91193435D01*
X186766029Y-91284159D01*
X187186612Y-91170254D01*
X187531590Y-90904069D01*
X187748192Y-90490281D01*
X188171808Y-90490281D01*
X188388410Y-90904069D01*
X188733388Y-91170254D01*
X189153971Y-91284159D01*
X189329200Y-91193435D01*
X189329200Y-90320800D01*
X189630800Y-90320800D01*
X189630800Y-91193435D01*
X189806029Y-91284159D01*
X190226612Y-91170254D01*
X190571590Y-90904069D01*
X190788192Y-90490281D01*
X202911808Y-90490281D01*
X203128410Y-90904069D01*
X203473388Y-91170254D01*
X203893971Y-91284159D01*
X204069200Y-91193435D01*
X204069200Y-90320800D01*
X204370800Y-90320800D01*
X204370800Y-91193435D01*
X204546029Y-91284159D01*
X204966612Y-91170254D01*
X205311590Y-90904069D01*
X205528192Y-90490281D01*
X205951808Y-90490281D01*
X206168410Y-90904069D01*
X206513388Y-91170254D01*
X206933971Y-91284159D01*
X207109200Y-91193435D01*
X207109200Y-90320800D01*
X207410800Y-90320800D01*
X207410800Y-91193435D01*
X207586029Y-91284159D01*
X208006612Y-91170254D01*
X208351590Y-90904069D01*
X208568192Y-90490281D01*
X220691808Y-90490281D01*
X220908410Y-90904069D01*
X221253388Y-91170254D01*
X221673971Y-91284159D01*
X221849200Y-91193435D01*
X221849200Y-90320800D01*
X222150800Y-90320800D01*
X222150800Y-91193435D01*
X222326029Y-91284159D01*
X222746612Y-91170254D01*
X223091590Y-90904069D01*
X223308192Y-90490281D01*
X223731808Y-90490281D01*
X223948410Y-90904069D01*
X224293388Y-91170254D01*
X224713971Y-91284159D01*
X224889200Y-91193435D01*
X224889200Y-90320800D01*
X225190800Y-90320800D01*
X225190800Y-91193435D01*
X225366029Y-91284159D01*
X225786612Y-91170254D01*
X226131590Y-90904069D01*
X226348192Y-90490281D01*
X226295454Y-90320800D01*
X225190800Y-90320800D01*
X224889200Y-90320800D01*
X223784546Y-90320800D01*
X223731808Y-90490281D01*
X223308192Y-90490281D01*
X223255454Y-90320800D01*
X222150800Y-90320800D01*
X221849200Y-90320800D01*
X220744546Y-90320800D01*
X220691808Y-90490281D01*
X208568192Y-90490281D01*
X208515454Y-90320800D01*
X207410800Y-90320800D01*
X207109200Y-90320800D01*
X206004546Y-90320800D01*
X205951808Y-90490281D01*
X205528192Y-90490281D01*
X205475454Y-90320800D01*
X204370800Y-90320800D01*
X204069200Y-90320800D01*
X202964546Y-90320800D01*
X202911808Y-90490281D01*
X190788192Y-90490281D01*
X190735454Y-90320800D01*
X189630800Y-90320800D01*
X189329200Y-90320800D01*
X188224546Y-90320800D01*
X188171808Y-90490281D01*
X187748192Y-90490281D01*
X187695454Y-90320800D01*
X186590800Y-90320800D01*
X186289200Y-90320800D01*
X185184546Y-90320800D01*
X185131808Y-90490281D01*
X173008192Y-90490281D01*
X172955454Y-90320800D01*
X171850800Y-90320800D01*
X171549200Y-90320800D01*
X170444546Y-90320800D01*
X170391808Y-90490281D01*
X169968192Y-90490281D01*
X169915454Y-90320800D01*
X168810800Y-90320800D01*
X168509200Y-90320800D01*
X167404546Y-90320800D01*
X167351808Y-90490281D01*
X155228192Y-90490281D01*
X155175454Y-90320800D01*
X154070800Y-90320800D01*
X153769200Y-90320800D01*
X152664546Y-90320800D01*
X152611808Y-90490281D01*
X152188192Y-90490281D01*
X152135454Y-90320800D01*
X151030800Y-90320800D01*
X150729200Y-90320800D01*
X149624546Y-90320800D01*
X149571808Y-90490281D01*
X137448192Y-90490281D01*
X137395454Y-90320800D01*
X136290800Y-90320800D01*
X135989200Y-90320800D01*
X134884546Y-90320800D01*
X134831808Y-90490281D01*
X134408192Y-90490281D01*
X134355454Y-90320800D01*
X133250800Y-90320800D01*
X132949200Y-90320800D01*
X131844546Y-90320800D01*
X131791808Y-90490281D01*
X119668192Y-90490281D01*
X119615454Y-90320800D01*
X118510800Y-90320800D01*
X118209200Y-90320800D01*
X117104546Y-90320800D01*
X117051808Y-90490281D01*
X116628192Y-90490281D01*
X116575454Y-90320800D01*
X115470800Y-90320800D01*
X115169200Y-90320800D01*
X114064546Y-90320800D01*
X114011808Y-90490281D01*
X101888192Y-90490281D01*
X101835454Y-90320800D01*
X100730800Y-90320800D01*
X100429200Y-90320800D01*
X99324546Y-90320800D01*
X99271808Y-90490281D01*
X98848192Y-90490281D01*
X98795454Y-90320800D01*
X97690800Y-90320800D01*
X97389200Y-90320800D01*
X96284546Y-90320800D01*
X96231808Y-90490281D01*
X45351600Y-90490281D01*
X45351600Y-90368700D01*
X45262700Y-90279800D01*
X44346800Y-90279800D01*
X44045200Y-90279800D01*
X43129300Y-90279800D01*
X43040400Y-90368700D01*
X38530600Y-90368700D01*
X38530600Y-88558267D01*
X43040400Y-88558267D01*
X43040400Y-89889300D01*
X43129300Y-89978200D01*
X44045200Y-89978200D01*
X44045200Y-88362300D01*
X44346800Y-88362300D01*
X44346800Y-89978200D01*
X45262700Y-89978200D01*
X45351600Y-89889300D01*
X45351600Y-89496700D01*
X77076400Y-89496700D01*
X77076400Y-89827733D01*
X77130537Y-89958431D01*
X77230569Y-90058463D01*
X77361267Y-90112600D01*
X77992300Y-90112600D01*
X78081200Y-90023700D01*
X78081200Y-89407800D01*
X78382800Y-89407800D01*
X78382800Y-90023700D01*
X78471700Y-90112600D01*
X79102733Y-90112600D01*
X79233431Y-90058463D01*
X79333463Y-89958431D01*
X79378493Y-89849719D01*
X96231808Y-89849719D01*
X96284546Y-90019200D01*
X97389200Y-90019200D01*
X97389200Y-89146565D01*
X97690800Y-89146565D01*
X97690800Y-90019200D01*
X98795454Y-90019200D01*
X98848192Y-89849719D01*
X99271808Y-89849719D01*
X99324546Y-90019200D01*
X100429200Y-90019200D01*
X100429200Y-89146565D01*
X100730800Y-89146565D01*
X100730800Y-90019200D01*
X101835454Y-90019200D01*
X101888192Y-89849719D01*
X114011808Y-89849719D01*
X114064546Y-90019200D01*
X115169200Y-90019200D01*
X115169200Y-89146565D01*
X115470800Y-89146565D01*
X115470800Y-90019200D01*
X116575454Y-90019200D01*
X116628192Y-89849719D01*
X117051808Y-89849719D01*
X117104546Y-90019200D01*
X118209200Y-90019200D01*
X118209200Y-89146565D01*
X118510800Y-89146565D01*
X118510800Y-90019200D01*
X119615454Y-90019200D01*
X119668192Y-89849719D01*
X131791808Y-89849719D01*
X131844546Y-90019200D01*
X132949200Y-90019200D01*
X132949200Y-89146565D01*
X133250800Y-89146565D01*
X133250800Y-90019200D01*
X134355454Y-90019200D01*
X134408192Y-89849719D01*
X134831808Y-89849719D01*
X134884546Y-90019200D01*
X135989200Y-90019200D01*
X135989200Y-89146565D01*
X136290800Y-89146565D01*
X136290800Y-90019200D01*
X137395454Y-90019200D01*
X137448192Y-89849719D01*
X149571808Y-89849719D01*
X149624546Y-90019200D01*
X150729200Y-90019200D01*
X150729200Y-89146565D01*
X151030800Y-89146565D01*
X151030800Y-90019200D01*
X152135454Y-90019200D01*
X152188192Y-89849719D01*
X152611808Y-89849719D01*
X152664546Y-90019200D01*
X153769200Y-90019200D01*
X153769200Y-89146565D01*
X154070800Y-89146565D01*
X154070800Y-90019200D01*
X155175454Y-90019200D01*
X155228192Y-89849719D01*
X167351808Y-89849719D01*
X167404546Y-90019200D01*
X168509200Y-90019200D01*
X168509200Y-89146565D01*
X168810800Y-89146565D01*
X168810800Y-90019200D01*
X169915454Y-90019200D01*
X169968192Y-89849719D01*
X170391808Y-89849719D01*
X170444546Y-90019200D01*
X171549200Y-90019200D01*
X171549200Y-89146565D01*
X171850800Y-89146565D01*
X171850800Y-90019200D01*
X172955454Y-90019200D01*
X173008192Y-89849719D01*
X185131808Y-89849719D01*
X185184546Y-90019200D01*
X186289200Y-90019200D01*
X186289200Y-89146565D01*
X186590800Y-89146565D01*
X186590800Y-90019200D01*
X187695454Y-90019200D01*
X187748192Y-89849719D01*
X188171808Y-89849719D01*
X188224546Y-90019200D01*
X189329200Y-90019200D01*
X189329200Y-89146565D01*
X189630800Y-89146565D01*
X189630800Y-90019200D01*
X190735454Y-90019200D01*
X190788192Y-89849719D01*
X202911808Y-89849719D01*
X202964546Y-90019200D01*
X204069200Y-90019200D01*
X204069200Y-89146565D01*
X204370800Y-89146565D01*
X204370800Y-90019200D01*
X205475454Y-90019200D01*
X205528192Y-89849719D01*
X205951808Y-89849719D01*
X206004546Y-90019200D01*
X207109200Y-90019200D01*
X207109200Y-89146565D01*
X207410800Y-89146565D01*
X207410800Y-90019200D01*
X208515454Y-90019200D01*
X208568192Y-89849719D01*
X220691808Y-89849719D01*
X220744546Y-90019200D01*
X221849200Y-90019200D01*
X221849200Y-89146565D01*
X222150800Y-89146565D01*
X222150800Y-90019200D01*
X223255454Y-90019200D01*
X223308192Y-89849719D01*
X223731808Y-89849719D01*
X223784546Y-90019200D01*
X224889200Y-90019200D01*
X224889200Y-89146565D01*
X225190800Y-89146565D01*
X225190800Y-90019200D01*
X226295454Y-90019200D01*
X226348192Y-89849719D01*
X226131590Y-89435931D01*
X225786612Y-89169746D01*
X225366029Y-89055841D01*
X225190800Y-89146565D01*
X224889200Y-89146565D01*
X224713971Y-89055841D01*
X224293388Y-89169746D01*
X223948410Y-89435931D01*
X223731808Y-89849719D01*
X223308192Y-89849719D01*
X223091590Y-89435931D01*
X222746612Y-89169746D01*
X222326029Y-89055841D01*
X222150800Y-89146565D01*
X221849200Y-89146565D01*
X221673971Y-89055841D01*
X221253388Y-89169746D01*
X220908410Y-89435931D01*
X220691808Y-89849719D01*
X208568192Y-89849719D01*
X208351590Y-89435931D01*
X208006612Y-89169746D01*
X207586029Y-89055841D01*
X207410800Y-89146565D01*
X207109200Y-89146565D01*
X206933971Y-89055841D01*
X206513388Y-89169746D01*
X206168410Y-89435931D01*
X205951808Y-89849719D01*
X205528192Y-89849719D01*
X205311590Y-89435931D01*
X204966612Y-89169746D01*
X204546029Y-89055841D01*
X204370800Y-89146565D01*
X204069200Y-89146565D01*
X203893971Y-89055841D01*
X203473388Y-89169746D01*
X203128410Y-89435931D01*
X202911808Y-89849719D01*
X190788192Y-89849719D01*
X190571590Y-89435931D01*
X190226612Y-89169746D01*
X189806029Y-89055841D01*
X189630800Y-89146565D01*
X189329200Y-89146565D01*
X189153971Y-89055841D01*
X188733388Y-89169746D01*
X188388410Y-89435931D01*
X188171808Y-89849719D01*
X187748192Y-89849719D01*
X187531590Y-89435931D01*
X187186612Y-89169746D01*
X186766029Y-89055841D01*
X186590800Y-89146565D01*
X186289200Y-89146565D01*
X186113971Y-89055841D01*
X185693388Y-89169746D01*
X185348410Y-89435931D01*
X185131808Y-89849719D01*
X173008192Y-89849719D01*
X172791590Y-89435931D01*
X172446612Y-89169746D01*
X172026029Y-89055841D01*
X171850800Y-89146565D01*
X171549200Y-89146565D01*
X171373971Y-89055841D01*
X170953388Y-89169746D01*
X170608410Y-89435931D01*
X170391808Y-89849719D01*
X169968192Y-89849719D01*
X169751590Y-89435931D01*
X169406612Y-89169746D01*
X168986029Y-89055841D01*
X168810800Y-89146565D01*
X168509200Y-89146565D01*
X168333971Y-89055841D01*
X167913388Y-89169746D01*
X167568410Y-89435931D01*
X167351808Y-89849719D01*
X155228192Y-89849719D01*
X155011590Y-89435931D01*
X154666612Y-89169746D01*
X154246029Y-89055841D01*
X154070800Y-89146565D01*
X153769200Y-89146565D01*
X153593971Y-89055841D01*
X153173388Y-89169746D01*
X152828410Y-89435931D01*
X152611808Y-89849719D01*
X152188192Y-89849719D01*
X151971590Y-89435931D01*
X151626612Y-89169746D01*
X151206029Y-89055841D01*
X151030800Y-89146565D01*
X150729200Y-89146565D01*
X150553971Y-89055841D01*
X150133388Y-89169746D01*
X149788410Y-89435931D01*
X149571808Y-89849719D01*
X137448192Y-89849719D01*
X137231590Y-89435931D01*
X136886612Y-89169746D01*
X136466029Y-89055841D01*
X136290800Y-89146565D01*
X135989200Y-89146565D01*
X135813971Y-89055841D01*
X135393388Y-89169746D01*
X135048410Y-89435931D01*
X134831808Y-89849719D01*
X134408192Y-89849719D01*
X134191590Y-89435931D01*
X133846612Y-89169746D01*
X133426029Y-89055841D01*
X133250800Y-89146565D01*
X132949200Y-89146565D01*
X132773971Y-89055841D01*
X132353388Y-89169746D01*
X132008410Y-89435931D01*
X131791808Y-89849719D01*
X119668192Y-89849719D01*
X119451590Y-89435931D01*
X119106612Y-89169746D01*
X118686029Y-89055841D01*
X118510800Y-89146565D01*
X118209200Y-89146565D01*
X118033971Y-89055841D01*
X117613388Y-89169746D01*
X117268410Y-89435931D01*
X117051808Y-89849719D01*
X116628192Y-89849719D01*
X116411590Y-89435931D01*
X116066612Y-89169746D01*
X115646029Y-89055841D01*
X115470800Y-89146565D01*
X115169200Y-89146565D01*
X114993971Y-89055841D01*
X114573388Y-89169746D01*
X114228410Y-89435931D01*
X114011808Y-89849719D01*
X101888192Y-89849719D01*
X101671590Y-89435931D01*
X101326612Y-89169746D01*
X100906029Y-89055841D01*
X100730800Y-89146565D01*
X100429200Y-89146565D01*
X100253971Y-89055841D01*
X99833388Y-89169746D01*
X99488410Y-89435931D01*
X99271808Y-89849719D01*
X98848192Y-89849719D01*
X98631590Y-89435931D01*
X98286612Y-89169746D01*
X97866029Y-89055841D01*
X97690800Y-89146565D01*
X97389200Y-89146565D01*
X97213971Y-89055841D01*
X96793388Y-89169746D01*
X96448410Y-89435931D01*
X96231808Y-89849719D01*
X79378493Y-89849719D01*
X79387600Y-89827733D01*
X79387600Y-89496700D01*
X79298700Y-89407800D01*
X78382800Y-89407800D01*
X78081200Y-89407800D01*
X77165300Y-89407800D01*
X77076400Y-89496700D01*
X45351600Y-89496700D01*
X45351600Y-88686267D01*
X77076400Y-88686267D01*
X77076400Y-89017300D01*
X77165300Y-89106200D01*
X78081200Y-89106200D01*
X78081200Y-88490300D01*
X78382800Y-88490300D01*
X78382800Y-89106200D01*
X79298700Y-89106200D01*
X79387600Y-89017300D01*
X79387600Y-88686267D01*
X79333463Y-88555569D01*
X79233431Y-88455537D01*
X79102733Y-88401400D01*
X78471700Y-88401400D01*
X78382800Y-88490300D01*
X78081200Y-88490300D01*
X77992300Y-88401400D01*
X77361267Y-88401400D01*
X77230569Y-88455537D01*
X77130537Y-88555569D01*
X77076400Y-88686267D01*
X45351600Y-88686267D01*
X45351600Y-88558267D01*
X45297463Y-88427569D01*
X45197431Y-88327537D01*
X45066733Y-88273400D01*
X44435700Y-88273400D01*
X44346800Y-88362300D01*
X44045200Y-88362300D01*
X43956300Y-88273400D01*
X43325267Y-88273400D01*
X43194569Y-88327537D01*
X43094537Y-88427569D01*
X43040400Y-88558267D01*
X38530600Y-88558267D01*
X38530600Y-86808933D01*
X51206119Y-86808933D01*
X51453080Y-87406625D01*
X51909970Y-87864313D01*
X52507230Y-88112317D01*
X53153933Y-88112881D01*
X53751625Y-87865920D01*
X54209313Y-87409030D01*
X54457317Y-86811770D01*
X54457319Y-86808933D01*
X71526119Y-86808933D01*
X71773080Y-87406625D01*
X72229970Y-87864313D01*
X72827230Y-88112317D01*
X73473933Y-88112881D01*
X74071625Y-87865920D01*
X74529313Y-87409030D01*
X74662367Y-87088600D01*
X77287428Y-87088600D01*
X77290942Y-87091001D01*
X77432000Y-87119566D01*
X79032000Y-87119566D01*
X79163777Y-87094770D01*
X79173366Y-87088600D01*
X89434598Y-87088600D01*
X90580997Y-88234998D01*
X90580999Y-88235001D01*
X90858576Y-88420471D01*
X91186000Y-88485600D01*
X96197304Y-88485600D01*
X96202230Y-88511777D01*
X96280110Y-88632807D01*
X96398942Y-88714001D01*
X96540000Y-88742566D01*
X98540000Y-88742566D01*
X98671777Y-88717770D01*
X98792807Y-88639890D01*
X98874001Y-88521058D01*
X98881181Y-88485600D01*
X99632149Y-88485600D01*
X99880347Y-88651441D01*
X100303442Y-88735600D01*
X100856558Y-88735600D01*
X101279653Y-88651441D01*
X101527851Y-88485600D01*
X113977304Y-88485600D01*
X113982230Y-88511777D01*
X114060110Y-88632807D01*
X114178942Y-88714001D01*
X114320000Y-88742566D01*
X116320000Y-88742566D01*
X116451777Y-88717770D01*
X116572807Y-88639890D01*
X116654001Y-88521058D01*
X116661181Y-88485600D01*
X117412149Y-88485600D01*
X117660347Y-88651441D01*
X118083442Y-88735600D01*
X118636558Y-88735600D01*
X119059653Y-88651441D01*
X119307851Y-88485600D01*
X131757304Y-88485600D01*
X131762230Y-88511777D01*
X131840110Y-88632807D01*
X131958942Y-88714001D01*
X132100000Y-88742566D01*
X134100000Y-88742566D01*
X134231777Y-88717770D01*
X134352807Y-88639890D01*
X134434001Y-88521058D01*
X134441181Y-88485600D01*
X135192149Y-88485600D01*
X135440347Y-88651441D01*
X135863442Y-88735600D01*
X136416558Y-88735600D01*
X136839653Y-88651441D01*
X137087851Y-88485600D01*
X149537304Y-88485600D01*
X149542230Y-88511777D01*
X149620110Y-88632807D01*
X149738942Y-88714001D01*
X149880000Y-88742566D01*
X151880000Y-88742566D01*
X152011777Y-88717770D01*
X152132807Y-88639890D01*
X152214001Y-88521058D01*
X152221181Y-88485600D01*
X152972149Y-88485600D01*
X153220347Y-88651441D01*
X153643442Y-88735600D01*
X154196558Y-88735600D01*
X154619653Y-88651441D01*
X154867851Y-88485600D01*
X167317304Y-88485600D01*
X167322230Y-88511777D01*
X167400110Y-88632807D01*
X167518942Y-88714001D01*
X167660000Y-88742566D01*
X169660000Y-88742566D01*
X169791777Y-88717770D01*
X169912807Y-88639890D01*
X169994001Y-88521058D01*
X170001181Y-88485600D01*
X170752149Y-88485600D01*
X171000347Y-88651441D01*
X171423442Y-88735600D01*
X171976558Y-88735600D01*
X172399653Y-88651441D01*
X172647851Y-88485600D01*
X185097304Y-88485600D01*
X185102230Y-88511777D01*
X185180110Y-88632807D01*
X185298942Y-88714001D01*
X185440000Y-88742566D01*
X187440000Y-88742566D01*
X187571777Y-88717770D01*
X187692807Y-88639890D01*
X187774001Y-88521058D01*
X187781181Y-88485600D01*
X188532149Y-88485600D01*
X188780347Y-88651441D01*
X189203442Y-88735600D01*
X189756558Y-88735600D01*
X190179653Y-88651441D01*
X190427851Y-88485600D01*
X202877304Y-88485600D01*
X202882230Y-88511777D01*
X202960110Y-88632807D01*
X203078942Y-88714001D01*
X203220000Y-88742566D01*
X205220000Y-88742566D01*
X205351777Y-88717770D01*
X205472807Y-88639890D01*
X205554001Y-88521058D01*
X205561181Y-88485600D01*
X206312149Y-88485600D01*
X206560347Y-88651441D01*
X206983442Y-88735600D01*
X207536558Y-88735600D01*
X207959653Y-88651441D01*
X208207851Y-88485600D01*
X220657304Y-88485600D01*
X220662230Y-88511777D01*
X220740110Y-88632807D01*
X220858942Y-88714001D01*
X221000000Y-88742566D01*
X223000000Y-88742566D01*
X223131777Y-88717770D01*
X223252807Y-88639890D01*
X223334001Y-88521058D01*
X223341181Y-88485600D01*
X224092149Y-88485600D01*
X224340347Y-88651441D01*
X224763442Y-88735600D01*
X225316558Y-88735600D01*
X225739653Y-88651441D01*
X226098335Y-88411777D01*
X226337999Y-88053095D01*
X226422158Y-87630000D01*
X226337999Y-87206905D01*
X226098335Y-86848223D01*
X225739653Y-86608559D01*
X225316558Y-86524400D01*
X224763442Y-86524400D01*
X224340347Y-86608559D01*
X224092149Y-86774400D01*
X223342696Y-86774400D01*
X223337770Y-86748223D01*
X223259890Y-86627193D01*
X223141058Y-86545999D01*
X223000000Y-86517434D01*
X221000000Y-86517434D01*
X220868223Y-86542230D01*
X220747193Y-86620110D01*
X220665999Y-86738942D01*
X220658819Y-86774400D01*
X208207851Y-86774400D01*
X207959653Y-86608559D01*
X207536558Y-86524400D01*
X206983442Y-86524400D01*
X206560347Y-86608559D01*
X206312149Y-86774400D01*
X205562696Y-86774400D01*
X205557770Y-86748223D01*
X205479890Y-86627193D01*
X205361058Y-86545999D01*
X205220000Y-86517434D01*
X203220000Y-86517434D01*
X203088223Y-86542230D01*
X202967193Y-86620110D01*
X202885999Y-86738942D01*
X202878819Y-86774400D01*
X190427851Y-86774400D01*
X190179653Y-86608559D01*
X189756558Y-86524400D01*
X189203442Y-86524400D01*
X188780347Y-86608559D01*
X188532149Y-86774400D01*
X187782696Y-86774400D01*
X187777770Y-86748223D01*
X187699890Y-86627193D01*
X187581058Y-86545999D01*
X187440000Y-86517434D01*
X185440000Y-86517434D01*
X185308223Y-86542230D01*
X185187193Y-86620110D01*
X185105999Y-86738942D01*
X185098819Y-86774400D01*
X172647851Y-86774400D01*
X172399653Y-86608559D01*
X171976558Y-86524400D01*
X171423442Y-86524400D01*
X171000347Y-86608559D01*
X170752149Y-86774400D01*
X170002696Y-86774400D01*
X169997770Y-86748223D01*
X169919890Y-86627193D01*
X169801058Y-86545999D01*
X169660000Y-86517434D01*
X167660000Y-86517434D01*
X167528223Y-86542230D01*
X167407193Y-86620110D01*
X167325999Y-86738942D01*
X167318819Y-86774400D01*
X154867851Y-86774400D01*
X154619653Y-86608559D01*
X154196558Y-86524400D01*
X153643442Y-86524400D01*
X153220347Y-86608559D01*
X152972149Y-86774400D01*
X152222696Y-86774400D01*
X152217770Y-86748223D01*
X152139890Y-86627193D01*
X152021058Y-86545999D01*
X151880000Y-86517434D01*
X149880000Y-86517434D01*
X149748223Y-86542230D01*
X149627193Y-86620110D01*
X149545999Y-86738942D01*
X149538819Y-86774400D01*
X137087851Y-86774400D01*
X136839653Y-86608559D01*
X136416558Y-86524400D01*
X135863442Y-86524400D01*
X135440347Y-86608559D01*
X135192149Y-86774400D01*
X134442696Y-86774400D01*
X134437770Y-86748223D01*
X134359890Y-86627193D01*
X134241058Y-86545999D01*
X134100000Y-86517434D01*
X132100000Y-86517434D01*
X131968223Y-86542230D01*
X131847193Y-86620110D01*
X131765999Y-86738942D01*
X131758819Y-86774400D01*
X119307851Y-86774400D01*
X119059653Y-86608559D01*
X118636558Y-86524400D01*
X118083442Y-86524400D01*
X117660347Y-86608559D01*
X117412149Y-86774400D01*
X116662696Y-86774400D01*
X116657770Y-86748223D01*
X116579890Y-86627193D01*
X116461058Y-86545999D01*
X116320000Y-86517434D01*
X114320000Y-86517434D01*
X114188223Y-86542230D01*
X114067193Y-86620110D01*
X113985999Y-86738942D01*
X113978819Y-86774400D01*
X101527851Y-86774400D01*
X101279653Y-86608559D01*
X100856558Y-86524400D01*
X100303442Y-86524400D01*
X99880347Y-86608559D01*
X99632149Y-86774400D01*
X98882696Y-86774400D01*
X98877770Y-86748223D01*
X98799890Y-86627193D01*
X98681058Y-86545999D01*
X98540000Y-86517434D01*
X96540000Y-86517434D01*
X96408223Y-86542230D01*
X96287193Y-86620110D01*
X96205999Y-86738942D01*
X96198819Y-86774400D01*
X91540401Y-86774400D01*
X90394001Y-85627999D01*
X90116424Y-85442529D01*
X89789000Y-85377399D01*
X89788995Y-85377400D01*
X78256005Y-85377400D01*
X78256000Y-85377399D01*
X78232000Y-85382173D01*
X78208000Y-85377399D01*
X78207995Y-85377400D01*
X74341276Y-85377400D01*
X74074030Y-85109687D01*
X73476770Y-84861683D01*
X72830067Y-84861119D01*
X72232375Y-85108080D01*
X71774687Y-85564970D01*
X71526683Y-86162230D01*
X71526119Y-86808933D01*
X54457319Y-86808933D01*
X54457881Y-86165067D01*
X54210920Y-85567375D01*
X53754030Y-85109687D01*
X53156770Y-84861683D01*
X52510067Y-84861119D01*
X51912375Y-85108080D01*
X51454687Y-85564970D01*
X51206683Y-86162230D01*
X51206119Y-86808933D01*
X38530600Y-86808933D01*
X38530600Y-81686850D01*
X39521766Y-81686850D01*
X40077429Y-83031657D01*
X41105431Y-84061455D01*
X42449266Y-84619464D01*
X43904350Y-84620734D01*
X45249157Y-84065071D01*
X46278955Y-83037069D01*
X46836964Y-81693234D01*
X46836969Y-81686850D01*
X104291766Y-81686850D01*
X104847429Y-83031657D01*
X105875431Y-84061455D01*
X107219266Y-84619464D01*
X108674350Y-84620734D01*
X110019157Y-84065071D01*
X111048955Y-83037069D01*
X111606964Y-81693234D01*
X111606969Y-81686850D01*
X175411766Y-81686850D01*
X175967429Y-83031657D01*
X176995431Y-84061455D01*
X178339266Y-84619464D01*
X179794350Y-84620734D01*
X181139157Y-84065071D01*
X182168955Y-83037069D01*
X182726964Y-81693234D01*
X182726969Y-81686850D01*
X228751766Y-81686850D01*
X229307429Y-83031657D01*
X230335431Y-84061455D01*
X231679266Y-84619464D01*
X233134350Y-84620734D01*
X234479157Y-84065071D01*
X235508955Y-83037069D01*
X236066964Y-81693234D01*
X236068234Y-80238150D01*
X235512571Y-78893343D01*
X234484569Y-77863545D01*
X233140734Y-77305536D01*
X231685650Y-77304266D01*
X230340843Y-77859929D01*
X229311045Y-78887931D01*
X228753036Y-80231766D01*
X228751766Y-81686850D01*
X182726969Y-81686850D01*
X182728234Y-80238150D01*
X182172571Y-78893343D01*
X181144569Y-77863545D01*
X179800734Y-77305536D01*
X178345650Y-77304266D01*
X177000843Y-77859929D01*
X175971045Y-78887931D01*
X175413036Y-80231766D01*
X175411766Y-81686850D01*
X111606969Y-81686850D01*
X111608234Y-80238150D01*
X111052571Y-78893343D01*
X110024569Y-77863545D01*
X108680734Y-77305536D01*
X107225650Y-77304266D01*
X105880843Y-77859929D01*
X104851045Y-78887931D01*
X104293036Y-80231766D01*
X104291766Y-81686850D01*
X46836969Y-81686850D01*
X46838234Y-80238150D01*
X46282571Y-78893343D01*
X45254569Y-77863545D01*
X43910734Y-77305536D01*
X42455650Y-77304266D01*
X41110843Y-77859929D01*
X40081045Y-78887931D01*
X39523036Y-80231766D01*
X39521766Y-81686850D01*
X38530600Y-81686850D01*
X38530600Y-76630600D01*
X237059400Y-76630600D01*
X237059400Y-116409400D01*
M02*
