M48
INCH,TZ
T1C0.030
T2C0.039
T3C0.050
T4C0.067
T5C0.125
%
G90
G05
T1
X34100Y-39500
X34100Y-40500
X34100Y-41500
T2
X38500Y-34500
X38500Y-35500
X38500Y-36500
X38500Y-37500
X38500Y-38500
X38500Y-39500
X38500Y-40500
X38500Y-41500
X39500Y-34500
X39500Y-35500
X39500Y-36500
X39500Y-37500
X39500Y-38500
X39500Y-39500
X39500Y-40500
X39500Y-41500
X45500Y-34500
X45500Y-35500
X45500Y-36500
X45500Y-37500
X45500Y-38500
X45500Y-39500
X45500Y-40500
X45500Y-41500
X46500Y-34500
X46500Y-35500
X46500Y-36500
X46500Y-37500
X46500Y-38500
X46500Y-39500
X46500Y-40500
X46500Y-41500
X52500Y-34500
X52500Y-35500
X52500Y-36500
X52500Y-37500
X52500Y-38500
X52500Y-39500
X52500Y-40500
X52500Y-41500
X53500Y-34500
X53500Y-35500
X53500Y-36500
X53500Y-37500
X53500Y-38500
X53500Y-39500
X53500Y-40500
X53500Y-41500
X59500Y-34500
X59500Y-35500
X59500Y-36500
X59500Y-37500
X59500Y-38500
X59500Y-39500
X59500Y-40500
X59500Y-41500
X60500Y-34500
X60500Y-35500
X60500Y-36500
X60500Y-37500
X60500Y-38500
X60500Y-39500
X60500Y-40500
X60500Y-41500
X66500Y-34500
X66500Y-35500
X66500Y-36500
X66500Y-37500
X66500Y-38500
X66500Y-39500
X66500Y-40500
X66500Y-41500
X67500Y-34500
X67500Y-35500
X67500Y-36500
X67500Y-37500
X67500Y-38500
X67500Y-39500
X67500Y-40500
X67500Y-41500
X73500Y-34500
X73500Y-35500
X73500Y-36500
X73500Y-37500
X73500Y-38500
X73500Y-39500
X73500Y-40500
X73500Y-41500
X74500Y-34500
X74500Y-35500
X74500Y-36500
X74500Y-37500
X74500Y-38500
X74500Y-39500
X74500Y-40500
X74500Y-41500
X80500Y-34500
X80500Y-35500
X80500Y-36500
X80500Y-37500
X80500Y-38500
X80500Y-39500
X80500Y-40500
X80500Y-41500
X81500Y-34500
X81500Y-35500
X81500Y-36500
X81500Y-37500
X81500Y-38500
X81500Y-39500
X81500Y-40500
X81500Y-41500
X87500Y-34500
X87500Y-35500
X87500Y-36500
X87500Y-37500
X87500Y-38500
X87500Y-39500
X87500Y-40500
X87500Y-41500
X88500Y-34500
X88500Y-35500
X88500Y-36500
X88500Y-37500
X88500Y-38500
X88500Y-39500
X88500Y-40500
X88500Y-41500
T3
X20800Y-34050
X20800Y-37050
X20800Y-39050
X28800Y-34050
X28800Y-38050
X28800Y-42050
T4
X17350Y-39070
X17350Y-40630
T5
X17000Y-31875
X17000Y-44125
X42500Y-31875
X42500Y-44125
X70500Y-31875
X70500Y-44125
X91500Y-31875
X91500Y-44125
T0
M30
