G04 #@! TF.FileFunction,Legend,Top*
%FSLAX46Y46*%
G04 Gerber Fmt 4.6, Leading zero omitted, Abs format (unit mm)*
G04 Created by KiCad (PCBNEW 4.0.2-stable) date 2017-01-08 12:52:35 PM*
%MOMM*%
G01*
G04 APERTURE LIST*
%ADD10C,0.200000*%
%ADD11C,0.300000*%
%ADD12C,2.000000*%
%ADD13C,0.150000*%
%ADD14C,0.304800*%
%ADD15C,0.299720*%
%ADD16C,0.381000*%
%ADD17C,0.010000*%
%ADD18C,3.322000*%
%ADD19R,1.620000X3.020000*%
%ADD20R,1.620000X1.020000*%
%ADD21C,2.560000*%
%ADD22C,1.420000*%
%ADD23O,2.020000X1.520000*%
%ADD24R,2.020000X1.520000*%
%ADD25O,3.520000X2.520000*%
%ADD26R,3.520000X2.520000*%
G04 APERTURE END LIST*
D10*
D11*
X47581429Y-91329286D02*
X47581429Y-91615001D01*
X47652857Y-91757858D01*
X47724286Y-91829286D01*
X47938571Y-91972144D01*
X48224286Y-92043572D01*
X48795714Y-92043572D01*
X48938571Y-91972144D01*
X49010000Y-91900715D01*
X49081429Y-91757858D01*
X49081429Y-91472144D01*
X49010000Y-91329286D01*
X48938571Y-91257858D01*
X48795714Y-91186429D01*
X48438571Y-91186429D01*
X48295714Y-91257858D01*
X48224286Y-91329286D01*
X48152857Y-91472144D01*
X48152857Y-91757858D01*
X48224286Y-91900715D01*
X48295714Y-91972144D01*
X48438571Y-92043572D01*
X48152857Y-92686429D02*
X48152857Y-93829286D01*
X49081429Y-94400715D02*
X49081429Y-95329286D01*
X48510000Y-94829286D01*
X48510000Y-95043572D01*
X48438571Y-95186429D01*
X48367143Y-95257858D01*
X48224286Y-95329286D01*
X47867143Y-95329286D01*
X47724286Y-95257858D01*
X47652857Y-95186429D01*
X47581429Y-95043572D01*
X47581429Y-94615000D01*
X47652857Y-94472143D01*
X47724286Y-94400715D01*
X49081429Y-96615000D02*
X49081429Y-96329286D01*
X49010000Y-96186429D01*
X48938571Y-96115000D01*
X48724286Y-95972143D01*
X48438571Y-95900714D01*
X47867143Y-95900714D01*
X47724286Y-95972143D01*
X47652857Y-96043571D01*
X47581429Y-96186429D01*
X47581429Y-96472143D01*
X47652857Y-96615000D01*
X47724286Y-96686429D01*
X47867143Y-96757857D01*
X48224286Y-96757857D01*
X48367143Y-96686429D01*
X48438571Y-96615000D01*
X48510000Y-96472143D01*
X48510000Y-96186429D01*
X48438571Y-96043571D01*
X48367143Y-95972143D01*
X48224286Y-95900714D01*
X49081429Y-97186428D02*
X47581429Y-97686428D01*
X49081429Y-98186428D01*
X55142857Y-79267857D02*
X55642857Y-79267857D01*
X55857143Y-80053571D02*
X55142857Y-80053571D01*
X55142857Y-78553571D01*
X55857143Y-78553571D01*
X56500000Y-78553571D02*
X56500000Y-79767857D01*
X56571428Y-79910714D01*
X56642857Y-79982143D01*
X56785714Y-80053571D01*
X57071428Y-80053571D01*
X57214286Y-79982143D01*
X57285714Y-79910714D01*
X57357143Y-79767857D01*
X57357143Y-78553571D01*
X58928572Y-80053571D02*
X58428572Y-79339286D01*
X58071429Y-80053571D02*
X58071429Y-78553571D01*
X58642857Y-78553571D01*
X58785715Y-78625000D01*
X58857143Y-78696429D01*
X58928572Y-78839286D01*
X58928572Y-79053571D01*
X58857143Y-79196429D01*
X58785715Y-79267857D01*
X58642857Y-79339286D01*
X58071429Y-79339286D01*
X59857143Y-78553571D02*
X60142857Y-78553571D01*
X60285715Y-78625000D01*
X60428572Y-78767857D01*
X60500000Y-79053571D01*
X60500000Y-79553571D01*
X60428572Y-79839286D01*
X60285715Y-79982143D01*
X60142857Y-80053571D01*
X59857143Y-80053571D01*
X59714286Y-79982143D01*
X59571429Y-79839286D01*
X59500000Y-79553571D01*
X59500000Y-79053571D01*
X59571429Y-78767857D01*
X59714286Y-78625000D01*
X59857143Y-78553571D01*
X62000001Y-80053571D02*
X61500001Y-79339286D01*
X61142858Y-80053571D02*
X61142858Y-78553571D01*
X61714286Y-78553571D01*
X61857144Y-78625000D01*
X61928572Y-78696429D01*
X62000001Y-78839286D01*
X62000001Y-79053571D01*
X61928572Y-79196429D01*
X61857144Y-79267857D01*
X61714286Y-79339286D01*
X61142858Y-79339286D01*
X62571429Y-79625000D02*
X63285715Y-79625000D01*
X62428572Y-80053571D02*
X62928572Y-78553571D01*
X63428572Y-80053571D01*
X64785715Y-79910714D02*
X64714286Y-79982143D01*
X64500000Y-80053571D01*
X64357143Y-80053571D01*
X64142858Y-79982143D01*
X64000000Y-79839286D01*
X63928572Y-79696429D01*
X63857143Y-79410714D01*
X63857143Y-79196429D01*
X63928572Y-78910714D01*
X64000000Y-78767857D01*
X64142858Y-78625000D01*
X64357143Y-78553571D01*
X64500000Y-78553571D01*
X64714286Y-78625000D01*
X64785715Y-78696429D01*
X65428572Y-80053571D02*
X65428572Y-78553571D01*
X66285715Y-80053571D02*
X65642858Y-79196429D01*
X66285715Y-78553571D02*
X65428572Y-79410714D01*
X68071429Y-80053571D02*
X68071429Y-78553571D01*
X68642857Y-78553571D01*
X68785715Y-78625000D01*
X68857143Y-78696429D01*
X68928572Y-78839286D01*
X68928572Y-79053571D01*
X68857143Y-79196429D01*
X68785715Y-79267857D01*
X68642857Y-79339286D01*
X68071429Y-79339286D01*
X69500000Y-79982143D02*
X69714286Y-80053571D01*
X70071429Y-80053571D01*
X70214286Y-79982143D01*
X70285715Y-79910714D01*
X70357143Y-79767857D01*
X70357143Y-79625000D01*
X70285715Y-79482143D01*
X70214286Y-79410714D01*
X70071429Y-79339286D01*
X69785715Y-79267857D01*
X69642857Y-79196429D01*
X69571429Y-79125000D01*
X69500000Y-78982143D01*
X69500000Y-78839286D01*
X69571429Y-78696429D01*
X69642857Y-78625000D01*
X69785715Y-78553571D01*
X70142857Y-78553571D01*
X70357143Y-78625000D01*
X71000000Y-78553571D02*
X71000000Y-79767857D01*
X71071428Y-79910714D01*
X71142857Y-79982143D01*
X71285714Y-80053571D01*
X71571428Y-80053571D01*
X71714286Y-79982143D01*
X71785714Y-79910714D01*
X71857143Y-79767857D01*
X71857143Y-78553571D01*
X55928574Y-81593571D02*
X56285717Y-82593571D01*
X56642859Y-81593571D01*
X58000002Y-82593571D02*
X57142859Y-82593571D01*
X57571431Y-82593571D02*
X57571431Y-81093571D01*
X57428574Y-81307857D01*
X57285716Y-81450714D01*
X57142859Y-81522143D01*
X58642859Y-82450714D02*
X58714287Y-82522143D01*
X58642859Y-82593571D01*
X58571430Y-82522143D01*
X58642859Y-82450714D01*
X58642859Y-82593571D01*
X59642859Y-81093571D02*
X59785716Y-81093571D01*
X59928573Y-81165000D01*
X60000002Y-81236429D01*
X60071431Y-81379286D01*
X60142859Y-81665000D01*
X60142859Y-82022143D01*
X60071431Y-82307857D01*
X60000002Y-82450714D01*
X59928573Y-82522143D01*
X59785716Y-82593571D01*
X59642859Y-82593571D01*
X59500002Y-82522143D01*
X59428573Y-82450714D01*
X59357145Y-82307857D01*
X59285716Y-82022143D01*
X59285716Y-81665000D01*
X59357145Y-81379286D01*
X59428573Y-81236429D01*
X59500002Y-81165000D01*
X59642859Y-81093571D01*
X62214287Y-81093571D02*
X62357144Y-81093571D01*
X62500001Y-81165000D01*
X62571430Y-81236429D01*
X62642859Y-81379286D01*
X62714287Y-81665000D01*
X62714287Y-82022143D01*
X62642859Y-82307857D01*
X62571430Y-82450714D01*
X62500001Y-82522143D01*
X62357144Y-82593571D01*
X62214287Y-82593571D01*
X62071430Y-82522143D01*
X62000001Y-82450714D01*
X61928573Y-82307857D01*
X61857144Y-82022143D01*
X61857144Y-81665000D01*
X61928573Y-81379286D01*
X62000001Y-81236429D01*
X62071430Y-81165000D01*
X62214287Y-81093571D01*
X64142858Y-82593571D02*
X63285715Y-82593571D01*
X63714287Y-82593571D02*
X63714287Y-81093571D01*
X63571430Y-81307857D01*
X63428572Y-81450714D01*
X63285715Y-81522143D01*
X65857143Y-81236429D02*
X65928572Y-81165000D01*
X66071429Y-81093571D01*
X66428572Y-81093571D01*
X66571429Y-81165000D01*
X66642858Y-81236429D01*
X66714286Y-81379286D01*
X66714286Y-81522143D01*
X66642858Y-81736429D01*
X65785715Y-82593571D01*
X66714286Y-82593571D01*
X67642857Y-81093571D02*
X67785714Y-81093571D01*
X67928571Y-81165000D01*
X68000000Y-81236429D01*
X68071429Y-81379286D01*
X68142857Y-81665000D01*
X68142857Y-82022143D01*
X68071429Y-82307857D01*
X68000000Y-82450714D01*
X67928571Y-82522143D01*
X67785714Y-82593571D01*
X67642857Y-82593571D01*
X67500000Y-82522143D01*
X67428571Y-82450714D01*
X67357143Y-82307857D01*
X67285714Y-82022143D01*
X67285714Y-81665000D01*
X67357143Y-81379286D01*
X67428571Y-81236429D01*
X67500000Y-81165000D01*
X67642857Y-81093571D01*
X69571428Y-82593571D02*
X68714285Y-82593571D01*
X69142857Y-82593571D02*
X69142857Y-81093571D01*
X69000000Y-81307857D01*
X68857142Y-81450714D01*
X68714285Y-81522143D01*
X70071428Y-81093571D02*
X71071428Y-81093571D01*
X70428571Y-82593571D01*
X55821429Y-114272143D02*
X55964286Y-114343571D01*
X56250001Y-114343571D01*
X56392858Y-114272143D01*
X56464286Y-114129286D01*
X56464286Y-114057857D01*
X56392858Y-113915000D01*
X56250001Y-113843571D01*
X56035715Y-113843571D01*
X55892858Y-113772143D01*
X55821429Y-113629286D01*
X55821429Y-113557857D01*
X55892858Y-113415000D01*
X56035715Y-113343571D01*
X56250001Y-113343571D01*
X56392858Y-113415000D01*
X56964287Y-113343571D02*
X57321430Y-114343571D01*
X57678572Y-113343571D02*
X57321430Y-114343571D01*
X57178572Y-114700714D01*
X57107144Y-114772143D01*
X56964287Y-114843571D01*
X58178572Y-114272143D02*
X58321429Y-114343571D01*
X58607144Y-114343571D01*
X58750001Y-114272143D01*
X58821429Y-114129286D01*
X58821429Y-114057857D01*
X58750001Y-113915000D01*
X58607144Y-113843571D01*
X58392858Y-113843571D01*
X58250001Y-113772143D01*
X58178572Y-113629286D01*
X58178572Y-113557857D01*
X58250001Y-113415000D01*
X58392858Y-113343571D01*
X58607144Y-113343571D01*
X58750001Y-113415000D01*
X59250001Y-113343571D02*
X59821430Y-113343571D01*
X59464287Y-112843571D02*
X59464287Y-114129286D01*
X59535715Y-114272143D01*
X59678573Y-114343571D01*
X59821430Y-114343571D01*
X60892858Y-114272143D02*
X60750001Y-114343571D01*
X60464287Y-114343571D01*
X60321430Y-114272143D01*
X60250001Y-114129286D01*
X60250001Y-113557857D01*
X60321430Y-113415000D01*
X60464287Y-113343571D01*
X60750001Y-113343571D01*
X60892858Y-113415000D01*
X60964287Y-113557857D01*
X60964287Y-113700714D01*
X60250001Y-113843571D01*
X61607144Y-114343571D02*
X61607144Y-113343571D01*
X61607144Y-113486429D02*
X61678572Y-113415000D01*
X61821430Y-113343571D01*
X62035715Y-113343571D01*
X62178572Y-113415000D01*
X62250001Y-113557857D01*
X62250001Y-114343571D01*
X62250001Y-113557857D02*
X62321430Y-113415000D01*
X62464287Y-113343571D01*
X62678572Y-113343571D01*
X62821430Y-113415000D01*
X62892858Y-113557857D01*
X62892858Y-114343571D01*
X63464287Y-112843571D02*
X64464287Y-112843571D01*
X63821430Y-114343571D01*
X65107143Y-114343571D02*
X65392858Y-114343571D01*
X65535715Y-114272143D01*
X65607143Y-114200714D01*
X65750001Y-113986429D01*
X65821429Y-113700714D01*
X65821429Y-113129286D01*
X65750001Y-112986429D01*
X65678572Y-112915000D01*
X65535715Y-112843571D01*
X65250001Y-112843571D01*
X65107143Y-112915000D01*
X65035715Y-112986429D01*
X64964286Y-113129286D01*
X64964286Y-113486429D01*
X65035715Y-113629286D01*
X65107143Y-113700714D01*
X65250001Y-113772143D01*
X65535715Y-113772143D01*
X65678572Y-113700714D01*
X65750001Y-113629286D01*
X65821429Y-113486429D01*
X66464286Y-114200714D02*
X66535714Y-114272143D01*
X66464286Y-114343571D01*
X66392857Y-114272143D01*
X66464286Y-114200714D01*
X66464286Y-114343571D01*
X67821429Y-114272143D02*
X67678572Y-114343571D01*
X67392858Y-114343571D01*
X67250000Y-114272143D01*
X67178572Y-114200714D01*
X67107143Y-114057857D01*
X67107143Y-113629286D01*
X67178572Y-113486429D01*
X67250000Y-113415000D01*
X67392858Y-113343571D01*
X67678572Y-113343571D01*
X67821429Y-113415000D01*
X68678572Y-114343571D02*
X68535714Y-114272143D01*
X68464286Y-114200714D01*
X68392857Y-114057857D01*
X68392857Y-113629286D01*
X68464286Y-113486429D01*
X68535714Y-113415000D01*
X68678572Y-113343571D01*
X68892857Y-113343571D01*
X69035714Y-113415000D01*
X69107143Y-113486429D01*
X69178572Y-113629286D01*
X69178572Y-114057857D01*
X69107143Y-114200714D01*
X69035714Y-114272143D01*
X68892857Y-114343571D01*
X68678572Y-114343571D01*
X69821429Y-114343571D02*
X69821429Y-113343571D01*
X69821429Y-113486429D02*
X69892857Y-113415000D01*
X70035715Y-113343571D01*
X70250000Y-113343571D01*
X70392857Y-113415000D01*
X70464286Y-113557857D01*
X70464286Y-114343571D01*
X70464286Y-113557857D02*
X70535715Y-113415000D01*
X70678572Y-113343571D01*
X70892857Y-113343571D01*
X71035715Y-113415000D01*
X71107143Y-113557857D01*
X71107143Y-114343571D01*
X39687857Y-107993571D02*
X39687857Y-106493571D01*
X40045000Y-106493571D01*
X40259285Y-106565000D01*
X40402143Y-106707857D01*
X40473571Y-106850714D01*
X40545000Y-107136429D01*
X40545000Y-107350714D01*
X40473571Y-107636429D01*
X40402143Y-107779286D01*
X40259285Y-107922143D01*
X40045000Y-107993571D01*
X39687857Y-107993571D01*
X42045000Y-107850714D02*
X41973571Y-107922143D01*
X41759285Y-107993571D01*
X41616428Y-107993571D01*
X41402143Y-107922143D01*
X41259285Y-107779286D01*
X41187857Y-107636429D01*
X41116428Y-107350714D01*
X41116428Y-107136429D01*
X41187857Y-106850714D01*
X41259285Y-106707857D01*
X41402143Y-106565000D01*
X41616428Y-106493571D01*
X41759285Y-106493571D01*
X41973571Y-106565000D01*
X42045000Y-106636429D01*
X43830714Y-107993571D02*
X43830714Y-106493571D01*
X44545000Y-107993571D02*
X44545000Y-106493571D01*
X45402143Y-107993571D01*
X45402143Y-106493571D01*
X39243095Y-95392857D02*
X40766905Y-95392857D01*
X40005000Y-96154762D02*
X40005000Y-94630952D01*
X85376190Y-80152857D02*
X86900000Y-80152857D01*
X88900000Y-80914762D02*
X87757142Y-80914762D01*
X88328571Y-80914762D02*
X88328571Y-78914762D01*
X88138095Y-79200476D01*
X87947619Y-79390952D01*
X87757142Y-79486190D01*
X89661904Y-79105238D02*
X89757142Y-79010000D01*
X89947619Y-78914762D01*
X90423809Y-78914762D01*
X90614285Y-79010000D01*
X90709523Y-79105238D01*
X90804762Y-79295714D01*
X90804762Y-79486190D01*
X90709523Y-79771905D01*
X89566666Y-80914762D01*
X90804762Y-80914762D01*
X91376190Y-78914762D02*
X92042857Y-80914762D01*
X92709524Y-78914762D01*
D12*
X218440000Y-80010000D02*
X228600000Y-80010000D01*
X200660000Y-80010000D02*
X210820000Y-80010000D01*
X182880000Y-80010000D02*
X193040000Y-80010000D01*
X165100000Y-80010000D02*
X175260000Y-80010000D01*
X147320000Y-80010000D02*
X157480000Y-80010000D01*
X129540000Y-80010000D02*
X139700000Y-80010000D01*
X111760000Y-80010000D02*
X121920000Y-80010000D01*
X93980000Y-80010000D02*
X104140000Y-80010000D01*
D13*
X45288567Y-94475113D02*
G75*
G03X45288200Y-90182700I-1092567J2146113D01*
G01*
X43052348Y-90183047D02*
G75*
G03X43053000Y-94475300I1143652J-2145953D01*
G01*
X41503600Y-89662000D02*
X43053000Y-89662000D01*
X46837600Y-89662000D02*
X45288200Y-89662000D01*
X46075600Y-94996000D02*
X45288200Y-94996000D01*
X42265600Y-94996000D02*
X43053000Y-94996000D01*
X41503600Y-89662000D02*
X41503600Y-94234000D01*
X41503600Y-94234000D02*
X42265600Y-94996000D01*
X46075600Y-94996000D02*
X46837600Y-94234000D01*
X46837600Y-94234000D02*
X46837600Y-89662000D01*
X76572000Y-104156000D02*
X76572000Y-106156000D01*
X78622000Y-106156000D02*
X78622000Y-104156000D01*
X77207000Y-86757000D02*
X77207000Y-88757000D01*
X79257000Y-88757000D02*
X79257000Y-86757000D01*
X92592000Y-102854000D02*
X92592000Y-100854000D01*
X90542000Y-100854000D02*
X90542000Y-102854000D01*
X50292000Y-83947000D02*
X75692000Y-83947000D01*
X75692000Y-83947000D02*
X75692000Y-109347000D01*
X75692000Y-109347000D02*
X50292000Y-109347000D01*
X50292000Y-109347000D02*
X50292000Y-83947000D01*
X88614000Y-102870000D02*
X88614000Y-108870000D01*
X88614000Y-108870000D02*
X80114000Y-108870000D01*
X80114000Y-108870000D02*
X80114000Y-96870000D01*
X80114000Y-96870000D02*
X88614000Y-96870000D01*
X88614000Y-96870000D02*
X88614000Y-102870000D01*
D14*
X129920000Y-82320000D02*
X129920000Y-110720000D01*
X139320000Y-110720000D02*
X139320000Y-82320000D01*
X139320000Y-82320000D02*
X129920000Y-82320000D01*
X139320000Y-110720000D02*
X129920000Y-110720000D01*
D15*
X129920000Y-98820000D02*
X131320000Y-98820000D01*
X131320000Y-98820000D02*
X131320000Y-94220000D01*
X131320000Y-94220000D02*
X129920000Y-94220000D01*
D14*
X112140000Y-82320000D02*
X112140000Y-110720000D01*
X121540000Y-110720000D02*
X121540000Y-82320000D01*
X121540000Y-82320000D02*
X112140000Y-82320000D01*
X121540000Y-110720000D02*
X112140000Y-110720000D01*
D15*
X112140000Y-98820000D02*
X113540000Y-98820000D01*
X113540000Y-98820000D02*
X113540000Y-94220000D01*
X113540000Y-94220000D02*
X112140000Y-94220000D01*
D14*
X147700000Y-82320000D02*
X147700000Y-110720000D01*
X157100000Y-110720000D02*
X157100000Y-82320000D01*
X157100000Y-82320000D02*
X147700000Y-82320000D01*
X157100000Y-110720000D02*
X147700000Y-110720000D01*
D15*
X147700000Y-98820000D02*
X149100000Y-98820000D01*
X149100000Y-98820000D02*
X149100000Y-94220000D01*
X149100000Y-94220000D02*
X147700000Y-94220000D01*
D14*
X165480000Y-82320000D02*
X165480000Y-110720000D01*
X174880000Y-110720000D02*
X174880000Y-82320000D01*
X174880000Y-82320000D02*
X165480000Y-82320000D01*
X174880000Y-110720000D02*
X165480000Y-110720000D01*
D15*
X165480000Y-98820000D02*
X166880000Y-98820000D01*
X166880000Y-98820000D02*
X166880000Y-94220000D01*
X166880000Y-94220000D02*
X165480000Y-94220000D01*
D14*
X183260000Y-82320000D02*
X183260000Y-110720000D01*
X192660000Y-110720000D02*
X192660000Y-82320000D01*
X192660000Y-82320000D02*
X183260000Y-82320000D01*
X192660000Y-110720000D02*
X183260000Y-110720000D01*
D15*
X183260000Y-98820000D02*
X184660000Y-98820000D01*
X184660000Y-98820000D02*
X184660000Y-94220000D01*
X184660000Y-94220000D02*
X183260000Y-94220000D01*
D14*
X218820000Y-82320000D02*
X218820000Y-110720000D01*
X228220000Y-110720000D02*
X228220000Y-82320000D01*
X228220000Y-82320000D02*
X218820000Y-82320000D01*
X228220000Y-110720000D02*
X218820000Y-110720000D01*
D15*
X218820000Y-98820000D02*
X220220000Y-98820000D01*
X220220000Y-98820000D02*
X220220000Y-94220000D01*
X220220000Y-94220000D02*
X218820000Y-94220000D01*
D14*
X201040000Y-82320000D02*
X201040000Y-110720000D01*
X210440000Y-110720000D02*
X210440000Y-82320000D01*
X210440000Y-82320000D02*
X201040000Y-82320000D01*
X210440000Y-110720000D02*
X201040000Y-110720000D01*
D15*
X201040000Y-98820000D02*
X202440000Y-98820000D01*
X202440000Y-98820000D02*
X202440000Y-94220000D01*
X202440000Y-94220000D02*
X201040000Y-94220000D01*
D14*
X94360000Y-82320000D02*
X94360000Y-110720000D01*
X103760000Y-110720000D02*
X103760000Y-82320000D01*
X103760000Y-82320000D02*
X94360000Y-82320000D01*
X103760000Y-110720000D02*
X94360000Y-110720000D01*
D15*
X94360000Y-98820000D02*
X95760000Y-98820000D01*
X95760000Y-98820000D02*
X95760000Y-94220000D01*
X95760000Y-94220000D02*
X94360000Y-94220000D01*
D16*
X46069000Y-99019000D02*
X49269000Y-99019000D01*
X49269000Y-99019000D02*
X49269000Y-103419000D01*
X49269000Y-103419000D02*
X46069000Y-103419000D01*
X38769000Y-97119000D02*
X38769000Y-105319000D01*
X46069000Y-97119000D02*
X46069000Y-105319000D01*
X46069000Y-105319000D02*
X38769000Y-105319000D01*
X38769000Y-97119000D02*
X46069000Y-97119000D01*
D17*
G36*
X144065814Y-110498931D02*
X144149635Y-110943555D01*
X144458920Y-111071053D01*
X144768206Y-111198551D01*
X145139246Y-110946246D01*
X145243157Y-110875996D01*
X145337087Y-110813272D01*
X145416652Y-110760938D01*
X145477470Y-110721857D01*
X145515157Y-110698893D01*
X145525421Y-110693942D01*
X145543910Y-110706676D01*
X145583420Y-110741882D01*
X145639522Y-110795062D01*
X145707787Y-110861718D01*
X145783786Y-110937354D01*
X145863092Y-111017472D01*
X145941275Y-111097574D01*
X146013907Y-111173164D01*
X146076559Y-111239745D01*
X146124803Y-111292818D01*
X146154210Y-111327887D01*
X146161241Y-111339623D01*
X146151123Y-111361260D01*
X146122759Y-111408662D01*
X146079129Y-111477193D01*
X146023218Y-111562215D01*
X145958006Y-111659093D01*
X145920219Y-111714350D01*
X145851343Y-111815248D01*
X145790140Y-111906299D01*
X145739578Y-111982970D01*
X145702628Y-112040728D01*
X145682258Y-112075043D01*
X145679197Y-112082254D01*
X145686136Y-112102748D01*
X145705051Y-112150513D01*
X145733087Y-112218832D01*
X145767391Y-112300989D01*
X145805109Y-112390270D01*
X145843387Y-112479958D01*
X145879370Y-112563338D01*
X145910206Y-112633694D01*
X145933039Y-112684310D01*
X145945017Y-112708471D01*
X145945724Y-112709422D01*
X145964531Y-112714036D01*
X146014618Y-112724328D01*
X146090793Y-112739287D01*
X146187865Y-112757901D01*
X146300643Y-112779159D01*
X146366442Y-112791418D01*
X146486950Y-112814362D01*
X146595797Y-112836195D01*
X146687476Y-112855722D01*
X146756481Y-112871748D01*
X146797304Y-112883079D01*
X146805511Y-112886674D01*
X146813548Y-112911006D01*
X146820033Y-112965959D01*
X146824970Y-113045108D01*
X146828364Y-113142026D01*
X146830218Y-113250287D01*
X146830538Y-113363465D01*
X146829327Y-113475135D01*
X146826590Y-113578868D01*
X146822331Y-113668241D01*
X146816555Y-113736826D01*
X146809267Y-113778197D01*
X146804895Y-113786810D01*
X146778764Y-113797133D01*
X146723393Y-113811892D01*
X146646107Y-113829352D01*
X146554230Y-113847780D01*
X146522158Y-113853741D01*
X146367524Y-113882066D01*
X146245375Y-113904876D01*
X146151673Y-113923080D01*
X146082384Y-113937583D01*
X146033471Y-113949292D01*
X146000897Y-113959115D01*
X145980628Y-113967956D01*
X145968626Y-113976724D01*
X145966947Y-113978457D01*
X145950184Y-114006371D01*
X145924614Y-114060695D01*
X145892788Y-114134777D01*
X145857260Y-114221965D01*
X145820583Y-114315608D01*
X145785311Y-114409052D01*
X145753996Y-114495647D01*
X145729193Y-114568740D01*
X145713454Y-114621678D01*
X145709332Y-114647811D01*
X145709676Y-114648726D01*
X145723641Y-114670086D01*
X145755322Y-114717084D01*
X145801391Y-114784827D01*
X145858518Y-114868423D01*
X145923373Y-114962982D01*
X145941843Y-114989854D01*
X146007699Y-115087275D01*
X146065650Y-115176163D01*
X146112538Y-115251412D01*
X146145207Y-115307920D01*
X146160500Y-115340581D01*
X146161241Y-115344593D01*
X146148392Y-115365684D01*
X146112888Y-115407464D01*
X146059293Y-115465445D01*
X145992171Y-115535135D01*
X145916087Y-115612045D01*
X145835604Y-115691683D01*
X145755287Y-115769561D01*
X145679699Y-115841186D01*
X145613405Y-115902070D01*
X145560969Y-115947721D01*
X145526955Y-115973650D01*
X145517545Y-115977883D01*
X145495643Y-115967912D01*
X145450800Y-115941020D01*
X145390321Y-115901736D01*
X145343789Y-115870117D01*
X145259475Y-115812098D01*
X145159626Y-115743784D01*
X145059473Y-115675579D01*
X145005627Y-115639075D01*
X144823371Y-115515800D01*
X144670381Y-115598520D01*
X144600682Y-115634759D01*
X144541414Y-115662926D01*
X144501311Y-115678991D01*
X144491103Y-115681226D01*
X144478829Y-115664722D01*
X144454613Y-115618082D01*
X144420263Y-115545609D01*
X144377588Y-115451606D01*
X144328394Y-115340374D01*
X144274490Y-115216215D01*
X144217684Y-115083432D01*
X144159782Y-114946327D01*
X144102593Y-114809202D01*
X144047924Y-114676358D01*
X143997584Y-114552098D01*
X143953380Y-114440725D01*
X143917119Y-114346539D01*
X143890609Y-114273844D01*
X143875658Y-114226941D01*
X143873254Y-114210833D01*
X143892311Y-114190286D01*
X143934036Y-114156933D01*
X143989706Y-114117702D01*
X143994378Y-114114599D01*
X144138264Y-113999423D01*
X144254283Y-113865053D01*
X144341430Y-113715784D01*
X144398699Y-113555913D01*
X144425086Y-113389737D01*
X144419585Y-113221552D01*
X144381190Y-113055655D01*
X144308895Y-112896342D01*
X144287626Y-112861487D01*
X144176996Y-112720737D01*
X144046302Y-112607714D01*
X143900064Y-112523003D01*
X143742808Y-112467194D01*
X143579057Y-112440874D01*
X143413333Y-112444630D01*
X143250162Y-112479050D01*
X143094065Y-112544723D01*
X142949567Y-112642235D01*
X142904869Y-112681813D01*
X142791112Y-112805703D01*
X142708218Y-112936124D01*
X142651356Y-113082315D01*
X142619687Y-113227088D01*
X142611869Y-113389860D01*
X142637938Y-113553440D01*
X142695245Y-113712298D01*
X142781144Y-113860906D01*
X142892986Y-113993735D01*
X143028123Y-114105256D01*
X143045883Y-114117011D01*
X143102150Y-114155508D01*
X143144923Y-114188863D01*
X143165372Y-114210160D01*
X143165669Y-114210833D01*
X143161279Y-114233871D01*
X143143876Y-114286157D01*
X143115268Y-114363390D01*
X143077265Y-114461268D01*
X143031674Y-114575491D01*
X142980303Y-114701758D01*
X142924962Y-114835767D01*
X142867458Y-114973218D01*
X142809601Y-115109808D01*
X142753198Y-115241237D01*
X142700058Y-115363205D01*
X142651990Y-115471409D01*
X142610801Y-115561549D01*
X142578301Y-115629323D01*
X142556297Y-115670430D01*
X142547436Y-115681226D01*
X142520360Y-115672819D01*
X142469697Y-115650272D01*
X142404183Y-115617613D01*
X142368159Y-115598520D01*
X142215168Y-115515800D01*
X142032912Y-115639075D01*
X141939875Y-115702228D01*
X141838015Y-115771727D01*
X141742562Y-115837165D01*
X141694750Y-115870117D01*
X141627505Y-115915273D01*
X141570564Y-115951057D01*
X141531354Y-115972938D01*
X141518619Y-115977563D01*
X141500083Y-115965085D01*
X141459059Y-115930252D01*
X141399525Y-115876678D01*
X141325458Y-115807983D01*
X141240835Y-115727781D01*
X141187315Y-115676286D01*
X141093681Y-115584286D01*
X141012759Y-115501999D01*
X140947823Y-115432945D01*
X140902142Y-115380644D01*
X140878989Y-115348616D01*
X140876768Y-115342116D01*
X140887076Y-115317394D01*
X140915561Y-115267405D01*
X140959063Y-115197212D01*
X141014423Y-115111875D01*
X141078480Y-115016456D01*
X141096697Y-114989854D01*
X141163073Y-114893167D01*
X141222622Y-114806117D01*
X141272016Y-114733595D01*
X141307925Y-114680493D01*
X141327019Y-114651703D01*
X141328864Y-114648726D01*
X141326105Y-114625782D01*
X141311462Y-114575336D01*
X141287487Y-114504041D01*
X141256734Y-114418547D01*
X141221756Y-114325507D01*
X141185107Y-114231574D01*
X141149339Y-114143399D01*
X141117006Y-114067634D01*
X141090662Y-114010931D01*
X141072858Y-113979943D01*
X141071593Y-113978457D01*
X141060706Y-113969601D01*
X141042318Y-113960843D01*
X141012394Y-113951277D01*
X140966897Y-113939996D01*
X140901791Y-113926093D01*
X140813039Y-113908663D01*
X140696607Y-113886798D01*
X140548458Y-113859591D01*
X140516382Y-113853741D01*
X140421314Y-113835374D01*
X140338435Y-113817405D01*
X140275070Y-113801569D01*
X140238542Y-113789600D01*
X140233644Y-113786810D01*
X140225573Y-113762072D01*
X140219013Y-113706790D01*
X140213967Y-113627389D01*
X140210441Y-113530296D01*
X140208439Y-113421938D01*
X140207964Y-113308740D01*
X140209023Y-113197128D01*
X140211618Y-113093529D01*
X140215754Y-113004368D01*
X140221437Y-112936072D01*
X140228669Y-112895066D01*
X140233029Y-112886674D01*
X140257302Y-112878208D01*
X140312574Y-112864435D01*
X140393338Y-112846550D01*
X140494088Y-112825748D01*
X140609317Y-112803223D01*
X140672098Y-112791418D01*
X140791213Y-112769151D01*
X140897435Y-112748979D01*
X140985573Y-112731915D01*
X141050434Y-112718969D01*
X141086826Y-112711155D01*
X141092816Y-112709422D01*
X141102939Y-112689890D01*
X141124338Y-112642843D01*
X141154161Y-112575003D01*
X141189555Y-112493091D01*
X141227668Y-112403828D01*
X141265647Y-112313935D01*
X141300640Y-112230135D01*
X141329794Y-112159147D01*
X141350257Y-112107694D01*
X141359177Y-112082497D01*
X141359343Y-112081396D01*
X141349231Y-112061519D01*
X141320883Y-112015777D01*
X141277277Y-111948717D01*
X141221394Y-111864884D01*
X141156213Y-111768826D01*
X141118321Y-111713650D01*
X141049275Y-111612481D01*
X140987950Y-111520630D01*
X140937337Y-111442744D01*
X140900429Y-111383469D01*
X140880218Y-111347451D01*
X140877299Y-111339377D01*
X140889847Y-111320584D01*
X140924537Y-111280457D01*
X140976937Y-111223493D01*
X141042616Y-111154185D01*
X141117144Y-111077031D01*
X141196087Y-110996525D01*
X141275017Y-110917163D01*
X141349500Y-110843440D01*
X141415106Y-110779852D01*
X141467404Y-110730894D01*
X141501961Y-110701061D01*
X141513522Y-110693942D01*
X141532346Y-110703953D01*
X141577369Y-110732078D01*
X141644213Y-110775454D01*
X141728501Y-110831218D01*
X141825856Y-110896506D01*
X141899293Y-110946246D01*
X142270333Y-111198551D01*
X142888905Y-110943555D01*
X142972725Y-110498931D01*
X143056546Y-110054307D01*
X143981994Y-110054307D01*
X144065814Y-110498931D01*
X144065814Y-110498931D01*
G37*
X144065814Y-110498931D02*
X144149635Y-110943555D01*
X144458920Y-111071053D01*
X144768206Y-111198551D01*
X145139246Y-110946246D01*
X145243157Y-110875996D01*
X145337087Y-110813272D01*
X145416652Y-110760938D01*
X145477470Y-110721857D01*
X145515157Y-110698893D01*
X145525421Y-110693942D01*
X145543910Y-110706676D01*
X145583420Y-110741882D01*
X145639522Y-110795062D01*
X145707787Y-110861718D01*
X145783786Y-110937354D01*
X145863092Y-111017472D01*
X145941275Y-111097574D01*
X146013907Y-111173164D01*
X146076559Y-111239745D01*
X146124803Y-111292818D01*
X146154210Y-111327887D01*
X146161241Y-111339623D01*
X146151123Y-111361260D01*
X146122759Y-111408662D01*
X146079129Y-111477193D01*
X146023218Y-111562215D01*
X145958006Y-111659093D01*
X145920219Y-111714350D01*
X145851343Y-111815248D01*
X145790140Y-111906299D01*
X145739578Y-111982970D01*
X145702628Y-112040728D01*
X145682258Y-112075043D01*
X145679197Y-112082254D01*
X145686136Y-112102748D01*
X145705051Y-112150513D01*
X145733087Y-112218832D01*
X145767391Y-112300989D01*
X145805109Y-112390270D01*
X145843387Y-112479958D01*
X145879370Y-112563338D01*
X145910206Y-112633694D01*
X145933039Y-112684310D01*
X145945017Y-112708471D01*
X145945724Y-112709422D01*
X145964531Y-112714036D01*
X146014618Y-112724328D01*
X146090793Y-112739287D01*
X146187865Y-112757901D01*
X146300643Y-112779159D01*
X146366442Y-112791418D01*
X146486950Y-112814362D01*
X146595797Y-112836195D01*
X146687476Y-112855722D01*
X146756481Y-112871748D01*
X146797304Y-112883079D01*
X146805511Y-112886674D01*
X146813548Y-112911006D01*
X146820033Y-112965959D01*
X146824970Y-113045108D01*
X146828364Y-113142026D01*
X146830218Y-113250287D01*
X146830538Y-113363465D01*
X146829327Y-113475135D01*
X146826590Y-113578868D01*
X146822331Y-113668241D01*
X146816555Y-113736826D01*
X146809267Y-113778197D01*
X146804895Y-113786810D01*
X146778764Y-113797133D01*
X146723393Y-113811892D01*
X146646107Y-113829352D01*
X146554230Y-113847780D01*
X146522158Y-113853741D01*
X146367524Y-113882066D01*
X146245375Y-113904876D01*
X146151673Y-113923080D01*
X146082384Y-113937583D01*
X146033471Y-113949292D01*
X146000897Y-113959115D01*
X145980628Y-113967956D01*
X145968626Y-113976724D01*
X145966947Y-113978457D01*
X145950184Y-114006371D01*
X145924614Y-114060695D01*
X145892788Y-114134777D01*
X145857260Y-114221965D01*
X145820583Y-114315608D01*
X145785311Y-114409052D01*
X145753996Y-114495647D01*
X145729193Y-114568740D01*
X145713454Y-114621678D01*
X145709332Y-114647811D01*
X145709676Y-114648726D01*
X145723641Y-114670086D01*
X145755322Y-114717084D01*
X145801391Y-114784827D01*
X145858518Y-114868423D01*
X145923373Y-114962982D01*
X145941843Y-114989854D01*
X146007699Y-115087275D01*
X146065650Y-115176163D01*
X146112538Y-115251412D01*
X146145207Y-115307920D01*
X146160500Y-115340581D01*
X146161241Y-115344593D01*
X146148392Y-115365684D01*
X146112888Y-115407464D01*
X146059293Y-115465445D01*
X145992171Y-115535135D01*
X145916087Y-115612045D01*
X145835604Y-115691683D01*
X145755287Y-115769561D01*
X145679699Y-115841186D01*
X145613405Y-115902070D01*
X145560969Y-115947721D01*
X145526955Y-115973650D01*
X145517545Y-115977883D01*
X145495643Y-115967912D01*
X145450800Y-115941020D01*
X145390321Y-115901736D01*
X145343789Y-115870117D01*
X145259475Y-115812098D01*
X145159626Y-115743784D01*
X145059473Y-115675579D01*
X145005627Y-115639075D01*
X144823371Y-115515800D01*
X144670381Y-115598520D01*
X144600682Y-115634759D01*
X144541414Y-115662926D01*
X144501311Y-115678991D01*
X144491103Y-115681226D01*
X144478829Y-115664722D01*
X144454613Y-115618082D01*
X144420263Y-115545609D01*
X144377588Y-115451606D01*
X144328394Y-115340374D01*
X144274490Y-115216215D01*
X144217684Y-115083432D01*
X144159782Y-114946327D01*
X144102593Y-114809202D01*
X144047924Y-114676358D01*
X143997584Y-114552098D01*
X143953380Y-114440725D01*
X143917119Y-114346539D01*
X143890609Y-114273844D01*
X143875658Y-114226941D01*
X143873254Y-114210833D01*
X143892311Y-114190286D01*
X143934036Y-114156933D01*
X143989706Y-114117702D01*
X143994378Y-114114599D01*
X144138264Y-113999423D01*
X144254283Y-113865053D01*
X144341430Y-113715784D01*
X144398699Y-113555913D01*
X144425086Y-113389737D01*
X144419585Y-113221552D01*
X144381190Y-113055655D01*
X144308895Y-112896342D01*
X144287626Y-112861487D01*
X144176996Y-112720737D01*
X144046302Y-112607714D01*
X143900064Y-112523003D01*
X143742808Y-112467194D01*
X143579057Y-112440874D01*
X143413333Y-112444630D01*
X143250162Y-112479050D01*
X143094065Y-112544723D01*
X142949567Y-112642235D01*
X142904869Y-112681813D01*
X142791112Y-112805703D01*
X142708218Y-112936124D01*
X142651356Y-113082315D01*
X142619687Y-113227088D01*
X142611869Y-113389860D01*
X142637938Y-113553440D01*
X142695245Y-113712298D01*
X142781144Y-113860906D01*
X142892986Y-113993735D01*
X143028123Y-114105256D01*
X143045883Y-114117011D01*
X143102150Y-114155508D01*
X143144923Y-114188863D01*
X143165372Y-114210160D01*
X143165669Y-114210833D01*
X143161279Y-114233871D01*
X143143876Y-114286157D01*
X143115268Y-114363390D01*
X143077265Y-114461268D01*
X143031674Y-114575491D01*
X142980303Y-114701758D01*
X142924962Y-114835767D01*
X142867458Y-114973218D01*
X142809601Y-115109808D01*
X142753198Y-115241237D01*
X142700058Y-115363205D01*
X142651990Y-115471409D01*
X142610801Y-115561549D01*
X142578301Y-115629323D01*
X142556297Y-115670430D01*
X142547436Y-115681226D01*
X142520360Y-115672819D01*
X142469697Y-115650272D01*
X142404183Y-115617613D01*
X142368159Y-115598520D01*
X142215168Y-115515800D01*
X142032912Y-115639075D01*
X141939875Y-115702228D01*
X141838015Y-115771727D01*
X141742562Y-115837165D01*
X141694750Y-115870117D01*
X141627505Y-115915273D01*
X141570564Y-115951057D01*
X141531354Y-115972938D01*
X141518619Y-115977563D01*
X141500083Y-115965085D01*
X141459059Y-115930252D01*
X141399525Y-115876678D01*
X141325458Y-115807983D01*
X141240835Y-115727781D01*
X141187315Y-115676286D01*
X141093681Y-115584286D01*
X141012759Y-115501999D01*
X140947823Y-115432945D01*
X140902142Y-115380644D01*
X140878989Y-115348616D01*
X140876768Y-115342116D01*
X140887076Y-115317394D01*
X140915561Y-115267405D01*
X140959063Y-115197212D01*
X141014423Y-115111875D01*
X141078480Y-115016456D01*
X141096697Y-114989854D01*
X141163073Y-114893167D01*
X141222622Y-114806117D01*
X141272016Y-114733595D01*
X141307925Y-114680493D01*
X141327019Y-114651703D01*
X141328864Y-114648726D01*
X141326105Y-114625782D01*
X141311462Y-114575336D01*
X141287487Y-114504041D01*
X141256734Y-114418547D01*
X141221756Y-114325507D01*
X141185107Y-114231574D01*
X141149339Y-114143399D01*
X141117006Y-114067634D01*
X141090662Y-114010931D01*
X141072858Y-113979943D01*
X141071593Y-113978457D01*
X141060706Y-113969601D01*
X141042318Y-113960843D01*
X141012394Y-113951277D01*
X140966897Y-113939996D01*
X140901791Y-113926093D01*
X140813039Y-113908663D01*
X140696607Y-113886798D01*
X140548458Y-113859591D01*
X140516382Y-113853741D01*
X140421314Y-113835374D01*
X140338435Y-113817405D01*
X140275070Y-113801569D01*
X140238542Y-113789600D01*
X140233644Y-113786810D01*
X140225573Y-113762072D01*
X140219013Y-113706790D01*
X140213967Y-113627389D01*
X140210441Y-113530296D01*
X140208439Y-113421938D01*
X140207964Y-113308740D01*
X140209023Y-113197128D01*
X140211618Y-113093529D01*
X140215754Y-113004368D01*
X140221437Y-112936072D01*
X140228669Y-112895066D01*
X140233029Y-112886674D01*
X140257302Y-112878208D01*
X140312574Y-112864435D01*
X140393338Y-112846550D01*
X140494088Y-112825748D01*
X140609317Y-112803223D01*
X140672098Y-112791418D01*
X140791213Y-112769151D01*
X140897435Y-112748979D01*
X140985573Y-112731915D01*
X141050434Y-112718969D01*
X141086826Y-112711155D01*
X141092816Y-112709422D01*
X141102939Y-112689890D01*
X141124338Y-112642843D01*
X141154161Y-112575003D01*
X141189555Y-112493091D01*
X141227668Y-112403828D01*
X141265647Y-112313935D01*
X141300640Y-112230135D01*
X141329794Y-112159147D01*
X141350257Y-112107694D01*
X141359177Y-112082497D01*
X141359343Y-112081396D01*
X141349231Y-112061519D01*
X141320883Y-112015777D01*
X141277277Y-111948717D01*
X141221394Y-111864884D01*
X141156213Y-111768826D01*
X141118321Y-111713650D01*
X141049275Y-111612481D01*
X140987950Y-111520630D01*
X140937337Y-111442744D01*
X140900429Y-111383469D01*
X140880218Y-111347451D01*
X140877299Y-111339377D01*
X140889847Y-111320584D01*
X140924537Y-111280457D01*
X140976937Y-111223493D01*
X141042616Y-111154185D01*
X141117144Y-111077031D01*
X141196087Y-110996525D01*
X141275017Y-110917163D01*
X141349500Y-110843440D01*
X141415106Y-110779852D01*
X141467404Y-110730894D01*
X141501961Y-110701061D01*
X141513522Y-110693942D01*
X141532346Y-110703953D01*
X141577369Y-110732078D01*
X141644213Y-110775454D01*
X141728501Y-110831218D01*
X141825856Y-110896506D01*
X141899293Y-110946246D01*
X142270333Y-111198551D01*
X142888905Y-110943555D01*
X142972725Y-110498931D01*
X143056546Y-110054307D01*
X143981994Y-110054307D01*
X144065814Y-110498931D01*
D13*
X41997334Y-87733143D02*
X41949715Y-87780762D01*
X41806858Y-87828381D01*
X41711620Y-87828381D01*
X41568762Y-87780762D01*
X41473524Y-87685524D01*
X41425905Y-87590286D01*
X41378286Y-87399810D01*
X41378286Y-87256952D01*
X41425905Y-87066476D01*
X41473524Y-86971238D01*
X41568762Y-86876000D01*
X41711620Y-86828381D01*
X41806858Y-86828381D01*
X41949715Y-86876000D01*
X41997334Y-86923619D01*
X42949715Y-87828381D02*
X42378286Y-87828381D01*
X42664000Y-87828381D02*
X42664000Y-86828381D01*
X42568762Y-86971238D01*
X42473524Y-87066476D01*
X42378286Y-87114095D01*
X44132714Y-86923619D02*
X44180333Y-86876000D01*
X44275571Y-86828381D01*
X44513667Y-86828381D01*
X44608905Y-86876000D01*
X44656524Y-86923619D01*
X44704143Y-87018857D01*
X44704143Y-87114095D01*
X44656524Y-87256952D01*
X44085095Y-87828381D01*
X44704143Y-87828381D01*
X45085095Y-86923619D02*
X45132714Y-86876000D01*
X45227952Y-86828381D01*
X45466048Y-86828381D01*
X45561286Y-86876000D01*
X45608905Y-86923619D01*
X45656524Y-87018857D01*
X45656524Y-87114095D01*
X45608905Y-87256952D01*
X45037476Y-87828381D01*
X45656524Y-87828381D01*
X46085095Y-87161714D02*
X46085095Y-88161714D01*
X46561286Y-87685524D02*
X46608905Y-87780762D01*
X46704143Y-87828381D01*
X46085095Y-87685524D02*
X46132714Y-87780762D01*
X46227952Y-87828381D01*
X46418429Y-87828381D01*
X46513667Y-87780762D01*
X46561286Y-87685524D01*
X46561286Y-87161714D01*
X47466048Y-87304571D02*
X47132714Y-87304571D01*
X47132714Y-87828381D02*
X47132714Y-86828381D01*
X47608905Y-86828381D01*
X46604229Y-96088152D02*
X46604229Y-95326247D01*
X46985181Y-95707199D02*
X46223276Y-95707199D01*
X77557334Y-108942143D02*
X77509715Y-108989762D01*
X77366858Y-109037381D01*
X77271620Y-109037381D01*
X77128762Y-108989762D01*
X77033524Y-108894524D01*
X76985905Y-108799286D01*
X76938286Y-108608810D01*
X76938286Y-108465952D01*
X76985905Y-108275476D01*
X77033524Y-108180238D01*
X77128762Y-108085000D01*
X77271620Y-108037381D01*
X77366858Y-108037381D01*
X77509715Y-108085000D01*
X77557334Y-108132619D01*
X77938286Y-108132619D02*
X77985905Y-108085000D01*
X78081143Y-108037381D01*
X78319239Y-108037381D01*
X78414477Y-108085000D01*
X78462096Y-108132619D01*
X78509715Y-108227857D01*
X78509715Y-108323095D01*
X78462096Y-108465952D01*
X77890667Y-109037381D01*
X78509715Y-109037381D01*
X76263714Y-109402619D02*
X76311333Y-109355000D01*
X76406571Y-109307381D01*
X76644667Y-109307381D01*
X76739905Y-109355000D01*
X76787524Y-109402619D01*
X76835143Y-109497857D01*
X76835143Y-109593095D01*
X76787524Y-109735952D01*
X76216095Y-110307381D01*
X76835143Y-110307381D01*
X77216095Y-109402619D02*
X77263714Y-109355000D01*
X77358952Y-109307381D01*
X77597048Y-109307381D01*
X77692286Y-109355000D01*
X77739905Y-109402619D01*
X77787524Y-109497857D01*
X77787524Y-109593095D01*
X77739905Y-109735952D01*
X77168476Y-110307381D01*
X77787524Y-110307381D01*
X78216095Y-109640714D02*
X78216095Y-110640714D01*
X78692286Y-110164524D02*
X78739905Y-110259762D01*
X78835143Y-110307381D01*
X78216095Y-110164524D02*
X78263714Y-110259762D01*
X78358952Y-110307381D01*
X78549429Y-110307381D01*
X78644667Y-110259762D01*
X78692286Y-110164524D01*
X78692286Y-109640714D01*
X79597048Y-109783571D02*
X79263714Y-109783571D01*
X79263714Y-110307381D02*
X79263714Y-109307381D01*
X79739905Y-109307381D01*
X78065334Y-91289143D02*
X78017715Y-91336762D01*
X77874858Y-91384381D01*
X77779620Y-91384381D01*
X77636762Y-91336762D01*
X77541524Y-91241524D01*
X77493905Y-91146286D01*
X77446286Y-90955810D01*
X77446286Y-90812952D01*
X77493905Y-90622476D01*
X77541524Y-90527238D01*
X77636762Y-90432000D01*
X77779620Y-90384381D01*
X77874858Y-90384381D01*
X78017715Y-90432000D01*
X78065334Y-90479619D01*
X78398667Y-90384381D02*
X79017715Y-90384381D01*
X78684381Y-90765333D01*
X78827239Y-90765333D01*
X78922477Y-90812952D01*
X78970096Y-90860571D01*
X79017715Y-90955810D01*
X79017715Y-91193905D01*
X78970096Y-91289143D01*
X78922477Y-91336762D01*
X78827239Y-91384381D01*
X78541524Y-91384381D01*
X78446286Y-91336762D01*
X78398667Y-91289143D01*
X76517714Y-91749619D02*
X76565333Y-91702000D01*
X76660571Y-91654381D01*
X76898667Y-91654381D01*
X76993905Y-91702000D01*
X77041524Y-91749619D01*
X77089143Y-91844857D01*
X77089143Y-91940095D01*
X77041524Y-92082952D01*
X76470095Y-92654381D01*
X77089143Y-92654381D01*
X77470095Y-91749619D02*
X77517714Y-91702000D01*
X77612952Y-91654381D01*
X77851048Y-91654381D01*
X77946286Y-91702000D01*
X77993905Y-91749619D01*
X78041524Y-91844857D01*
X78041524Y-91940095D01*
X77993905Y-92082952D01*
X77422476Y-92654381D01*
X78041524Y-92654381D01*
X78470095Y-91987714D02*
X78470095Y-92987714D01*
X78946286Y-92511524D02*
X78993905Y-92606762D01*
X79089143Y-92654381D01*
X78470095Y-92511524D02*
X78517714Y-92606762D01*
X78612952Y-92654381D01*
X78803429Y-92654381D01*
X78898667Y-92606762D01*
X78946286Y-92511524D01*
X78946286Y-91987714D01*
X79851048Y-92130571D02*
X79517714Y-92130571D01*
X79517714Y-92654381D02*
X79517714Y-91654381D01*
X79993905Y-91654381D01*
X91400334Y-105386143D02*
X91352715Y-105433762D01*
X91209858Y-105481381D01*
X91114620Y-105481381D01*
X90971762Y-105433762D01*
X90876524Y-105338524D01*
X90828905Y-105243286D01*
X90781286Y-105052810D01*
X90781286Y-104909952D01*
X90828905Y-104719476D01*
X90876524Y-104624238D01*
X90971762Y-104529000D01*
X91114620Y-104481381D01*
X91209858Y-104481381D01*
X91352715Y-104529000D01*
X91400334Y-104576619D01*
X92257477Y-104814714D02*
X92257477Y-105481381D01*
X92019381Y-104433762D02*
X91781286Y-105148048D01*
X92400334Y-105148048D01*
X90424143Y-106878381D02*
X89852714Y-106878381D01*
X90138428Y-106878381D02*
X90138428Y-105878381D01*
X90043190Y-106021238D01*
X89947952Y-106116476D01*
X89852714Y-106164095D01*
X91043190Y-105878381D02*
X91138429Y-105878381D01*
X91233667Y-105926000D01*
X91281286Y-105973619D01*
X91328905Y-106068857D01*
X91376524Y-106259333D01*
X91376524Y-106497429D01*
X91328905Y-106687905D01*
X91281286Y-106783143D01*
X91233667Y-106830762D01*
X91138429Y-106878381D01*
X91043190Y-106878381D01*
X90947952Y-106830762D01*
X90900333Y-106783143D01*
X90852714Y-106687905D01*
X90805095Y-106497429D01*
X90805095Y-106259333D01*
X90852714Y-106068857D01*
X90900333Y-105973619D01*
X90947952Y-105926000D01*
X91043190Y-105878381D01*
X91805095Y-106211714D02*
X91805095Y-107211714D01*
X92281286Y-106735524D02*
X92328905Y-106830762D01*
X92424143Y-106878381D01*
X91805095Y-106735524D02*
X91852714Y-106830762D01*
X91947952Y-106878381D01*
X92138429Y-106878381D01*
X92233667Y-106830762D01*
X92281286Y-106735524D01*
X92281286Y-106211714D01*
X93186048Y-106354571D02*
X92852714Y-106354571D01*
X92852714Y-106878381D02*
X92852714Y-105878381D01*
X93328905Y-105878381D01*
X50800095Y-110069381D02*
X50800095Y-110878905D01*
X50847714Y-110974143D01*
X50895333Y-111021762D01*
X50990571Y-111069381D01*
X51181048Y-111069381D01*
X51276286Y-111021762D01*
X51323905Y-110974143D01*
X51371524Y-110878905D01*
X51371524Y-110069381D01*
X52371524Y-111069381D02*
X51800095Y-111069381D01*
X52085809Y-111069381D02*
X52085809Y-110069381D01*
X51990571Y-110212238D01*
X51895333Y-110307476D01*
X51800095Y-110355095D01*
X87122095Y-109307381D02*
X87122095Y-110116905D01*
X87169714Y-110212143D01*
X87217333Y-110259762D01*
X87312571Y-110307381D01*
X87503048Y-110307381D01*
X87598286Y-110259762D01*
X87645905Y-110212143D01*
X87693524Y-110116905D01*
X87693524Y-109307381D01*
X88122095Y-109402619D02*
X88169714Y-109355000D01*
X88264952Y-109307381D01*
X88503048Y-109307381D01*
X88598286Y-109355000D01*
X88645905Y-109402619D01*
X88693524Y-109497857D01*
X88693524Y-109593095D01*
X88645905Y-109735952D01*
X88074476Y-110307381D01*
X88693524Y-110307381D01*
D14*
X48314429Y-102089857D02*
X46790429Y-102089857D01*
X46790429Y-101509285D01*
X46863000Y-101364143D01*
X46935571Y-101291571D01*
X47080714Y-101219000D01*
X47298429Y-101219000D01*
X47443571Y-101291571D01*
X47516143Y-101364143D01*
X47588714Y-101509285D01*
X47588714Y-102089857D01*
X48314429Y-99767571D02*
X48314429Y-100638428D01*
X48314429Y-100203000D02*
X46790429Y-100203000D01*
X47008143Y-100348143D01*
X47153286Y-100493285D01*
X47225857Y-100638428D01*
%LPC*%
D18*
X107950000Y-112077500D03*
X179070000Y-112077500D03*
X179070000Y-80962500D03*
X107950000Y-80962500D03*
X43180000Y-112077500D03*
X232410000Y-112077500D03*
X232410000Y-80962500D03*
D19*
X44196000Y-94529000D03*
X44196000Y-90129000D03*
D20*
X77597000Y-106656000D03*
X77597000Y-103656000D03*
X78232000Y-89257000D03*
X78232000Y-86257000D03*
X91567000Y-100354000D03*
X91567000Y-103354000D03*
D21*
X52832000Y-99187000D03*
X52832000Y-94107000D03*
X52832000Y-86487000D03*
X73152000Y-86487000D03*
X73152000Y-96647000D03*
X73152000Y-106807000D03*
D22*
X86614000Y-102870000D03*
X86614000Y-105410000D03*
X86614000Y-100330000D03*
D23*
X136140000Y-105410000D03*
X133100000Y-105410000D03*
X133100000Y-102870000D03*
X136140000Y-102870000D03*
X136140000Y-100330000D03*
X133100000Y-100330000D03*
X133100000Y-97790000D03*
X136140000Y-97790000D03*
X136140000Y-95250000D03*
X133100000Y-95250000D03*
D24*
X133100000Y-87630000D03*
D23*
X136140000Y-87630000D03*
X133100000Y-90170000D03*
X136140000Y-90170000D03*
X133100000Y-92710000D03*
X136140000Y-92710000D03*
X118360000Y-105410000D03*
X115320000Y-105410000D03*
X115320000Y-102870000D03*
X118360000Y-102870000D03*
X118360000Y-100330000D03*
X115320000Y-100330000D03*
X115320000Y-97790000D03*
X118360000Y-97790000D03*
X118360000Y-95250000D03*
X115320000Y-95250000D03*
D24*
X115320000Y-87630000D03*
D23*
X118360000Y-87630000D03*
X115320000Y-90170000D03*
X118360000Y-90170000D03*
X115320000Y-92710000D03*
X118360000Y-92710000D03*
X153920000Y-105410000D03*
X150880000Y-105410000D03*
X150880000Y-102870000D03*
X153920000Y-102870000D03*
X153920000Y-100330000D03*
X150880000Y-100330000D03*
X150880000Y-97790000D03*
X153920000Y-97790000D03*
X153920000Y-95250000D03*
X150880000Y-95250000D03*
D24*
X150880000Y-87630000D03*
D23*
X153920000Y-87630000D03*
X150880000Y-90170000D03*
X153920000Y-90170000D03*
X150880000Y-92710000D03*
X153920000Y-92710000D03*
X171700000Y-105410000D03*
X168660000Y-105410000D03*
X168660000Y-102870000D03*
X171700000Y-102870000D03*
X171700000Y-100330000D03*
X168660000Y-100330000D03*
X168660000Y-97790000D03*
X171700000Y-97790000D03*
X171700000Y-95250000D03*
X168660000Y-95250000D03*
D24*
X168660000Y-87630000D03*
D23*
X171700000Y-87630000D03*
X168660000Y-90170000D03*
X171700000Y-90170000D03*
X168660000Y-92710000D03*
X171700000Y-92710000D03*
X189480000Y-105410000D03*
X186440000Y-105410000D03*
X186440000Y-102870000D03*
X189480000Y-102870000D03*
X189480000Y-100330000D03*
X186440000Y-100330000D03*
X186440000Y-97790000D03*
X189480000Y-97790000D03*
X189480000Y-95250000D03*
X186440000Y-95250000D03*
D24*
X186440000Y-87630000D03*
D23*
X189480000Y-87630000D03*
X186440000Y-90170000D03*
X189480000Y-90170000D03*
X186440000Y-92710000D03*
X189480000Y-92710000D03*
X225040000Y-105410000D03*
X222000000Y-105410000D03*
X222000000Y-102870000D03*
X225040000Y-102870000D03*
X225040000Y-100330000D03*
X222000000Y-100330000D03*
X222000000Y-97790000D03*
X225040000Y-97790000D03*
X225040000Y-95250000D03*
X222000000Y-95250000D03*
D24*
X222000000Y-87630000D03*
D23*
X225040000Y-87630000D03*
X222000000Y-90170000D03*
X225040000Y-90170000D03*
X222000000Y-92710000D03*
X225040000Y-92710000D03*
X207260000Y-105410000D03*
X204220000Y-105410000D03*
X204220000Y-102870000D03*
X207260000Y-102870000D03*
X207260000Y-100330000D03*
X204220000Y-100330000D03*
X204220000Y-97790000D03*
X207260000Y-97790000D03*
X207260000Y-95250000D03*
X204220000Y-95250000D03*
D24*
X204220000Y-87630000D03*
D23*
X207260000Y-87630000D03*
X204220000Y-90170000D03*
X207260000Y-90170000D03*
X204220000Y-92710000D03*
X207260000Y-92710000D03*
X100580000Y-105410000D03*
X97540000Y-105410000D03*
X97540000Y-102870000D03*
X100580000Y-102870000D03*
X100580000Y-100330000D03*
X97540000Y-100330000D03*
X97540000Y-97790000D03*
X100580000Y-97790000D03*
X100580000Y-95250000D03*
X97540000Y-95250000D03*
D24*
X97540000Y-87630000D03*
D23*
X100580000Y-87630000D03*
X97540000Y-90170000D03*
X100580000Y-90170000D03*
X97540000Y-92710000D03*
X100580000Y-92710000D03*
D18*
X43180000Y-80962500D03*
D25*
X44069000Y-99239000D03*
D26*
X44069000Y-103199000D03*
M02*
