G04 #@! TF.FileFunction,Copper,L2,Bot,Signal*
%FSLAX46Y46*%
G04 Gerber Fmt 4.6, Leading zero omitted, Abs format (unit mm)*
G04 Created by KiCad (PCBNEW 4.0.2-stable) date 2018-05-22 5:26:57 PM*
%MOMM*%
G01*
G04 APERTURE LIST*
%ADD10C,0.200000*%
%ADD11C,3.302000*%
%ADD12C,2.540000*%
%ADD13C,1.400000*%
%ADD14O,2.000000X1.500000*%
%ADD15R,2.000000X1.500000*%
%ADD16O,3.500000X2.500000*%
%ADD17R,3.500000X2.500000*%
%ADD18C,0.600000*%
%ADD19C,2.500000*%
%ADD20C,1.500000*%
%ADD21C,0.250000*%
%ADD22C,0.254000*%
G04 APERTURE END LIST*
D10*
D11*
X107950000Y-112077500D03*
X179070000Y-112077500D03*
X179070000Y-80962500D03*
X107950000Y-80962500D03*
X43180000Y-112077500D03*
X232410000Y-112077500D03*
X232410000Y-80962500D03*
D12*
X52832000Y-99187000D03*
X52832000Y-94107000D03*
X52832000Y-86487000D03*
X73152000Y-86487000D03*
X73152000Y-96647000D03*
X73152000Y-106807000D03*
D13*
X86614000Y-102870000D03*
X86614000Y-105410000D03*
X86614000Y-100330000D03*
D14*
X136140000Y-105410000D03*
X133100000Y-105410000D03*
X133100000Y-102870000D03*
X136140000Y-102870000D03*
X136140000Y-100330000D03*
X133100000Y-100330000D03*
X133100000Y-97790000D03*
X136140000Y-97790000D03*
X136140000Y-95250000D03*
X133100000Y-95250000D03*
D15*
X133100000Y-87630000D03*
D14*
X136140000Y-87630000D03*
X133100000Y-90170000D03*
X136140000Y-90170000D03*
X133100000Y-92710000D03*
X136140000Y-92710000D03*
X118360000Y-105410000D03*
X115320000Y-105410000D03*
X115320000Y-102870000D03*
X118360000Y-102870000D03*
X118360000Y-100330000D03*
X115320000Y-100330000D03*
X115320000Y-97790000D03*
X118360000Y-97790000D03*
X118360000Y-95250000D03*
X115320000Y-95250000D03*
D15*
X115320000Y-87630000D03*
D14*
X118360000Y-87630000D03*
X115320000Y-90170000D03*
X118360000Y-90170000D03*
X115320000Y-92710000D03*
X118360000Y-92710000D03*
X153920000Y-105410000D03*
X150880000Y-105410000D03*
X150880000Y-102870000D03*
X153920000Y-102870000D03*
X153920000Y-100330000D03*
X150880000Y-100330000D03*
X150880000Y-97790000D03*
X153920000Y-97790000D03*
X153920000Y-95250000D03*
X150880000Y-95250000D03*
D15*
X150880000Y-87630000D03*
D14*
X153920000Y-87630000D03*
X150880000Y-90170000D03*
X153920000Y-90170000D03*
X150880000Y-92710000D03*
X153920000Y-92710000D03*
X171700000Y-105410000D03*
X168660000Y-105410000D03*
X168660000Y-102870000D03*
X171700000Y-102870000D03*
X171700000Y-100330000D03*
X168660000Y-100330000D03*
X168660000Y-97790000D03*
X171700000Y-97790000D03*
X171700000Y-95250000D03*
X168660000Y-95250000D03*
D15*
X168660000Y-87630000D03*
D14*
X171700000Y-87630000D03*
X168660000Y-90170000D03*
X171700000Y-90170000D03*
X168660000Y-92710000D03*
X171700000Y-92710000D03*
X189480000Y-105410000D03*
X186440000Y-105410000D03*
X186440000Y-102870000D03*
X189480000Y-102870000D03*
X189480000Y-100330000D03*
X186440000Y-100330000D03*
X186440000Y-97790000D03*
X189480000Y-97790000D03*
X189480000Y-95250000D03*
X186440000Y-95250000D03*
D15*
X186440000Y-87630000D03*
D14*
X189480000Y-87630000D03*
X186440000Y-90170000D03*
X189480000Y-90170000D03*
X186440000Y-92710000D03*
X189480000Y-92710000D03*
X225040000Y-105410000D03*
X222000000Y-105410000D03*
X222000000Y-102870000D03*
X225040000Y-102870000D03*
X225040000Y-100330000D03*
X222000000Y-100330000D03*
X222000000Y-97790000D03*
X225040000Y-97790000D03*
X225040000Y-95250000D03*
X222000000Y-95250000D03*
D15*
X222000000Y-87630000D03*
D14*
X225040000Y-87630000D03*
X222000000Y-90170000D03*
X225040000Y-90170000D03*
X222000000Y-92710000D03*
X225040000Y-92710000D03*
X207260000Y-105410000D03*
X204220000Y-105410000D03*
X204220000Y-102870000D03*
X207260000Y-102870000D03*
X207260000Y-100330000D03*
X204220000Y-100330000D03*
X204220000Y-97790000D03*
X207260000Y-97790000D03*
X207260000Y-95250000D03*
X204220000Y-95250000D03*
D15*
X204220000Y-87630000D03*
D14*
X207260000Y-87630000D03*
X204220000Y-90170000D03*
X207260000Y-90170000D03*
X204220000Y-92710000D03*
X207260000Y-92710000D03*
X100580000Y-105410000D03*
X97540000Y-105410000D03*
X97540000Y-102870000D03*
X100580000Y-102870000D03*
X100580000Y-100330000D03*
X97540000Y-100330000D03*
X97540000Y-97790000D03*
X100580000Y-97790000D03*
X100580000Y-95250000D03*
X97540000Y-95250000D03*
D15*
X97540000Y-87630000D03*
D14*
X100580000Y-87630000D03*
X97540000Y-90170000D03*
X100580000Y-90170000D03*
X97540000Y-92710000D03*
X100580000Y-92710000D03*
D11*
X43180000Y-80962500D03*
D16*
X44069000Y-99239000D03*
D17*
X44069000Y-103199000D03*
D18*
X54000000Y-104250000D03*
X54000000Y-103000000D03*
X54000000Y-101750000D03*
X52500000Y-101750000D03*
X52500000Y-103000000D03*
X52500000Y-104250000D03*
X51000000Y-104250000D03*
X51000000Y-103000000D03*
X51000000Y-101750000D03*
X49500000Y-101750000D03*
X49500000Y-103000000D03*
X49500000Y-104250000D03*
X48000000Y-104250000D03*
X48000000Y-103000000D03*
X48000000Y-101750000D03*
X226750000Y-104250000D03*
X226750000Y-102000000D03*
X220250000Y-102000000D03*
X208750000Y-102000000D03*
X202500000Y-102000000D03*
X191250000Y-102000000D03*
X184750000Y-102000000D03*
X173250000Y-102000000D03*
X167000000Y-102000000D03*
X155500000Y-102000000D03*
X149250000Y-102000000D03*
X137750000Y-102000000D03*
X131500000Y-102000000D03*
X119750000Y-102000000D03*
X113750000Y-102000000D03*
X102250000Y-102000000D03*
X220250000Y-104250000D03*
X208750000Y-104250000D03*
X202500000Y-104250000D03*
X191250000Y-104250000D03*
X184750000Y-104250000D03*
X173250000Y-104250000D03*
X167000000Y-104250000D03*
X155500000Y-104250000D03*
X149250000Y-104250000D03*
X137750000Y-104250000D03*
X131500000Y-104250000D03*
X119750000Y-104250000D03*
X113750000Y-104250000D03*
X102000000Y-104250000D03*
X96000000Y-104250000D03*
X77600000Y-101000000D03*
X77600000Y-101700000D03*
X77600000Y-102400000D03*
X93900000Y-103350000D03*
X93150000Y-103350000D03*
X46050000Y-88575000D03*
X46050000Y-89275000D03*
X46050000Y-90125000D03*
X81500000Y-89250000D03*
X80750000Y-89250000D03*
X80000000Y-89250000D03*
D19*
X44069000Y-99239000D02*
X52780000Y-99239000D01*
D20*
X52780000Y-99239000D02*
X52832000Y-99187000D01*
D21*
X54000000Y-103000000D02*
X54000000Y-104250000D01*
X52500000Y-101750000D02*
X54000000Y-101750000D01*
X52500000Y-104250000D02*
X52500000Y-103000000D01*
X51000000Y-103000000D02*
X51000000Y-104250000D01*
X49500000Y-101750000D02*
X51000000Y-101750000D01*
X49500000Y-104250000D02*
X49500000Y-103000000D01*
X48000000Y-103000000D02*
X48000000Y-104250000D01*
X46120000Y-103250000D02*
X46500000Y-103250000D01*
X46500000Y-103250000D02*
X48000000Y-101750000D01*
X44069000Y-103199000D02*
X46069000Y-103199000D01*
X46069000Y-103199000D02*
X46120000Y-103250000D01*
X226750000Y-102000000D02*
X226750000Y-104250000D01*
X208750000Y-102000000D02*
X220250000Y-102000000D01*
X191250000Y-102000000D02*
X202500000Y-102000000D01*
X173250000Y-102000000D02*
X184750000Y-102000000D01*
X155500000Y-102000000D02*
X167000000Y-102000000D01*
X137750000Y-102000000D02*
X149250000Y-102000000D01*
X119750000Y-102000000D02*
X131500000Y-102000000D01*
X102250000Y-102000000D02*
X113750000Y-102000000D01*
X208750000Y-104250000D02*
X220250000Y-104250000D01*
X191250000Y-104250000D02*
X202500000Y-104250000D01*
X173250000Y-104250000D02*
X184750000Y-104250000D01*
X155500000Y-104250000D02*
X167000000Y-104250000D01*
X137750000Y-104250000D02*
X149250000Y-104250000D01*
X119750000Y-104250000D02*
X131500000Y-104250000D01*
X102000000Y-104250000D02*
X113750000Y-104250000D01*
X93900000Y-103350000D02*
X95100000Y-103350000D01*
X95100000Y-103350000D02*
X96000000Y-104250000D01*
D22*
G36*
X51180714Y-86813963D02*
X51431534Y-87420995D01*
X51895563Y-87885834D01*
X52502155Y-88137713D01*
X53158963Y-88138286D01*
X53765995Y-87887466D01*
X54230834Y-87423437D01*
X54482713Y-86816845D01*
X54482879Y-86627000D01*
X71500877Y-86627000D01*
X71500714Y-86813963D01*
X71751534Y-87420995D01*
X72215563Y-87885834D01*
X72822155Y-88137713D01*
X73478963Y-88138286D01*
X74085995Y-87887466D01*
X74550834Y-87423437D01*
X74802713Y-86816845D01*
X74802879Y-86627000D01*
X96251743Y-86627000D01*
X96182141Y-86728866D01*
X96151536Y-86880000D01*
X96151536Y-88380000D01*
X96178103Y-88521190D01*
X96261546Y-88650865D01*
X96388866Y-88737859D01*
X96540000Y-88768464D01*
X98540000Y-88768464D01*
X98681190Y-88741897D01*
X98810865Y-88658454D01*
X98897859Y-88531134D01*
X98928464Y-88380000D01*
X98928464Y-86880000D01*
X98901897Y-86738810D01*
X98829950Y-86627000D01*
X99807410Y-86627000D01*
X99503207Y-86830262D01*
X99258037Y-87197185D01*
X99171945Y-87630000D01*
X99258037Y-88062815D01*
X99503207Y-88429738D01*
X99870130Y-88674908D01*
X100302945Y-88761000D01*
X100857055Y-88761000D01*
X101289870Y-88674908D01*
X101656793Y-88429738D01*
X101901963Y-88062815D01*
X101988055Y-87630000D01*
X101901963Y-87197185D01*
X101656793Y-86830262D01*
X101352590Y-86627000D01*
X114031743Y-86627000D01*
X113962141Y-86728866D01*
X113931536Y-86880000D01*
X113931536Y-88380000D01*
X113958103Y-88521190D01*
X114041546Y-88650865D01*
X114168866Y-88737859D01*
X114320000Y-88768464D01*
X116320000Y-88768464D01*
X116461190Y-88741897D01*
X116590865Y-88658454D01*
X116677859Y-88531134D01*
X116708464Y-88380000D01*
X116708464Y-86880000D01*
X116681897Y-86738810D01*
X116609950Y-86627000D01*
X117587410Y-86627000D01*
X117283207Y-86830262D01*
X117038037Y-87197185D01*
X116951945Y-87630000D01*
X117038037Y-88062815D01*
X117283207Y-88429738D01*
X117650130Y-88674908D01*
X118082945Y-88761000D01*
X118637055Y-88761000D01*
X119069870Y-88674908D01*
X119436793Y-88429738D01*
X119681963Y-88062815D01*
X119768055Y-87630000D01*
X119681963Y-87197185D01*
X119436793Y-86830262D01*
X119132590Y-86627000D01*
X131811743Y-86627000D01*
X131742141Y-86728866D01*
X131711536Y-86880000D01*
X131711536Y-88380000D01*
X131738103Y-88521190D01*
X131821546Y-88650865D01*
X131948866Y-88737859D01*
X132100000Y-88768464D01*
X134100000Y-88768464D01*
X134241190Y-88741897D01*
X134370865Y-88658454D01*
X134457859Y-88531134D01*
X134488464Y-88380000D01*
X134488464Y-86880000D01*
X134461897Y-86738810D01*
X134389950Y-86627000D01*
X135367410Y-86627000D01*
X135063207Y-86830262D01*
X134818037Y-87197185D01*
X134731945Y-87630000D01*
X134818037Y-88062815D01*
X135063207Y-88429738D01*
X135430130Y-88674908D01*
X135862945Y-88761000D01*
X136417055Y-88761000D01*
X136849870Y-88674908D01*
X137216793Y-88429738D01*
X137461963Y-88062815D01*
X137548055Y-87630000D01*
X137461963Y-87197185D01*
X137216793Y-86830262D01*
X136912590Y-86627000D01*
X149591743Y-86627000D01*
X149522141Y-86728866D01*
X149491536Y-86880000D01*
X149491536Y-88380000D01*
X149518103Y-88521190D01*
X149601546Y-88650865D01*
X149728866Y-88737859D01*
X149880000Y-88768464D01*
X151880000Y-88768464D01*
X152021190Y-88741897D01*
X152150865Y-88658454D01*
X152237859Y-88531134D01*
X152268464Y-88380000D01*
X152268464Y-86880000D01*
X152241897Y-86738810D01*
X152169950Y-86627000D01*
X153147410Y-86627000D01*
X152843207Y-86830262D01*
X152598037Y-87197185D01*
X152511945Y-87630000D01*
X152598037Y-88062815D01*
X152843207Y-88429738D01*
X153210130Y-88674908D01*
X153642945Y-88761000D01*
X154197055Y-88761000D01*
X154629870Y-88674908D01*
X154996793Y-88429738D01*
X155241963Y-88062815D01*
X155328055Y-87630000D01*
X155241963Y-87197185D01*
X154996793Y-86830262D01*
X154692590Y-86627000D01*
X167371743Y-86627000D01*
X167302141Y-86728866D01*
X167271536Y-86880000D01*
X167271536Y-88380000D01*
X167298103Y-88521190D01*
X167381546Y-88650865D01*
X167508866Y-88737859D01*
X167660000Y-88768464D01*
X169660000Y-88768464D01*
X169801190Y-88741897D01*
X169930865Y-88658454D01*
X170017859Y-88531134D01*
X170048464Y-88380000D01*
X170048464Y-86880000D01*
X170021897Y-86738810D01*
X169949950Y-86627000D01*
X170927410Y-86627000D01*
X170623207Y-86830262D01*
X170378037Y-87197185D01*
X170291945Y-87630000D01*
X170378037Y-88062815D01*
X170623207Y-88429738D01*
X170990130Y-88674908D01*
X171422945Y-88761000D01*
X171977055Y-88761000D01*
X172409870Y-88674908D01*
X172776793Y-88429738D01*
X173021963Y-88062815D01*
X173108055Y-87630000D01*
X173021963Y-87197185D01*
X172776793Y-86830262D01*
X172472590Y-86627000D01*
X185151743Y-86627000D01*
X185082141Y-86728866D01*
X185051536Y-86880000D01*
X185051536Y-88380000D01*
X185078103Y-88521190D01*
X185161546Y-88650865D01*
X185288866Y-88737859D01*
X185440000Y-88768464D01*
X187440000Y-88768464D01*
X187581190Y-88741897D01*
X187710865Y-88658454D01*
X187797859Y-88531134D01*
X187828464Y-88380000D01*
X187828464Y-86880000D01*
X187801897Y-86738810D01*
X187729950Y-86627000D01*
X188707410Y-86627000D01*
X188403207Y-86830262D01*
X188158037Y-87197185D01*
X188071945Y-87630000D01*
X188158037Y-88062815D01*
X188403207Y-88429738D01*
X188770130Y-88674908D01*
X189202945Y-88761000D01*
X189757055Y-88761000D01*
X190189870Y-88674908D01*
X190556793Y-88429738D01*
X190801963Y-88062815D01*
X190888055Y-87630000D01*
X190801963Y-87197185D01*
X190556793Y-86830262D01*
X190252590Y-86627000D01*
X202931743Y-86627000D01*
X202862141Y-86728866D01*
X202831536Y-86880000D01*
X202831536Y-88380000D01*
X202858103Y-88521190D01*
X202941546Y-88650865D01*
X203068866Y-88737859D01*
X203220000Y-88768464D01*
X205220000Y-88768464D01*
X205361190Y-88741897D01*
X205490865Y-88658454D01*
X205577859Y-88531134D01*
X205608464Y-88380000D01*
X205608464Y-86880000D01*
X205581897Y-86738810D01*
X205509950Y-86627000D01*
X206487410Y-86627000D01*
X206183207Y-86830262D01*
X205938037Y-87197185D01*
X205851945Y-87630000D01*
X205938037Y-88062815D01*
X206183207Y-88429738D01*
X206550130Y-88674908D01*
X206982945Y-88761000D01*
X207537055Y-88761000D01*
X207969870Y-88674908D01*
X208336793Y-88429738D01*
X208581963Y-88062815D01*
X208668055Y-87630000D01*
X208581963Y-87197185D01*
X208336793Y-86830262D01*
X208032590Y-86627000D01*
X220711743Y-86627000D01*
X220642141Y-86728866D01*
X220611536Y-86880000D01*
X220611536Y-88380000D01*
X220638103Y-88521190D01*
X220721546Y-88650865D01*
X220848866Y-88737859D01*
X221000000Y-88768464D01*
X223000000Y-88768464D01*
X223141190Y-88741897D01*
X223270865Y-88658454D01*
X223357859Y-88531134D01*
X223388464Y-88380000D01*
X223388464Y-86880000D01*
X223361897Y-86738810D01*
X223289950Y-86627000D01*
X224267410Y-86627000D01*
X223963207Y-86830262D01*
X223718037Y-87197185D01*
X223631945Y-87630000D01*
X223718037Y-88062815D01*
X223963207Y-88429738D01*
X224330130Y-88674908D01*
X224762945Y-88761000D01*
X225317055Y-88761000D01*
X225749870Y-88674908D01*
X226116793Y-88429738D01*
X226361963Y-88062815D01*
X226448055Y-87630000D01*
X226361963Y-87197185D01*
X226116793Y-86830262D01*
X225812590Y-86627000D01*
X237034000Y-86627000D01*
X237034000Y-105773000D01*
X226375850Y-105773000D01*
X226448055Y-105410000D01*
X226361963Y-104977185D01*
X226116793Y-104610262D01*
X225749870Y-104365092D01*
X225317055Y-104279000D01*
X224762945Y-104279000D01*
X224330130Y-104365092D01*
X223963207Y-104610262D01*
X223718037Y-104977185D01*
X223631945Y-105410000D01*
X223704150Y-105773000D01*
X223335850Y-105773000D01*
X223408055Y-105410000D01*
X223321963Y-104977185D01*
X223076793Y-104610262D01*
X222709870Y-104365092D01*
X222277055Y-104279000D01*
X221722945Y-104279000D01*
X221290130Y-104365092D01*
X220923207Y-104610262D01*
X220678037Y-104977185D01*
X220591945Y-105410000D01*
X220664150Y-105773000D01*
X208595850Y-105773000D01*
X208668055Y-105410000D01*
X208581963Y-104977185D01*
X208336793Y-104610262D01*
X207969870Y-104365092D01*
X207537055Y-104279000D01*
X206982945Y-104279000D01*
X206550130Y-104365092D01*
X206183207Y-104610262D01*
X205938037Y-104977185D01*
X205851945Y-105410000D01*
X205924150Y-105773000D01*
X205555850Y-105773000D01*
X205628055Y-105410000D01*
X205541963Y-104977185D01*
X205296793Y-104610262D01*
X204929870Y-104365092D01*
X204497055Y-104279000D01*
X203942945Y-104279000D01*
X203510130Y-104365092D01*
X203143207Y-104610262D01*
X202898037Y-104977185D01*
X202811945Y-105410000D01*
X202884150Y-105773000D01*
X190815850Y-105773000D01*
X190888055Y-105410000D01*
X190801963Y-104977185D01*
X190556793Y-104610262D01*
X190189870Y-104365092D01*
X189757055Y-104279000D01*
X189202945Y-104279000D01*
X188770130Y-104365092D01*
X188403207Y-104610262D01*
X188158037Y-104977185D01*
X188071945Y-105410000D01*
X188144150Y-105773000D01*
X187775850Y-105773000D01*
X187848055Y-105410000D01*
X187761963Y-104977185D01*
X187516793Y-104610262D01*
X187149870Y-104365092D01*
X186717055Y-104279000D01*
X186162945Y-104279000D01*
X185730130Y-104365092D01*
X185363207Y-104610262D01*
X185118037Y-104977185D01*
X185031945Y-105410000D01*
X185104150Y-105773000D01*
X173035850Y-105773000D01*
X173108055Y-105410000D01*
X173021963Y-104977185D01*
X172776793Y-104610262D01*
X172409870Y-104365092D01*
X171977055Y-104279000D01*
X171422945Y-104279000D01*
X170990130Y-104365092D01*
X170623207Y-104610262D01*
X170378037Y-104977185D01*
X170291945Y-105410000D01*
X170364150Y-105773000D01*
X169995850Y-105773000D01*
X170068055Y-105410000D01*
X169981963Y-104977185D01*
X169736793Y-104610262D01*
X169369870Y-104365092D01*
X168937055Y-104279000D01*
X168382945Y-104279000D01*
X167950130Y-104365092D01*
X167583207Y-104610262D01*
X167338037Y-104977185D01*
X167251945Y-105410000D01*
X167324150Y-105773000D01*
X155255850Y-105773000D01*
X155328055Y-105410000D01*
X155241963Y-104977185D01*
X154996793Y-104610262D01*
X154629870Y-104365092D01*
X154197055Y-104279000D01*
X153642945Y-104279000D01*
X153210130Y-104365092D01*
X152843207Y-104610262D01*
X152598037Y-104977185D01*
X152511945Y-105410000D01*
X152584150Y-105773000D01*
X152215850Y-105773000D01*
X152288055Y-105410000D01*
X152201963Y-104977185D01*
X151956793Y-104610262D01*
X151589870Y-104365092D01*
X151157055Y-104279000D01*
X150602945Y-104279000D01*
X150170130Y-104365092D01*
X149803207Y-104610262D01*
X149558037Y-104977185D01*
X149471945Y-105410000D01*
X149544150Y-105773000D01*
X137475850Y-105773000D01*
X137548055Y-105410000D01*
X137461963Y-104977185D01*
X137216793Y-104610262D01*
X136849870Y-104365092D01*
X136417055Y-104279000D01*
X135862945Y-104279000D01*
X135430130Y-104365092D01*
X135063207Y-104610262D01*
X134818037Y-104977185D01*
X134731945Y-105410000D01*
X134804150Y-105773000D01*
X134435850Y-105773000D01*
X134508055Y-105410000D01*
X134421963Y-104977185D01*
X134176793Y-104610262D01*
X133809870Y-104365092D01*
X133377055Y-104279000D01*
X132822945Y-104279000D01*
X132390130Y-104365092D01*
X132023207Y-104610262D01*
X131778037Y-104977185D01*
X131691945Y-105410000D01*
X131764150Y-105773000D01*
X119695850Y-105773000D01*
X119768055Y-105410000D01*
X119681963Y-104977185D01*
X119436793Y-104610262D01*
X119069870Y-104365092D01*
X118637055Y-104279000D01*
X118082945Y-104279000D01*
X117650130Y-104365092D01*
X117283207Y-104610262D01*
X117038037Y-104977185D01*
X116951945Y-105410000D01*
X117024150Y-105773000D01*
X116655850Y-105773000D01*
X116728055Y-105410000D01*
X116641963Y-104977185D01*
X116396793Y-104610262D01*
X116029870Y-104365092D01*
X115597055Y-104279000D01*
X115042945Y-104279000D01*
X114610130Y-104365092D01*
X114243207Y-104610262D01*
X113998037Y-104977185D01*
X113911945Y-105410000D01*
X113984150Y-105773000D01*
X101915850Y-105773000D01*
X101988055Y-105410000D01*
X101901963Y-104977185D01*
X101656793Y-104610262D01*
X101289870Y-104365092D01*
X100857055Y-104279000D01*
X100302945Y-104279000D01*
X99870130Y-104365092D01*
X99503207Y-104610262D01*
X99258037Y-104977185D01*
X99171945Y-105410000D01*
X99244150Y-105773000D01*
X98875850Y-105773000D01*
X98948055Y-105410000D01*
X98861963Y-104977185D01*
X98616793Y-104610262D01*
X98249870Y-104365092D01*
X97817055Y-104279000D01*
X97262945Y-104279000D01*
X96830130Y-104365092D01*
X96463207Y-104610262D01*
X96218037Y-104977185D01*
X96131945Y-105410000D01*
X96204150Y-105773000D01*
X87633759Y-105773000D01*
X87694812Y-105625968D01*
X87695187Y-105195919D01*
X87530962Y-104798463D01*
X87227137Y-104494107D01*
X86829968Y-104329188D01*
X86399919Y-104328813D01*
X86002463Y-104493038D01*
X85698107Y-104796863D01*
X85533188Y-105194032D01*
X85532813Y-105624081D01*
X85594345Y-105773000D01*
X74452635Y-105773000D01*
X74088437Y-105408166D01*
X73481845Y-105156287D01*
X72825037Y-105155714D01*
X72218005Y-105406534D01*
X71850899Y-105773000D01*
X38556000Y-105773000D01*
X38556000Y-103484750D01*
X41684000Y-103484750D01*
X41684000Y-104575309D01*
X41780673Y-104808698D01*
X41959301Y-104987327D01*
X42192690Y-105084000D01*
X43783250Y-105084000D01*
X43942000Y-104925250D01*
X43942000Y-103326000D01*
X44196000Y-103326000D01*
X44196000Y-104925250D01*
X44354750Y-105084000D01*
X45945310Y-105084000D01*
X46178699Y-104987327D01*
X46357327Y-104808698D01*
X46454000Y-104575309D01*
X46454000Y-103805275D01*
X85858331Y-103805275D01*
X85920169Y-104041042D01*
X86421122Y-104217419D01*
X86951440Y-104188664D01*
X87307831Y-104041042D01*
X87369669Y-103805275D01*
X86614000Y-103049605D01*
X85858331Y-103805275D01*
X46454000Y-103805275D01*
X46454000Y-103484750D01*
X46295250Y-103326000D01*
X44196000Y-103326000D01*
X43942000Y-103326000D01*
X41842750Y-103326000D01*
X41684000Y-103484750D01*
X38556000Y-103484750D01*
X38556000Y-101822691D01*
X41684000Y-101822691D01*
X41684000Y-102913250D01*
X41842750Y-103072000D01*
X43942000Y-103072000D01*
X43942000Y-101472750D01*
X44196000Y-101472750D01*
X44196000Y-103072000D01*
X46295250Y-103072000D01*
X46454000Y-102913250D01*
X46454000Y-102677122D01*
X85266581Y-102677122D01*
X85295336Y-103207440D01*
X85442958Y-103563831D01*
X85678725Y-103625669D01*
X86434395Y-102870000D01*
X86793605Y-102870000D01*
X87549275Y-103625669D01*
X87785042Y-103563831D01*
X87961419Y-103062878D01*
X87950961Y-102870000D01*
X96131945Y-102870000D01*
X96218037Y-103302815D01*
X96463207Y-103669738D01*
X96830130Y-103914908D01*
X97262945Y-104001000D01*
X97817055Y-104001000D01*
X98249870Y-103914908D01*
X98616793Y-103669738D01*
X98861963Y-103302815D01*
X98948055Y-102870000D01*
X99171945Y-102870000D01*
X99258037Y-103302815D01*
X99503207Y-103669738D01*
X99870130Y-103914908D01*
X100302945Y-104001000D01*
X100857055Y-104001000D01*
X101289870Y-103914908D01*
X101656793Y-103669738D01*
X101901963Y-103302815D01*
X101988055Y-102870000D01*
X113911945Y-102870000D01*
X113998037Y-103302815D01*
X114243207Y-103669738D01*
X114610130Y-103914908D01*
X115042945Y-104001000D01*
X115597055Y-104001000D01*
X116029870Y-103914908D01*
X116396793Y-103669738D01*
X116641963Y-103302815D01*
X116728055Y-102870000D01*
X116951945Y-102870000D01*
X117038037Y-103302815D01*
X117283207Y-103669738D01*
X117650130Y-103914908D01*
X118082945Y-104001000D01*
X118637055Y-104001000D01*
X119069870Y-103914908D01*
X119436793Y-103669738D01*
X119681963Y-103302815D01*
X119768055Y-102870000D01*
X131691945Y-102870000D01*
X131778037Y-103302815D01*
X132023207Y-103669738D01*
X132390130Y-103914908D01*
X132822945Y-104001000D01*
X133377055Y-104001000D01*
X133809870Y-103914908D01*
X134176793Y-103669738D01*
X134421963Y-103302815D01*
X134508055Y-102870000D01*
X134731945Y-102870000D01*
X134818037Y-103302815D01*
X135063207Y-103669738D01*
X135430130Y-103914908D01*
X135862945Y-104001000D01*
X136417055Y-104001000D01*
X136849870Y-103914908D01*
X137216793Y-103669738D01*
X137461963Y-103302815D01*
X137548055Y-102870000D01*
X149471945Y-102870000D01*
X149558037Y-103302815D01*
X149803207Y-103669738D01*
X150170130Y-103914908D01*
X150602945Y-104001000D01*
X151157055Y-104001000D01*
X151589870Y-103914908D01*
X151956793Y-103669738D01*
X152201963Y-103302815D01*
X152288055Y-102870000D01*
X152511945Y-102870000D01*
X152598037Y-103302815D01*
X152843207Y-103669738D01*
X153210130Y-103914908D01*
X153642945Y-104001000D01*
X154197055Y-104001000D01*
X154629870Y-103914908D01*
X154996793Y-103669738D01*
X155241963Y-103302815D01*
X155328055Y-102870000D01*
X167251945Y-102870000D01*
X167338037Y-103302815D01*
X167583207Y-103669738D01*
X167950130Y-103914908D01*
X168382945Y-104001000D01*
X168937055Y-104001000D01*
X169369870Y-103914908D01*
X169736793Y-103669738D01*
X169981963Y-103302815D01*
X170068055Y-102870000D01*
X170291945Y-102870000D01*
X170378037Y-103302815D01*
X170623207Y-103669738D01*
X170990130Y-103914908D01*
X171422945Y-104001000D01*
X171977055Y-104001000D01*
X172409870Y-103914908D01*
X172776793Y-103669738D01*
X173021963Y-103302815D01*
X173108055Y-102870000D01*
X185031945Y-102870000D01*
X185118037Y-103302815D01*
X185363207Y-103669738D01*
X185730130Y-103914908D01*
X186162945Y-104001000D01*
X186717055Y-104001000D01*
X187149870Y-103914908D01*
X187516793Y-103669738D01*
X187761963Y-103302815D01*
X187848055Y-102870000D01*
X188071945Y-102870000D01*
X188158037Y-103302815D01*
X188403207Y-103669738D01*
X188770130Y-103914908D01*
X189202945Y-104001000D01*
X189757055Y-104001000D01*
X190189870Y-103914908D01*
X190556793Y-103669738D01*
X190801963Y-103302815D01*
X190888055Y-102870000D01*
X202811945Y-102870000D01*
X202898037Y-103302815D01*
X203143207Y-103669738D01*
X203510130Y-103914908D01*
X203942945Y-104001000D01*
X204497055Y-104001000D01*
X204929870Y-103914908D01*
X205296793Y-103669738D01*
X205541963Y-103302815D01*
X205628055Y-102870000D01*
X205851945Y-102870000D01*
X205938037Y-103302815D01*
X206183207Y-103669738D01*
X206550130Y-103914908D01*
X206982945Y-104001000D01*
X207537055Y-104001000D01*
X207969870Y-103914908D01*
X208336793Y-103669738D01*
X208581963Y-103302815D01*
X208668055Y-102870000D01*
X220591945Y-102870000D01*
X220678037Y-103302815D01*
X220923207Y-103669738D01*
X221290130Y-103914908D01*
X221722945Y-104001000D01*
X222277055Y-104001000D01*
X222709870Y-103914908D01*
X223076793Y-103669738D01*
X223321963Y-103302815D01*
X223408055Y-102870000D01*
X223631945Y-102870000D01*
X223718037Y-103302815D01*
X223963207Y-103669738D01*
X224330130Y-103914908D01*
X224762945Y-104001000D01*
X225317055Y-104001000D01*
X225749870Y-103914908D01*
X226116793Y-103669738D01*
X226361963Y-103302815D01*
X226448055Y-102870000D01*
X226361963Y-102437185D01*
X226116793Y-102070262D01*
X225749870Y-101825092D01*
X225317055Y-101739000D01*
X224762945Y-101739000D01*
X224330130Y-101825092D01*
X223963207Y-102070262D01*
X223718037Y-102437185D01*
X223631945Y-102870000D01*
X223408055Y-102870000D01*
X223321963Y-102437185D01*
X223076793Y-102070262D01*
X222709870Y-101825092D01*
X222277055Y-101739000D01*
X221722945Y-101739000D01*
X221290130Y-101825092D01*
X220923207Y-102070262D01*
X220678037Y-102437185D01*
X220591945Y-102870000D01*
X208668055Y-102870000D01*
X208581963Y-102437185D01*
X208336793Y-102070262D01*
X207969870Y-101825092D01*
X207537055Y-101739000D01*
X206982945Y-101739000D01*
X206550130Y-101825092D01*
X206183207Y-102070262D01*
X205938037Y-102437185D01*
X205851945Y-102870000D01*
X205628055Y-102870000D01*
X205541963Y-102437185D01*
X205296793Y-102070262D01*
X204929870Y-101825092D01*
X204497055Y-101739000D01*
X203942945Y-101739000D01*
X203510130Y-101825092D01*
X203143207Y-102070262D01*
X202898037Y-102437185D01*
X202811945Y-102870000D01*
X190888055Y-102870000D01*
X190801963Y-102437185D01*
X190556793Y-102070262D01*
X190189870Y-101825092D01*
X189757055Y-101739000D01*
X189202945Y-101739000D01*
X188770130Y-101825092D01*
X188403207Y-102070262D01*
X188158037Y-102437185D01*
X188071945Y-102870000D01*
X187848055Y-102870000D01*
X187761963Y-102437185D01*
X187516793Y-102070262D01*
X187149870Y-101825092D01*
X186717055Y-101739000D01*
X186162945Y-101739000D01*
X185730130Y-101825092D01*
X185363207Y-102070262D01*
X185118037Y-102437185D01*
X185031945Y-102870000D01*
X173108055Y-102870000D01*
X173021963Y-102437185D01*
X172776793Y-102070262D01*
X172409870Y-101825092D01*
X171977055Y-101739000D01*
X171422945Y-101739000D01*
X170990130Y-101825092D01*
X170623207Y-102070262D01*
X170378037Y-102437185D01*
X170291945Y-102870000D01*
X170068055Y-102870000D01*
X169981963Y-102437185D01*
X169736793Y-102070262D01*
X169369870Y-101825092D01*
X168937055Y-101739000D01*
X168382945Y-101739000D01*
X167950130Y-101825092D01*
X167583207Y-102070262D01*
X167338037Y-102437185D01*
X167251945Y-102870000D01*
X155328055Y-102870000D01*
X155241963Y-102437185D01*
X154996793Y-102070262D01*
X154629870Y-101825092D01*
X154197055Y-101739000D01*
X153642945Y-101739000D01*
X153210130Y-101825092D01*
X152843207Y-102070262D01*
X152598037Y-102437185D01*
X152511945Y-102870000D01*
X152288055Y-102870000D01*
X152201963Y-102437185D01*
X151956793Y-102070262D01*
X151589870Y-101825092D01*
X151157055Y-101739000D01*
X150602945Y-101739000D01*
X150170130Y-101825092D01*
X149803207Y-102070262D01*
X149558037Y-102437185D01*
X149471945Y-102870000D01*
X137548055Y-102870000D01*
X137461963Y-102437185D01*
X137216793Y-102070262D01*
X136849870Y-101825092D01*
X136417055Y-101739000D01*
X135862945Y-101739000D01*
X135430130Y-101825092D01*
X135063207Y-102070262D01*
X134818037Y-102437185D01*
X134731945Y-102870000D01*
X134508055Y-102870000D01*
X134421963Y-102437185D01*
X134176793Y-102070262D01*
X133809870Y-101825092D01*
X133377055Y-101739000D01*
X132822945Y-101739000D01*
X132390130Y-101825092D01*
X132023207Y-102070262D01*
X131778037Y-102437185D01*
X131691945Y-102870000D01*
X119768055Y-102870000D01*
X119681963Y-102437185D01*
X119436793Y-102070262D01*
X119069870Y-101825092D01*
X118637055Y-101739000D01*
X118082945Y-101739000D01*
X117650130Y-101825092D01*
X117283207Y-102070262D01*
X117038037Y-102437185D01*
X116951945Y-102870000D01*
X116728055Y-102870000D01*
X116641963Y-102437185D01*
X116396793Y-102070262D01*
X116029870Y-101825092D01*
X115597055Y-101739000D01*
X115042945Y-101739000D01*
X114610130Y-101825092D01*
X114243207Y-102070262D01*
X113998037Y-102437185D01*
X113911945Y-102870000D01*
X101988055Y-102870000D01*
X101901963Y-102437185D01*
X101656793Y-102070262D01*
X101289870Y-101825092D01*
X100857055Y-101739000D01*
X100302945Y-101739000D01*
X99870130Y-101825092D01*
X99503207Y-102070262D01*
X99258037Y-102437185D01*
X99171945Y-102870000D01*
X98948055Y-102870000D01*
X98861963Y-102437185D01*
X98616793Y-102070262D01*
X98249870Y-101825092D01*
X97817055Y-101739000D01*
X97262945Y-101739000D01*
X96830130Y-101825092D01*
X96463207Y-102070262D01*
X96218037Y-102437185D01*
X96131945Y-102870000D01*
X87950961Y-102870000D01*
X87932664Y-102532560D01*
X87785042Y-102176169D01*
X87549275Y-102114331D01*
X86793605Y-102870000D01*
X86434395Y-102870000D01*
X85678725Y-102114331D01*
X85442958Y-102176169D01*
X85266581Y-102677122D01*
X46454000Y-102677122D01*
X46454000Y-101934725D01*
X85858331Y-101934725D01*
X86614000Y-102690395D01*
X87369669Y-101934725D01*
X87307831Y-101698958D01*
X86806878Y-101522581D01*
X86276560Y-101551336D01*
X85920169Y-101698958D01*
X85858331Y-101934725D01*
X46454000Y-101934725D01*
X46454000Y-101822691D01*
X46357327Y-101589302D01*
X46178699Y-101410673D01*
X45945310Y-101314000D01*
X44354750Y-101314000D01*
X44196000Y-101472750D01*
X43942000Y-101472750D01*
X43783250Y-101314000D01*
X42192690Y-101314000D01*
X41959301Y-101410673D01*
X41780673Y-101589302D01*
X41684000Y-101822691D01*
X38556000Y-101822691D01*
X38556000Y-99239000D01*
X41896251Y-99239000D01*
X42020403Y-99863157D01*
X42373960Y-100392291D01*
X42903094Y-100745848D01*
X43527251Y-100870000D01*
X52780000Y-100870000D01*
X52940396Y-100838095D01*
X53158963Y-100838286D01*
X53362744Y-100754085D01*
X53404157Y-100745848D01*
X53438958Y-100722595D01*
X53765995Y-100587466D01*
X53809455Y-100544081D01*
X85532813Y-100544081D01*
X85697038Y-100941537D01*
X86000863Y-101245893D01*
X86398032Y-101410812D01*
X86828081Y-101411187D01*
X87225537Y-101246962D01*
X87529893Y-100943137D01*
X87694812Y-100545968D01*
X87695000Y-100330000D01*
X96131945Y-100330000D01*
X96218037Y-100762815D01*
X96463207Y-101129738D01*
X96830130Y-101374908D01*
X97262945Y-101461000D01*
X97817055Y-101461000D01*
X98249870Y-101374908D01*
X98616793Y-101129738D01*
X98861963Y-100762815D01*
X98948055Y-100330000D01*
X99171945Y-100330000D01*
X99258037Y-100762815D01*
X99503207Y-101129738D01*
X99870130Y-101374908D01*
X100302945Y-101461000D01*
X100857055Y-101461000D01*
X101289870Y-101374908D01*
X101656793Y-101129738D01*
X101901963Y-100762815D01*
X101988055Y-100330000D01*
X113911945Y-100330000D01*
X113998037Y-100762815D01*
X114243207Y-101129738D01*
X114610130Y-101374908D01*
X115042945Y-101461000D01*
X115597055Y-101461000D01*
X116029870Y-101374908D01*
X116396793Y-101129738D01*
X116641963Y-100762815D01*
X116728055Y-100330000D01*
X116951945Y-100330000D01*
X117038037Y-100762815D01*
X117283207Y-101129738D01*
X117650130Y-101374908D01*
X118082945Y-101461000D01*
X118637055Y-101461000D01*
X119069870Y-101374908D01*
X119436793Y-101129738D01*
X119681963Y-100762815D01*
X119768055Y-100330000D01*
X131691945Y-100330000D01*
X131778037Y-100762815D01*
X132023207Y-101129738D01*
X132390130Y-101374908D01*
X132822945Y-101461000D01*
X133377055Y-101461000D01*
X133809870Y-101374908D01*
X134176793Y-101129738D01*
X134421963Y-100762815D01*
X134508055Y-100330000D01*
X134731945Y-100330000D01*
X134818037Y-100762815D01*
X135063207Y-101129738D01*
X135430130Y-101374908D01*
X135862945Y-101461000D01*
X136417055Y-101461000D01*
X136849870Y-101374908D01*
X137216793Y-101129738D01*
X137461963Y-100762815D01*
X137548055Y-100330000D01*
X149471945Y-100330000D01*
X149558037Y-100762815D01*
X149803207Y-101129738D01*
X150170130Y-101374908D01*
X150602945Y-101461000D01*
X151157055Y-101461000D01*
X151589870Y-101374908D01*
X151956793Y-101129738D01*
X152201963Y-100762815D01*
X152288055Y-100330000D01*
X152511945Y-100330000D01*
X152598037Y-100762815D01*
X152843207Y-101129738D01*
X153210130Y-101374908D01*
X153642945Y-101461000D01*
X154197055Y-101461000D01*
X154629870Y-101374908D01*
X154996793Y-101129738D01*
X155241963Y-100762815D01*
X155328055Y-100330000D01*
X167251945Y-100330000D01*
X167338037Y-100762815D01*
X167583207Y-101129738D01*
X167950130Y-101374908D01*
X168382945Y-101461000D01*
X168937055Y-101461000D01*
X169369870Y-101374908D01*
X169736793Y-101129738D01*
X169981963Y-100762815D01*
X170068055Y-100330000D01*
X170291945Y-100330000D01*
X170378037Y-100762815D01*
X170623207Y-101129738D01*
X170990130Y-101374908D01*
X171422945Y-101461000D01*
X171977055Y-101461000D01*
X172409870Y-101374908D01*
X172776793Y-101129738D01*
X173021963Y-100762815D01*
X173108055Y-100330000D01*
X185031945Y-100330000D01*
X185118037Y-100762815D01*
X185363207Y-101129738D01*
X185730130Y-101374908D01*
X186162945Y-101461000D01*
X186717055Y-101461000D01*
X187149870Y-101374908D01*
X187516793Y-101129738D01*
X187761963Y-100762815D01*
X187848055Y-100330000D01*
X188071945Y-100330000D01*
X188158037Y-100762815D01*
X188403207Y-101129738D01*
X188770130Y-101374908D01*
X189202945Y-101461000D01*
X189757055Y-101461000D01*
X190189870Y-101374908D01*
X190556793Y-101129738D01*
X190801963Y-100762815D01*
X190888055Y-100330000D01*
X202811945Y-100330000D01*
X202898037Y-100762815D01*
X203143207Y-101129738D01*
X203510130Y-101374908D01*
X203942945Y-101461000D01*
X204497055Y-101461000D01*
X204929870Y-101374908D01*
X205296793Y-101129738D01*
X205541963Y-100762815D01*
X205628055Y-100330000D01*
X205851945Y-100330000D01*
X205938037Y-100762815D01*
X206183207Y-101129738D01*
X206550130Y-101374908D01*
X206982945Y-101461000D01*
X207537055Y-101461000D01*
X207969870Y-101374908D01*
X208336793Y-101129738D01*
X208581963Y-100762815D01*
X208668055Y-100330000D01*
X220591945Y-100330000D01*
X220678037Y-100762815D01*
X220923207Y-101129738D01*
X221290130Y-101374908D01*
X221722945Y-101461000D01*
X222277055Y-101461000D01*
X222709870Y-101374908D01*
X223076793Y-101129738D01*
X223321963Y-100762815D01*
X223408055Y-100330000D01*
X223631945Y-100330000D01*
X223718037Y-100762815D01*
X223963207Y-101129738D01*
X224330130Y-101374908D01*
X224762945Y-101461000D01*
X225317055Y-101461000D01*
X225749870Y-101374908D01*
X226116793Y-101129738D01*
X226361963Y-100762815D01*
X226448055Y-100330000D01*
X226361963Y-99897185D01*
X226116793Y-99530262D01*
X225749870Y-99285092D01*
X225317055Y-99199000D01*
X224762945Y-99199000D01*
X224330130Y-99285092D01*
X223963207Y-99530262D01*
X223718037Y-99897185D01*
X223631945Y-100330000D01*
X223408055Y-100330000D01*
X223321963Y-99897185D01*
X223076793Y-99530262D01*
X222709870Y-99285092D01*
X222277055Y-99199000D01*
X221722945Y-99199000D01*
X221290130Y-99285092D01*
X220923207Y-99530262D01*
X220678037Y-99897185D01*
X220591945Y-100330000D01*
X208668055Y-100330000D01*
X208581963Y-99897185D01*
X208336793Y-99530262D01*
X207969870Y-99285092D01*
X207537055Y-99199000D01*
X206982945Y-99199000D01*
X206550130Y-99285092D01*
X206183207Y-99530262D01*
X205938037Y-99897185D01*
X205851945Y-100330000D01*
X205628055Y-100330000D01*
X205541963Y-99897185D01*
X205296793Y-99530262D01*
X204929870Y-99285092D01*
X204497055Y-99199000D01*
X203942945Y-99199000D01*
X203510130Y-99285092D01*
X203143207Y-99530262D01*
X202898037Y-99897185D01*
X202811945Y-100330000D01*
X190888055Y-100330000D01*
X190801963Y-99897185D01*
X190556793Y-99530262D01*
X190189870Y-99285092D01*
X189757055Y-99199000D01*
X189202945Y-99199000D01*
X188770130Y-99285092D01*
X188403207Y-99530262D01*
X188158037Y-99897185D01*
X188071945Y-100330000D01*
X187848055Y-100330000D01*
X187761963Y-99897185D01*
X187516793Y-99530262D01*
X187149870Y-99285092D01*
X186717055Y-99199000D01*
X186162945Y-99199000D01*
X185730130Y-99285092D01*
X185363207Y-99530262D01*
X185118037Y-99897185D01*
X185031945Y-100330000D01*
X173108055Y-100330000D01*
X173021963Y-99897185D01*
X172776793Y-99530262D01*
X172409870Y-99285092D01*
X171977055Y-99199000D01*
X171422945Y-99199000D01*
X170990130Y-99285092D01*
X170623207Y-99530262D01*
X170378037Y-99897185D01*
X170291945Y-100330000D01*
X170068055Y-100330000D01*
X169981963Y-99897185D01*
X169736793Y-99530262D01*
X169369870Y-99285092D01*
X168937055Y-99199000D01*
X168382945Y-99199000D01*
X167950130Y-99285092D01*
X167583207Y-99530262D01*
X167338037Y-99897185D01*
X167251945Y-100330000D01*
X155328055Y-100330000D01*
X155241963Y-99897185D01*
X154996793Y-99530262D01*
X154629870Y-99285092D01*
X154197055Y-99199000D01*
X153642945Y-99199000D01*
X153210130Y-99285092D01*
X152843207Y-99530262D01*
X152598037Y-99897185D01*
X152511945Y-100330000D01*
X152288055Y-100330000D01*
X152201963Y-99897185D01*
X151956793Y-99530262D01*
X151589870Y-99285092D01*
X151157055Y-99199000D01*
X150602945Y-99199000D01*
X150170130Y-99285092D01*
X149803207Y-99530262D01*
X149558037Y-99897185D01*
X149471945Y-100330000D01*
X137548055Y-100330000D01*
X137461963Y-99897185D01*
X137216793Y-99530262D01*
X136849870Y-99285092D01*
X136417055Y-99199000D01*
X135862945Y-99199000D01*
X135430130Y-99285092D01*
X135063207Y-99530262D01*
X134818037Y-99897185D01*
X134731945Y-100330000D01*
X134508055Y-100330000D01*
X134421963Y-99897185D01*
X134176793Y-99530262D01*
X133809870Y-99285092D01*
X133377055Y-99199000D01*
X132822945Y-99199000D01*
X132390130Y-99285092D01*
X132023207Y-99530262D01*
X131778037Y-99897185D01*
X131691945Y-100330000D01*
X119768055Y-100330000D01*
X119681963Y-99897185D01*
X119436793Y-99530262D01*
X119069870Y-99285092D01*
X118637055Y-99199000D01*
X118082945Y-99199000D01*
X117650130Y-99285092D01*
X117283207Y-99530262D01*
X117038037Y-99897185D01*
X116951945Y-100330000D01*
X116728055Y-100330000D01*
X116641963Y-99897185D01*
X116396793Y-99530262D01*
X116029870Y-99285092D01*
X115597055Y-99199000D01*
X115042945Y-99199000D01*
X114610130Y-99285092D01*
X114243207Y-99530262D01*
X113998037Y-99897185D01*
X113911945Y-100330000D01*
X101988055Y-100330000D01*
X101901963Y-99897185D01*
X101656793Y-99530262D01*
X101289870Y-99285092D01*
X100857055Y-99199000D01*
X100302945Y-99199000D01*
X99870130Y-99285092D01*
X99503207Y-99530262D01*
X99258037Y-99897185D01*
X99171945Y-100330000D01*
X98948055Y-100330000D01*
X98861963Y-99897185D01*
X98616793Y-99530262D01*
X98249870Y-99285092D01*
X97817055Y-99199000D01*
X97262945Y-99199000D01*
X96830130Y-99285092D01*
X96463207Y-99530262D01*
X96218037Y-99897185D01*
X96131945Y-100330000D01*
X87695000Y-100330000D01*
X87695187Y-100115919D01*
X87530962Y-99718463D01*
X87227137Y-99414107D01*
X86829968Y-99249188D01*
X86399919Y-99248813D01*
X86002463Y-99413038D01*
X85698107Y-99716863D01*
X85533188Y-100114032D01*
X85532813Y-100544081D01*
X53809455Y-100544081D01*
X54230834Y-100123437D01*
X54482713Y-99516845D01*
X54483286Y-98860037D01*
X54232466Y-98253005D01*
X53974688Y-97994777D01*
X71983828Y-97994777D01*
X72115520Y-98289657D01*
X72823036Y-98561261D01*
X73580632Y-98541436D01*
X74188480Y-98289657D01*
X74320172Y-97994777D01*
X73152000Y-96826605D01*
X71983828Y-97994777D01*
X53974688Y-97994777D01*
X53768437Y-97788166D01*
X53161845Y-97536287D01*
X52505037Y-97535714D01*
X52330091Y-97608000D01*
X43527251Y-97608000D01*
X42903094Y-97732152D01*
X42373960Y-98085709D01*
X42020403Y-98614843D01*
X41896251Y-99239000D01*
X38556000Y-99239000D01*
X38556000Y-96318036D01*
X71237739Y-96318036D01*
X71257564Y-97075632D01*
X71509343Y-97683480D01*
X71804223Y-97815172D01*
X72972395Y-96647000D01*
X73331605Y-96647000D01*
X74499777Y-97815172D01*
X74556141Y-97790000D01*
X96131945Y-97790000D01*
X96218037Y-98222815D01*
X96463207Y-98589738D01*
X96830130Y-98834908D01*
X97262945Y-98921000D01*
X97817055Y-98921000D01*
X98249870Y-98834908D01*
X98616793Y-98589738D01*
X98861963Y-98222815D01*
X98948055Y-97790000D01*
X99171945Y-97790000D01*
X99258037Y-98222815D01*
X99503207Y-98589738D01*
X99870130Y-98834908D01*
X100302945Y-98921000D01*
X100857055Y-98921000D01*
X101289870Y-98834908D01*
X101656793Y-98589738D01*
X101901963Y-98222815D01*
X101988055Y-97790000D01*
X113911945Y-97790000D01*
X113998037Y-98222815D01*
X114243207Y-98589738D01*
X114610130Y-98834908D01*
X115042945Y-98921000D01*
X115597055Y-98921000D01*
X116029870Y-98834908D01*
X116396793Y-98589738D01*
X116641963Y-98222815D01*
X116728055Y-97790000D01*
X116951945Y-97790000D01*
X117038037Y-98222815D01*
X117283207Y-98589738D01*
X117650130Y-98834908D01*
X118082945Y-98921000D01*
X118637055Y-98921000D01*
X119069870Y-98834908D01*
X119436793Y-98589738D01*
X119681963Y-98222815D01*
X119768055Y-97790000D01*
X131691945Y-97790000D01*
X131778037Y-98222815D01*
X132023207Y-98589738D01*
X132390130Y-98834908D01*
X132822945Y-98921000D01*
X133377055Y-98921000D01*
X133809870Y-98834908D01*
X134176793Y-98589738D01*
X134421963Y-98222815D01*
X134508055Y-97790000D01*
X134731945Y-97790000D01*
X134818037Y-98222815D01*
X135063207Y-98589738D01*
X135430130Y-98834908D01*
X135862945Y-98921000D01*
X136417055Y-98921000D01*
X136849870Y-98834908D01*
X137216793Y-98589738D01*
X137461963Y-98222815D01*
X137548055Y-97790000D01*
X149471945Y-97790000D01*
X149558037Y-98222815D01*
X149803207Y-98589738D01*
X150170130Y-98834908D01*
X150602945Y-98921000D01*
X151157055Y-98921000D01*
X151589870Y-98834908D01*
X151956793Y-98589738D01*
X152201963Y-98222815D01*
X152288055Y-97790000D01*
X152511945Y-97790000D01*
X152598037Y-98222815D01*
X152843207Y-98589738D01*
X153210130Y-98834908D01*
X153642945Y-98921000D01*
X154197055Y-98921000D01*
X154629870Y-98834908D01*
X154996793Y-98589738D01*
X155241963Y-98222815D01*
X155328055Y-97790000D01*
X167251945Y-97790000D01*
X167338037Y-98222815D01*
X167583207Y-98589738D01*
X167950130Y-98834908D01*
X168382945Y-98921000D01*
X168937055Y-98921000D01*
X169369870Y-98834908D01*
X169736793Y-98589738D01*
X169981963Y-98222815D01*
X170068055Y-97790000D01*
X170291945Y-97790000D01*
X170378037Y-98222815D01*
X170623207Y-98589738D01*
X170990130Y-98834908D01*
X171422945Y-98921000D01*
X171977055Y-98921000D01*
X172409870Y-98834908D01*
X172776793Y-98589738D01*
X173021963Y-98222815D01*
X173108055Y-97790000D01*
X185031945Y-97790000D01*
X185118037Y-98222815D01*
X185363207Y-98589738D01*
X185730130Y-98834908D01*
X186162945Y-98921000D01*
X186717055Y-98921000D01*
X187149870Y-98834908D01*
X187516793Y-98589738D01*
X187761963Y-98222815D01*
X187848055Y-97790000D01*
X188071945Y-97790000D01*
X188158037Y-98222815D01*
X188403207Y-98589738D01*
X188770130Y-98834908D01*
X189202945Y-98921000D01*
X189757055Y-98921000D01*
X190189870Y-98834908D01*
X190556793Y-98589738D01*
X190801963Y-98222815D01*
X190888055Y-97790000D01*
X202811945Y-97790000D01*
X202898037Y-98222815D01*
X203143207Y-98589738D01*
X203510130Y-98834908D01*
X203942945Y-98921000D01*
X204497055Y-98921000D01*
X204929870Y-98834908D01*
X205296793Y-98589738D01*
X205541963Y-98222815D01*
X205628055Y-97790000D01*
X205851945Y-97790000D01*
X205938037Y-98222815D01*
X206183207Y-98589738D01*
X206550130Y-98834908D01*
X206982945Y-98921000D01*
X207537055Y-98921000D01*
X207969870Y-98834908D01*
X208336793Y-98589738D01*
X208581963Y-98222815D01*
X208668055Y-97790000D01*
X220591945Y-97790000D01*
X220678037Y-98222815D01*
X220923207Y-98589738D01*
X221290130Y-98834908D01*
X221722945Y-98921000D01*
X222277055Y-98921000D01*
X222709870Y-98834908D01*
X223076793Y-98589738D01*
X223321963Y-98222815D01*
X223408055Y-97790000D01*
X223631945Y-97790000D01*
X223718037Y-98222815D01*
X223963207Y-98589738D01*
X224330130Y-98834908D01*
X224762945Y-98921000D01*
X225317055Y-98921000D01*
X225749870Y-98834908D01*
X226116793Y-98589738D01*
X226361963Y-98222815D01*
X226448055Y-97790000D01*
X226361963Y-97357185D01*
X226116793Y-96990262D01*
X225749870Y-96745092D01*
X225317055Y-96659000D01*
X224762945Y-96659000D01*
X224330130Y-96745092D01*
X223963207Y-96990262D01*
X223718037Y-97357185D01*
X223631945Y-97790000D01*
X223408055Y-97790000D01*
X223321963Y-97357185D01*
X223076793Y-96990262D01*
X222709870Y-96745092D01*
X222277055Y-96659000D01*
X221722945Y-96659000D01*
X221290130Y-96745092D01*
X220923207Y-96990262D01*
X220678037Y-97357185D01*
X220591945Y-97790000D01*
X208668055Y-97790000D01*
X208581963Y-97357185D01*
X208336793Y-96990262D01*
X207969870Y-96745092D01*
X207537055Y-96659000D01*
X206982945Y-96659000D01*
X206550130Y-96745092D01*
X206183207Y-96990262D01*
X205938037Y-97357185D01*
X205851945Y-97790000D01*
X205628055Y-97790000D01*
X205541963Y-97357185D01*
X205296793Y-96990262D01*
X204929870Y-96745092D01*
X204497055Y-96659000D01*
X203942945Y-96659000D01*
X203510130Y-96745092D01*
X203143207Y-96990262D01*
X202898037Y-97357185D01*
X202811945Y-97790000D01*
X190888055Y-97790000D01*
X190801963Y-97357185D01*
X190556793Y-96990262D01*
X190189870Y-96745092D01*
X189757055Y-96659000D01*
X189202945Y-96659000D01*
X188770130Y-96745092D01*
X188403207Y-96990262D01*
X188158037Y-97357185D01*
X188071945Y-97790000D01*
X187848055Y-97790000D01*
X187761963Y-97357185D01*
X187516793Y-96990262D01*
X187149870Y-96745092D01*
X186717055Y-96659000D01*
X186162945Y-96659000D01*
X185730130Y-96745092D01*
X185363207Y-96990262D01*
X185118037Y-97357185D01*
X185031945Y-97790000D01*
X173108055Y-97790000D01*
X173021963Y-97357185D01*
X172776793Y-96990262D01*
X172409870Y-96745092D01*
X171977055Y-96659000D01*
X171422945Y-96659000D01*
X170990130Y-96745092D01*
X170623207Y-96990262D01*
X170378037Y-97357185D01*
X170291945Y-97790000D01*
X170068055Y-97790000D01*
X169981963Y-97357185D01*
X169736793Y-96990262D01*
X169369870Y-96745092D01*
X168937055Y-96659000D01*
X168382945Y-96659000D01*
X167950130Y-96745092D01*
X167583207Y-96990262D01*
X167338037Y-97357185D01*
X167251945Y-97790000D01*
X155328055Y-97790000D01*
X155241963Y-97357185D01*
X154996793Y-96990262D01*
X154629870Y-96745092D01*
X154197055Y-96659000D01*
X153642945Y-96659000D01*
X153210130Y-96745092D01*
X152843207Y-96990262D01*
X152598037Y-97357185D01*
X152511945Y-97790000D01*
X152288055Y-97790000D01*
X152201963Y-97357185D01*
X151956793Y-96990262D01*
X151589870Y-96745092D01*
X151157055Y-96659000D01*
X150602945Y-96659000D01*
X150170130Y-96745092D01*
X149803207Y-96990262D01*
X149558037Y-97357185D01*
X149471945Y-97790000D01*
X137548055Y-97790000D01*
X137461963Y-97357185D01*
X137216793Y-96990262D01*
X136849870Y-96745092D01*
X136417055Y-96659000D01*
X135862945Y-96659000D01*
X135430130Y-96745092D01*
X135063207Y-96990262D01*
X134818037Y-97357185D01*
X134731945Y-97790000D01*
X134508055Y-97790000D01*
X134421963Y-97357185D01*
X134176793Y-96990262D01*
X133809870Y-96745092D01*
X133377055Y-96659000D01*
X132822945Y-96659000D01*
X132390130Y-96745092D01*
X132023207Y-96990262D01*
X131778037Y-97357185D01*
X131691945Y-97790000D01*
X119768055Y-97790000D01*
X119681963Y-97357185D01*
X119436793Y-96990262D01*
X119069870Y-96745092D01*
X118637055Y-96659000D01*
X118082945Y-96659000D01*
X117650130Y-96745092D01*
X117283207Y-96990262D01*
X117038037Y-97357185D01*
X116951945Y-97790000D01*
X116728055Y-97790000D01*
X116641963Y-97357185D01*
X116396793Y-96990262D01*
X116029870Y-96745092D01*
X115597055Y-96659000D01*
X115042945Y-96659000D01*
X114610130Y-96745092D01*
X114243207Y-96990262D01*
X113998037Y-97357185D01*
X113911945Y-97790000D01*
X101988055Y-97790000D01*
X101901963Y-97357185D01*
X101656793Y-96990262D01*
X101289870Y-96745092D01*
X100857055Y-96659000D01*
X100302945Y-96659000D01*
X99870130Y-96745092D01*
X99503207Y-96990262D01*
X99258037Y-97357185D01*
X99171945Y-97790000D01*
X98948055Y-97790000D01*
X98861963Y-97357185D01*
X98616793Y-96990262D01*
X98249870Y-96745092D01*
X97817055Y-96659000D01*
X97262945Y-96659000D01*
X96830130Y-96745092D01*
X96463207Y-96990262D01*
X96218037Y-97357185D01*
X96131945Y-97790000D01*
X74556141Y-97790000D01*
X74794657Y-97683480D01*
X75066261Y-96975964D01*
X75046436Y-96218368D01*
X74794657Y-95610520D01*
X74751363Y-95591185D01*
X95947682Y-95591185D01*
X95966519Y-95694235D01*
X96237264Y-96166894D01*
X96668279Y-96499964D01*
X97193945Y-96642739D01*
X97413000Y-96481868D01*
X97413000Y-95377000D01*
X97667000Y-95377000D01*
X97667000Y-96481868D01*
X97886055Y-96642739D01*
X98411721Y-96499964D01*
X98842736Y-96166894D01*
X99060000Y-95787601D01*
X99277264Y-96166894D01*
X99708279Y-96499964D01*
X100233945Y-96642739D01*
X100453000Y-96481868D01*
X100453000Y-95377000D01*
X100707000Y-95377000D01*
X100707000Y-96481868D01*
X100926055Y-96642739D01*
X101451721Y-96499964D01*
X101882736Y-96166894D01*
X102153481Y-95694235D01*
X102172318Y-95591185D01*
X113727682Y-95591185D01*
X113746519Y-95694235D01*
X114017264Y-96166894D01*
X114448279Y-96499964D01*
X114973945Y-96642739D01*
X115193000Y-96481868D01*
X115193000Y-95377000D01*
X115447000Y-95377000D01*
X115447000Y-96481868D01*
X115666055Y-96642739D01*
X116191721Y-96499964D01*
X116622736Y-96166894D01*
X116840000Y-95787601D01*
X117057264Y-96166894D01*
X117488279Y-96499964D01*
X118013945Y-96642739D01*
X118233000Y-96481868D01*
X118233000Y-95377000D01*
X118487000Y-95377000D01*
X118487000Y-96481868D01*
X118706055Y-96642739D01*
X119231721Y-96499964D01*
X119662736Y-96166894D01*
X119933481Y-95694235D01*
X119952318Y-95591185D01*
X131507682Y-95591185D01*
X131526519Y-95694235D01*
X131797264Y-96166894D01*
X132228279Y-96499964D01*
X132753945Y-96642739D01*
X132973000Y-96481868D01*
X132973000Y-95377000D01*
X133227000Y-95377000D01*
X133227000Y-96481868D01*
X133446055Y-96642739D01*
X133971721Y-96499964D01*
X134402736Y-96166894D01*
X134620000Y-95787601D01*
X134837264Y-96166894D01*
X135268279Y-96499964D01*
X135793945Y-96642739D01*
X136013000Y-96481868D01*
X136013000Y-95377000D01*
X136267000Y-95377000D01*
X136267000Y-96481868D01*
X136486055Y-96642739D01*
X137011721Y-96499964D01*
X137442736Y-96166894D01*
X137713481Y-95694235D01*
X137732318Y-95591185D01*
X149287682Y-95591185D01*
X149306519Y-95694235D01*
X149577264Y-96166894D01*
X150008279Y-96499964D01*
X150533945Y-96642739D01*
X150753000Y-96481868D01*
X150753000Y-95377000D01*
X151007000Y-95377000D01*
X151007000Y-96481868D01*
X151226055Y-96642739D01*
X151751721Y-96499964D01*
X152182736Y-96166894D01*
X152400000Y-95787601D01*
X152617264Y-96166894D01*
X153048279Y-96499964D01*
X153573945Y-96642739D01*
X153793000Y-96481868D01*
X153793000Y-95377000D01*
X154047000Y-95377000D01*
X154047000Y-96481868D01*
X154266055Y-96642739D01*
X154791721Y-96499964D01*
X155222736Y-96166894D01*
X155493481Y-95694235D01*
X155512318Y-95591185D01*
X167067682Y-95591185D01*
X167086519Y-95694235D01*
X167357264Y-96166894D01*
X167788279Y-96499964D01*
X168313945Y-96642739D01*
X168533000Y-96481868D01*
X168533000Y-95377000D01*
X168787000Y-95377000D01*
X168787000Y-96481868D01*
X169006055Y-96642739D01*
X169531721Y-96499964D01*
X169962736Y-96166894D01*
X170180000Y-95787601D01*
X170397264Y-96166894D01*
X170828279Y-96499964D01*
X171353945Y-96642739D01*
X171573000Y-96481868D01*
X171573000Y-95377000D01*
X171827000Y-95377000D01*
X171827000Y-96481868D01*
X172046055Y-96642739D01*
X172571721Y-96499964D01*
X173002736Y-96166894D01*
X173273481Y-95694235D01*
X173292318Y-95591185D01*
X184847682Y-95591185D01*
X184866519Y-95694235D01*
X185137264Y-96166894D01*
X185568279Y-96499964D01*
X186093945Y-96642739D01*
X186313000Y-96481868D01*
X186313000Y-95377000D01*
X186567000Y-95377000D01*
X186567000Y-96481868D01*
X186786055Y-96642739D01*
X187311721Y-96499964D01*
X187742736Y-96166894D01*
X187960000Y-95787601D01*
X188177264Y-96166894D01*
X188608279Y-96499964D01*
X189133945Y-96642739D01*
X189353000Y-96481868D01*
X189353000Y-95377000D01*
X189607000Y-95377000D01*
X189607000Y-96481868D01*
X189826055Y-96642739D01*
X190351721Y-96499964D01*
X190782736Y-96166894D01*
X191053481Y-95694235D01*
X191072318Y-95591185D01*
X202627682Y-95591185D01*
X202646519Y-95694235D01*
X202917264Y-96166894D01*
X203348279Y-96499964D01*
X203873945Y-96642739D01*
X204093000Y-96481868D01*
X204093000Y-95377000D01*
X204347000Y-95377000D01*
X204347000Y-96481868D01*
X204566055Y-96642739D01*
X205091721Y-96499964D01*
X205522736Y-96166894D01*
X205740000Y-95787601D01*
X205957264Y-96166894D01*
X206388279Y-96499964D01*
X206913945Y-96642739D01*
X207133000Y-96481868D01*
X207133000Y-95377000D01*
X207387000Y-95377000D01*
X207387000Y-96481868D01*
X207606055Y-96642739D01*
X208131721Y-96499964D01*
X208562736Y-96166894D01*
X208833481Y-95694235D01*
X208852318Y-95591185D01*
X220407682Y-95591185D01*
X220426519Y-95694235D01*
X220697264Y-96166894D01*
X221128279Y-96499964D01*
X221653945Y-96642739D01*
X221873000Y-96481868D01*
X221873000Y-95377000D01*
X222127000Y-95377000D01*
X222127000Y-96481868D01*
X222346055Y-96642739D01*
X222871721Y-96499964D01*
X223302736Y-96166894D01*
X223520000Y-95787601D01*
X223737264Y-96166894D01*
X224168279Y-96499964D01*
X224693945Y-96642739D01*
X224913000Y-96481868D01*
X224913000Y-95377000D01*
X225167000Y-95377000D01*
X225167000Y-96481868D01*
X225386055Y-96642739D01*
X225911721Y-96499964D01*
X226342736Y-96166894D01*
X226613481Y-95694235D01*
X226632318Y-95591185D01*
X226509656Y-95377000D01*
X225167000Y-95377000D01*
X224913000Y-95377000D01*
X223570344Y-95377000D01*
X223520000Y-95464908D01*
X223469656Y-95377000D01*
X222127000Y-95377000D01*
X221873000Y-95377000D01*
X220530344Y-95377000D01*
X220407682Y-95591185D01*
X208852318Y-95591185D01*
X208729656Y-95377000D01*
X207387000Y-95377000D01*
X207133000Y-95377000D01*
X205790344Y-95377000D01*
X205740000Y-95464908D01*
X205689656Y-95377000D01*
X204347000Y-95377000D01*
X204093000Y-95377000D01*
X202750344Y-95377000D01*
X202627682Y-95591185D01*
X191072318Y-95591185D01*
X190949656Y-95377000D01*
X189607000Y-95377000D01*
X189353000Y-95377000D01*
X188010344Y-95377000D01*
X187960000Y-95464908D01*
X187909656Y-95377000D01*
X186567000Y-95377000D01*
X186313000Y-95377000D01*
X184970344Y-95377000D01*
X184847682Y-95591185D01*
X173292318Y-95591185D01*
X173169656Y-95377000D01*
X171827000Y-95377000D01*
X171573000Y-95377000D01*
X170230344Y-95377000D01*
X170180000Y-95464908D01*
X170129656Y-95377000D01*
X168787000Y-95377000D01*
X168533000Y-95377000D01*
X167190344Y-95377000D01*
X167067682Y-95591185D01*
X155512318Y-95591185D01*
X155389656Y-95377000D01*
X154047000Y-95377000D01*
X153793000Y-95377000D01*
X152450344Y-95377000D01*
X152400000Y-95464908D01*
X152349656Y-95377000D01*
X151007000Y-95377000D01*
X150753000Y-95377000D01*
X149410344Y-95377000D01*
X149287682Y-95591185D01*
X137732318Y-95591185D01*
X137609656Y-95377000D01*
X136267000Y-95377000D01*
X136013000Y-95377000D01*
X134670344Y-95377000D01*
X134620000Y-95464908D01*
X134569656Y-95377000D01*
X133227000Y-95377000D01*
X132973000Y-95377000D01*
X131630344Y-95377000D01*
X131507682Y-95591185D01*
X119952318Y-95591185D01*
X119829656Y-95377000D01*
X118487000Y-95377000D01*
X118233000Y-95377000D01*
X116890344Y-95377000D01*
X116840000Y-95464908D01*
X116789656Y-95377000D01*
X115447000Y-95377000D01*
X115193000Y-95377000D01*
X113850344Y-95377000D01*
X113727682Y-95591185D01*
X102172318Y-95591185D01*
X102049656Y-95377000D01*
X100707000Y-95377000D01*
X100453000Y-95377000D01*
X99110344Y-95377000D01*
X99060000Y-95464908D01*
X99009656Y-95377000D01*
X97667000Y-95377000D01*
X97413000Y-95377000D01*
X96070344Y-95377000D01*
X95947682Y-95591185D01*
X74751363Y-95591185D01*
X74499777Y-95478828D01*
X73331605Y-96647000D01*
X72972395Y-96647000D01*
X71804223Y-95478828D01*
X71509343Y-95610520D01*
X71237739Y-96318036D01*
X38556000Y-96318036D01*
X38556000Y-95454777D01*
X51663828Y-95454777D01*
X51795520Y-95749657D01*
X52503036Y-96021261D01*
X53260632Y-96001436D01*
X53868480Y-95749657D01*
X54000172Y-95454777D01*
X53844618Y-95299223D01*
X71983828Y-95299223D01*
X73152000Y-96467395D01*
X74320172Y-95299223D01*
X74188480Y-95004343D01*
X73480964Y-94732739D01*
X72723368Y-94752564D01*
X72115520Y-95004343D01*
X71983828Y-95299223D01*
X53844618Y-95299223D01*
X52832000Y-94286605D01*
X51663828Y-95454777D01*
X38556000Y-95454777D01*
X38556000Y-93778036D01*
X50917739Y-93778036D01*
X50937564Y-94535632D01*
X51189343Y-95143480D01*
X51484223Y-95275172D01*
X52652395Y-94107000D01*
X53011605Y-94107000D01*
X54179777Y-95275172D01*
X54474657Y-95143480D01*
X54746261Y-94435964D01*
X54726436Y-93678368D01*
X54474657Y-93070520D01*
X54431363Y-93051185D01*
X95947682Y-93051185D01*
X95966519Y-93154235D01*
X96237264Y-93626894D01*
X96668279Y-93959964D01*
X96742047Y-93980000D01*
X96668279Y-94000036D01*
X96237264Y-94333106D01*
X95966519Y-94805765D01*
X95947682Y-94908815D01*
X96070344Y-95123000D01*
X97413000Y-95123000D01*
X97413000Y-94018132D01*
X97361076Y-93980000D01*
X97413000Y-93941868D01*
X97413000Y-92837000D01*
X97667000Y-92837000D01*
X97667000Y-93941868D01*
X97718924Y-93980000D01*
X97667000Y-94018132D01*
X97667000Y-95123000D01*
X99009656Y-95123000D01*
X99060000Y-95035092D01*
X99110344Y-95123000D01*
X100453000Y-95123000D01*
X100453000Y-94018132D01*
X100401076Y-93980000D01*
X100453000Y-93941868D01*
X100453000Y-92837000D01*
X100707000Y-92837000D01*
X100707000Y-93941868D01*
X100758924Y-93980000D01*
X100707000Y-94018132D01*
X100707000Y-95123000D01*
X102049656Y-95123000D01*
X102172318Y-94908815D01*
X102153481Y-94805765D01*
X101882736Y-94333106D01*
X101451721Y-94000036D01*
X101377953Y-93980000D01*
X101451721Y-93959964D01*
X101882736Y-93626894D01*
X102153481Y-93154235D01*
X102172318Y-93051185D01*
X113727682Y-93051185D01*
X113746519Y-93154235D01*
X114017264Y-93626894D01*
X114448279Y-93959964D01*
X114522047Y-93980000D01*
X114448279Y-94000036D01*
X114017264Y-94333106D01*
X113746519Y-94805765D01*
X113727682Y-94908815D01*
X113850344Y-95123000D01*
X115193000Y-95123000D01*
X115193000Y-94018132D01*
X115141076Y-93980000D01*
X115193000Y-93941868D01*
X115193000Y-92837000D01*
X115447000Y-92837000D01*
X115447000Y-93941868D01*
X115498924Y-93980000D01*
X115447000Y-94018132D01*
X115447000Y-95123000D01*
X116789656Y-95123000D01*
X116840000Y-95035092D01*
X116890344Y-95123000D01*
X118233000Y-95123000D01*
X118233000Y-94018132D01*
X118181076Y-93980000D01*
X118233000Y-93941868D01*
X118233000Y-92837000D01*
X118487000Y-92837000D01*
X118487000Y-93941868D01*
X118538924Y-93980000D01*
X118487000Y-94018132D01*
X118487000Y-95123000D01*
X119829656Y-95123000D01*
X119952318Y-94908815D01*
X119933481Y-94805765D01*
X119662736Y-94333106D01*
X119231721Y-94000036D01*
X119157953Y-93980000D01*
X119231721Y-93959964D01*
X119662736Y-93626894D01*
X119933481Y-93154235D01*
X119952318Y-93051185D01*
X131507682Y-93051185D01*
X131526519Y-93154235D01*
X131797264Y-93626894D01*
X132228279Y-93959964D01*
X132302047Y-93980000D01*
X132228279Y-94000036D01*
X131797264Y-94333106D01*
X131526519Y-94805765D01*
X131507682Y-94908815D01*
X131630344Y-95123000D01*
X132973000Y-95123000D01*
X132973000Y-94018132D01*
X132921076Y-93980000D01*
X132973000Y-93941868D01*
X132973000Y-92837000D01*
X133227000Y-92837000D01*
X133227000Y-93941868D01*
X133278924Y-93980000D01*
X133227000Y-94018132D01*
X133227000Y-95123000D01*
X134569656Y-95123000D01*
X134620000Y-95035092D01*
X134670344Y-95123000D01*
X136013000Y-95123000D01*
X136013000Y-94018132D01*
X135961076Y-93980000D01*
X136013000Y-93941868D01*
X136013000Y-92837000D01*
X136267000Y-92837000D01*
X136267000Y-93941868D01*
X136318924Y-93980000D01*
X136267000Y-94018132D01*
X136267000Y-95123000D01*
X137609656Y-95123000D01*
X137732318Y-94908815D01*
X137713481Y-94805765D01*
X137442736Y-94333106D01*
X137011721Y-94000036D01*
X136937953Y-93980000D01*
X137011721Y-93959964D01*
X137442736Y-93626894D01*
X137713481Y-93154235D01*
X137732318Y-93051185D01*
X149287682Y-93051185D01*
X149306519Y-93154235D01*
X149577264Y-93626894D01*
X150008279Y-93959964D01*
X150082047Y-93980000D01*
X150008279Y-94000036D01*
X149577264Y-94333106D01*
X149306519Y-94805765D01*
X149287682Y-94908815D01*
X149410344Y-95123000D01*
X150753000Y-95123000D01*
X150753000Y-94018132D01*
X150701076Y-93980000D01*
X150753000Y-93941868D01*
X150753000Y-92837000D01*
X151007000Y-92837000D01*
X151007000Y-93941868D01*
X151058924Y-93980000D01*
X151007000Y-94018132D01*
X151007000Y-95123000D01*
X152349656Y-95123000D01*
X152400000Y-95035092D01*
X152450344Y-95123000D01*
X153793000Y-95123000D01*
X153793000Y-94018132D01*
X153741076Y-93980000D01*
X153793000Y-93941868D01*
X153793000Y-92837000D01*
X154047000Y-92837000D01*
X154047000Y-93941868D01*
X154098924Y-93980000D01*
X154047000Y-94018132D01*
X154047000Y-95123000D01*
X155389656Y-95123000D01*
X155512318Y-94908815D01*
X155493481Y-94805765D01*
X155222736Y-94333106D01*
X154791721Y-94000036D01*
X154717953Y-93980000D01*
X154791721Y-93959964D01*
X155222736Y-93626894D01*
X155493481Y-93154235D01*
X155512318Y-93051185D01*
X167067682Y-93051185D01*
X167086519Y-93154235D01*
X167357264Y-93626894D01*
X167788279Y-93959964D01*
X167862047Y-93980000D01*
X167788279Y-94000036D01*
X167357264Y-94333106D01*
X167086519Y-94805765D01*
X167067682Y-94908815D01*
X167190344Y-95123000D01*
X168533000Y-95123000D01*
X168533000Y-94018132D01*
X168481076Y-93980000D01*
X168533000Y-93941868D01*
X168533000Y-92837000D01*
X168787000Y-92837000D01*
X168787000Y-93941868D01*
X168838924Y-93980000D01*
X168787000Y-94018132D01*
X168787000Y-95123000D01*
X170129656Y-95123000D01*
X170180000Y-95035092D01*
X170230344Y-95123000D01*
X171573000Y-95123000D01*
X171573000Y-94018132D01*
X171521076Y-93980000D01*
X171573000Y-93941868D01*
X171573000Y-92837000D01*
X171827000Y-92837000D01*
X171827000Y-93941868D01*
X171878924Y-93980000D01*
X171827000Y-94018132D01*
X171827000Y-95123000D01*
X173169656Y-95123000D01*
X173292318Y-94908815D01*
X173273481Y-94805765D01*
X173002736Y-94333106D01*
X172571721Y-94000036D01*
X172497953Y-93980000D01*
X172571721Y-93959964D01*
X173002736Y-93626894D01*
X173273481Y-93154235D01*
X173292318Y-93051185D01*
X184847682Y-93051185D01*
X184866519Y-93154235D01*
X185137264Y-93626894D01*
X185568279Y-93959964D01*
X185642047Y-93980000D01*
X185568279Y-94000036D01*
X185137264Y-94333106D01*
X184866519Y-94805765D01*
X184847682Y-94908815D01*
X184970344Y-95123000D01*
X186313000Y-95123000D01*
X186313000Y-94018132D01*
X186261076Y-93980000D01*
X186313000Y-93941868D01*
X186313000Y-92837000D01*
X186567000Y-92837000D01*
X186567000Y-93941868D01*
X186618924Y-93980000D01*
X186567000Y-94018132D01*
X186567000Y-95123000D01*
X187909656Y-95123000D01*
X187960000Y-95035092D01*
X188010344Y-95123000D01*
X189353000Y-95123000D01*
X189353000Y-94018132D01*
X189301076Y-93980000D01*
X189353000Y-93941868D01*
X189353000Y-92837000D01*
X189607000Y-92837000D01*
X189607000Y-93941868D01*
X189658924Y-93980000D01*
X189607000Y-94018132D01*
X189607000Y-95123000D01*
X190949656Y-95123000D01*
X191072318Y-94908815D01*
X191053481Y-94805765D01*
X190782736Y-94333106D01*
X190351721Y-94000036D01*
X190277953Y-93980000D01*
X190351721Y-93959964D01*
X190782736Y-93626894D01*
X191053481Y-93154235D01*
X191072318Y-93051185D01*
X202627682Y-93051185D01*
X202646519Y-93154235D01*
X202917264Y-93626894D01*
X203348279Y-93959964D01*
X203422047Y-93980000D01*
X203348279Y-94000036D01*
X202917264Y-94333106D01*
X202646519Y-94805765D01*
X202627682Y-94908815D01*
X202750344Y-95123000D01*
X204093000Y-95123000D01*
X204093000Y-94018132D01*
X204041076Y-93980000D01*
X204093000Y-93941868D01*
X204093000Y-92837000D01*
X204347000Y-92837000D01*
X204347000Y-93941868D01*
X204398924Y-93980000D01*
X204347000Y-94018132D01*
X204347000Y-95123000D01*
X205689656Y-95123000D01*
X205740000Y-95035092D01*
X205790344Y-95123000D01*
X207133000Y-95123000D01*
X207133000Y-94018132D01*
X207081076Y-93980000D01*
X207133000Y-93941868D01*
X207133000Y-92837000D01*
X207387000Y-92837000D01*
X207387000Y-93941868D01*
X207438924Y-93980000D01*
X207387000Y-94018132D01*
X207387000Y-95123000D01*
X208729656Y-95123000D01*
X208852318Y-94908815D01*
X208833481Y-94805765D01*
X208562736Y-94333106D01*
X208131721Y-94000036D01*
X208057953Y-93980000D01*
X208131721Y-93959964D01*
X208562736Y-93626894D01*
X208833481Y-93154235D01*
X208852318Y-93051185D01*
X220407682Y-93051185D01*
X220426519Y-93154235D01*
X220697264Y-93626894D01*
X221128279Y-93959964D01*
X221202047Y-93980000D01*
X221128279Y-94000036D01*
X220697264Y-94333106D01*
X220426519Y-94805765D01*
X220407682Y-94908815D01*
X220530344Y-95123000D01*
X221873000Y-95123000D01*
X221873000Y-94018132D01*
X221821076Y-93980000D01*
X221873000Y-93941868D01*
X221873000Y-92837000D01*
X222127000Y-92837000D01*
X222127000Y-93941868D01*
X222178924Y-93980000D01*
X222127000Y-94018132D01*
X222127000Y-95123000D01*
X223469656Y-95123000D01*
X223520000Y-95035092D01*
X223570344Y-95123000D01*
X224913000Y-95123000D01*
X224913000Y-94018132D01*
X224861076Y-93980000D01*
X224913000Y-93941868D01*
X224913000Y-92837000D01*
X225167000Y-92837000D01*
X225167000Y-93941868D01*
X225218924Y-93980000D01*
X225167000Y-94018132D01*
X225167000Y-95123000D01*
X226509656Y-95123000D01*
X226632318Y-94908815D01*
X226613481Y-94805765D01*
X226342736Y-94333106D01*
X225911721Y-94000036D01*
X225837953Y-93980000D01*
X225911721Y-93959964D01*
X226342736Y-93626894D01*
X226613481Y-93154235D01*
X226632318Y-93051185D01*
X226509656Y-92837000D01*
X225167000Y-92837000D01*
X224913000Y-92837000D01*
X223570344Y-92837000D01*
X223520000Y-92924908D01*
X223469656Y-92837000D01*
X222127000Y-92837000D01*
X221873000Y-92837000D01*
X220530344Y-92837000D01*
X220407682Y-93051185D01*
X208852318Y-93051185D01*
X208729656Y-92837000D01*
X207387000Y-92837000D01*
X207133000Y-92837000D01*
X205790344Y-92837000D01*
X205740000Y-92924908D01*
X205689656Y-92837000D01*
X204347000Y-92837000D01*
X204093000Y-92837000D01*
X202750344Y-92837000D01*
X202627682Y-93051185D01*
X191072318Y-93051185D01*
X190949656Y-92837000D01*
X189607000Y-92837000D01*
X189353000Y-92837000D01*
X188010344Y-92837000D01*
X187960000Y-92924908D01*
X187909656Y-92837000D01*
X186567000Y-92837000D01*
X186313000Y-92837000D01*
X184970344Y-92837000D01*
X184847682Y-93051185D01*
X173292318Y-93051185D01*
X173169656Y-92837000D01*
X171827000Y-92837000D01*
X171573000Y-92837000D01*
X170230344Y-92837000D01*
X170180000Y-92924908D01*
X170129656Y-92837000D01*
X168787000Y-92837000D01*
X168533000Y-92837000D01*
X167190344Y-92837000D01*
X167067682Y-93051185D01*
X155512318Y-93051185D01*
X155389656Y-92837000D01*
X154047000Y-92837000D01*
X153793000Y-92837000D01*
X152450344Y-92837000D01*
X152400000Y-92924908D01*
X152349656Y-92837000D01*
X151007000Y-92837000D01*
X150753000Y-92837000D01*
X149410344Y-92837000D01*
X149287682Y-93051185D01*
X137732318Y-93051185D01*
X137609656Y-92837000D01*
X136267000Y-92837000D01*
X136013000Y-92837000D01*
X134670344Y-92837000D01*
X134620000Y-92924908D01*
X134569656Y-92837000D01*
X133227000Y-92837000D01*
X132973000Y-92837000D01*
X131630344Y-92837000D01*
X131507682Y-93051185D01*
X119952318Y-93051185D01*
X119829656Y-92837000D01*
X118487000Y-92837000D01*
X118233000Y-92837000D01*
X116890344Y-92837000D01*
X116840000Y-92924908D01*
X116789656Y-92837000D01*
X115447000Y-92837000D01*
X115193000Y-92837000D01*
X113850344Y-92837000D01*
X113727682Y-93051185D01*
X102172318Y-93051185D01*
X102049656Y-92837000D01*
X100707000Y-92837000D01*
X100453000Y-92837000D01*
X99110344Y-92837000D01*
X99060000Y-92924908D01*
X99009656Y-92837000D01*
X97667000Y-92837000D01*
X97413000Y-92837000D01*
X96070344Y-92837000D01*
X95947682Y-93051185D01*
X54431363Y-93051185D01*
X54179777Y-92938828D01*
X53011605Y-94107000D01*
X52652395Y-94107000D01*
X51484223Y-92938828D01*
X51189343Y-93070520D01*
X50917739Y-93778036D01*
X38556000Y-93778036D01*
X38556000Y-92759223D01*
X51663828Y-92759223D01*
X52832000Y-93927395D01*
X54000172Y-92759223D01*
X53868480Y-92464343D01*
X53160964Y-92192739D01*
X52403368Y-92212564D01*
X51795520Y-92464343D01*
X51663828Y-92759223D01*
X38556000Y-92759223D01*
X38556000Y-90511185D01*
X95947682Y-90511185D01*
X95966519Y-90614235D01*
X96237264Y-91086894D01*
X96668279Y-91419964D01*
X96742047Y-91440000D01*
X96668279Y-91460036D01*
X96237264Y-91793106D01*
X95966519Y-92265765D01*
X95947682Y-92368815D01*
X96070344Y-92583000D01*
X97413000Y-92583000D01*
X97413000Y-91478132D01*
X97361076Y-91440000D01*
X97413000Y-91401868D01*
X97413000Y-90297000D01*
X97667000Y-90297000D01*
X97667000Y-91401868D01*
X97718924Y-91440000D01*
X97667000Y-91478132D01*
X97667000Y-92583000D01*
X99009656Y-92583000D01*
X99060000Y-92495092D01*
X99110344Y-92583000D01*
X100453000Y-92583000D01*
X100453000Y-91478132D01*
X100401076Y-91440000D01*
X100453000Y-91401868D01*
X100453000Y-90297000D01*
X100707000Y-90297000D01*
X100707000Y-91401868D01*
X100758924Y-91440000D01*
X100707000Y-91478132D01*
X100707000Y-92583000D01*
X102049656Y-92583000D01*
X102172318Y-92368815D01*
X102153481Y-92265765D01*
X101882736Y-91793106D01*
X101451721Y-91460036D01*
X101377953Y-91440000D01*
X101451721Y-91419964D01*
X101882736Y-91086894D01*
X102153481Y-90614235D01*
X102172318Y-90511185D01*
X113727682Y-90511185D01*
X113746519Y-90614235D01*
X114017264Y-91086894D01*
X114448279Y-91419964D01*
X114522047Y-91440000D01*
X114448279Y-91460036D01*
X114017264Y-91793106D01*
X113746519Y-92265765D01*
X113727682Y-92368815D01*
X113850344Y-92583000D01*
X115193000Y-92583000D01*
X115193000Y-91478132D01*
X115141076Y-91440000D01*
X115193000Y-91401868D01*
X115193000Y-90297000D01*
X115447000Y-90297000D01*
X115447000Y-91401868D01*
X115498924Y-91440000D01*
X115447000Y-91478132D01*
X115447000Y-92583000D01*
X116789656Y-92583000D01*
X116840000Y-92495092D01*
X116890344Y-92583000D01*
X118233000Y-92583000D01*
X118233000Y-91478132D01*
X118181076Y-91440000D01*
X118233000Y-91401868D01*
X118233000Y-90297000D01*
X118487000Y-90297000D01*
X118487000Y-91401868D01*
X118538924Y-91440000D01*
X118487000Y-91478132D01*
X118487000Y-92583000D01*
X119829656Y-92583000D01*
X119952318Y-92368815D01*
X119933481Y-92265765D01*
X119662736Y-91793106D01*
X119231721Y-91460036D01*
X119157953Y-91440000D01*
X119231721Y-91419964D01*
X119662736Y-91086894D01*
X119933481Y-90614235D01*
X119952318Y-90511185D01*
X131507682Y-90511185D01*
X131526519Y-90614235D01*
X131797264Y-91086894D01*
X132228279Y-91419964D01*
X132302047Y-91440000D01*
X132228279Y-91460036D01*
X131797264Y-91793106D01*
X131526519Y-92265765D01*
X131507682Y-92368815D01*
X131630344Y-92583000D01*
X132973000Y-92583000D01*
X132973000Y-91478132D01*
X132921076Y-91440000D01*
X132973000Y-91401868D01*
X132973000Y-90297000D01*
X133227000Y-90297000D01*
X133227000Y-91401868D01*
X133278924Y-91440000D01*
X133227000Y-91478132D01*
X133227000Y-92583000D01*
X134569656Y-92583000D01*
X134620000Y-92495092D01*
X134670344Y-92583000D01*
X136013000Y-92583000D01*
X136013000Y-91478132D01*
X135961076Y-91440000D01*
X136013000Y-91401868D01*
X136013000Y-90297000D01*
X136267000Y-90297000D01*
X136267000Y-91401868D01*
X136318924Y-91440000D01*
X136267000Y-91478132D01*
X136267000Y-92583000D01*
X137609656Y-92583000D01*
X137732318Y-92368815D01*
X137713481Y-92265765D01*
X137442736Y-91793106D01*
X137011721Y-91460036D01*
X136937953Y-91440000D01*
X137011721Y-91419964D01*
X137442736Y-91086894D01*
X137713481Y-90614235D01*
X137732318Y-90511185D01*
X149287682Y-90511185D01*
X149306519Y-90614235D01*
X149577264Y-91086894D01*
X150008279Y-91419964D01*
X150082047Y-91440000D01*
X150008279Y-91460036D01*
X149577264Y-91793106D01*
X149306519Y-92265765D01*
X149287682Y-92368815D01*
X149410344Y-92583000D01*
X150753000Y-92583000D01*
X150753000Y-91478132D01*
X150701076Y-91440000D01*
X150753000Y-91401868D01*
X150753000Y-90297000D01*
X151007000Y-90297000D01*
X151007000Y-91401868D01*
X151058924Y-91440000D01*
X151007000Y-91478132D01*
X151007000Y-92583000D01*
X152349656Y-92583000D01*
X152400000Y-92495092D01*
X152450344Y-92583000D01*
X153793000Y-92583000D01*
X153793000Y-91478132D01*
X153741076Y-91440000D01*
X153793000Y-91401868D01*
X153793000Y-90297000D01*
X154047000Y-90297000D01*
X154047000Y-91401868D01*
X154098924Y-91440000D01*
X154047000Y-91478132D01*
X154047000Y-92583000D01*
X155389656Y-92583000D01*
X155512318Y-92368815D01*
X155493481Y-92265765D01*
X155222736Y-91793106D01*
X154791721Y-91460036D01*
X154717953Y-91440000D01*
X154791721Y-91419964D01*
X155222736Y-91086894D01*
X155493481Y-90614235D01*
X155512318Y-90511185D01*
X167067682Y-90511185D01*
X167086519Y-90614235D01*
X167357264Y-91086894D01*
X167788279Y-91419964D01*
X167862047Y-91440000D01*
X167788279Y-91460036D01*
X167357264Y-91793106D01*
X167086519Y-92265765D01*
X167067682Y-92368815D01*
X167190344Y-92583000D01*
X168533000Y-92583000D01*
X168533000Y-91478132D01*
X168481076Y-91440000D01*
X168533000Y-91401868D01*
X168533000Y-90297000D01*
X168787000Y-90297000D01*
X168787000Y-91401868D01*
X168838924Y-91440000D01*
X168787000Y-91478132D01*
X168787000Y-92583000D01*
X170129656Y-92583000D01*
X170180000Y-92495092D01*
X170230344Y-92583000D01*
X171573000Y-92583000D01*
X171573000Y-91478132D01*
X171521076Y-91440000D01*
X171573000Y-91401868D01*
X171573000Y-90297000D01*
X171827000Y-90297000D01*
X171827000Y-91401868D01*
X171878924Y-91440000D01*
X171827000Y-91478132D01*
X171827000Y-92583000D01*
X173169656Y-92583000D01*
X173292318Y-92368815D01*
X173273481Y-92265765D01*
X173002736Y-91793106D01*
X172571721Y-91460036D01*
X172497953Y-91440000D01*
X172571721Y-91419964D01*
X173002736Y-91086894D01*
X173273481Y-90614235D01*
X173292318Y-90511185D01*
X184847682Y-90511185D01*
X184866519Y-90614235D01*
X185137264Y-91086894D01*
X185568279Y-91419964D01*
X185642047Y-91440000D01*
X185568279Y-91460036D01*
X185137264Y-91793106D01*
X184866519Y-92265765D01*
X184847682Y-92368815D01*
X184970344Y-92583000D01*
X186313000Y-92583000D01*
X186313000Y-91478132D01*
X186261076Y-91440000D01*
X186313000Y-91401868D01*
X186313000Y-90297000D01*
X186567000Y-90297000D01*
X186567000Y-91401868D01*
X186618924Y-91440000D01*
X186567000Y-91478132D01*
X186567000Y-92583000D01*
X187909656Y-92583000D01*
X187960000Y-92495092D01*
X188010344Y-92583000D01*
X189353000Y-92583000D01*
X189353000Y-91478132D01*
X189301076Y-91440000D01*
X189353000Y-91401868D01*
X189353000Y-90297000D01*
X189607000Y-90297000D01*
X189607000Y-91401868D01*
X189658924Y-91440000D01*
X189607000Y-91478132D01*
X189607000Y-92583000D01*
X190949656Y-92583000D01*
X191072318Y-92368815D01*
X191053481Y-92265765D01*
X190782736Y-91793106D01*
X190351721Y-91460036D01*
X190277953Y-91440000D01*
X190351721Y-91419964D01*
X190782736Y-91086894D01*
X191053481Y-90614235D01*
X191072318Y-90511185D01*
X202627682Y-90511185D01*
X202646519Y-90614235D01*
X202917264Y-91086894D01*
X203348279Y-91419964D01*
X203422047Y-91440000D01*
X203348279Y-91460036D01*
X202917264Y-91793106D01*
X202646519Y-92265765D01*
X202627682Y-92368815D01*
X202750344Y-92583000D01*
X204093000Y-92583000D01*
X204093000Y-91478132D01*
X204041076Y-91440000D01*
X204093000Y-91401868D01*
X204093000Y-90297000D01*
X204347000Y-90297000D01*
X204347000Y-91401868D01*
X204398924Y-91440000D01*
X204347000Y-91478132D01*
X204347000Y-92583000D01*
X205689656Y-92583000D01*
X205740000Y-92495092D01*
X205790344Y-92583000D01*
X207133000Y-92583000D01*
X207133000Y-91478132D01*
X207081076Y-91440000D01*
X207133000Y-91401868D01*
X207133000Y-90297000D01*
X207387000Y-90297000D01*
X207387000Y-91401868D01*
X207438924Y-91440000D01*
X207387000Y-91478132D01*
X207387000Y-92583000D01*
X208729656Y-92583000D01*
X208852318Y-92368815D01*
X208833481Y-92265765D01*
X208562736Y-91793106D01*
X208131721Y-91460036D01*
X208057953Y-91440000D01*
X208131721Y-91419964D01*
X208562736Y-91086894D01*
X208833481Y-90614235D01*
X208852318Y-90511185D01*
X220407682Y-90511185D01*
X220426519Y-90614235D01*
X220697264Y-91086894D01*
X221128279Y-91419964D01*
X221202047Y-91440000D01*
X221128279Y-91460036D01*
X220697264Y-91793106D01*
X220426519Y-92265765D01*
X220407682Y-92368815D01*
X220530344Y-92583000D01*
X221873000Y-92583000D01*
X221873000Y-91478132D01*
X221821076Y-91440000D01*
X221873000Y-91401868D01*
X221873000Y-90297000D01*
X222127000Y-90297000D01*
X222127000Y-91401868D01*
X222178924Y-91440000D01*
X222127000Y-91478132D01*
X222127000Y-92583000D01*
X223469656Y-92583000D01*
X223520000Y-92495092D01*
X223570344Y-92583000D01*
X224913000Y-92583000D01*
X224913000Y-91478132D01*
X224861076Y-91440000D01*
X224913000Y-91401868D01*
X224913000Y-90297000D01*
X225167000Y-90297000D01*
X225167000Y-91401868D01*
X225218924Y-91440000D01*
X225167000Y-91478132D01*
X225167000Y-92583000D01*
X226509656Y-92583000D01*
X226632318Y-92368815D01*
X226613481Y-92265765D01*
X226342736Y-91793106D01*
X225911721Y-91460036D01*
X225837953Y-91440000D01*
X225911721Y-91419964D01*
X226342736Y-91086894D01*
X226613481Y-90614235D01*
X226632318Y-90511185D01*
X226509656Y-90297000D01*
X225167000Y-90297000D01*
X224913000Y-90297000D01*
X223570344Y-90297000D01*
X223520000Y-90384908D01*
X223469656Y-90297000D01*
X222127000Y-90297000D01*
X221873000Y-90297000D01*
X220530344Y-90297000D01*
X220407682Y-90511185D01*
X208852318Y-90511185D01*
X208729656Y-90297000D01*
X207387000Y-90297000D01*
X207133000Y-90297000D01*
X205790344Y-90297000D01*
X205740000Y-90384908D01*
X205689656Y-90297000D01*
X204347000Y-90297000D01*
X204093000Y-90297000D01*
X202750344Y-90297000D01*
X202627682Y-90511185D01*
X191072318Y-90511185D01*
X190949656Y-90297000D01*
X189607000Y-90297000D01*
X189353000Y-90297000D01*
X188010344Y-90297000D01*
X187960000Y-90384908D01*
X187909656Y-90297000D01*
X186567000Y-90297000D01*
X186313000Y-90297000D01*
X184970344Y-90297000D01*
X184847682Y-90511185D01*
X173292318Y-90511185D01*
X173169656Y-90297000D01*
X171827000Y-90297000D01*
X171573000Y-90297000D01*
X170230344Y-90297000D01*
X170180000Y-90384908D01*
X170129656Y-90297000D01*
X168787000Y-90297000D01*
X168533000Y-90297000D01*
X167190344Y-90297000D01*
X167067682Y-90511185D01*
X155512318Y-90511185D01*
X155389656Y-90297000D01*
X154047000Y-90297000D01*
X153793000Y-90297000D01*
X152450344Y-90297000D01*
X152400000Y-90384908D01*
X152349656Y-90297000D01*
X151007000Y-90297000D01*
X150753000Y-90297000D01*
X149410344Y-90297000D01*
X149287682Y-90511185D01*
X137732318Y-90511185D01*
X137609656Y-90297000D01*
X136267000Y-90297000D01*
X136013000Y-90297000D01*
X134670344Y-90297000D01*
X134620000Y-90384908D01*
X134569656Y-90297000D01*
X133227000Y-90297000D01*
X132973000Y-90297000D01*
X131630344Y-90297000D01*
X131507682Y-90511185D01*
X119952318Y-90511185D01*
X119829656Y-90297000D01*
X118487000Y-90297000D01*
X118233000Y-90297000D01*
X116890344Y-90297000D01*
X116840000Y-90384908D01*
X116789656Y-90297000D01*
X115447000Y-90297000D01*
X115193000Y-90297000D01*
X113850344Y-90297000D01*
X113727682Y-90511185D01*
X102172318Y-90511185D01*
X102049656Y-90297000D01*
X100707000Y-90297000D01*
X100453000Y-90297000D01*
X99110344Y-90297000D01*
X99060000Y-90384908D01*
X99009656Y-90297000D01*
X97667000Y-90297000D01*
X97413000Y-90297000D01*
X96070344Y-90297000D01*
X95947682Y-90511185D01*
X38556000Y-90511185D01*
X38556000Y-89828815D01*
X95947682Y-89828815D01*
X96070344Y-90043000D01*
X97413000Y-90043000D01*
X97413000Y-88938132D01*
X97667000Y-88938132D01*
X97667000Y-90043000D01*
X99009656Y-90043000D01*
X99060000Y-89955092D01*
X99110344Y-90043000D01*
X100453000Y-90043000D01*
X100453000Y-88938132D01*
X100707000Y-88938132D01*
X100707000Y-90043000D01*
X102049656Y-90043000D01*
X102172318Y-89828815D01*
X113727682Y-89828815D01*
X113850344Y-90043000D01*
X115193000Y-90043000D01*
X115193000Y-88938132D01*
X115447000Y-88938132D01*
X115447000Y-90043000D01*
X116789656Y-90043000D01*
X116840000Y-89955092D01*
X116890344Y-90043000D01*
X118233000Y-90043000D01*
X118233000Y-88938132D01*
X118487000Y-88938132D01*
X118487000Y-90043000D01*
X119829656Y-90043000D01*
X119952318Y-89828815D01*
X131507682Y-89828815D01*
X131630344Y-90043000D01*
X132973000Y-90043000D01*
X132973000Y-88938132D01*
X133227000Y-88938132D01*
X133227000Y-90043000D01*
X134569656Y-90043000D01*
X134620000Y-89955092D01*
X134670344Y-90043000D01*
X136013000Y-90043000D01*
X136013000Y-88938132D01*
X136267000Y-88938132D01*
X136267000Y-90043000D01*
X137609656Y-90043000D01*
X137732318Y-89828815D01*
X149287682Y-89828815D01*
X149410344Y-90043000D01*
X150753000Y-90043000D01*
X150753000Y-88938132D01*
X151007000Y-88938132D01*
X151007000Y-90043000D01*
X152349656Y-90043000D01*
X152400000Y-89955092D01*
X152450344Y-90043000D01*
X153793000Y-90043000D01*
X153793000Y-88938132D01*
X154047000Y-88938132D01*
X154047000Y-90043000D01*
X155389656Y-90043000D01*
X155512318Y-89828815D01*
X167067682Y-89828815D01*
X167190344Y-90043000D01*
X168533000Y-90043000D01*
X168533000Y-88938132D01*
X168787000Y-88938132D01*
X168787000Y-90043000D01*
X170129656Y-90043000D01*
X170180000Y-89955092D01*
X170230344Y-90043000D01*
X171573000Y-90043000D01*
X171573000Y-88938132D01*
X171827000Y-88938132D01*
X171827000Y-90043000D01*
X173169656Y-90043000D01*
X173292318Y-89828815D01*
X184847682Y-89828815D01*
X184970344Y-90043000D01*
X186313000Y-90043000D01*
X186313000Y-88938132D01*
X186567000Y-88938132D01*
X186567000Y-90043000D01*
X187909656Y-90043000D01*
X187960000Y-89955092D01*
X188010344Y-90043000D01*
X189353000Y-90043000D01*
X189353000Y-88938132D01*
X189607000Y-88938132D01*
X189607000Y-90043000D01*
X190949656Y-90043000D01*
X191072318Y-89828815D01*
X202627682Y-89828815D01*
X202750344Y-90043000D01*
X204093000Y-90043000D01*
X204093000Y-88938132D01*
X204347000Y-88938132D01*
X204347000Y-90043000D01*
X205689656Y-90043000D01*
X205740000Y-89955092D01*
X205790344Y-90043000D01*
X207133000Y-90043000D01*
X207133000Y-88938132D01*
X207387000Y-88938132D01*
X207387000Y-90043000D01*
X208729656Y-90043000D01*
X208852318Y-89828815D01*
X220407682Y-89828815D01*
X220530344Y-90043000D01*
X221873000Y-90043000D01*
X221873000Y-88938132D01*
X222127000Y-88938132D01*
X222127000Y-90043000D01*
X223469656Y-90043000D01*
X223520000Y-89955092D01*
X223570344Y-90043000D01*
X224913000Y-90043000D01*
X224913000Y-88938132D01*
X225167000Y-88938132D01*
X225167000Y-90043000D01*
X226509656Y-90043000D01*
X226632318Y-89828815D01*
X226613481Y-89725765D01*
X226342736Y-89253106D01*
X225911721Y-88920036D01*
X225386055Y-88777261D01*
X225167000Y-88938132D01*
X224913000Y-88938132D01*
X224693945Y-88777261D01*
X224168279Y-88920036D01*
X223737264Y-89253106D01*
X223520000Y-89632399D01*
X223302736Y-89253106D01*
X222871721Y-88920036D01*
X222346055Y-88777261D01*
X222127000Y-88938132D01*
X221873000Y-88938132D01*
X221653945Y-88777261D01*
X221128279Y-88920036D01*
X220697264Y-89253106D01*
X220426519Y-89725765D01*
X220407682Y-89828815D01*
X208852318Y-89828815D01*
X208833481Y-89725765D01*
X208562736Y-89253106D01*
X208131721Y-88920036D01*
X207606055Y-88777261D01*
X207387000Y-88938132D01*
X207133000Y-88938132D01*
X206913945Y-88777261D01*
X206388279Y-88920036D01*
X205957264Y-89253106D01*
X205740000Y-89632399D01*
X205522736Y-89253106D01*
X205091721Y-88920036D01*
X204566055Y-88777261D01*
X204347000Y-88938132D01*
X204093000Y-88938132D01*
X203873945Y-88777261D01*
X203348279Y-88920036D01*
X202917264Y-89253106D01*
X202646519Y-89725765D01*
X202627682Y-89828815D01*
X191072318Y-89828815D01*
X191053481Y-89725765D01*
X190782736Y-89253106D01*
X190351721Y-88920036D01*
X189826055Y-88777261D01*
X189607000Y-88938132D01*
X189353000Y-88938132D01*
X189133945Y-88777261D01*
X188608279Y-88920036D01*
X188177264Y-89253106D01*
X187960000Y-89632399D01*
X187742736Y-89253106D01*
X187311721Y-88920036D01*
X186786055Y-88777261D01*
X186567000Y-88938132D01*
X186313000Y-88938132D01*
X186093945Y-88777261D01*
X185568279Y-88920036D01*
X185137264Y-89253106D01*
X184866519Y-89725765D01*
X184847682Y-89828815D01*
X173292318Y-89828815D01*
X173273481Y-89725765D01*
X173002736Y-89253106D01*
X172571721Y-88920036D01*
X172046055Y-88777261D01*
X171827000Y-88938132D01*
X171573000Y-88938132D01*
X171353945Y-88777261D01*
X170828279Y-88920036D01*
X170397264Y-89253106D01*
X170180000Y-89632399D01*
X169962736Y-89253106D01*
X169531721Y-88920036D01*
X169006055Y-88777261D01*
X168787000Y-88938132D01*
X168533000Y-88938132D01*
X168313945Y-88777261D01*
X167788279Y-88920036D01*
X167357264Y-89253106D01*
X167086519Y-89725765D01*
X167067682Y-89828815D01*
X155512318Y-89828815D01*
X155493481Y-89725765D01*
X155222736Y-89253106D01*
X154791721Y-88920036D01*
X154266055Y-88777261D01*
X154047000Y-88938132D01*
X153793000Y-88938132D01*
X153573945Y-88777261D01*
X153048279Y-88920036D01*
X152617264Y-89253106D01*
X152400000Y-89632399D01*
X152182736Y-89253106D01*
X151751721Y-88920036D01*
X151226055Y-88777261D01*
X151007000Y-88938132D01*
X150753000Y-88938132D01*
X150533945Y-88777261D01*
X150008279Y-88920036D01*
X149577264Y-89253106D01*
X149306519Y-89725765D01*
X149287682Y-89828815D01*
X137732318Y-89828815D01*
X137713481Y-89725765D01*
X137442736Y-89253106D01*
X137011721Y-88920036D01*
X136486055Y-88777261D01*
X136267000Y-88938132D01*
X136013000Y-88938132D01*
X135793945Y-88777261D01*
X135268279Y-88920036D01*
X134837264Y-89253106D01*
X134620000Y-89632399D01*
X134402736Y-89253106D01*
X133971721Y-88920036D01*
X133446055Y-88777261D01*
X133227000Y-88938132D01*
X132973000Y-88938132D01*
X132753945Y-88777261D01*
X132228279Y-88920036D01*
X131797264Y-89253106D01*
X131526519Y-89725765D01*
X131507682Y-89828815D01*
X119952318Y-89828815D01*
X119933481Y-89725765D01*
X119662736Y-89253106D01*
X119231721Y-88920036D01*
X118706055Y-88777261D01*
X118487000Y-88938132D01*
X118233000Y-88938132D01*
X118013945Y-88777261D01*
X117488279Y-88920036D01*
X117057264Y-89253106D01*
X116840000Y-89632399D01*
X116622736Y-89253106D01*
X116191721Y-88920036D01*
X115666055Y-88777261D01*
X115447000Y-88938132D01*
X115193000Y-88938132D01*
X114973945Y-88777261D01*
X114448279Y-88920036D01*
X114017264Y-89253106D01*
X113746519Y-89725765D01*
X113727682Y-89828815D01*
X102172318Y-89828815D01*
X102153481Y-89725765D01*
X101882736Y-89253106D01*
X101451721Y-88920036D01*
X100926055Y-88777261D01*
X100707000Y-88938132D01*
X100453000Y-88938132D01*
X100233945Y-88777261D01*
X99708279Y-88920036D01*
X99277264Y-89253106D01*
X99060000Y-89632399D01*
X98842736Y-89253106D01*
X98411721Y-88920036D01*
X97886055Y-88777261D01*
X97667000Y-88938132D01*
X97413000Y-88938132D01*
X97193945Y-88777261D01*
X96668279Y-88920036D01*
X96237264Y-89253106D01*
X95966519Y-89725765D01*
X95947682Y-89828815D01*
X38556000Y-89828815D01*
X38556000Y-86627000D01*
X51180877Y-86627000D01*
X51180714Y-86813963D01*
X51180714Y-86813963D01*
G37*
X51180714Y-86813963D02*
X51431534Y-87420995D01*
X51895563Y-87885834D01*
X52502155Y-88137713D01*
X53158963Y-88138286D01*
X53765995Y-87887466D01*
X54230834Y-87423437D01*
X54482713Y-86816845D01*
X54482879Y-86627000D01*
X71500877Y-86627000D01*
X71500714Y-86813963D01*
X71751534Y-87420995D01*
X72215563Y-87885834D01*
X72822155Y-88137713D01*
X73478963Y-88138286D01*
X74085995Y-87887466D01*
X74550834Y-87423437D01*
X74802713Y-86816845D01*
X74802879Y-86627000D01*
X96251743Y-86627000D01*
X96182141Y-86728866D01*
X96151536Y-86880000D01*
X96151536Y-88380000D01*
X96178103Y-88521190D01*
X96261546Y-88650865D01*
X96388866Y-88737859D01*
X96540000Y-88768464D01*
X98540000Y-88768464D01*
X98681190Y-88741897D01*
X98810865Y-88658454D01*
X98897859Y-88531134D01*
X98928464Y-88380000D01*
X98928464Y-86880000D01*
X98901897Y-86738810D01*
X98829950Y-86627000D01*
X99807410Y-86627000D01*
X99503207Y-86830262D01*
X99258037Y-87197185D01*
X99171945Y-87630000D01*
X99258037Y-88062815D01*
X99503207Y-88429738D01*
X99870130Y-88674908D01*
X100302945Y-88761000D01*
X100857055Y-88761000D01*
X101289870Y-88674908D01*
X101656793Y-88429738D01*
X101901963Y-88062815D01*
X101988055Y-87630000D01*
X101901963Y-87197185D01*
X101656793Y-86830262D01*
X101352590Y-86627000D01*
X114031743Y-86627000D01*
X113962141Y-86728866D01*
X113931536Y-86880000D01*
X113931536Y-88380000D01*
X113958103Y-88521190D01*
X114041546Y-88650865D01*
X114168866Y-88737859D01*
X114320000Y-88768464D01*
X116320000Y-88768464D01*
X116461190Y-88741897D01*
X116590865Y-88658454D01*
X116677859Y-88531134D01*
X116708464Y-88380000D01*
X116708464Y-86880000D01*
X116681897Y-86738810D01*
X116609950Y-86627000D01*
X117587410Y-86627000D01*
X117283207Y-86830262D01*
X117038037Y-87197185D01*
X116951945Y-87630000D01*
X117038037Y-88062815D01*
X117283207Y-88429738D01*
X117650130Y-88674908D01*
X118082945Y-88761000D01*
X118637055Y-88761000D01*
X119069870Y-88674908D01*
X119436793Y-88429738D01*
X119681963Y-88062815D01*
X119768055Y-87630000D01*
X119681963Y-87197185D01*
X119436793Y-86830262D01*
X119132590Y-86627000D01*
X131811743Y-86627000D01*
X131742141Y-86728866D01*
X131711536Y-86880000D01*
X131711536Y-88380000D01*
X131738103Y-88521190D01*
X131821546Y-88650865D01*
X131948866Y-88737859D01*
X132100000Y-88768464D01*
X134100000Y-88768464D01*
X134241190Y-88741897D01*
X134370865Y-88658454D01*
X134457859Y-88531134D01*
X134488464Y-88380000D01*
X134488464Y-86880000D01*
X134461897Y-86738810D01*
X134389950Y-86627000D01*
X135367410Y-86627000D01*
X135063207Y-86830262D01*
X134818037Y-87197185D01*
X134731945Y-87630000D01*
X134818037Y-88062815D01*
X135063207Y-88429738D01*
X135430130Y-88674908D01*
X135862945Y-88761000D01*
X136417055Y-88761000D01*
X136849870Y-88674908D01*
X137216793Y-88429738D01*
X137461963Y-88062815D01*
X137548055Y-87630000D01*
X137461963Y-87197185D01*
X137216793Y-86830262D01*
X136912590Y-86627000D01*
X149591743Y-86627000D01*
X149522141Y-86728866D01*
X149491536Y-86880000D01*
X149491536Y-88380000D01*
X149518103Y-88521190D01*
X149601546Y-88650865D01*
X149728866Y-88737859D01*
X149880000Y-88768464D01*
X151880000Y-88768464D01*
X152021190Y-88741897D01*
X152150865Y-88658454D01*
X152237859Y-88531134D01*
X152268464Y-88380000D01*
X152268464Y-86880000D01*
X152241897Y-86738810D01*
X152169950Y-86627000D01*
X153147410Y-86627000D01*
X152843207Y-86830262D01*
X152598037Y-87197185D01*
X152511945Y-87630000D01*
X152598037Y-88062815D01*
X152843207Y-88429738D01*
X153210130Y-88674908D01*
X153642945Y-88761000D01*
X154197055Y-88761000D01*
X154629870Y-88674908D01*
X154996793Y-88429738D01*
X155241963Y-88062815D01*
X155328055Y-87630000D01*
X155241963Y-87197185D01*
X154996793Y-86830262D01*
X154692590Y-86627000D01*
X167371743Y-86627000D01*
X167302141Y-86728866D01*
X167271536Y-86880000D01*
X167271536Y-88380000D01*
X167298103Y-88521190D01*
X167381546Y-88650865D01*
X167508866Y-88737859D01*
X167660000Y-88768464D01*
X169660000Y-88768464D01*
X169801190Y-88741897D01*
X169930865Y-88658454D01*
X170017859Y-88531134D01*
X170048464Y-88380000D01*
X170048464Y-86880000D01*
X170021897Y-86738810D01*
X169949950Y-86627000D01*
X170927410Y-86627000D01*
X170623207Y-86830262D01*
X170378037Y-87197185D01*
X170291945Y-87630000D01*
X170378037Y-88062815D01*
X170623207Y-88429738D01*
X170990130Y-88674908D01*
X171422945Y-88761000D01*
X171977055Y-88761000D01*
X172409870Y-88674908D01*
X172776793Y-88429738D01*
X173021963Y-88062815D01*
X173108055Y-87630000D01*
X173021963Y-87197185D01*
X172776793Y-86830262D01*
X172472590Y-86627000D01*
X185151743Y-86627000D01*
X185082141Y-86728866D01*
X185051536Y-86880000D01*
X185051536Y-88380000D01*
X185078103Y-88521190D01*
X185161546Y-88650865D01*
X185288866Y-88737859D01*
X185440000Y-88768464D01*
X187440000Y-88768464D01*
X187581190Y-88741897D01*
X187710865Y-88658454D01*
X187797859Y-88531134D01*
X187828464Y-88380000D01*
X187828464Y-86880000D01*
X187801897Y-86738810D01*
X187729950Y-86627000D01*
X188707410Y-86627000D01*
X188403207Y-86830262D01*
X188158037Y-87197185D01*
X188071945Y-87630000D01*
X188158037Y-88062815D01*
X188403207Y-88429738D01*
X188770130Y-88674908D01*
X189202945Y-88761000D01*
X189757055Y-88761000D01*
X190189870Y-88674908D01*
X190556793Y-88429738D01*
X190801963Y-88062815D01*
X190888055Y-87630000D01*
X190801963Y-87197185D01*
X190556793Y-86830262D01*
X190252590Y-86627000D01*
X202931743Y-86627000D01*
X202862141Y-86728866D01*
X202831536Y-86880000D01*
X202831536Y-88380000D01*
X202858103Y-88521190D01*
X202941546Y-88650865D01*
X203068866Y-88737859D01*
X203220000Y-88768464D01*
X205220000Y-88768464D01*
X205361190Y-88741897D01*
X205490865Y-88658454D01*
X205577859Y-88531134D01*
X205608464Y-88380000D01*
X205608464Y-86880000D01*
X205581897Y-86738810D01*
X205509950Y-86627000D01*
X206487410Y-86627000D01*
X206183207Y-86830262D01*
X205938037Y-87197185D01*
X205851945Y-87630000D01*
X205938037Y-88062815D01*
X206183207Y-88429738D01*
X206550130Y-88674908D01*
X206982945Y-88761000D01*
X207537055Y-88761000D01*
X207969870Y-88674908D01*
X208336793Y-88429738D01*
X208581963Y-88062815D01*
X208668055Y-87630000D01*
X208581963Y-87197185D01*
X208336793Y-86830262D01*
X208032590Y-86627000D01*
X220711743Y-86627000D01*
X220642141Y-86728866D01*
X220611536Y-86880000D01*
X220611536Y-88380000D01*
X220638103Y-88521190D01*
X220721546Y-88650865D01*
X220848866Y-88737859D01*
X221000000Y-88768464D01*
X223000000Y-88768464D01*
X223141190Y-88741897D01*
X223270865Y-88658454D01*
X223357859Y-88531134D01*
X223388464Y-88380000D01*
X223388464Y-86880000D01*
X223361897Y-86738810D01*
X223289950Y-86627000D01*
X224267410Y-86627000D01*
X223963207Y-86830262D01*
X223718037Y-87197185D01*
X223631945Y-87630000D01*
X223718037Y-88062815D01*
X223963207Y-88429738D01*
X224330130Y-88674908D01*
X224762945Y-88761000D01*
X225317055Y-88761000D01*
X225749870Y-88674908D01*
X226116793Y-88429738D01*
X226361963Y-88062815D01*
X226448055Y-87630000D01*
X226361963Y-87197185D01*
X226116793Y-86830262D01*
X225812590Y-86627000D01*
X237034000Y-86627000D01*
X237034000Y-105773000D01*
X226375850Y-105773000D01*
X226448055Y-105410000D01*
X226361963Y-104977185D01*
X226116793Y-104610262D01*
X225749870Y-104365092D01*
X225317055Y-104279000D01*
X224762945Y-104279000D01*
X224330130Y-104365092D01*
X223963207Y-104610262D01*
X223718037Y-104977185D01*
X223631945Y-105410000D01*
X223704150Y-105773000D01*
X223335850Y-105773000D01*
X223408055Y-105410000D01*
X223321963Y-104977185D01*
X223076793Y-104610262D01*
X222709870Y-104365092D01*
X222277055Y-104279000D01*
X221722945Y-104279000D01*
X221290130Y-104365092D01*
X220923207Y-104610262D01*
X220678037Y-104977185D01*
X220591945Y-105410000D01*
X220664150Y-105773000D01*
X208595850Y-105773000D01*
X208668055Y-105410000D01*
X208581963Y-104977185D01*
X208336793Y-104610262D01*
X207969870Y-104365092D01*
X207537055Y-104279000D01*
X206982945Y-104279000D01*
X206550130Y-104365092D01*
X206183207Y-104610262D01*
X205938037Y-104977185D01*
X205851945Y-105410000D01*
X205924150Y-105773000D01*
X205555850Y-105773000D01*
X205628055Y-105410000D01*
X205541963Y-104977185D01*
X205296793Y-104610262D01*
X204929870Y-104365092D01*
X204497055Y-104279000D01*
X203942945Y-104279000D01*
X203510130Y-104365092D01*
X203143207Y-104610262D01*
X202898037Y-104977185D01*
X202811945Y-105410000D01*
X202884150Y-105773000D01*
X190815850Y-105773000D01*
X190888055Y-105410000D01*
X190801963Y-104977185D01*
X190556793Y-104610262D01*
X190189870Y-104365092D01*
X189757055Y-104279000D01*
X189202945Y-104279000D01*
X188770130Y-104365092D01*
X188403207Y-104610262D01*
X188158037Y-104977185D01*
X188071945Y-105410000D01*
X188144150Y-105773000D01*
X187775850Y-105773000D01*
X187848055Y-105410000D01*
X187761963Y-104977185D01*
X187516793Y-104610262D01*
X187149870Y-104365092D01*
X186717055Y-104279000D01*
X186162945Y-104279000D01*
X185730130Y-104365092D01*
X185363207Y-104610262D01*
X185118037Y-104977185D01*
X185031945Y-105410000D01*
X185104150Y-105773000D01*
X173035850Y-105773000D01*
X173108055Y-105410000D01*
X173021963Y-104977185D01*
X172776793Y-104610262D01*
X172409870Y-104365092D01*
X171977055Y-104279000D01*
X171422945Y-104279000D01*
X170990130Y-104365092D01*
X170623207Y-104610262D01*
X170378037Y-104977185D01*
X170291945Y-105410000D01*
X170364150Y-105773000D01*
X169995850Y-105773000D01*
X170068055Y-105410000D01*
X169981963Y-104977185D01*
X169736793Y-104610262D01*
X169369870Y-104365092D01*
X168937055Y-104279000D01*
X168382945Y-104279000D01*
X167950130Y-104365092D01*
X167583207Y-104610262D01*
X167338037Y-104977185D01*
X167251945Y-105410000D01*
X167324150Y-105773000D01*
X155255850Y-105773000D01*
X155328055Y-105410000D01*
X155241963Y-104977185D01*
X154996793Y-104610262D01*
X154629870Y-104365092D01*
X154197055Y-104279000D01*
X153642945Y-104279000D01*
X153210130Y-104365092D01*
X152843207Y-104610262D01*
X152598037Y-104977185D01*
X152511945Y-105410000D01*
X152584150Y-105773000D01*
X152215850Y-105773000D01*
X152288055Y-105410000D01*
X152201963Y-104977185D01*
X151956793Y-104610262D01*
X151589870Y-104365092D01*
X151157055Y-104279000D01*
X150602945Y-104279000D01*
X150170130Y-104365092D01*
X149803207Y-104610262D01*
X149558037Y-104977185D01*
X149471945Y-105410000D01*
X149544150Y-105773000D01*
X137475850Y-105773000D01*
X137548055Y-105410000D01*
X137461963Y-104977185D01*
X137216793Y-104610262D01*
X136849870Y-104365092D01*
X136417055Y-104279000D01*
X135862945Y-104279000D01*
X135430130Y-104365092D01*
X135063207Y-104610262D01*
X134818037Y-104977185D01*
X134731945Y-105410000D01*
X134804150Y-105773000D01*
X134435850Y-105773000D01*
X134508055Y-105410000D01*
X134421963Y-104977185D01*
X134176793Y-104610262D01*
X133809870Y-104365092D01*
X133377055Y-104279000D01*
X132822945Y-104279000D01*
X132390130Y-104365092D01*
X132023207Y-104610262D01*
X131778037Y-104977185D01*
X131691945Y-105410000D01*
X131764150Y-105773000D01*
X119695850Y-105773000D01*
X119768055Y-105410000D01*
X119681963Y-104977185D01*
X119436793Y-104610262D01*
X119069870Y-104365092D01*
X118637055Y-104279000D01*
X118082945Y-104279000D01*
X117650130Y-104365092D01*
X117283207Y-104610262D01*
X117038037Y-104977185D01*
X116951945Y-105410000D01*
X117024150Y-105773000D01*
X116655850Y-105773000D01*
X116728055Y-105410000D01*
X116641963Y-104977185D01*
X116396793Y-104610262D01*
X116029870Y-104365092D01*
X115597055Y-104279000D01*
X115042945Y-104279000D01*
X114610130Y-104365092D01*
X114243207Y-104610262D01*
X113998037Y-104977185D01*
X113911945Y-105410000D01*
X113984150Y-105773000D01*
X101915850Y-105773000D01*
X101988055Y-105410000D01*
X101901963Y-104977185D01*
X101656793Y-104610262D01*
X101289870Y-104365092D01*
X100857055Y-104279000D01*
X100302945Y-104279000D01*
X99870130Y-104365092D01*
X99503207Y-104610262D01*
X99258037Y-104977185D01*
X99171945Y-105410000D01*
X99244150Y-105773000D01*
X98875850Y-105773000D01*
X98948055Y-105410000D01*
X98861963Y-104977185D01*
X98616793Y-104610262D01*
X98249870Y-104365092D01*
X97817055Y-104279000D01*
X97262945Y-104279000D01*
X96830130Y-104365092D01*
X96463207Y-104610262D01*
X96218037Y-104977185D01*
X96131945Y-105410000D01*
X96204150Y-105773000D01*
X87633759Y-105773000D01*
X87694812Y-105625968D01*
X87695187Y-105195919D01*
X87530962Y-104798463D01*
X87227137Y-104494107D01*
X86829968Y-104329188D01*
X86399919Y-104328813D01*
X86002463Y-104493038D01*
X85698107Y-104796863D01*
X85533188Y-105194032D01*
X85532813Y-105624081D01*
X85594345Y-105773000D01*
X74452635Y-105773000D01*
X74088437Y-105408166D01*
X73481845Y-105156287D01*
X72825037Y-105155714D01*
X72218005Y-105406534D01*
X71850899Y-105773000D01*
X38556000Y-105773000D01*
X38556000Y-103484750D01*
X41684000Y-103484750D01*
X41684000Y-104575309D01*
X41780673Y-104808698D01*
X41959301Y-104987327D01*
X42192690Y-105084000D01*
X43783250Y-105084000D01*
X43942000Y-104925250D01*
X43942000Y-103326000D01*
X44196000Y-103326000D01*
X44196000Y-104925250D01*
X44354750Y-105084000D01*
X45945310Y-105084000D01*
X46178699Y-104987327D01*
X46357327Y-104808698D01*
X46454000Y-104575309D01*
X46454000Y-103805275D01*
X85858331Y-103805275D01*
X85920169Y-104041042D01*
X86421122Y-104217419D01*
X86951440Y-104188664D01*
X87307831Y-104041042D01*
X87369669Y-103805275D01*
X86614000Y-103049605D01*
X85858331Y-103805275D01*
X46454000Y-103805275D01*
X46454000Y-103484750D01*
X46295250Y-103326000D01*
X44196000Y-103326000D01*
X43942000Y-103326000D01*
X41842750Y-103326000D01*
X41684000Y-103484750D01*
X38556000Y-103484750D01*
X38556000Y-101822691D01*
X41684000Y-101822691D01*
X41684000Y-102913250D01*
X41842750Y-103072000D01*
X43942000Y-103072000D01*
X43942000Y-101472750D01*
X44196000Y-101472750D01*
X44196000Y-103072000D01*
X46295250Y-103072000D01*
X46454000Y-102913250D01*
X46454000Y-102677122D01*
X85266581Y-102677122D01*
X85295336Y-103207440D01*
X85442958Y-103563831D01*
X85678725Y-103625669D01*
X86434395Y-102870000D01*
X86793605Y-102870000D01*
X87549275Y-103625669D01*
X87785042Y-103563831D01*
X87961419Y-103062878D01*
X87950961Y-102870000D01*
X96131945Y-102870000D01*
X96218037Y-103302815D01*
X96463207Y-103669738D01*
X96830130Y-103914908D01*
X97262945Y-104001000D01*
X97817055Y-104001000D01*
X98249870Y-103914908D01*
X98616793Y-103669738D01*
X98861963Y-103302815D01*
X98948055Y-102870000D01*
X99171945Y-102870000D01*
X99258037Y-103302815D01*
X99503207Y-103669738D01*
X99870130Y-103914908D01*
X100302945Y-104001000D01*
X100857055Y-104001000D01*
X101289870Y-103914908D01*
X101656793Y-103669738D01*
X101901963Y-103302815D01*
X101988055Y-102870000D01*
X113911945Y-102870000D01*
X113998037Y-103302815D01*
X114243207Y-103669738D01*
X114610130Y-103914908D01*
X115042945Y-104001000D01*
X115597055Y-104001000D01*
X116029870Y-103914908D01*
X116396793Y-103669738D01*
X116641963Y-103302815D01*
X116728055Y-102870000D01*
X116951945Y-102870000D01*
X117038037Y-103302815D01*
X117283207Y-103669738D01*
X117650130Y-103914908D01*
X118082945Y-104001000D01*
X118637055Y-104001000D01*
X119069870Y-103914908D01*
X119436793Y-103669738D01*
X119681963Y-103302815D01*
X119768055Y-102870000D01*
X131691945Y-102870000D01*
X131778037Y-103302815D01*
X132023207Y-103669738D01*
X132390130Y-103914908D01*
X132822945Y-104001000D01*
X133377055Y-104001000D01*
X133809870Y-103914908D01*
X134176793Y-103669738D01*
X134421963Y-103302815D01*
X134508055Y-102870000D01*
X134731945Y-102870000D01*
X134818037Y-103302815D01*
X135063207Y-103669738D01*
X135430130Y-103914908D01*
X135862945Y-104001000D01*
X136417055Y-104001000D01*
X136849870Y-103914908D01*
X137216793Y-103669738D01*
X137461963Y-103302815D01*
X137548055Y-102870000D01*
X149471945Y-102870000D01*
X149558037Y-103302815D01*
X149803207Y-103669738D01*
X150170130Y-103914908D01*
X150602945Y-104001000D01*
X151157055Y-104001000D01*
X151589870Y-103914908D01*
X151956793Y-103669738D01*
X152201963Y-103302815D01*
X152288055Y-102870000D01*
X152511945Y-102870000D01*
X152598037Y-103302815D01*
X152843207Y-103669738D01*
X153210130Y-103914908D01*
X153642945Y-104001000D01*
X154197055Y-104001000D01*
X154629870Y-103914908D01*
X154996793Y-103669738D01*
X155241963Y-103302815D01*
X155328055Y-102870000D01*
X167251945Y-102870000D01*
X167338037Y-103302815D01*
X167583207Y-103669738D01*
X167950130Y-103914908D01*
X168382945Y-104001000D01*
X168937055Y-104001000D01*
X169369870Y-103914908D01*
X169736793Y-103669738D01*
X169981963Y-103302815D01*
X170068055Y-102870000D01*
X170291945Y-102870000D01*
X170378037Y-103302815D01*
X170623207Y-103669738D01*
X170990130Y-103914908D01*
X171422945Y-104001000D01*
X171977055Y-104001000D01*
X172409870Y-103914908D01*
X172776793Y-103669738D01*
X173021963Y-103302815D01*
X173108055Y-102870000D01*
X185031945Y-102870000D01*
X185118037Y-103302815D01*
X185363207Y-103669738D01*
X185730130Y-103914908D01*
X186162945Y-104001000D01*
X186717055Y-104001000D01*
X187149870Y-103914908D01*
X187516793Y-103669738D01*
X187761963Y-103302815D01*
X187848055Y-102870000D01*
X188071945Y-102870000D01*
X188158037Y-103302815D01*
X188403207Y-103669738D01*
X188770130Y-103914908D01*
X189202945Y-104001000D01*
X189757055Y-104001000D01*
X190189870Y-103914908D01*
X190556793Y-103669738D01*
X190801963Y-103302815D01*
X190888055Y-102870000D01*
X202811945Y-102870000D01*
X202898037Y-103302815D01*
X203143207Y-103669738D01*
X203510130Y-103914908D01*
X203942945Y-104001000D01*
X204497055Y-104001000D01*
X204929870Y-103914908D01*
X205296793Y-103669738D01*
X205541963Y-103302815D01*
X205628055Y-102870000D01*
X205851945Y-102870000D01*
X205938037Y-103302815D01*
X206183207Y-103669738D01*
X206550130Y-103914908D01*
X206982945Y-104001000D01*
X207537055Y-104001000D01*
X207969870Y-103914908D01*
X208336793Y-103669738D01*
X208581963Y-103302815D01*
X208668055Y-102870000D01*
X220591945Y-102870000D01*
X220678037Y-103302815D01*
X220923207Y-103669738D01*
X221290130Y-103914908D01*
X221722945Y-104001000D01*
X222277055Y-104001000D01*
X222709870Y-103914908D01*
X223076793Y-103669738D01*
X223321963Y-103302815D01*
X223408055Y-102870000D01*
X223631945Y-102870000D01*
X223718037Y-103302815D01*
X223963207Y-103669738D01*
X224330130Y-103914908D01*
X224762945Y-104001000D01*
X225317055Y-104001000D01*
X225749870Y-103914908D01*
X226116793Y-103669738D01*
X226361963Y-103302815D01*
X226448055Y-102870000D01*
X226361963Y-102437185D01*
X226116793Y-102070262D01*
X225749870Y-101825092D01*
X225317055Y-101739000D01*
X224762945Y-101739000D01*
X224330130Y-101825092D01*
X223963207Y-102070262D01*
X223718037Y-102437185D01*
X223631945Y-102870000D01*
X223408055Y-102870000D01*
X223321963Y-102437185D01*
X223076793Y-102070262D01*
X222709870Y-101825092D01*
X222277055Y-101739000D01*
X221722945Y-101739000D01*
X221290130Y-101825092D01*
X220923207Y-102070262D01*
X220678037Y-102437185D01*
X220591945Y-102870000D01*
X208668055Y-102870000D01*
X208581963Y-102437185D01*
X208336793Y-102070262D01*
X207969870Y-101825092D01*
X207537055Y-101739000D01*
X206982945Y-101739000D01*
X206550130Y-101825092D01*
X206183207Y-102070262D01*
X205938037Y-102437185D01*
X205851945Y-102870000D01*
X205628055Y-102870000D01*
X205541963Y-102437185D01*
X205296793Y-102070262D01*
X204929870Y-101825092D01*
X204497055Y-101739000D01*
X203942945Y-101739000D01*
X203510130Y-101825092D01*
X203143207Y-102070262D01*
X202898037Y-102437185D01*
X202811945Y-102870000D01*
X190888055Y-102870000D01*
X190801963Y-102437185D01*
X190556793Y-102070262D01*
X190189870Y-101825092D01*
X189757055Y-101739000D01*
X189202945Y-101739000D01*
X188770130Y-101825092D01*
X188403207Y-102070262D01*
X188158037Y-102437185D01*
X188071945Y-102870000D01*
X187848055Y-102870000D01*
X187761963Y-102437185D01*
X187516793Y-102070262D01*
X187149870Y-101825092D01*
X186717055Y-101739000D01*
X186162945Y-101739000D01*
X185730130Y-101825092D01*
X185363207Y-102070262D01*
X185118037Y-102437185D01*
X185031945Y-102870000D01*
X173108055Y-102870000D01*
X173021963Y-102437185D01*
X172776793Y-102070262D01*
X172409870Y-101825092D01*
X171977055Y-101739000D01*
X171422945Y-101739000D01*
X170990130Y-101825092D01*
X170623207Y-102070262D01*
X170378037Y-102437185D01*
X170291945Y-102870000D01*
X170068055Y-102870000D01*
X169981963Y-102437185D01*
X169736793Y-102070262D01*
X169369870Y-101825092D01*
X168937055Y-101739000D01*
X168382945Y-101739000D01*
X167950130Y-101825092D01*
X167583207Y-102070262D01*
X167338037Y-102437185D01*
X167251945Y-102870000D01*
X155328055Y-102870000D01*
X155241963Y-102437185D01*
X154996793Y-102070262D01*
X154629870Y-101825092D01*
X154197055Y-101739000D01*
X153642945Y-101739000D01*
X153210130Y-101825092D01*
X152843207Y-102070262D01*
X152598037Y-102437185D01*
X152511945Y-102870000D01*
X152288055Y-102870000D01*
X152201963Y-102437185D01*
X151956793Y-102070262D01*
X151589870Y-101825092D01*
X151157055Y-101739000D01*
X150602945Y-101739000D01*
X150170130Y-101825092D01*
X149803207Y-102070262D01*
X149558037Y-102437185D01*
X149471945Y-102870000D01*
X137548055Y-102870000D01*
X137461963Y-102437185D01*
X137216793Y-102070262D01*
X136849870Y-101825092D01*
X136417055Y-101739000D01*
X135862945Y-101739000D01*
X135430130Y-101825092D01*
X135063207Y-102070262D01*
X134818037Y-102437185D01*
X134731945Y-102870000D01*
X134508055Y-102870000D01*
X134421963Y-102437185D01*
X134176793Y-102070262D01*
X133809870Y-101825092D01*
X133377055Y-101739000D01*
X132822945Y-101739000D01*
X132390130Y-101825092D01*
X132023207Y-102070262D01*
X131778037Y-102437185D01*
X131691945Y-102870000D01*
X119768055Y-102870000D01*
X119681963Y-102437185D01*
X119436793Y-102070262D01*
X119069870Y-101825092D01*
X118637055Y-101739000D01*
X118082945Y-101739000D01*
X117650130Y-101825092D01*
X117283207Y-102070262D01*
X117038037Y-102437185D01*
X116951945Y-102870000D01*
X116728055Y-102870000D01*
X116641963Y-102437185D01*
X116396793Y-102070262D01*
X116029870Y-101825092D01*
X115597055Y-101739000D01*
X115042945Y-101739000D01*
X114610130Y-101825092D01*
X114243207Y-102070262D01*
X113998037Y-102437185D01*
X113911945Y-102870000D01*
X101988055Y-102870000D01*
X101901963Y-102437185D01*
X101656793Y-102070262D01*
X101289870Y-101825092D01*
X100857055Y-101739000D01*
X100302945Y-101739000D01*
X99870130Y-101825092D01*
X99503207Y-102070262D01*
X99258037Y-102437185D01*
X99171945Y-102870000D01*
X98948055Y-102870000D01*
X98861963Y-102437185D01*
X98616793Y-102070262D01*
X98249870Y-101825092D01*
X97817055Y-101739000D01*
X97262945Y-101739000D01*
X96830130Y-101825092D01*
X96463207Y-102070262D01*
X96218037Y-102437185D01*
X96131945Y-102870000D01*
X87950961Y-102870000D01*
X87932664Y-102532560D01*
X87785042Y-102176169D01*
X87549275Y-102114331D01*
X86793605Y-102870000D01*
X86434395Y-102870000D01*
X85678725Y-102114331D01*
X85442958Y-102176169D01*
X85266581Y-102677122D01*
X46454000Y-102677122D01*
X46454000Y-101934725D01*
X85858331Y-101934725D01*
X86614000Y-102690395D01*
X87369669Y-101934725D01*
X87307831Y-101698958D01*
X86806878Y-101522581D01*
X86276560Y-101551336D01*
X85920169Y-101698958D01*
X85858331Y-101934725D01*
X46454000Y-101934725D01*
X46454000Y-101822691D01*
X46357327Y-101589302D01*
X46178699Y-101410673D01*
X45945310Y-101314000D01*
X44354750Y-101314000D01*
X44196000Y-101472750D01*
X43942000Y-101472750D01*
X43783250Y-101314000D01*
X42192690Y-101314000D01*
X41959301Y-101410673D01*
X41780673Y-101589302D01*
X41684000Y-101822691D01*
X38556000Y-101822691D01*
X38556000Y-99239000D01*
X41896251Y-99239000D01*
X42020403Y-99863157D01*
X42373960Y-100392291D01*
X42903094Y-100745848D01*
X43527251Y-100870000D01*
X52780000Y-100870000D01*
X52940396Y-100838095D01*
X53158963Y-100838286D01*
X53362744Y-100754085D01*
X53404157Y-100745848D01*
X53438958Y-100722595D01*
X53765995Y-100587466D01*
X53809455Y-100544081D01*
X85532813Y-100544081D01*
X85697038Y-100941537D01*
X86000863Y-101245893D01*
X86398032Y-101410812D01*
X86828081Y-101411187D01*
X87225537Y-101246962D01*
X87529893Y-100943137D01*
X87694812Y-100545968D01*
X87695000Y-100330000D01*
X96131945Y-100330000D01*
X96218037Y-100762815D01*
X96463207Y-101129738D01*
X96830130Y-101374908D01*
X97262945Y-101461000D01*
X97817055Y-101461000D01*
X98249870Y-101374908D01*
X98616793Y-101129738D01*
X98861963Y-100762815D01*
X98948055Y-100330000D01*
X99171945Y-100330000D01*
X99258037Y-100762815D01*
X99503207Y-101129738D01*
X99870130Y-101374908D01*
X100302945Y-101461000D01*
X100857055Y-101461000D01*
X101289870Y-101374908D01*
X101656793Y-101129738D01*
X101901963Y-100762815D01*
X101988055Y-100330000D01*
X113911945Y-100330000D01*
X113998037Y-100762815D01*
X114243207Y-101129738D01*
X114610130Y-101374908D01*
X115042945Y-101461000D01*
X115597055Y-101461000D01*
X116029870Y-101374908D01*
X116396793Y-101129738D01*
X116641963Y-100762815D01*
X116728055Y-100330000D01*
X116951945Y-100330000D01*
X117038037Y-100762815D01*
X117283207Y-101129738D01*
X117650130Y-101374908D01*
X118082945Y-101461000D01*
X118637055Y-101461000D01*
X119069870Y-101374908D01*
X119436793Y-101129738D01*
X119681963Y-100762815D01*
X119768055Y-100330000D01*
X131691945Y-100330000D01*
X131778037Y-100762815D01*
X132023207Y-101129738D01*
X132390130Y-101374908D01*
X132822945Y-101461000D01*
X133377055Y-101461000D01*
X133809870Y-101374908D01*
X134176793Y-101129738D01*
X134421963Y-100762815D01*
X134508055Y-100330000D01*
X134731945Y-100330000D01*
X134818037Y-100762815D01*
X135063207Y-101129738D01*
X135430130Y-101374908D01*
X135862945Y-101461000D01*
X136417055Y-101461000D01*
X136849870Y-101374908D01*
X137216793Y-101129738D01*
X137461963Y-100762815D01*
X137548055Y-100330000D01*
X149471945Y-100330000D01*
X149558037Y-100762815D01*
X149803207Y-101129738D01*
X150170130Y-101374908D01*
X150602945Y-101461000D01*
X151157055Y-101461000D01*
X151589870Y-101374908D01*
X151956793Y-101129738D01*
X152201963Y-100762815D01*
X152288055Y-100330000D01*
X152511945Y-100330000D01*
X152598037Y-100762815D01*
X152843207Y-101129738D01*
X153210130Y-101374908D01*
X153642945Y-101461000D01*
X154197055Y-101461000D01*
X154629870Y-101374908D01*
X154996793Y-101129738D01*
X155241963Y-100762815D01*
X155328055Y-100330000D01*
X167251945Y-100330000D01*
X167338037Y-100762815D01*
X167583207Y-101129738D01*
X167950130Y-101374908D01*
X168382945Y-101461000D01*
X168937055Y-101461000D01*
X169369870Y-101374908D01*
X169736793Y-101129738D01*
X169981963Y-100762815D01*
X170068055Y-100330000D01*
X170291945Y-100330000D01*
X170378037Y-100762815D01*
X170623207Y-101129738D01*
X170990130Y-101374908D01*
X171422945Y-101461000D01*
X171977055Y-101461000D01*
X172409870Y-101374908D01*
X172776793Y-101129738D01*
X173021963Y-100762815D01*
X173108055Y-100330000D01*
X185031945Y-100330000D01*
X185118037Y-100762815D01*
X185363207Y-101129738D01*
X185730130Y-101374908D01*
X186162945Y-101461000D01*
X186717055Y-101461000D01*
X187149870Y-101374908D01*
X187516793Y-101129738D01*
X187761963Y-100762815D01*
X187848055Y-100330000D01*
X188071945Y-100330000D01*
X188158037Y-100762815D01*
X188403207Y-101129738D01*
X188770130Y-101374908D01*
X189202945Y-101461000D01*
X189757055Y-101461000D01*
X190189870Y-101374908D01*
X190556793Y-101129738D01*
X190801963Y-100762815D01*
X190888055Y-100330000D01*
X202811945Y-100330000D01*
X202898037Y-100762815D01*
X203143207Y-101129738D01*
X203510130Y-101374908D01*
X203942945Y-101461000D01*
X204497055Y-101461000D01*
X204929870Y-101374908D01*
X205296793Y-101129738D01*
X205541963Y-100762815D01*
X205628055Y-100330000D01*
X205851945Y-100330000D01*
X205938037Y-100762815D01*
X206183207Y-101129738D01*
X206550130Y-101374908D01*
X206982945Y-101461000D01*
X207537055Y-101461000D01*
X207969870Y-101374908D01*
X208336793Y-101129738D01*
X208581963Y-100762815D01*
X208668055Y-100330000D01*
X220591945Y-100330000D01*
X220678037Y-100762815D01*
X220923207Y-101129738D01*
X221290130Y-101374908D01*
X221722945Y-101461000D01*
X222277055Y-101461000D01*
X222709870Y-101374908D01*
X223076793Y-101129738D01*
X223321963Y-100762815D01*
X223408055Y-100330000D01*
X223631945Y-100330000D01*
X223718037Y-100762815D01*
X223963207Y-101129738D01*
X224330130Y-101374908D01*
X224762945Y-101461000D01*
X225317055Y-101461000D01*
X225749870Y-101374908D01*
X226116793Y-101129738D01*
X226361963Y-100762815D01*
X226448055Y-100330000D01*
X226361963Y-99897185D01*
X226116793Y-99530262D01*
X225749870Y-99285092D01*
X225317055Y-99199000D01*
X224762945Y-99199000D01*
X224330130Y-99285092D01*
X223963207Y-99530262D01*
X223718037Y-99897185D01*
X223631945Y-100330000D01*
X223408055Y-100330000D01*
X223321963Y-99897185D01*
X223076793Y-99530262D01*
X222709870Y-99285092D01*
X222277055Y-99199000D01*
X221722945Y-99199000D01*
X221290130Y-99285092D01*
X220923207Y-99530262D01*
X220678037Y-99897185D01*
X220591945Y-100330000D01*
X208668055Y-100330000D01*
X208581963Y-99897185D01*
X208336793Y-99530262D01*
X207969870Y-99285092D01*
X207537055Y-99199000D01*
X206982945Y-99199000D01*
X206550130Y-99285092D01*
X206183207Y-99530262D01*
X205938037Y-99897185D01*
X205851945Y-100330000D01*
X205628055Y-100330000D01*
X205541963Y-99897185D01*
X205296793Y-99530262D01*
X204929870Y-99285092D01*
X204497055Y-99199000D01*
X203942945Y-99199000D01*
X203510130Y-99285092D01*
X203143207Y-99530262D01*
X202898037Y-99897185D01*
X202811945Y-100330000D01*
X190888055Y-100330000D01*
X190801963Y-99897185D01*
X190556793Y-99530262D01*
X190189870Y-99285092D01*
X189757055Y-99199000D01*
X189202945Y-99199000D01*
X188770130Y-99285092D01*
X188403207Y-99530262D01*
X188158037Y-99897185D01*
X188071945Y-100330000D01*
X187848055Y-100330000D01*
X187761963Y-99897185D01*
X187516793Y-99530262D01*
X187149870Y-99285092D01*
X186717055Y-99199000D01*
X186162945Y-99199000D01*
X185730130Y-99285092D01*
X185363207Y-99530262D01*
X185118037Y-99897185D01*
X185031945Y-100330000D01*
X173108055Y-100330000D01*
X173021963Y-99897185D01*
X172776793Y-99530262D01*
X172409870Y-99285092D01*
X171977055Y-99199000D01*
X171422945Y-99199000D01*
X170990130Y-99285092D01*
X170623207Y-99530262D01*
X170378037Y-99897185D01*
X170291945Y-100330000D01*
X170068055Y-100330000D01*
X169981963Y-99897185D01*
X169736793Y-99530262D01*
X169369870Y-99285092D01*
X168937055Y-99199000D01*
X168382945Y-99199000D01*
X167950130Y-99285092D01*
X167583207Y-99530262D01*
X167338037Y-99897185D01*
X167251945Y-100330000D01*
X155328055Y-100330000D01*
X155241963Y-99897185D01*
X154996793Y-99530262D01*
X154629870Y-99285092D01*
X154197055Y-99199000D01*
X153642945Y-99199000D01*
X153210130Y-99285092D01*
X152843207Y-99530262D01*
X152598037Y-99897185D01*
X152511945Y-100330000D01*
X152288055Y-100330000D01*
X152201963Y-99897185D01*
X151956793Y-99530262D01*
X151589870Y-99285092D01*
X151157055Y-99199000D01*
X150602945Y-99199000D01*
X150170130Y-99285092D01*
X149803207Y-99530262D01*
X149558037Y-99897185D01*
X149471945Y-100330000D01*
X137548055Y-100330000D01*
X137461963Y-99897185D01*
X137216793Y-99530262D01*
X136849870Y-99285092D01*
X136417055Y-99199000D01*
X135862945Y-99199000D01*
X135430130Y-99285092D01*
X135063207Y-99530262D01*
X134818037Y-99897185D01*
X134731945Y-100330000D01*
X134508055Y-100330000D01*
X134421963Y-99897185D01*
X134176793Y-99530262D01*
X133809870Y-99285092D01*
X133377055Y-99199000D01*
X132822945Y-99199000D01*
X132390130Y-99285092D01*
X132023207Y-99530262D01*
X131778037Y-99897185D01*
X131691945Y-100330000D01*
X119768055Y-100330000D01*
X119681963Y-99897185D01*
X119436793Y-99530262D01*
X119069870Y-99285092D01*
X118637055Y-99199000D01*
X118082945Y-99199000D01*
X117650130Y-99285092D01*
X117283207Y-99530262D01*
X117038037Y-99897185D01*
X116951945Y-100330000D01*
X116728055Y-100330000D01*
X116641963Y-99897185D01*
X116396793Y-99530262D01*
X116029870Y-99285092D01*
X115597055Y-99199000D01*
X115042945Y-99199000D01*
X114610130Y-99285092D01*
X114243207Y-99530262D01*
X113998037Y-99897185D01*
X113911945Y-100330000D01*
X101988055Y-100330000D01*
X101901963Y-99897185D01*
X101656793Y-99530262D01*
X101289870Y-99285092D01*
X100857055Y-99199000D01*
X100302945Y-99199000D01*
X99870130Y-99285092D01*
X99503207Y-99530262D01*
X99258037Y-99897185D01*
X99171945Y-100330000D01*
X98948055Y-100330000D01*
X98861963Y-99897185D01*
X98616793Y-99530262D01*
X98249870Y-99285092D01*
X97817055Y-99199000D01*
X97262945Y-99199000D01*
X96830130Y-99285092D01*
X96463207Y-99530262D01*
X96218037Y-99897185D01*
X96131945Y-100330000D01*
X87695000Y-100330000D01*
X87695187Y-100115919D01*
X87530962Y-99718463D01*
X87227137Y-99414107D01*
X86829968Y-99249188D01*
X86399919Y-99248813D01*
X86002463Y-99413038D01*
X85698107Y-99716863D01*
X85533188Y-100114032D01*
X85532813Y-100544081D01*
X53809455Y-100544081D01*
X54230834Y-100123437D01*
X54482713Y-99516845D01*
X54483286Y-98860037D01*
X54232466Y-98253005D01*
X53974688Y-97994777D01*
X71983828Y-97994777D01*
X72115520Y-98289657D01*
X72823036Y-98561261D01*
X73580632Y-98541436D01*
X74188480Y-98289657D01*
X74320172Y-97994777D01*
X73152000Y-96826605D01*
X71983828Y-97994777D01*
X53974688Y-97994777D01*
X53768437Y-97788166D01*
X53161845Y-97536287D01*
X52505037Y-97535714D01*
X52330091Y-97608000D01*
X43527251Y-97608000D01*
X42903094Y-97732152D01*
X42373960Y-98085709D01*
X42020403Y-98614843D01*
X41896251Y-99239000D01*
X38556000Y-99239000D01*
X38556000Y-96318036D01*
X71237739Y-96318036D01*
X71257564Y-97075632D01*
X71509343Y-97683480D01*
X71804223Y-97815172D01*
X72972395Y-96647000D01*
X73331605Y-96647000D01*
X74499777Y-97815172D01*
X74556141Y-97790000D01*
X96131945Y-97790000D01*
X96218037Y-98222815D01*
X96463207Y-98589738D01*
X96830130Y-98834908D01*
X97262945Y-98921000D01*
X97817055Y-98921000D01*
X98249870Y-98834908D01*
X98616793Y-98589738D01*
X98861963Y-98222815D01*
X98948055Y-97790000D01*
X99171945Y-97790000D01*
X99258037Y-98222815D01*
X99503207Y-98589738D01*
X99870130Y-98834908D01*
X100302945Y-98921000D01*
X100857055Y-98921000D01*
X101289870Y-98834908D01*
X101656793Y-98589738D01*
X101901963Y-98222815D01*
X101988055Y-97790000D01*
X113911945Y-97790000D01*
X113998037Y-98222815D01*
X114243207Y-98589738D01*
X114610130Y-98834908D01*
X115042945Y-98921000D01*
X115597055Y-98921000D01*
X116029870Y-98834908D01*
X116396793Y-98589738D01*
X116641963Y-98222815D01*
X116728055Y-97790000D01*
X116951945Y-97790000D01*
X117038037Y-98222815D01*
X117283207Y-98589738D01*
X117650130Y-98834908D01*
X118082945Y-98921000D01*
X118637055Y-98921000D01*
X119069870Y-98834908D01*
X119436793Y-98589738D01*
X119681963Y-98222815D01*
X119768055Y-97790000D01*
X131691945Y-97790000D01*
X131778037Y-98222815D01*
X132023207Y-98589738D01*
X132390130Y-98834908D01*
X132822945Y-98921000D01*
X133377055Y-98921000D01*
X133809870Y-98834908D01*
X134176793Y-98589738D01*
X134421963Y-98222815D01*
X134508055Y-97790000D01*
X134731945Y-97790000D01*
X134818037Y-98222815D01*
X135063207Y-98589738D01*
X135430130Y-98834908D01*
X135862945Y-98921000D01*
X136417055Y-98921000D01*
X136849870Y-98834908D01*
X137216793Y-98589738D01*
X137461963Y-98222815D01*
X137548055Y-97790000D01*
X149471945Y-97790000D01*
X149558037Y-98222815D01*
X149803207Y-98589738D01*
X150170130Y-98834908D01*
X150602945Y-98921000D01*
X151157055Y-98921000D01*
X151589870Y-98834908D01*
X151956793Y-98589738D01*
X152201963Y-98222815D01*
X152288055Y-97790000D01*
X152511945Y-97790000D01*
X152598037Y-98222815D01*
X152843207Y-98589738D01*
X153210130Y-98834908D01*
X153642945Y-98921000D01*
X154197055Y-98921000D01*
X154629870Y-98834908D01*
X154996793Y-98589738D01*
X155241963Y-98222815D01*
X155328055Y-97790000D01*
X167251945Y-97790000D01*
X167338037Y-98222815D01*
X167583207Y-98589738D01*
X167950130Y-98834908D01*
X168382945Y-98921000D01*
X168937055Y-98921000D01*
X169369870Y-98834908D01*
X169736793Y-98589738D01*
X169981963Y-98222815D01*
X170068055Y-97790000D01*
X170291945Y-97790000D01*
X170378037Y-98222815D01*
X170623207Y-98589738D01*
X170990130Y-98834908D01*
X171422945Y-98921000D01*
X171977055Y-98921000D01*
X172409870Y-98834908D01*
X172776793Y-98589738D01*
X173021963Y-98222815D01*
X173108055Y-97790000D01*
X185031945Y-97790000D01*
X185118037Y-98222815D01*
X185363207Y-98589738D01*
X185730130Y-98834908D01*
X186162945Y-98921000D01*
X186717055Y-98921000D01*
X187149870Y-98834908D01*
X187516793Y-98589738D01*
X187761963Y-98222815D01*
X187848055Y-97790000D01*
X188071945Y-97790000D01*
X188158037Y-98222815D01*
X188403207Y-98589738D01*
X188770130Y-98834908D01*
X189202945Y-98921000D01*
X189757055Y-98921000D01*
X190189870Y-98834908D01*
X190556793Y-98589738D01*
X190801963Y-98222815D01*
X190888055Y-97790000D01*
X202811945Y-97790000D01*
X202898037Y-98222815D01*
X203143207Y-98589738D01*
X203510130Y-98834908D01*
X203942945Y-98921000D01*
X204497055Y-98921000D01*
X204929870Y-98834908D01*
X205296793Y-98589738D01*
X205541963Y-98222815D01*
X205628055Y-97790000D01*
X205851945Y-97790000D01*
X205938037Y-98222815D01*
X206183207Y-98589738D01*
X206550130Y-98834908D01*
X206982945Y-98921000D01*
X207537055Y-98921000D01*
X207969870Y-98834908D01*
X208336793Y-98589738D01*
X208581963Y-98222815D01*
X208668055Y-97790000D01*
X220591945Y-97790000D01*
X220678037Y-98222815D01*
X220923207Y-98589738D01*
X221290130Y-98834908D01*
X221722945Y-98921000D01*
X222277055Y-98921000D01*
X222709870Y-98834908D01*
X223076793Y-98589738D01*
X223321963Y-98222815D01*
X223408055Y-97790000D01*
X223631945Y-97790000D01*
X223718037Y-98222815D01*
X223963207Y-98589738D01*
X224330130Y-98834908D01*
X224762945Y-98921000D01*
X225317055Y-98921000D01*
X225749870Y-98834908D01*
X226116793Y-98589738D01*
X226361963Y-98222815D01*
X226448055Y-97790000D01*
X226361963Y-97357185D01*
X226116793Y-96990262D01*
X225749870Y-96745092D01*
X225317055Y-96659000D01*
X224762945Y-96659000D01*
X224330130Y-96745092D01*
X223963207Y-96990262D01*
X223718037Y-97357185D01*
X223631945Y-97790000D01*
X223408055Y-97790000D01*
X223321963Y-97357185D01*
X223076793Y-96990262D01*
X222709870Y-96745092D01*
X222277055Y-96659000D01*
X221722945Y-96659000D01*
X221290130Y-96745092D01*
X220923207Y-96990262D01*
X220678037Y-97357185D01*
X220591945Y-97790000D01*
X208668055Y-97790000D01*
X208581963Y-97357185D01*
X208336793Y-96990262D01*
X207969870Y-96745092D01*
X207537055Y-96659000D01*
X206982945Y-96659000D01*
X206550130Y-96745092D01*
X206183207Y-96990262D01*
X205938037Y-97357185D01*
X205851945Y-97790000D01*
X205628055Y-97790000D01*
X205541963Y-97357185D01*
X205296793Y-96990262D01*
X204929870Y-96745092D01*
X204497055Y-96659000D01*
X203942945Y-96659000D01*
X203510130Y-96745092D01*
X203143207Y-96990262D01*
X202898037Y-97357185D01*
X202811945Y-97790000D01*
X190888055Y-97790000D01*
X190801963Y-97357185D01*
X190556793Y-96990262D01*
X190189870Y-96745092D01*
X189757055Y-96659000D01*
X189202945Y-96659000D01*
X188770130Y-96745092D01*
X188403207Y-96990262D01*
X188158037Y-97357185D01*
X188071945Y-97790000D01*
X187848055Y-97790000D01*
X187761963Y-97357185D01*
X187516793Y-96990262D01*
X187149870Y-96745092D01*
X186717055Y-96659000D01*
X186162945Y-96659000D01*
X185730130Y-96745092D01*
X185363207Y-96990262D01*
X185118037Y-97357185D01*
X185031945Y-97790000D01*
X173108055Y-97790000D01*
X173021963Y-97357185D01*
X172776793Y-96990262D01*
X172409870Y-96745092D01*
X171977055Y-96659000D01*
X171422945Y-96659000D01*
X170990130Y-96745092D01*
X170623207Y-96990262D01*
X170378037Y-97357185D01*
X170291945Y-97790000D01*
X170068055Y-97790000D01*
X169981963Y-97357185D01*
X169736793Y-96990262D01*
X169369870Y-96745092D01*
X168937055Y-96659000D01*
X168382945Y-96659000D01*
X167950130Y-96745092D01*
X167583207Y-96990262D01*
X167338037Y-97357185D01*
X167251945Y-97790000D01*
X155328055Y-97790000D01*
X155241963Y-97357185D01*
X154996793Y-96990262D01*
X154629870Y-96745092D01*
X154197055Y-96659000D01*
X153642945Y-96659000D01*
X153210130Y-96745092D01*
X152843207Y-96990262D01*
X152598037Y-97357185D01*
X152511945Y-97790000D01*
X152288055Y-97790000D01*
X152201963Y-97357185D01*
X151956793Y-96990262D01*
X151589870Y-96745092D01*
X151157055Y-96659000D01*
X150602945Y-96659000D01*
X150170130Y-96745092D01*
X149803207Y-96990262D01*
X149558037Y-97357185D01*
X149471945Y-97790000D01*
X137548055Y-97790000D01*
X137461963Y-97357185D01*
X137216793Y-96990262D01*
X136849870Y-96745092D01*
X136417055Y-96659000D01*
X135862945Y-96659000D01*
X135430130Y-96745092D01*
X135063207Y-96990262D01*
X134818037Y-97357185D01*
X134731945Y-97790000D01*
X134508055Y-97790000D01*
X134421963Y-97357185D01*
X134176793Y-96990262D01*
X133809870Y-96745092D01*
X133377055Y-96659000D01*
X132822945Y-96659000D01*
X132390130Y-96745092D01*
X132023207Y-96990262D01*
X131778037Y-97357185D01*
X131691945Y-97790000D01*
X119768055Y-97790000D01*
X119681963Y-97357185D01*
X119436793Y-96990262D01*
X119069870Y-96745092D01*
X118637055Y-96659000D01*
X118082945Y-96659000D01*
X117650130Y-96745092D01*
X117283207Y-96990262D01*
X117038037Y-97357185D01*
X116951945Y-97790000D01*
X116728055Y-97790000D01*
X116641963Y-97357185D01*
X116396793Y-96990262D01*
X116029870Y-96745092D01*
X115597055Y-96659000D01*
X115042945Y-96659000D01*
X114610130Y-96745092D01*
X114243207Y-96990262D01*
X113998037Y-97357185D01*
X113911945Y-97790000D01*
X101988055Y-97790000D01*
X101901963Y-97357185D01*
X101656793Y-96990262D01*
X101289870Y-96745092D01*
X100857055Y-96659000D01*
X100302945Y-96659000D01*
X99870130Y-96745092D01*
X99503207Y-96990262D01*
X99258037Y-97357185D01*
X99171945Y-97790000D01*
X98948055Y-97790000D01*
X98861963Y-97357185D01*
X98616793Y-96990262D01*
X98249870Y-96745092D01*
X97817055Y-96659000D01*
X97262945Y-96659000D01*
X96830130Y-96745092D01*
X96463207Y-96990262D01*
X96218037Y-97357185D01*
X96131945Y-97790000D01*
X74556141Y-97790000D01*
X74794657Y-97683480D01*
X75066261Y-96975964D01*
X75046436Y-96218368D01*
X74794657Y-95610520D01*
X74751363Y-95591185D01*
X95947682Y-95591185D01*
X95966519Y-95694235D01*
X96237264Y-96166894D01*
X96668279Y-96499964D01*
X97193945Y-96642739D01*
X97413000Y-96481868D01*
X97413000Y-95377000D01*
X97667000Y-95377000D01*
X97667000Y-96481868D01*
X97886055Y-96642739D01*
X98411721Y-96499964D01*
X98842736Y-96166894D01*
X99060000Y-95787601D01*
X99277264Y-96166894D01*
X99708279Y-96499964D01*
X100233945Y-96642739D01*
X100453000Y-96481868D01*
X100453000Y-95377000D01*
X100707000Y-95377000D01*
X100707000Y-96481868D01*
X100926055Y-96642739D01*
X101451721Y-96499964D01*
X101882736Y-96166894D01*
X102153481Y-95694235D01*
X102172318Y-95591185D01*
X113727682Y-95591185D01*
X113746519Y-95694235D01*
X114017264Y-96166894D01*
X114448279Y-96499964D01*
X114973945Y-96642739D01*
X115193000Y-96481868D01*
X115193000Y-95377000D01*
X115447000Y-95377000D01*
X115447000Y-96481868D01*
X115666055Y-96642739D01*
X116191721Y-96499964D01*
X116622736Y-96166894D01*
X116840000Y-95787601D01*
X117057264Y-96166894D01*
X117488279Y-96499964D01*
X118013945Y-96642739D01*
X118233000Y-96481868D01*
X118233000Y-95377000D01*
X118487000Y-95377000D01*
X118487000Y-96481868D01*
X118706055Y-96642739D01*
X119231721Y-96499964D01*
X119662736Y-96166894D01*
X119933481Y-95694235D01*
X119952318Y-95591185D01*
X131507682Y-95591185D01*
X131526519Y-95694235D01*
X131797264Y-96166894D01*
X132228279Y-96499964D01*
X132753945Y-96642739D01*
X132973000Y-96481868D01*
X132973000Y-95377000D01*
X133227000Y-95377000D01*
X133227000Y-96481868D01*
X133446055Y-96642739D01*
X133971721Y-96499964D01*
X134402736Y-96166894D01*
X134620000Y-95787601D01*
X134837264Y-96166894D01*
X135268279Y-96499964D01*
X135793945Y-96642739D01*
X136013000Y-96481868D01*
X136013000Y-95377000D01*
X136267000Y-95377000D01*
X136267000Y-96481868D01*
X136486055Y-96642739D01*
X137011721Y-96499964D01*
X137442736Y-96166894D01*
X137713481Y-95694235D01*
X137732318Y-95591185D01*
X149287682Y-95591185D01*
X149306519Y-95694235D01*
X149577264Y-96166894D01*
X150008279Y-96499964D01*
X150533945Y-96642739D01*
X150753000Y-96481868D01*
X150753000Y-95377000D01*
X151007000Y-95377000D01*
X151007000Y-96481868D01*
X151226055Y-96642739D01*
X151751721Y-96499964D01*
X152182736Y-96166894D01*
X152400000Y-95787601D01*
X152617264Y-96166894D01*
X153048279Y-96499964D01*
X153573945Y-96642739D01*
X153793000Y-96481868D01*
X153793000Y-95377000D01*
X154047000Y-95377000D01*
X154047000Y-96481868D01*
X154266055Y-96642739D01*
X154791721Y-96499964D01*
X155222736Y-96166894D01*
X155493481Y-95694235D01*
X155512318Y-95591185D01*
X167067682Y-95591185D01*
X167086519Y-95694235D01*
X167357264Y-96166894D01*
X167788279Y-96499964D01*
X168313945Y-96642739D01*
X168533000Y-96481868D01*
X168533000Y-95377000D01*
X168787000Y-95377000D01*
X168787000Y-96481868D01*
X169006055Y-96642739D01*
X169531721Y-96499964D01*
X169962736Y-96166894D01*
X170180000Y-95787601D01*
X170397264Y-96166894D01*
X170828279Y-96499964D01*
X171353945Y-96642739D01*
X171573000Y-96481868D01*
X171573000Y-95377000D01*
X171827000Y-95377000D01*
X171827000Y-96481868D01*
X172046055Y-96642739D01*
X172571721Y-96499964D01*
X173002736Y-96166894D01*
X173273481Y-95694235D01*
X173292318Y-95591185D01*
X184847682Y-95591185D01*
X184866519Y-95694235D01*
X185137264Y-96166894D01*
X185568279Y-96499964D01*
X186093945Y-96642739D01*
X186313000Y-96481868D01*
X186313000Y-95377000D01*
X186567000Y-95377000D01*
X186567000Y-96481868D01*
X186786055Y-96642739D01*
X187311721Y-96499964D01*
X187742736Y-96166894D01*
X187960000Y-95787601D01*
X188177264Y-96166894D01*
X188608279Y-96499964D01*
X189133945Y-96642739D01*
X189353000Y-96481868D01*
X189353000Y-95377000D01*
X189607000Y-95377000D01*
X189607000Y-96481868D01*
X189826055Y-96642739D01*
X190351721Y-96499964D01*
X190782736Y-96166894D01*
X191053481Y-95694235D01*
X191072318Y-95591185D01*
X202627682Y-95591185D01*
X202646519Y-95694235D01*
X202917264Y-96166894D01*
X203348279Y-96499964D01*
X203873945Y-96642739D01*
X204093000Y-96481868D01*
X204093000Y-95377000D01*
X204347000Y-95377000D01*
X204347000Y-96481868D01*
X204566055Y-96642739D01*
X205091721Y-96499964D01*
X205522736Y-96166894D01*
X205740000Y-95787601D01*
X205957264Y-96166894D01*
X206388279Y-96499964D01*
X206913945Y-96642739D01*
X207133000Y-96481868D01*
X207133000Y-95377000D01*
X207387000Y-95377000D01*
X207387000Y-96481868D01*
X207606055Y-96642739D01*
X208131721Y-96499964D01*
X208562736Y-96166894D01*
X208833481Y-95694235D01*
X208852318Y-95591185D01*
X220407682Y-95591185D01*
X220426519Y-95694235D01*
X220697264Y-96166894D01*
X221128279Y-96499964D01*
X221653945Y-96642739D01*
X221873000Y-96481868D01*
X221873000Y-95377000D01*
X222127000Y-95377000D01*
X222127000Y-96481868D01*
X222346055Y-96642739D01*
X222871721Y-96499964D01*
X223302736Y-96166894D01*
X223520000Y-95787601D01*
X223737264Y-96166894D01*
X224168279Y-96499964D01*
X224693945Y-96642739D01*
X224913000Y-96481868D01*
X224913000Y-95377000D01*
X225167000Y-95377000D01*
X225167000Y-96481868D01*
X225386055Y-96642739D01*
X225911721Y-96499964D01*
X226342736Y-96166894D01*
X226613481Y-95694235D01*
X226632318Y-95591185D01*
X226509656Y-95377000D01*
X225167000Y-95377000D01*
X224913000Y-95377000D01*
X223570344Y-95377000D01*
X223520000Y-95464908D01*
X223469656Y-95377000D01*
X222127000Y-95377000D01*
X221873000Y-95377000D01*
X220530344Y-95377000D01*
X220407682Y-95591185D01*
X208852318Y-95591185D01*
X208729656Y-95377000D01*
X207387000Y-95377000D01*
X207133000Y-95377000D01*
X205790344Y-95377000D01*
X205740000Y-95464908D01*
X205689656Y-95377000D01*
X204347000Y-95377000D01*
X204093000Y-95377000D01*
X202750344Y-95377000D01*
X202627682Y-95591185D01*
X191072318Y-95591185D01*
X190949656Y-95377000D01*
X189607000Y-95377000D01*
X189353000Y-95377000D01*
X188010344Y-95377000D01*
X187960000Y-95464908D01*
X187909656Y-95377000D01*
X186567000Y-95377000D01*
X186313000Y-95377000D01*
X184970344Y-95377000D01*
X184847682Y-95591185D01*
X173292318Y-95591185D01*
X173169656Y-95377000D01*
X171827000Y-95377000D01*
X171573000Y-95377000D01*
X170230344Y-95377000D01*
X170180000Y-95464908D01*
X170129656Y-95377000D01*
X168787000Y-95377000D01*
X168533000Y-95377000D01*
X167190344Y-95377000D01*
X167067682Y-95591185D01*
X155512318Y-95591185D01*
X155389656Y-95377000D01*
X154047000Y-95377000D01*
X153793000Y-95377000D01*
X152450344Y-95377000D01*
X152400000Y-95464908D01*
X152349656Y-95377000D01*
X151007000Y-95377000D01*
X150753000Y-95377000D01*
X149410344Y-95377000D01*
X149287682Y-95591185D01*
X137732318Y-95591185D01*
X137609656Y-95377000D01*
X136267000Y-95377000D01*
X136013000Y-95377000D01*
X134670344Y-95377000D01*
X134620000Y-95464908D01*
X134569656Y-95377000D01*
X133227000Y-95377000D01*
X132973000Y-95377000D01*
X131630344Y-95377000D01*
X131507682Y-95591185D01*
X119952318Y-95591185D01*
X119829656Y-95377000D01*
X118487000Y-95377000D01*
X118233000Y-95377000D01*
X116890344Y-95377000D01*
X116840000Y-95464908D01*
X116789656Y-95377000D01*
X115447000Y-95377000D01*
X115193000Y-95377000D01*
X113850344Y-95377000D01*
X113727682Y-95591185D01*
X102172318Y-95591185D01*
X102049656Y-95377000D01*
X100707000Y-95377000D01*
X100453000Y-95377000D01*
X99110344Y-95377000D01*
X99060000Y-95464908D01*
X99009656Y-95377000D01*
X97667000Y-95377000D01*
X97413000Y-95377000D01*
X96070344Y-95377000D01*
X95947682Y-95591185D01*
X74751363Y-95591185D01*
X74499777Y-95478828D01*
X73331605Y-96647000D01*
X72972395Y-96647000D01*
X71804223Y-95478828D01*
X71509343Y-95610520D01*
X71237739Y-96318036D01*
X38556000Y-96318036D01*
X38556000Y-95454777D01*
X51663828Y-95454777D01*
X51795520Y-95749657D01*
X52503036Y-96021261D01*
X53260632Y-96001436D01*
X53868480Y-95749657D01*
X54000172Y-95454777D01*
X53844618Y-95299223D01*
X71983828Y-95299223D01*
X73152000Y-96467395D01*
X74320172Y-95299223D01*
X74188480Y-95004343D01*
X73480964Y-94732739D01*
X72723368Y-94752564D01*
X72115520Y-95004343D01*
X71983828Y-95299223D01*
X53844618Y-95299223D01*
X52832000Y-94286605D01*
X51663828Y-95454777D01*
X38556000Y-95454777D01*
X38556000Y-93778036D01*
X50917739Y-93778036D01*
X50937564Y-94535632D01*
X51189343Y-95143480D01*
X51484223Y-95275172D01*
X52652395Y-94107000D01*
X53011605Y-94107000D01*
X54179777Y-95275172D01*
X54474657Y-95143480D01*
X54746261Y-94435964D01*
X54726436Y-93678368D01*
X54474657Y-93070520D01*
X54431363Y-93051185D01*
X95947682Y-93051185D01*
X95966519Y-93154235D01*
X96237264Y-93626894D01*
X96668279Y-93959964D01*
X96742047Y-93980000D01*
X96668279Y-94000036D01*
X96237264Y-94333106D01*
X95966519Y-94805765D01*
X95947682Y-94908815D01*
X96070344Y-95123000D01*
X97413000Y-95123000D01*
X97413000Y-94018132D01*
X97361076Y-93980000D01*
X97413000Y-93941868D01*
X97413000Y-92837000D01*
X97667000Y-92837000D01*
X97667000Y-93941868D01*
X97718924Y-93980000D01*
X97667000Y-94018132D01*
X97667000Y-95123000D01*
X99009656Y-95123000D01*
X99060000Y-95035092D01*
X99110344Y-95123000D01*
X100453000Y-95123000D01*
X100453000Y-94018132D01*
X100401076Y-93980000D01*
X100453000Y-93941868D01*
X100453000Y-92837000D01*
X100707000Y-92837000D01*
X100707000Y-93941868D01*
X100758924Y-93980000D01*
X100707000Y-94018132D01*
X100707000Y-95123000D01*
X102049656Y-95123000D01*
X102172318Y-94908815D01*
X102153481Y-94805765D01*
X101882736Y-94333106D01*
X101451721Y-94000036D01*
X101377953Y-93980000D01*
X101451721Y-93959964D01*
X101882736Y-93626894D01*
X102153481Y-93154235D01*
X102172318Y-93051185D01*
X113727682Y-93051185D01*
X113746519Y-93154235D01*
X114017264Y-93626894D01*
X114448279Y-93959964D01*
X114522047Y-93980000D01*
X114448279Y-94000036D01*
X114017264Y-94333106D01*
X113746519Y-94805765D01*
X113727682Y-94908815D01*
X113850344Y-95123000D01*
X115193000Y-95123000D01*
X115193000Y-94018132D01*
X115141076Y-93980000D01*
X115193000Y-93941868D01*
X115193000Y-92837000D01*
X115447000Y-92837000D01*
X115447000Y-93941868D01*
X115498924Y-93980000D01*
X115447000Y-94018132D01*
X115447000Y-95123000D01*
X116789656Y-95123000D01*
X116840000Y-95035092D01*
X116890344Y-95123000D01*
X118233000Y-95123000D01*
X118233000Y-94018132D01*
X118181076Y-93980000D01*
X118233000Y-93941868D01*
X118233000Y-92837000D01*
X118487000Y-92837000D01*
X118487000Y-93941868D01*
X118538924Y-93980000D01*
X118487000Y-94018132D01*
X118487000Y-95123000D01*
X119829656Y-95123000D01*
X119952318Y-94908815D01*
X119933481Y-94805765D01*
X119662736Y-94333106D01*
X119231721Y-94000036D01*
X119157953Y-93980000D01*
X119231721Y-93959964D01*
X119662736Y-93626894D01*
X119933481Y-93154235D01*
X119952318Y-93051185D01*
X131507682Y-93051185D01*
X131526519Y-93154235D01*
X131797264Y-93626894D01*
X132228279Y-93959964D01*
X132302047Y-93980000D01*
X132228279Y-94000036D01*
X131797264Y-94333106D01*
X131526519Y-94805765D01*
X131507682Y-94908815D01*
X131630344Y-95123000D01*
X132973000Y-95123000D01*
X132973000Y-94018132D01*
X132921076Y-93980000D01*
X132973000Y-93941868D01*
X132973000Y-92837000D01*
X133227000Y-92837000D01*
X133227000Y-93941868D01*
X133278924Y-93980000D01*
X133227000Y-94018132D01*
X133227000Y-95123000D01*
X134569656Y-95123000D01*
X134620000Y-95035092D01*
X134670344Y-95123000D01*
X136013000Y-95123000D01*
X136013000Y-94018132D01*
X135961076Y-93980000D01*
X136013000Y-93941868D01*
X136013000Y-92837000D01*
X136267000Y-92837000D01*
X136267000Y-93941868D01*
X136318924Y-93980000D01*
X136267000Y-94018132D01*
X136267000Y-95123000D01*
X137609656Y-95123000D01*
X137732318Y-94908815D01*
X137713481Y-94805765D01*
X137442736Y-94333106D01*
X137011721Y-94000036D01*
X136937953Y-93980000D01*
X137011721Y-93959964D01*
X137442736Y-93626894D01*
X137713481Y-93154235D01*
X137732318Y-93051185D01*
X149287682Y-93051185D01*
X149306519Y-93154235D01*
X149577264Y-93626894D01*
X150008279Y-93959964D01*
X150082047Y-93980000D01*
X150008279Y-94000036D01*
X149577264Y-94333106D01*
X149306519Y-94805765D01*
X149287682Y-94908815D01*
X149410344Y-95123000D01*
X150753000Y-95123000D01*
X150753000Y-94018132D01*
X150701076Y-93980000D01*
X150753000Y-93941868D01*
X150753000Y-92837000D01*
X151007000Y-92837000D01*
X151007000Y-93941868D01*
X151058924Y-93980000D01*
X151007000Y-94018132D01*
X151007000Y-95123000D01*
X152349656Y-95123000D01*
X152400000Y-95035092D01*
X152450344Y-95123000D01*
X153793000Y-95123000D01*
X153793000Y-94018132D01*
X153741076Y-93980000D01*
X153793000Y-93941868D01*
X153793000Y-92837000D01*
X154047000Y-92837000D01*
X154047000Y-93941868D01*
X154098924Y-93980000D01*
X154047000Y-94018132D01*
X154047000Y-95123000D01*
X155389656Y-95123000D01*
X155512318Y-94908815D01*
X155493481Y-94805765D01*
X155222736Y-94333106D01*
X154791721Y-94000036D01*
X154717953Y-93980000D01*
X154791721Y-93959964D01*
X155222736Y-93626894D01*
X155493481Y-93154235D01*
X155512318Y-93051185D01*
X167067682Y-93051185D01*
X167086519Y-93154235D01*
X167357264Y-93626894D01*
X167788279Y-93959964D01*
X167862047Y-93980000D01*
X167788279Y-94000036D01*
X167357264Y-94333106D01*
X167086519Y-94805765D01*
X167067682Y-94908815D01*
X167190344Y-95123000D01*
X168533000Y-95123000D01*
X168533000Y-94018132D01*
X168481076Y-93980000D01*
X168533000Y-93941868D01*
X168533000Y-92837000D01*
X168787000Y-92837000D01*
X168787000Y-93941868D01*
X168838924Y-93980000D01*
X168787000Y-94018132D01*
X168787000Y-95123000D01*
X170129656Y-95123000D01*
X170180000Y-95035092D01*
X170230344Y-95123000D01*
X171573000Y-95123000D01*
X171573000Y-94018132D01*
X171521076Y-93980000D01*
X171573000Y-93941868D01*
X171573000Y-92837000D01*
X171827000Y-92837000D01*
X171827000Y-93941868D01*
X171878924Y-93980000D01*
X171827000Y-94018132D01*
X171827000Y-95123000D01*
X173169656Y-95123000D01*
X173292318Y-94908815D01*
X173273481Y-94805765D01*
X173002736Y-94333106D01*
X172571721Y-94000036D01*
X172497953Y-93980000D01*
X172571721Y-93959964D01*
X173002736Y-93626894D01*
X173273481Y-93154235D01*
X173292318Y-93051185D01*
X184847682Y-93051185D01*
X184866519Y-93154235D01*
X185137264Y-93626894D01*
X185568279Y-93959964D01*
X185642047Y-93980000D01*
X185568279Y-94000036D01*
X185137264Y-94333106D01*
X184866519Y-94805765D01*
X184847682Y-94908815D01*
X184970344Y-95123000D01*
X186313000Y-95123000D01*
X186313000Y-94018132D01*
X186261076Y-93980000D01*
X186313000Y-93941868D01*
X186313000Y-92837000D01*
X186567000Y-92837000D01*
X186567000Y-93941868D01*
X186618924Y-93980000D01*
X186567000Y-94018132D01*
X186567000Y-95123000D01*
X187909656Y-95123000D01*
X187960000Y-95035092D01*
X188010344Y-95123000D01*
X189353000Y-95123000D01*
X189353000Y-94018132D01*
X189301076Y-93980000D01*
X189353000Y-93941868D01*
X189353000Y-92837000D01*
X189607000Y-92837000D01*
X189607000Y-93941868D01*
X189658924Y-93980000D01*
X189607000Y-94018132D01*
X189607000Y-95123000D01*
X190949656Y-95123000D01*
X191072318Y-94908815D01*
X191053481Y-94805765D01*
X190782736Y-94333106D01*
X190351721Y-94000036D01*
X190277953Y-93980000D01*
X190351721Y-93959964D01*
X190782736Y-93626894D01*
X191053481Y-93154235D01*
X191072318Y-93051185D01*
X202627682Y-93051185D01*
X202646519Y-93154235D01*
X202917264Y-93626894D01*
X203348279Y-93959964D01*
X203422047Y-93980000D01*
X203348279Y-94000036D01*
X202917264Y-94333106D01*
X202646519Y-94805765D01*
X202627682Y-94908815D01*
X202750344Y-95123000D01*
X204093000Y-95123000D01*
X204093000Y-94018132D01*
X204041076Y-93980000D01*
X204093000Y-93941868D01*
X204093000Y-92837000D01*
X204347000Y-92837000D01*
X204347000Y-93941868D01*
X204398924Y-93980000D01*
X204347000Y-94018132D01*
X204347000Y-95123000D01*
X205689656Y-95123000D01*
X205740000Y-95035092D01*
X205790344Y-95123000D01*
X207133000Y-95123000D01*
X207133000Y-94018132D01*
X207081076Y-93980000D01*
X207133000Y-93941868D01*
X207133000Y-92837000D01*
X207387000Y-92837000D01*
X207387000Y-93941868D01*
X207438924Y-93980000D01*
X207387000Y-94018132D01*
X207387000Y-95123000D01*
X208729656Y-95123000D01*
X208852318Y-94908815D01*
X208833481Y-94805765D01*
X208562736Y-94333106D01*
X208131721Y-94000036D01*
X208057953Y-93980000D01*
X208131721Y-93959964D01*
X208562736Y-93626894D01*
X208833481Y-93154235D01*
X208852318Y-93051185D01*
X220407682Y-93051185D01*
X220426519Y-93154235D01*
X220697264Y-93626894D01*
X221128279Y-93959964D01*
X221202047Y-93980000D01*
X221128279Y-94000036D01*
X220697264Y-94333106D01*
X220426519Y-94805765D01*
X220407682Y-94908815D01*
X220530344Y-95123000D01*
X221873000Y-95123000D01*
X221873000Y-94018132D01*
X221821076Y-93980000D01*
X221873000Y-93941868D01*
X221873000Y-92837000D01*
X222127000Y-92837000D01*
X222127000Y-93941868D01*
X222178924Y-93980000D01*
X222127000Y-94018132D01*
X222127000Y-95123000D01*
X223469656Y-95123000D01*
X223520000Y-95035092D01*
X223570344Y-95123000D01*
X224913000Y-95123000D01*
X224913000Y-94018132D01*
X224861076Y-93980000D01*
X224913000Y-93941868D01*
X224913000Y-92837000D01*
X225167000Y-92837000D01*
X225167000Y-93941868D01*
X225218924Y-93980000D01*
X225167000Y-94018132D01*
X225167000Y-95123000D01*
X226509656Y-95123000D01*
X226632318Y-94908815D01*
X226613481Y-94805765D01*
X226342736Y-94333106D01*
X225911721Y-94000036D01*
X225837953Y-93980000D01*
X225911721Y-93959964D01*
X226342736Y-93626894D01*
X226613481Y-93154235D01*
X226632318Y-93051185D01*
X226509656Y-92837000D01*
X225167000Y-92837000D01*
X224913000Y-92837000D01*
X223570344Y-92837000D01*
X223520000Y-92924908D01*
X223469656Y-92837000D01*
X222127000Y-92837000D01*
X221873000Y-92837000D01*
X220530344Y-92837000D01*
X220407682Y-93051185D01*
X208852318Y-93051185D01*
X208729656Y-92837000D01*
X207387000Y-92837000D01*
X207133000Y-92837000D01*
X205790344Y-92837000D01*
X205740000Y-92924908D01*
X205689656Y-92837000D01*
X204347000Y-92837000D01*
X204093000Y-92837000D01*
X202750344Y-92837000D01*
X202627682Y-93051185D01*
X191072318Y-93051185D01*
X190949656Y-92837000D01*
X189607000Y-92837000D01*
X189353000Y-92837000D01*
X188010344Y-92837000D01*
X187960000Y-92924908D01*
X187909656Y-92837000D01*
X186567000Y-92837000D01*
X186313000Y-92837000D01*
X184970344Y-92837000D01*
X184847682Y-93051185D01*
X173292318Y-93051185D01*
X173169656Y-92837000D01*
X171827000Y-92837000D01*
X171573000Y-92837000D01*
X170230344Y-92837000D01*
X170180000Y-92924908D01*
X170129656Y-92837000D01*
X168787000Y-92837000D01*
X168533000Y-92837000D01*
X167190344Y-92837000D01*
X167067682Y-93051185D01*
X155512318Y-93051185D01*
X155389656Y-92837000D01*
X154047000Y-92837000D01*
X153793000Y-92837000D01*
X152450344Y-92837000D01*
X152400000Y-92924908D01*
X152349656Y-92837000D01*
X151007000Y-92837000D01*
X150753000Y-92837000D01*
X149410344Y-92837000D01*
X149287682Y-93051185D01*
X137732318Y-93051185D01*
X137609656Y-92837000D01*
X136267000Y-92837000D01*
X136013000Y-92837000D01*
X134670344Y-92837000D01*
X134620000Y-92924908D01*
X134569656Y-92837000D01*
X133227000Y-92837000D01*
X132973000Y-92837000D01*
X131630344Y-92837000D01*
X131507682Y-93051185D01*
X119952318Y-93051185D01*
X119829656Y-92837000D01*
X118487000Y-92837000D01*
X118233000Y-92837000D01*
X116890344Y-92837000D01*
X116840000Y-92924908D01*
X116789656Y-92837000D01*
X115447000Y-92837000D01*
X115193000Y-92837000D01*
X113850344Y-92837000D01*
X113727682Y-93051185D01*
X102172318Y-93051185D01*
X102049656Y-92837000D01*
X100707000Y-92837000D01*
X100453000Y-92837000D01*
X99110344Y-92837000D01*
X99060000Y-92924908D01*
X99009656Y-92837000D01*
X97667000Y-92837000D01*
X97413000Y-92837000D01*
X96070344Y-92837000D01*
X95947682Y-93051185D01*
X54431363Y-93051185D01*
X54179777Y-92938828D01*
X53011605Y-94107000D01*
X52652395Y-94107000D01*
X51484223Y-92938828D01*
X51189343Y-93070520D01*
X50917739Y-93778036D01*
X38556000Y-93778036D01*
X38556000Y-92759223D01*
X51663828Y-92759223D01*
X52832000Y-93927395D01*
X54000172Y-92759223D01*
X53868480Y-92464343D01*
X53160964Y-92192739D01*
X52403368Y-92212564D01*
X51795520Y-92464343D01*
X51663828Y-92759223D01*
X38556000Y-92759223D01*
X38556000Y-90511185D01*
X95947682Y-90511185D01*
X95966519Y-90614235D01*
X96237264Y-91086894D01*
X96668279Y-91419964D01*
X96742047Y-91440000D01*
X96668279Y-91460036D01*
X96237264Y-91793106D01*
X95966519Y-92265765D01*
X95947682Y-92368815D01*
X96070344Y-92583000D01*
X97413000Y-92583000D01*
X97413000Y-91478132D01*
X97361076Y-91440000D01*
X97413000Y-91401868D01*
X97413000Y-90297000D01*
X97667000Y-90297000D01*
X97667000Y-91401868D01*
X97718924Y-91440000D01*
X97667000Y-91478132D01*
X97667000Y-92583000D01*
X99009656Y-92583000D01*
X99060000Y-92495092D01*
X99110344Y-92583000D01*
X100453000Y-92583000D01*
X100453000Y-91478132D01*
X100401076Y-91440000D01*
X100453000Y-91401868D01*
X100453000Y-90297000D01*
X100707000Y-90297000D01*
X100707000Y-91401868D01*
X100758924Y-91440000D01*
X100707000Y-91478132D01*
X100707000Y-92583000D01*
X102049656Y-92583000D01*
X102172318Y-92368815D01*
X102153481Y-92265765D01*
X101882736Y-91793106D01*
X101451721Y-91460036D01*
X101377953Y-91440000D01*
X101451721Y-91419964D01*
X101882736Y-91086894D01*
X102153481Y-90614235D01*
X102172318Y-90511185D01*
X113727682Y-90511185D01*
X113746519Y-90614235D01*
X114017264Y-91086894D01*
X114448279Y-91419964D01*
X114522047Y-91440000D01*
X114448279Y-91460036D01*
X114017264Y-91793106D01*
X113746519Y-92265765D01*
X113727682Y-92368815D01*
X113850344Y-92583000D01*
X115193000Y-92583000D01*
X115193000Y-91478132D01*
X115141076Y-91440000D01*
X115193000Y-91401868D01*
X115193000Y-90297000D01*
X115447000Y-90297000D01*
X115447000Y-91401868D01*
X115498924Y-91440000D01*
X115447000Y-91478132D01*
X115447000Y-92583000D01*
X116789656Y-92583000D01*
X116840000Y-92495092D01*
X116890344Y-92583000D01*
X118233000Y-92583000D01*
X118233000Y-91478132D01*
X118181076Y-91440000D01*
X118233000Y-91401868D01*
X118233000Y-90297000D01*
X118487000Y-90297000D01*
X118487000Y-91401868D01*
X118538924Y-91440000D01*
X118487000Y-91478132D01*
X118487000Y-92583000D01*
X119829656Y-92583000D01*
X119952318Y-92368815D01*
X119933481Y-92265765D01*
X119662736Y-91793106D01*
X119231721Y-91460036D01*
X119157953Y-91440000D01*
X119231721Y-91419964D01*
X119662736Y-91086894D01*
X119933481Y-90614235D01*
X119952318Y-90511185D01*
X131507682Y-90511185D01*
X131526519Y-90614235D01*
X131797264Y-91086894D01*
X132228279Y-91419964D01*
X132302047Y-91440000D01*
X132228279Y-91460036D01*
X131797264Y-91793106D01*
X131526519Y-92265765D01*
X131507682Y-92368815D01*
X131630344Y-92583000D01*
X132973000Y-92583000D01*
X132973000Y-91478132D01*
X132921076Y-91440000D01*
X132973000Y-91401868D01*
X132973000Y-90297000D01*
X133227000Y-90297000D01*
X133227000Y-91401868D01*
X133278924Y-91440000D01*
X133227000Y-91478132D01*
X133227000Y-92583000D01*
X134569656Y-92583000D01*
X134620000Y-92495092D01*
X134670344Y-92583000D01*
X136013000Y-92583000D01*
X136013000Y-91478132D01*
X135961076Y-91440000D01*
X136013000Y-91401868D01*
X136013000Y-90297000D01*
X136267000Y-90297000D01*
X136267000Y-91401868D01*
X136318924Y-91440000D01*
X136267000Y-91478132D01*
X136267000Y-92583000D01*
X137609656Y-92583000D01*
X137732318Y-92368815D01*
X137713481Y-92265765D01*
X137442736Y-91793106D01*
X137011721Y-91460036D01*
X136937953Y-91440000D01*
X137011721Y-91419964D01*
X137442736Y-91086894D01*
X137713481Y-90614235D01*
X137732318Y-90511185D01*
X149287682Y-90511185D01*
X149306519Y-90614235D01*
X149577264Y-91086894D01*
X150008279Y-91419964D01*
X150082047Y-91440000D01*
X150008279Y-91460036D01*
X149577264Y-91793106D01*
X149306519Y-92265765D01*
X149287682Y-92368815D01*
X149410344Y-92583000D01*
X150753000Y-92583000D01*
X150753000Y-91478132D01*
X150701076Y-91440000D01*
X150753000Y-91401868D01*
X150753000Y-90297000D01*
X151007000Y-90297000D01*
X151007000Y-91401868D01*
X151058924Y-91440000D01*
X151007000Y-91478132D01*
X151007000Y-92583000D01*
X152349656Y-92583000D01*
X152400000Y-92495092D01*
X152450344Y-92583000D01*
X153793000Y-92583000D01*
X153793000Y-91478132D01*
X153741076Y-91440000D01*
X153793000Y-91401868D01*
X153793000Y-90297000D01*
X154047000Y-90297000D01*
X154047000Y-91401868D01*
X154098924Y-91440000D01*
X154047000Y-91478132D01*
X154047000Y-92583000D01*
X155389656Y-92583000D01*
X155512318Y-92368815D01*
X155493481Y-92265765D01*
X155222736Y-91793106D01*
X154791721Y-91460036D01*
X154717953Y-91440000D01*
X154791721Y-91419964D01*
X155222736Y-91086894D01*
X155493481Y-90614235D01*
X155512318Y-90511185D01*
X167067682Y-90511185D01*
X167086519Y-90614235D01*
X167357264Y-91086894D01*
X167788279Y-91419964D01*
X167862047Y-91440000D01*
X167788279Y-91460036D01*
X167357264Y-91793106D01*
X167086519Y-92265765D01*
X167067682Y-92368815D01*
X167190344Y-92583000D01*
X168533000Y-92583000D01*
X168533000Y-91478132D01*
X168481076Y-91440000D01*
X168533000Y-91401868D01*
X168533000Y-90297000D01*
X168787000Y-90297000D01*
X168787000Y-91401868D01*
X168838924Y-91440000D01*
X168787000Y-91478132D01*
X168787000Y-92583000D01*
X170129656Y-92583000D01*
X170180000Y-92495092D01*
X170230344Y-92583000D01*
X171573000Y-92583000D01*
X171573000Y-91478132D01*
X171521076Y-91440000D01*
X171573000Y-91401868D01*
X171573000Y-90297000D01*
X171827000Y-90297000D01*
X171827000Y-91401868D01*
X171878924Y-91440000D01*
X171827000Y-91478132D01*
X171827000Y-92583000D01*
X173169656Y-92583000D01*
X173292318Y-92368815D01*
X173273481Y-92265765D01*
X173002736Y-91793106D01*
X172571721Y-91460036D01*
X172497953Y-91440000D01*
X172571721Y-91419964D01*
X173002736Y-91086894D01*
X173273481Y-90614235D01*
X173292318Y-90511185D01*
X184847682Y-90511185D01*
X184866519Y-90614235D01*
X185137264Y-91086894D01*
X185568279Y-91419964D01*
X185642047Y-91440000D01*
X185568279Y-91460036D01*
X185137264Y-91793106D01*
X184866519Y-92265765D01*
X184847682Y-92368815D01*
X184970344Y-92583000D01*
X186313000Y-92583000D01*
X186313000Y-91478132D01*
X186261076Y-91440000D01*
X186313000Y-91401868D01*
X186313000Y-90297000D01*
X186567000Y-90297000D01*
X186567000Y-91401868D01*
X186618924Y-91440000D01*
X186567000Y-91478132D01*
X186567000Y-92583000D01*
X187909656Y-92583000D01*
X187960000Y-92495092D01*
X188010344Y-92583000D01*
X189353000Y-92583000D01*
X189353000Y-91478132D01*
X189301076Y-91440000D01*
X189353000Y-91401868D01*
X189353000Y-90297000D01*
X189607000Y-90297000D01*
X189607000Y-91401868D01*
X189658924Y-91440000D01*
X189607000Y-91478132D01*
X189607000Y-92583000D01*
X190949656Y-92583000D01*
X191072318Y-92368815D01*
X191053481Y-92265765D01*
X190782736Y-91793106D01*
X190351721Y-91460036D01*
X190277953Y-91440000D01*
X190351721Y-91419964D01*
X190782736Y-91086894D01*
X191053481Y-90614235D01*
X191072318Y-90511185D01*
X202627682Y-90511185D01*
X202646519Y-90614235D01*
X202917264Y-91086894D01*
X203348279Y-91419964D01*
X203422047Y-91440000D01*
X203348279Y-91460036D01*
X202917264Y-91793106D01*
X202646519Y-92265765D01*
X202627682Y-92368815D01*
X202750344Y-92583000D01*
X204093000Y-92583000D01*
X204093000Y-91478132D01*
X204041076Y-91440000D01*
X204093000Y-91401868D01*
X204093000Y-90297000D01*
X204347000Y-90297000D01*
X204347000Y-91401868D01*
X204398924Y-91440000D01*
X204347000Y-91478132D01*
X204347000Y-92583000D01*
X205689656Y-92583000D01*
X205740000Y-92495092D01*
X205790344Y-92583000D01*
X207133000Y-92583000D01*
X207133000Y-91478132D01*
X207081076Y-91440000D01*
X207133000Y-91401868D01*
X207133000Y-90297000D01*
X207387000Y-90297000D01*
X207387000Y-91401868D01*
X207438924Y-91440000D01*
X207387000Y-91478132D01*
X207387000Y-92583000D01*
X208729656Y-92583000D01*
X208852318Y-92368815D01*
X208833481Y-92265765D01*
X208562736Y-91793106D01*
X208131721Y-91460036D01*
X208057953Y-91440000D01*
X208131721Y-91419964D01*
X208562736Y-91086894D01*
X208833481Y-90614235D01*
X208852318Y-90511185D01*
X220407682Y-90511185D01*
X220426519Y-90614235D01*
X220697264Y-91086894D01*
X221128279Y-91419964D01*
X221202047Y-91440000D01*
X221128279Y-91460036D01*
X220697264Y-91793106D01*
X220426519Y-92265765D01*
X220407682Y-92368815D01*
X220530344Y-92583000D01*
X221873000Y-92583000D01*
X221873000Y-91478132D01*
X221821076Y-91440000D01*
X221873000Y-91401868D01*
X221873000Y-90297000D01*
X222127000Y-90297000D01*
X222127000Y-91401868D01*
X222178924Y-91440000D01*
X222127000Y-91478132D01*
X222127000Y-92583000D01*
X223469656Y-92583000D01*
X223520000Y-92495092D01*
X223570344Y-92583000D01*
X224913000Y-92583000D01*
X224913000Y-91478132D01*
X224861076Y-91440000D01*
X224913000Y-91401868D01*
X224913000Y-90297000D01*
X225167000Y-90297000D01*
X225167000Y-91401868D01*
X225218924Y-91440000D01*
X225167000Y-91478132D01*
X225167000Y-92583000D01*
X226509656Y-92583000D01*
X226632318Y-92368815D01*
X226613481Y-92265765D01*
X226342736Y-91793106D01*
X225911721Y-91460036D01*
X225837953Y-91440000D01*
X225911721Y-91419964D01*
X226342736Y-91086894D01*
X226613481Y-90614235D01*
X226632318Y-90511185D01*
X226509656Y-90297000D01*
X225167000Y-90297000D01*
X224913000Y-90297000D01*
X223570344Y-90297000D01*
X223520000Y-90384908D01*
X223469656Y-90297000D01*
X222127000Y-90297000D01*
X221873000Y-90297000D01*
X220530344Y-90297000D01*
X220407682Y-90511185D01*
X208852318Y-90511185D01*
X208729656Y-90297000D01*
X207387000Y-90297000D01*
X207133000Y-90297000D01*
X205790344Y-90297000D01*
X205740000Y-90384908D01*
X205689656Y-90297000D01*
X204347000Y-90297000D01*
X204093000Y-90297000D01*
X202750344Y-90297000D01*
X202627682Y-90511185D01*
X191072318Y-90511185D01*
X190949656Y-90297000D01*
X189607000Y-90297000D01*
X189353000Y-90297000D01*
X188010344Y-90297000D01*
X187960000Y-90384908D01*
X187909656Y-90297000D01*
X186567000Y-90297000D01*
X186313000Y-90297000D01*
X184970344Y-90297000D01*
X184847682Y-90511185D01*
X173292318Y-90511185D01*
X173169656Y-90297000D01*
X171827000Y-90297000D01*
X171573000Y-90297000D01*
X170230344Y-90297000D01*
X170180000Y-90384908D01*
X170129656Y-90297000D01*
X168787000Y-90297000D01*
X168533000Y-90297000D01*
X167190344Y-90297000D01*
X167067682Y-90511185D01*
X155512318Y-90511185D01*
X155389656Y-90297000D01*
X154047000Y-90297000D01*
X153793000Y-90297000D01*
X152450344Y-90297000D01*
X152400000Y-90384908D01*
X152349656Y-90297000D01*
X151007000Y-90297000D01*
X150753000Y-90297000D01*
X149410344Y-90297000D01*
X149287682Y-90511185D01*
X137732318Y-90511185D01*
X137609656Y-90297000D01*
X136267000Y-90297000D01*
X136013000Y-90297000D01*
X134670344Y-90297000D01*
X134620000Y-90384908D01*
X134569656Y-90297000D01*
X133227000Y-90297000D01*
X132973000Y-90297000D01*
X131630344Y-90297000D01*
X131507682Y-90511185D01*
X119952318Y-90511185D01*
X119829656Y-90297000D01*
X118487000Y-90297000D01*
X118233000Y-90297000D01*
X116890344Y-90297000D01*
X116840000Y-90384908D01*
X116789656Y-90297000D01*
X115447000Y-90297000D01*
X115193000Y-90297000D01*
X113850344Y-90297000D01*
X113727682Y-90511185D01*
X102172318Y-90511185D01*
X102049656Y-90297000D01*
X100707000Y-90297000D01*
X100453000Y-90297000D01*
X99110344Y-90297000D01*
X99060000Y-90384908D01*
X99009656Y-90297000D01*
X97667000Y-90297000D01*
X97413000Y-90297000D01*
X96070344Y-90297000D01*
X95947682Y-90511185D01*
X38556000Y-90511185D01*
X38556000Y-89828815D01*
X95947682Y-89828815D01*
X96070344Y-90043000D01*
X97413000Y-90043000D01*
X97413000Y-88938132D01*
X97667000Y-88938132D01*
X97667000Y-90043000D01*
X99009656Y-90043000D01*
X99060000Y-89955092D01*
X99110344Y-90043000D01*
X100453000Y-90043000D01*
X100453000Y-88938132D01*
X100707000Y-88938132D01*
X100707000Y-90043000D01*
X102049656Y-90043000D01*
X102172318Y-89828815D01*
X113727682Y-89828815D01*
X113850344Y-90043000D01*
X115193000Y-90043000D01*
X115193000Y-88938132D01*
X115447000Y-88938132D01*
X115447000Y-90043000D01*
X116789656Y-90043000D01*
X116840000Y-89955092D01*
X116890344Y-90043000D01*
X118233000Y-90043000D01*
X118233000Y-88938132D01*
X118487000Y-88938132D01*
X118487000Y-90043000D01*
X119829656Y-90043000D01*
X119952318Y-89828815D01*
X131507682Y-89828815D01*
X131630344Y-90043000D01*
X132973000Y-90043000D01*
X132973000Y-88938132D01*
X133227000Y-88938132D01*
X133227000Y-90043000D01*
X134569656Y-90043000D01*
X134620000Y-89955092D01*
X134670344Y-90043000D01*
X136013000Y-90043000D01*
X136013000Y-88938132D01*
X136267000Y-88938132D01*
X136267000Y-90043000D01*
X137609656Y-90043000D01*
X137732318Y-89828815D01*
X149287682Y-89828815D01*
X149410344Y-90043000D01*
X150753000Y-90043000D01*
X150753000Y-88938132D01*
X151007000Y-88938132D01*
X151007000Y-90043000D01*
X152349656Y-90043000D01*
X152400000Y-89955092D01*
X152450344Y-90043000D01*
X153793000Y-90043000D01*
X153793000Y-88938132D01*
X154047000Y-88938132D01*
X154047000Y-90043000D01*
X155389656Y-90043000D01*
X155512318Y-89828815D01*
X167067682Y-89828815D01*
X167190344Y-90043000D01*
X168533000Y-90043000D01*
X168533000Y-88938132D01*
X168787000Y-88938132D01*
X168787000Y-90043000D01*
X170129656Y-90043000D01*
X170180000Y-89955092D01*
X170230344Y-90043000D01*
X171573000Y-90043000D01*
X171573000Y-88938132D01*
X171827000Y-88938132D01*
X171827000Y-90043000D01*
X173169656Y-90043000D01*
X173292318Y-89828815D01*
X184847682Y-89828815D01*
X184970344Y-90043000D01*
X186313000Y-90043000D01*
X186313000Y-88938132D01*
X186567000Y-88938132D01*
X186567000Y-90043000D01*
X187909656Y-90043000D01*
X187960000Y-89955092D01*
X188010344Y-90043000D01*
X189353000Y-90043000D01*
X189353000Y-88938132D01*
X189607000Y-88938132D01*
X189607000Y-90043000D01*
X190949656Y-90043000D01*
X191072318Y-89828815D01*
X202627682Y-89828815D01*
X202750344Y-90043000D01*
X204093000Y-90043000D01*
X204093000Y-88938132D01*
X204347000Y-88938132D01*
X204347000Y-90043000D01*
X205689656Y-90043000D01*
X205740000Y-89955092D01*
X205790344Y-90043000D01*
X207133000Y-90043000D01*
X207133000Y-88938132D01*
X207387000Y-88938132D01*
X207387000Y-90043000D01*
X208729656Y-90043000D01*
X208852318Y-89828815D01*
X220407682Y-89828815D01*
X220530344Y-90043000D01*
X221873000Y-90043000D01*
X221873000Y-88938132D01*
X222127000Y-88938132D01*
X222127000Y-90043000D01*
X223469656Y-90043000D01*
X223520000Y-89955092D01*
X223570344Y-90043000D01*
X224913000Y-90043000D01*
X224913000Y-88938132D01*
X225167000Y-88938132D01*
X225167000Y-90043000D01*
X226509656Y-90043000D01*
X226632318Y-89828815D01*
X226613481Y-89725765D01*
X226342736Y-89253106D01*
X225911721Y-88920036D01*
X225386055Y-88777261D01*
X225167000Y-88938132D01*
X224913000Y-88938132D01*
X224693945Y-88777261D01*
X224168279Y-88920036D01*
X223737264Y-89253106D01*
X223520000Y-89632399D01*
X223302736Y-89253106D01*
X222871721Y-88920036D01*
X222346055Y-88777261D01*
X222127000Y-88938132D01*
X221873000Y-88938132D01*
X221653945Y-88777261D01*
X221128279Y-88920036D01*
X220697264Y-89253106D01*
X220426519Y-89725765D01*
X220407682Y-89828815D01*
X208852318Y-89828815D01*
X208833481Y-89725765D01*
X208562736Y-89253106D01*
X208131721Y-88920036D01*
X207606055Y-88777261D01*
X207387000Y-88938132D01*
X207133000Y-88938132D01*
X206913945Y-88777261D01*
X206388279Y-88920036D01*
X205957264Y-89253106D01*
X205740000Y-89632399D01*
X205522736Y-89253106D01*
X205091721Y-88920036D01*
X204566055Y-88777261D01*
X204347000Y-88938132D01*
X204093000Y-88938132D01*
X203873945Y-88777261D01*
X203348279Y-88920036D01*
X202917264Y-89253106D01*
X202646519Y-89725765D01*
X202627682Y-89828815D01*
X191072318Y-89828815D01*
X191053481Y-89725765D01*
X190782736Y-89253106D01*
X190351721Y-88920036D01*
X189826055Y-88777261D01*
X189607000Y-88938132D01*
X189353000Y-88938132D01*
X189133945Y-88777261D01*
X188608279Y-88920036D01*
X188177264Y-89253106D01*
X187960000Y-89632399D01*
X187742736Y-89253106D01*
X187311721Y-88920036D01*
X186786055Y-88777261D01*
X186567000Y-88938132D01*
X186313000Y-88938132D01*
X186093945Y-88777261D01*
X185568279Y-88920036D01*
X185137264Y-89253106D01*
X184866519Y-89725765D01*
X184847682Y-89828815D01*
X173292318Y-89828815D01*
X173273481Y-89725765D01*
X173002736Y-89253106D01*
X172571721Y-88920036D01*
X172046055Y-88777261D01*
X171827000Y-88938132D01*
X171573000Y-88938132D01*
X171353945Y-88777261D01*
X170828279Y-88920036D01*
X170397264Y-89253106D01*
X170180000Y-89632399D01*
X169962736Y-89253106D01*
X169531721Y-88920036D01*
X169006055Y-88777261D01*
X168787000Y-88938132D01*
X168533000Y-88938132D01*
X168313945Y-88777261D01*
X167788279Y-88920036D01*
X167357264Y-89253106D01*
X167086519Y-89725765D01*
X167067682Y-89828815D01*
X155512318Y-89828815D01*
X155493481Y-89725765D01*
X155222736Y-89253106D01*
X154791721Y-88920036D01*
X154266055Y-88777261D01*
X154047000Y-88938132D01*
X153793000Y-88938132D01*
X153573945Y-88777261D01*
X153048279Y-88920036D01*
X152617264Y-89253106D01*
X152400000Y-89632399D01*
X152182736Y-89253106D01*
X151751721Y-88920036D01*
X151226055Y-88777261D01*
X151007000Y-88938132D01*
X150753000Y-88938132D01*
X150533945Y-88777261D01*
X150008279Y-88920036D01*
X149577264Y-89253106D01*
X149306519Y-89725765D01*
X149287682Y-89828815D01*
X137732318Y-89828815D01*
X137713481Y-89725765D01*
X137442736Y-89253106D01*
X137011721Y-88920036D01*
X136486055Y-88777261D01*
X136267000Y-88938132D01*
X136013000Y-88938132D01*
X135793945Y-88777261D01*
X135268279Y-88920036D01*
X134837264Y-89253106D01*
X134620000Y-89632399D01*
X134402736Y-89253106D01*
X133971721Y-88920036D01*
X133446055Y-88777261D01*
X133227000Y-88938132D01*
X132973000Y-88938132D01*
X132753945Y-88777261D01*
X132228279Y-88920036D01*
X131797264Y-89253106D01*
X131526519Y-89725765D01*
X131507682Y-89828815D01*
X119952318Y-89828815D01*
X119933481Y-89725765D01*
X119662736Y-89253106D01*
X119231721Y-88920036D01*
X118706055Y-88777261D01*
X118487000Y-88938132D01*
X118233000Y-88938132D01*
X118013945Y-88777261D01*
X117488279Y-88920036D01*
X117057264Y-89253106D01*
X116840000Y-89632399D01*
X116622736Y-89253106D01*
X116191721Y-88920036D01*
X115666055Y-88777261D01*
X115447000Y-88938132D01*
X115193000Y-88938132D01*
X114973945Y-88777261D01*
X114448279Y-88920036D01*
X114017264Y-89253106D01*
X113746519Y-89725765D01*
X113727682Y-89828815D01*
X102172318Y-89828815D01*
X102153481Y-89725765D01*
X101882736Y-89253106D01*
X101451721Y-88920036D01*
X100926055Y-88777261D01*
X100707000Y-88938132D01*
X100453000Y-88938132D01*
X100233945Y-88777261D01*
X99708279Y-88920036D01*
X99277264Y-89253106D01*
X99060000Y-89632399D01*
X98842736Y-89253106D01*
X98411721Y-88920036D01*
X97886055Y-88777261D01*
X97667000Y-88938132D01*
X97413000Y-88938132D01*
X97193945Y-88777261D01*
X96668279Y-88920036D01*
X96237264Y-89253106D01*
X95966519Y-89725765D01*
X95947682Y-89828815D01*
X38556000Y-89828815D01*
X38556000Y-86627000D01*
X51180877Y-86627000D01*
X51180714Y-86813963D01*
M02*
