G04 #@! TF.FileFunction,Soldermask,Bot*
%FSLAX46Y46*%
G04 Gerber Fmt 4.6, Leading zero omitted, Abs format (unit mm)*
G04 Created by KiCad (PCBNEW 4.0.2-stable) date 2017-01-08 12:52:35 PM*
%MOMM*%
G01*
G04 APERTURE LIST*
%ADD10C,0.200000*%
%ADD11C,3.322000*%
%ADD12C,2.560000*%
%ADD13C,1.420000*%
%ADD14O,2.020000X1.520000*%
%ADD15R,2.020000X1.520000*%
%ADD16O,3.520000X2.520000*%
%ADD17R,3.520000X2.520000*%
G04 APERTURE END LIST*
D10*
D11*
X107950000Y-112077500D03*
X179070000Y-112077500D03*
X179070000Y-80962500D03*
X107950000Y-80962500D03*
X43180000Y-112077500D03*
X232410000Y-112077500D03*
X232410000Y-80962500D03*
D12*
X52832000Y-99187000D03*
X52832000Y-94107000D03*
X52832000Y-86487000D03*
X73152000Y-86487000D03*
X73152000Y-96647000D03*
X73152000Y-106807000D03*
D13*
X86614000Y-102870000D03*
X86614000Y-105410000D03*
X86614000Y-100330000D03*
D14*
X136140000Y-105410000D03*
X133100000Y-105410000D03*
X133100000Y-102870000D03*
X136140000Y-102870000D03*
X136140000Y-100330000D03*
X133100000Y-100330000D03*
X133100000Y-97790000D03*
X136140000Y-97790000D03*
X136140000Y-95250000D03*
X133100000Y-95250000D03*
D15*
X133100000Y-87630000D03*
D14*
X136140000Y-87630000D03*
X133100000Y-90170000D03*
X136140000Y-90170000D03*
X133100000Y-92710000D03*
X136140000Y-92710000D03*
X118360000Y-105410000D03*
X115320000Y-105410000D03*
X115320000Y-102870000D03*
X118360000Y-102870000D03*
X118360000Y-100330000D03*
X115320000Y-100330000D03*
X115320000Y-97790000D03*
X118360000Y-97790000D03*
X118360000Y-95250000D03*
X115320000Y-95250000D03*
D15*
X115320000Y-87630000D03*
D14*
X118360000Y-87630000D03*
X115320000Y-90170000D03*
X118360000Y-90170000D03*
X115320000Y-92710000D03*
X118360000Y-92710000D03*
X153920000Y-105410000D03*
X150880000Y-105410000D03*
X150880000Y-102870000D03*
X153920000Y-102870000D03*
X153920000Y-100330000D03*
X150880000Y-100330000D03*
X150880000Y-97790000D03*
X153920000Y-97790000D03*
X153920000Y-95250000D03*
X150880000Y-95250000D03*
D15*
X150880000Y-87630000D03*
D14*
X153920000Y-87630000D03*
X150880000Y-90170000D03*
X153920000Y-90170000D03*
X150880000Y-92710000D03*
X153920000Y-92710000D03*
X171700000Y-105410000D03*
X168660000Y-105410000D03*
X168660000Y-102870000D03*
X171700000Y-102870000D03*
X171700000Y-100330000D03*
X168660000Y-100330000D03*
X168660000Y-97790000D03*
X171700000Y-97790000D03*
X171700000Y-95250000D03*
X168660000Y-95250000D03*
D15*
X168660000Y-87630000D03*
D14*
X171700000Y-87630000D03*
X168660000Y-90170000D03*
X171700000Y-90170000D03*
X168660000Y-92710000D03*
X171700000Y-92710000D03*
X189480000Y-105410000D03*
X186440000Y-105410000D03*
X186440000Y-102870000D03*
X189480000Y-102870000D03*
X189480000Y-100330000D03*
X186440000Y-100330000D03*
X186440000Y-97790000D03*
X189480000Y-97790000D03*
X189480000Y-95250000D03*
X186440000Y-95250000D03*
D15*
X186440000Y-87630000D03*
D14*
X189480000Y-87630000D03*
X186440000Y-90170000D03*
X189480000Y-90170000D03*
X186440000Y-92710000D03*
X189480000Y-92710000D03*
X225040000Y-105410000D03*
X222000000Y-105410000D03*
X222000000Y-102870000D03*
X225040000Y-102870000D03*
X225040000Y-100330000D03*
X222000000Y-100330000D03*
X222000000Y-97790000D03*
X225040000Y-97790000D03*
X225040000Y-95250000D03*
X222000000Y-95250000D03*
D15*
X222000000Y-87630000D03*
D14*
X225040000Y-87630000D03*
X222000000Y-90170000D03*
X225040000Y-90170000D03*
X222000000Y-92710000D03*
X225040000Y-92710000D03*
X207260000Y-105410000D03*
X204220000Y-105410000D03*
X204220000Y-102870000D03*
X207260000Y-102870000D03*
X207260000Y-100330000D03*
X204220000Y-100330000D03*
X204220000Y-97790000D03*
X207260000Y-97790000D03*
X207260000Y-95250000D03*
X204220000Y-95250000D03*
D15*
X204220000Y-87630000D03*
D14*
X207260000Y-87630000D03*
X204220000Y-90170000D03*
X207260000Y-90170000D03*
X204220000Y-92710000D03*
X207260000Y-92710000D03*
X100580000Y-105410000D03*
X97540000Y-105410000D03*
X97540000Y-102870000D03*
X100580000Y-102870000D03*
X100580000Y-100330000D03*
X97540000Y-100330000D03*
X97540000Y-97790000D03*
X100580000Y-97790000D03*
X100580000Y-95250000D03*
X97540000Y-95250000D03*
D15*
X97540000Y-87630000D03*
D14*
X100580000Y-87630000D03*
X97540000Y-90170000D03*
X100580000Y-90170000D03*
X97540000Y-92710000D03*
X100580000Y-92710000D03*
D11*
X43180000Y-80962500D03*
D16*
X44069000Y-99239000D03*
D17*
X44069000Y-103199000D03*
M02*
